<svg xmlns="http://www.w3.org/2000/svg" width="506" height="494" viewBox="0 0 506 494">
<g>
<path d="M 227.66 264.13 C226.11,263.78 224.29,262.49 223.63,261.25 C222.97,260.02 220.43,257.99 217.99,256.75 C214.21,254.84 213.41,253.89 212.69,250.50 C211.39,244.36 212.49,236.04 215.98,225.57 C220.49,212.02 220.62,211.90 232.48,210.90 C237.90,210.45 242.65,209.72 243.05,209.29 C243.45,208.85 244.98,199.36 246.46,188.19 C248.81,170.44 248.97,167.59 247.74,165.69 C245.56,162.31 245.06,159.14 246.18,155.91 C247.45,152.27 249.69,151.00 254.86,151.00 C257.98,151.00 259.31,151.57 260.93,153.63 C263.44,156.83 263.48,157.88 261.29,164.05 C259.64,168.68 259.67,169.61 262.04,189.18 L 264.50 209.50 L 275.00 210.20 C283.81,210.78 285.76,211.21 287.13,212.91 C289.62,215.98 295.87,236.18 296.52,243.24 C297.22,250.84 295.99,253.60 290.55,256.65 C288.40,257.86 286.03,260.00 285.29,261.41 C282.70,266.36 274.61,266.07 272.68,260.95 L 271.56 258.00 L 254.28 258.00 C239.59,258.00 237.00,258.22 237.00,259.50 C237.00,261.38 233.43,265.04 231.75,264.88 C231.06,264.82 229.22,264.48 227.66,264.13 ZM 294.21 317.07 C287.71,314.03 287.00,311.42 287.00,290.60 C287.00,280.99 287.43,271.99 287.96,270.61 C288.50,269.18 290.74,267.15 293.11,265.94 C296.87,264.03 298.60,263.84 309.95,264.15 C324.29,264.55 326.58,265.42 329.65,271.71 C331.14,274.77 332.40,275.79 336.18,277.00 C347.39,280.59 351.76,290.11 346.75,300.04 C344.99,303.53 343.32,305.10 339.07,307.25 C336.08,308.76 332.67,310.00 331.48,310.00 C330.16,310.00 328.89,310.95 328.20,312.45 C326.24,316.76 321.60,318.32 309.50,318.72 C300.08,319.03 297.88,318.79 294.21,317.07 ZM 291.59 237.74 C292.49,236.84 287.50,219.49 285.40,216.25 L 283.95 214.00 L 224.04 214.00 L 222.17 217.75 C219.17,223.78 215.65,235.65 216.33,237.43 C216.91,238.92 220.42,239.04 253.90,238.79 C274.21,238.63 291.18,238.16 291.59,237.74 ZM 286.68 254.11 C288.43,254.05 290.56,253.29 291.43,252.43 C293.54,250.32 293.53,243.42 291.42,242.61 C290.55,242.27 273.22,242.00 252.92,242.00 C224.09,242.00 215.98,242.27 215.93,243.25 C215.88,243.94 215.68,245.41 215.47,246.52 C215.26,247.63 215.64,249.65 216.32,251.02 C217.37,253.14 218.41,253.57 223.52,254.00 C228.44,254.41 275.22,254.49 286.68,254.11 ZM 339.63 304.08 C343.60,301.66 346.52,294.58 345.59,289.62 C344.87,285.78 339.58,280.43 335.48,279.40 C328.81,277.73 322.12,281.51 319.47,288.43 C317.30,294.13 318.67,298.76 323.80,302.99 C328.24,306.65 334.70,307.09 339.63,304.08 ZM 206.76 343.60 C198.32,340.54 194.00,334.83 194.00,326.75 C194.00,317.55 198.97,311.88 209.50,309.07 C212.37,308.31 214.27,306.90 216.25,304.09 C222.14,295.71 235.85,292.41 244.50,297.29 C246.80,298.59 250.04,301.84 252.14,304.96 C255.26,309.62 256.53,310.63 261.14,312.13 C274.18,316.38 277.78,330.55 268.05,339.33 C263.89,343.10 257.25,345.69 254.49,344.64 C251.63,343.54 253.47,341.56 258.08,340.77 C263.88,339.78 267.18,337.22 268.90,332.36 C271.67,324.53 267.61,316.69 260.14,315.44 C253.64,314.34 252.99,313.92 250.53,309.06 C247.35,302.79 243.07,299.28 237.59,298.46 C228.87,297.15 221.59,300.44 217.41,307.56 C215.31,311.15 214.19,312.04 211.17,312.52 C202.37,313.93 198.27,317.59 197.29,324.91 C196.86,328.05 197.31,329.86 199.41,333.43 C202.53,338.77 204.60,340.05 211.43,340.88 C214.99,341.32 216.50,341.95 216.50,343.00 C216.50,345.02 211.51,345.33 206.76,343.60 ZM 260.63 208.51 C261.43,206.43 256.85,171.17 255.56,169.44 C254.98,168.67 253.97,168.37 253.32,168.79 C252.29,169.43 249.71,185.26 247.52,204.25 L 246.86 210.00 L 253.46 210.00 C258.39,210.00 260.21,209.62 260.63,208.51 ZM 321.75 276.03 C331.37,271.66 324.46,266.52 308.97,266.51 C295.67,266.50 287.78,270.08 292.49,273.99 C297.63,278.26 314.28,279.42 321.75,276.03 ZM 322.72 313.36 C329.42,308.36 325.33,306.00 309.97,306.00 C302.21,306.00 297.86,305.53 294.98,304.37 C292.74,303.48 290.66,303.01 290.35,303.32 C290.03,303.63 290.17,305.60 290.65,307.70 C291.37,310.83 292.32,311.91 296.01,313.82 C299.99,315.87 301.61,316.09 310.22,315.78 C318.14,315.50 320.46,315.05 322.72,313.36 ZM 316.80 286.47 C318.01,283.98 319.00,281.68 319.00,281.34 C319.00,281.01 316.77,281.04 314.05,281.40 C311.33,281.76 306.04,281.53 302.30,280.88 C292.33,279.16 290.61,279.22 290.19,281.30 C289.14,286.57 297.19,290.80 308.55,290.93 L 314.60 291.00 ZM 317.27 302.40 C318.08,301.58 315.97,296.79 314.12,295.25 C313.29,294.56 310.55,294.00 308.02,294.00 C305.49,294.00 300.83,293.33 297.66,292.50 C289.82,290.46 289.73,290.48 290.54,294.25 C291.41,298.35 292.72,299.97 296.50,301.61 C299.49,302.92 316.12,303.55 317.27,302.40 ZM 184.43 207.86 C176.79,200.45 170.51,195.11 170.04,195.61 C169.57,196.10 169.03,197.40 168.83,198.50 C168.63,199.60 167.80,200.50 166.99,200.50 C165.80,200.50 165.57,199.29 165.84,194.50 C166.03,191.20 166.52,188.14 166.94,187.70 C168.03,186.55 180.52,187.30 180.39,188.50 C180.32,189.05 178.64,189.96 176.64,190.52 L 173.01 191.54 L 186.50 205.00 C198.87,217.35 201.73,221.00 198.99,221.00 C198.44,221.00 191.89,215.09 184.43,207.86 ZM 228.67 351.33 C228.30,350.97 228.00,348.07 228.00,344.90 C228.00,340.01 227.70,339.04 226.00,338.50 C223.14,337.59 223.47,336.41 228.12,330.86 C234.76,322.92 235.35,322.86 241.62,329.49 C247.57,335.78 248.32,338.00 244.50,338.00 C242.14,338.00 242.00,338.31 242.00,343.42 C242.00,349.43 241.25,352.27 239.90,351.44 C238.57,350.62 238.81,338.51 240.21,335.43 C241.29,333.06 241.17,332.56 239.10,330.88 C235.91,328.29 233.54,328.52 231.51,331.62 C230.08,333.80 230.00,334.63 231.02,336.54 C231.87,338.12 232.03,340.89 231.55,345.42 C230.88,351.61 230.25,352.91 228.67,351.33 ZM 309.00 219.39 C309.00,218.50 314.88,211.93 322.06,204.79 C329.25,197.64 334.99,191.68 334.81,191.53 C334.64,191.39 333.26,190.87 331.75,190.39 C330.24,189.90 328.89,189.05 328.75,188.50 C328.44,187.25 334.28,186.64 338.68,187.47 L 342.00 188.09 L 342.00 194.60 C342.00,198.69 341.63,200.89 341.00,200.50 C340.45,200.16 340.00,198.81 340.00,197.50 C340.00,196.19 339.50,194.81 338.89,194.43 C338.25,194.03 332.03,199.48 324.13,207.37 C316.62,214.87 310.14,221.00 309.74,221.00 C309.33,221.00 309.00,220.28 309.00,219.39 ZM 166.00 286.42 C166.00,281.60 166.34,279.94 167.25,280.24 C167.94,280.47 168.64,281.86 168.82,283.33 C168.99,284.80 169.39,286.00 169.71,286.00 C170.03,286.00 175.57,280.87 182.02,274.60 C194.20,262.78 198.59,259.26 199.73,260.40 C200.10,260.77 194.24,267.25 186.70,274.80 C179.17,282.35 173.00,289.08 173.00,289.76 C173.00,290.51 174.39,291.00 176.50,291.00 C178.43,291.00 180.00,291.45 180.00,292.00 C180.00,292.57 177.00,293.00 173.00,293.00 L 166.00 293.00 ZM 274.01 181.75 C274.02,181.06 275.59,178.52 277.51,176.11 C281.96,170.51 283.37,165.23 282.68,156.80 C282.07,149.47 281.15,147.16 276.85,142.22 C273.75,138.64 273.26,137.00 275.31,137.00 C277.00,137.00 281.33,141.63 283.29,145.52 C285.81,150.52 287.05,159.46 286.00,165.02 C284.86,171.01 283.00,174.80 278.88,179.49 C275.68,183.12 273.99,183.91 274.01,181.75 ZM 229.78 180.25 C224.85,175.04 222.54,169.11 222.15,160.69 C221.81,153.56 222.06,152.32 224.94,146.48 C228.07,140.10 232.38,135.50 234.18,136.61 C234.71,136.94 234.43,138.12 233.53,139.35 C225.46,150.31 223.96,155.32 225.81,165.25 C226.54,169.17 228.09,172.77 230.45,176.06 C233.96,180.95 234.77,183.00 233.19,183.00 C232.74,183.00 231.21,181.76 229.78,180.25 ZM 170.59 243.92 C169.17,242.23 168.00,240.02 168.00,239.01 C168.00,236.75 174.24,231.23 174.82,232.97 C175.04,233.63 174.72,234.68 174.11,235.29 C173.50,235.90 173.00,236.76 173.00,237.20 C173.00,237.64 179.49,238.00 187.42,238.00 C202.21,238.00 206.34,238.53 203.83,240.12 C203.10,240.59 196.05,240.98 188.17,240.98 L 173.84 241.00 L 174.50 244.00 C175.35,247.88 173.89,247.85 170.59,243.92 ZM 334.03 244.87 C333.99,241.45 332.32,241.03 318.50,241.00 C312.45,240.98 306.90,240.59 306.17,240.13 C304.24,238.90 310.71,238.03 322.00,238.00 C332.18,237.97 334.44,237.31 333.43,234.67 C332.39,231.98 335.59,232.66 337.93,235.63 C340.68,239.13 340.55,240.36 337.03,244.23 L 334.06 247.50 ZM 350.00 257.93 C350.00,257.35 351.08,255.43 352.41,253.68 C358.53,245.60 357.99,231.48 351.28,223.81 C350.47,222.89 350.12,221.61 350.51,220.99 C351.53,219.34 355.86,223.62 358.11,228.50 C361.65,236.17 359.69,251.27 354.40,257.11 C352.54,259.17 350.00,259.64 350.00,257.93 ZM 151.50 253.75 C150.03,250.53 148.86,245.60 148.47,241.00 C147.89,234.07 148.06,233.09 150.67,228.06 C153.40,222.81 156.26,219.92 157.50,221.17 C157.83,221.50 156.98,223.42 155.61,225.43 C150.32,233.23 150.04,246.97 155.06,253.35 C157.40,256.32 157.58,259.00 155.44,259.00 C154.54,259.00 152.89,256.81 151.50,253.75 ZM 237.17 171.49 C234.57,168.19 232.65,159.94 233.50,155.79 C234.87,149.20 242.00,141.39 242.00,146.50 C242.00,147.32 241.62,148.00 241.16,148.00 C240.69,148.00 239.51,149.50 238.52,151.32 C236.05,155.92 236.73,165.57 239.80,169.48 C241.01,171.01 242.00,172.66 242.00,173.13 C242.00,174.91 239.08,173.91 237.17,171.49 ZM 266.21 173.25 C272.96,159.99 273.26,157.01 268.56,149.91 C267.01,147.57 266.43,145.85 267.06,145.46 C269.76,143.80 275.00,152.73 275.00,158.99 C275.00,165.62 270.68,174.00 267.26,174.00 C266.48,174.00 266.00,173.66 266.21,173.25 ZM 257.67 162.60 C260.12,160.50 260.34,159.86 259.46,157.35 C258.68,155.11 257.76,154.43 255.17,154.18 C253.35,154.01 251.22,154.40 250.43,155.05 C248.21,156.90 248.66,161.65 251.22,163.44 C254.11,165.47 254.38,165.43 257.67,162.60 ZM 162.72 251.25 C158.88,247.00 157.82,237.77 160.45,231.45 C161.79,228.25 164.42,226.08 165.56,227.23 C165.82,227.49 165.14,229.68 164.04,232.10 C161.49,237.71 161.48,242.07 164.00,247.00 C166.97,252.82 166.27,255.16 162.72,251.25 ZM 274.22 231.44 C271.01,229.20 271.18,224.26 274.50,223.00 C277.68,221.79 281.96,223.32 282.12,225.73 C282.34,229.00 281.87,230.49 280.24,231.75 C278.11,233.39 276.91,233.33 274.22,231.44 ZM 342.00 251.53 C342.00,251.20 342.90,249.16 344.00,247.00 C346.33,242.44 346.54,236.56 344.50,233.00 C342.69,229.84 342.63,228.00 344.31,228.00 C346.38,228.00 349.00,234.60 349.00,239.80 C349.00,245.05 346.20,251.31 343.63,251.82 C342.74,252.00 342.00,251.87 342.00,251.53 ZM 326.65 297.17 C323.97,294.20 324.57,292.83 328.25,293.52 C331.05,294.04 331.97,293.63 334.95,290.56 C341.45,283.84 342.11,287.25 335.66,294.27 C330.94,299.41 329.19,299.98 326.65,297.17 ZM 232.08 261.00 C232.59,261.00 233.00,260.33 233.00,259.50 C233.00,258.45 231.94,258.00 229.50,258.00 C227.57,258.00 226.00,258.36 226.00,258.80 C226.00,260.30 228.44,262.05 229.80,261.52 C230.55,261.23 231.58,261.00 232.08,261.00 ZM 280.42 261.39 C283.20,260.32 282.23,258.00 279.00,258.00 C277.17,258.00 276.00,258.52 276.00,259.33 C276.00,261.80 277.52,262.51 280.42,261.39 ZM 236.67 229.33 C235.40,228.07 236.01,227.00 238.00,227.00 C239.11,227.00 240.00,227.67 240.00,228.50 C240.00,230.02 237.88,230.55 236.67,229.33 ZM 279.00 227.50 C279.00,226.67 278.11,226.00 277.00,226.00 C275.01,226.00 274.40,227.07 275.67,228.33 C276.88,229.55 279.00,229.02 279.00,227.50 ZM 227.64 229.31 C226.51,228.18 226.95,227.00 228.50,227.00 C229.32,227.00 230.00,227.42 230.00,227.94 C230.00,229.20 228.44,230.11 227.64,229.31 Z" fill="rgba(8,87,169,1)"/>
<path d="M 115.98 347.34 C113.10,340.83 108.62,331.00 106.02,325.50 C103.42,320.00 100.48,313.58 99.49,311.24 C98.50,308.90 97.09,306.49 96.35,305.87 C95.61,305.26 95.00,304.12 95.00,303.34 C95.00,301.29 88.30,286.94 86.97,286.04 C87.48,284.80 84.54,278.45 82.80,277.38 C82.13,276.96 82.08,279.55 82.50,284.04 C81.88,279.21 81.06,274.83 80.49,273.50 C74.68,259.97 72.58,255.73 69.92,254.47 C71.20,254.54 72.10,254.19 72.41,253.38 C73.33,250.98 73.10,247.18 72.00,246.50 C71.58,246.24 71.23,246.39 71.08,246.82 C71.07,243.97 68.09,241.35 65.00,243.00 C63.42,243.85 62.82,244.72 63.24,245.94 C62.90,245.30 62.63,244.68 62.50,244.16 C62.07,242.42 61.86,241.89 61.35,242.30 C62.63,240.88 64.66,239.98 67.52,239.55 L 72.08 238.87 L 76.45 229.68 C79.60,223.05 80.99,218.69 81.45,214.00 C81.57,212.72 81.76,211.10 82.00,209.24 C82.07,211.22 82.82,211.40 84.98,210.03 C85.61,209.64 86.00,208.84 86.14,207.68 C86.23,207.89 86.35,208.00 86.49,208.00 C86.76,208.00 88.95,204.06 91.35,199.25 C93.75,194.44 98.55,184.20 102.00,176.50 C105.46,168.80 111.09,156.40 114.51,148.95 C121.84,133.01 122.56,131.00 120.97,131.00 C120.18,131.00 114.53,134.94 109.16,138.97 C114.52,134.94 120.14,131.00 120.90,131.00 C122.44,131.00 122.27,129.47 120.58,128.07 C119.48,127.15 118.98,127.20 118.33,128.27 C118.18,128.53 117.57,129.11 116.64,129.92 C118.12,128.35 118.83,126.94 119.54,124.83 C121.41,119.27 122.29,118.46 127.36,117.68 C127.99,117.59 128.53,117.49 129.03,117.37 C128.01,118.24 128.07,120.42 129.47,121.97 C129.52,122.02 129.56,122.06 129.59,122.10 C128.56,121.35 127.07,121.10 125.47,121.83 C122.63,123.12 122.31,125.16 124.57,127.43 C126.45,129.31 128.17,129.43 129.80,127.80 C131.41,126.19 131.36,124.20 130.37,122.88 C130.50,122.98 130.64,123.07 130.78,123.13 C132.02,123.73 133.94,122.89 141.25,119.72 C143.86,118.59 146.00,117.31 146.00,116.89 C146.00,115.09 143.97,115.19 139.16,117.22 C137.69,117.84 136.27,118.32 135.20,118.58 C138.92,117.22 150.21,112.71 163.18,107.40 C207.55,89.22 212.24,87.28 216.50,85.36 L 220.19 83.69 C221.48,84.09 221.86,83.80 222.35,82.53 C223.16,80.41 221.24,79.62 219.50,81.36 C218.38,82.48 218.32,82.96 219.26,83.34 C219.35,83.38 219.44,83.41 219.52,83.44 L 217.18 83.20 C213.46,82.82 201.54,84.47 183.98,87.75 C198.85,84.79 202.00,83.70 202.00,82.02 C202.00,81.75 195.77,82.58 188.18,83.73 C194.66,82.65 199.99,81.81 204.74,81.14 C204.24,81.52 204.00,82.01 204.00,82.61 C204.00,84.18 204.81,84.26 211.36,83.36 C217.07,82.58 217.69,80.41 213.02,80.05 C218.37,79.42 223.32,78.98 229.00,78.59 C235.97,78.11 241.83,74.91 247.43,68.54 L 253.00 62.19 L 253.00 48.07 C253.00,57.36 253.38,63.00 254.00,63.00 C255.25,63.00 255.36,61.35 255.04,46.36 C254.81,35.93 254.93,34.26 256.47,32.80 C255.02,34.24 254.92,36.21 255.14,48.31 L 255.40 62.50 L 258.74 66.50 C264.29,73.14 265.32,74.04 267.96,74.63 C269.36,74.94 271.90,75.81 273.60,76.57 C276.70,77.95 292.87,80.20 294.13,79.42 C294.31,79.31 295.39,79.44 296.97,79.75 C296.79,79.73 296.61,79.72 296.41,79.70 C294.45,79.56 293.47,80.02 293.23,81.18 C293.02,82.17 293.43,82.69 294.80,82.98 C292.91,82.72 291.43,82.50 290.75,82.37 C289.24,82.08 288.00,82.25 288.00,82.76 C288.00,83.27 289.24,84.26 290.75,84.97 C297.12,87.97 327.60,100.00 328.82,100.00 C328.93,100.00 329.09,100.03 329.29,100.08 C328.62,100.15 327.87,100.43 327.06,100.94 C325.90,101.67 325.85,102.10 326.86,103.33 C324.43,101.70 309.14,95.85 306.50,95.55 C305.40,95.43 303.60,94.83 302.50,94.22 C297.80,91.63 283.18,85.12 279.50,83.98 C278.44,83.65 277.26,83.27 276.19,82.92 C278.07,82.74 278.91,81.00 276.72,79.18 C274.83,77.61 270.13,76.98 269.38,78.19 C269.00,78.81 267.01,79.00 264.46,78.65 C261.37,78.23 259.86,78.47 258.97,79.53 C258.16,80.51 258.22,80.98 260.17,81.14 C251.02,81.02 240.06,81.27 236.98,81.91 C231.74,83.01 223.75,85.84 223.01,86.87 C222.73,87.26 220.93,88.08 219.00,88.69 C217.07,89.31 211.68,91.47 207.00,93.49 C202.32,95.51 196.93,97.63 195.00,98.18 C190.24,99.55 145.74,117.58 140.35,120.32 C137.26,121.90 135.38,123.79 133.76,126.98 C132.09,130.27 130.71,131.63 128.46,132.19 C126.17,132.76 124.88,134.07 123.21,137.50 C122.00,140.00 121.00,142.55 121.00,143.15 C121.00,143.76 119.57,147.23 117.83,150.88 C111.19,164.75 97.11,194.96 85.62,220.00 C83.13,225.45 82.25,244.60 83.78,260.50 C84.64,269.45 85.35,271.86 90.51,283.50 C93.69,290.65 96.75,297.09 97.33,297.82 C97.90,298.55 99.35,301.47 100.57,304.32 C106.25,317.70 107.55,320.54 108.22,321.04 C108.62,321.34 109.58,323.36 110.35,325.54 C111.13,327.72 114.07,334.31 116.88,340.19 C119.70,346.06 122.00,351.32 122.00,351.86 C122.00,353.96 125.60,359.04 127.50,359.61 C130.45,360.51 135.00,365.10 135.00,367.17 C135.00,369.16 141.83,372.96 153.50,377.45 C157.35,378.93 161.40,380.54 162.50,381.01 C181.40,389.23 203.89,398.00 206.04,398.00 C206.37,398.00 206.74,398.08 207.12,398.22 C206.51,398.17 205.57,398.43 204.42,399.04 C202.03,400.32 201.97,400.51 203.62,401.71 C205.42,403.03 207.87,403.53 206.68,402.34 C206.31,401.98 206.53,401.07 207.15,400.32 C207.85,399.48 208.01,398.86 207.77,398.52 C208.25,398.78 208.69,399.13 209.00,399.50 C209.68,400.33 211.06,401.00 212.06,401.00 C213.06,401.00 214.13,401.40 214.43,401.89 C214.73,402.38 216.22,403.08 217.74,403.46 C219.26,403.83 222.86,405.28 225.74,406.68 C229.03,408.28 232.00,409.42 235.28,410.19 C234.58,410.41 234.44,411.09 234.37,412.35 C234.26,414.10 235.13,415.08 238.59,416.89 C235.33,415.42 231.61,414.65 226.44,414.14 L 224.00 411.73 C222.36,410.11 221.36,409.61 220.24,409.96 C220.67,409.60 220.54,409.15 219.90,408.38 C219.27,407.62 218.04,407.00 217.17,407.00 C215.52,407.00 202.87,401.89 192.50,397.03 C189.20,395.48 184.70,393.66 182.50,392.98 C180.30,392.29 173.55,389.59 167.50,386.97 C156.42,382.17 153.98,381.27 149.98,380.50 C148.78,380.26 147.24,379.61 146.56,379.05 C145.88,378.49 143.45,377.37 141.16,376.56 C141.09,376.53 141.02,376.51 140.95,376.48 C141.84,376.73 142.53,376.80 142.68,376.65 C143.33,376.00 136.97,371.00 135.49,371.00 C134.75,371.00 133.44,370.30 132.59,369.45 C131.18,368.04 130.84,368.21 129.03,371.20 C127.69,373.39 127.40,374.63 128.15,374.88 C128.54,375.01 129.37,375.75 130.45,376.86 C129.15,375.75 127.87,375.00 127.17,375.00 C123.76,375.00 120.05,371.14 119.37,366.88 C119.28,366.37 119.19,365.91 119.09,365.49 C119.25,365.89 119.64,365.71 120.50,365.00 C122.49,363.35 122.52,359.59 120.53,360.35 C120.05,360.54 119.27,360.32 117.64,359.33 C119.07,360.15 119.97,360.43 120.26,360.14 C120.88,359.52 119.33,354.91 115.98,347.34 ZM 431.47 255.05 C433.65,250.84 433.37,242.39 430.87,237.00 C429.04,233.06 428.68,232.75 427.96,234.50 C427.00,236.84 426.72,254.11 427.61,256.42 C427.62,256.46 427.64,256.50 427.65,256.54 C427.62,256.50 427.59,256.46 427.57,256.42 C426.32,254.72 426.22,254.73 425.27,256.57 C424.81,257.46 424.38,259.09 424.05,260.87 C424.18,258.78 424.26,256.43 424.31,253.70 C424.50,253.79 424.78,253.62 425.20,253.20 C426.13,252.27 426.13,251.73 425.20,250.80 C424.82,250.42 424.55,250.24 424.37,250.28 C424.38,249.24 424.39,248.15 424.40,247.00 C424.45,241.82 424.41,237.60 424.21,233.93 C424.47,234.71 424.99,235.00 425.89,235.00 C428.53,235.00 429.22,232.51 427.10,230.59 C424.84,228.55 424.13,228.57 424.02,231.09 C423.19,221.47 420.85,215.46 415.02,204.00 C411.51,197.08 408.95,191.65 402.29,177.00 C400.92,173.98 397.62,167.00 394.97,161.50 C392.31,156.00 388.42,147.49 386.32,142.58 C383.19,135.28 381.87,133.32 379.04,131.74 C375.09,129.53 373.08,127.23 373.03,124.87 C373.03,124.68 373.00,124.49 372.94,124.30 C373.03,124.49 373.11,124.67 373.18,124.85 C373.79,126.38 374.44,126.97 374.70,126.24 C374.96,125.55 375.58,125.24 376.09,125.55 C376.47,125.79 376.80,125.47 376.93,124.83 C376.96,125.88 377.34,126.94 378.20,127.80 C379.76,129.36 381.18,129.32 383.46,127.66 C385.81,125.93 384.86,121.41 381.95,120.48 C380.71,120.09 379.59,120.37 378.72,121.03 C379.17,120.52 379.70,120.02 380.25,119.58 L 382.90 117.49 C385.43,118.53 387.21,121.13 387.69,124.70 C388.10,127.77 388.66,128.94 391.67,131.23 C387.75,128.54 386.92,128.39 385.93,129.59 C385.17,130.50 385.10,130.99 385.75,130.81 C385.85,130.78 386.01,130.80 386.22,130.87 C386.07,130.93 386.00,131.08 386.00,131.33 C386.00,133.09 391.37,145.79 396.00,155.00 C397.81,158.57 400.09,163.30 401.08,165.50 C412.99,191.99 421.24,208.63 421.75,207.18 C422.00,206.46 421.67,202.19 421.00,197.68 C420.33,193.18 419.59,187.93 419.34,186.00 C419.13,184.30 418.95,183.01 418.79,181.99 C418.84,182.00 418.89,182.00 418.94,182.00 C419.84,182.00 420.13,179.44 419.85,175.42 C420.89,182.23 422.05,188.71 423.68,197.00 C424.37,200.54 425.21,206.01 425.70,210.10 C425.06,208.64 423.54,207.79 422.60,208.74 C422.27,209.06 422.00,210.31 422.00,211.50 C422.00,212.69 422.27,213.94 422.60,214.26 C423.69,215.36 425.56,214.05 425.93,212.17 C426.72,219.50 430.02,228.93 434.19,235.77 C435.89,238.56 436.71,239.01 439.62,238.82 C439.97,238.80 440.30,238.79 440.61,238.79 C439.44,239.89 440.06,241.96 442.00,243.00 C442.81,243.43 443.35,244.07 443.67,244.99 C443.28,244.09 442.56,243.30 441.53,242.83 C439.64,241.97 438.70,242.00 437.53,242.98 C435.70,244.49 435.53,248.13 437.20,249.80 C438.67,251.27 439.57,251.30 442.07,249.96 C443.24,249.34 443.87,248.25 443.99,247.08 C444.00,247.21 444.00,247.34 444.00,247.48 C444.00,250.38 444.75,251.87 445.73,251.47 C443.90,252.99 441.00,254.38 438.66,254.65 C435.72,254.99 433.09,257.39 433.03,259.78 C433.01,260.48 431.70,263.64 430.10,266.79 C427.76,271.43 426.89,275.21 425.53,286.51 C425.52,286.54 425.52,286.56 425.52,286.58 L 426.19 280.50 L 423.96 282.66 C422.86,283.73 422.14,285.13 421.77,286.96 C421.70,286.35 421.55,286.00 421.33,286.00 C420.33,286.00 416.00,294.29 416.00,296.20 C416.00,296.27 415.99,296.34 415.98,296.43 C416.02,295.74 415.60,294.91 414.66,294.13 C413.95,293.55 413.47,293.50 412.96,294.12 C414.78,290.14 416.55,286.25 418.22,282.57 C421.11,276.18 422.63,272.28 423.44,266.98 C423.46,267.71 423.56,268.22 423.73,268.40 C424.10,268.76 425.02,268.82 425.78,268.53 C426.54,268.24 427.73,268.00 428.43,268.00 C429.16,268.00 429.73,266.68 429.79,264.85 C429.83,263.11 430.42,261.36 431.08,260.95 C431.75,260.54 432.00,259.45 431.65,258.54 C431.30,257.62 430.53,257.17 429.94,257.54 C429.85,257.60 429.74,257.63 429.62,257.65 C430.17,257.24 430.79,256.38 431.47,255.05 ZM 273.45 410.04 C274.13,409.48 274.90,409.24 275.17,409.51 C275.75,410.09 287.91,405.28 289.81,403.73 C290.82,402.90 295.40,401.03 299.78,399.55 C299.43,399.70 299.05,399.86 298.64,400.04 C294.78,401.75 294.22,402.33 295.25,403.51 C295.82,404.15 296.16,404.56 296.59,404.74 C297.37,405.05 298.45,404.61 301.72,403.36 C306.29,401.62 306.79,400.90 304.64,399.12 C304.11,398.67 303.46,398.52 302.47,398.69 C303.19,398.47 303.89,398.27 304.53,398.10 C306.20,397.67 311.15,395.74 315.53,393.82 C319.91,391.89 325.52,389.53 328.00,388.55 C345.40,381.72 354.40,377.85 355.00,376.95 C355.12,376.77 355.59,376.49 356.31,376.16 C355.34,376.79 355.30,377.40 355.60,378.39 C355.96,379.55 356.40,380.67 356.59,380.88 C356.72,381.03 358.47,380.43 360.93,379.44 C357.27,380.96 353.79,382.25 352.49,382.57 C350.84,382.97 346.15,384.86 342.06,386.76 C337.97,388.66 332.35,390.89 329.56,391.71 C326.78,392.52 322.92,393.99 321.00,394.97 C315.70,397.66 311.38,399.56 301.50,403.53 C290.81,407.83 288.07,408.86 288.16,409.38 C288.20,409.56 288.58,409.68 289.10,409.85 C287.44,409.32 285.99,409.66 283.46,411.16 C280.24,413.06 279.37,413.15 274.28,412.13 C263.09,409.88 259.55,411.29 262.42,416.85 L 263.97 419.83 L 265.17 419.26 C263.21,420.48 261.77,421.91 260.66,423.60 C259.47,425.41 257.78,427.08 256.91,427.31 C255.92,427.57 255.55,428.74 255.50,434.50 L 255.50 426.00 L 253.13 426.00 C251.35,426.00 251.01,426.31 251.78,427.25 C251.85,427.34 251.92,427.50 251.98,427.73 L 248.06 423.87 C245.33,421.18 242.96,419.24 240.42,417.81 C242.81,418.99 244.86,419.91 245.19,419.94 C246.66,420.07 246.77,418.35 245.49,415.31 C244.49,412.93 243.19,411.87 240.33,411.07 C240.32,411.07 240.30,411.07 240.29,411.06 C244.73,411.60 250.06,411.68 257.35,411.48 C265.53,411.25 272.77,410.61 273.45,410.04 ZM 393.27 105.46 C396.77,107.88 399.00,107.26 399.00,103.88 C399.00,101.91 396.61,101.46 392.27,102.63 C390.56,103.08 390.23,103.24 391.72,104.36 C391.18,104.00 390.74,103.75 390.43,103.66 C383.44,101.51 368.52,97.42 363.75,96.29 C365.97,96.71 365.94,96.59 364.35,94.83 C363.40,93.78 360.68,92.07 358.31,91.02 C355.94,89.97 354.00,88.67 354.00,88.14 C354.00,87.92 353.63,87.38 353.01,86.64 C353.86,87.52 354.60,88.31 355.21,89.00 C356.15,90.05 359.97,91.82 363.71,92.93 C367.44,94.04 375.85,96.54 382.38,98.49 C390.28,100.85 395.30,101.85 397.38,101.47 C402.39,100.54 404.49,102.80 404.53,109.17 C404.55,114.92 407.58,127.42 412.24,141.00 C413.77,145.48 414.70,147.78 416.07,149.57 C415.06,148.39 414.30,147.24 413.99,146.34 C412.82,142.95 411.13,141.84 407.96,142.49 C408.87,141.65 408.93,139.78 408.15,136.82 C409.62,139.39 410.63,138.00 409.59,133.51 C408.75,129.88 408.31,129.26 407.28,130.29 C406.87,130.70 406.63,131.09 406.54,131.58 C405.63,128.64 404.48,124.88 403.50,121.66 C401.31,114.45 400.05,112.04 396.59,108.54 C395.27,107.20 393.80,105.91 392.58,104.98 C392.79,105.13 393.02,105.29 393.27,105.46 ZM 415.76 297.10 C415.50,297.69 415.07,298.38 414.57,298.92 C412.99,300.67 403.00,323.10 403.00,324.90 C403.00,325.53 401.92,327.72 400.60,329.77 C399.28,331.82 396.06,338.67 393.46,345.00 C392.86,346.45 392.27,347.86 391.70,349.18 C391.70,348.72 391.44,348.26 390.87,347.90 C389.69,347.15 388.98,346.90 388.36,347.24 C388.49,346.98 388.61,346.74 388.73,346.50 C390.64,342.70 401.51,319.20 411.55,297.22 C411.47,297.91 412.03,298.00 413.52,298.00 C414.64,298.00 415.41,297.65 415.76,297.10 ZM 80.30 241.89 L 79.39 232.76 C79.44,232.88 79.51,233.01 79.58,233.13 C80.21,234.15 80.45,234.15 80.79,233.14 C81.27,231.69 80.29,230.37 79.40,231.27 C79.15,231.51 79.14,232.04 79.32,232.59 L 77.02 237.50 C73.92,244.13 73.91,249.40 77.00,256.02 L 79.44 261.26 C79.40,261.81 79.76,261.99 80.56,261.82 C82.27,261.47 82.70,259.73 81.20,259.23 C80.69,259.06 80.01,259.60 79.66,260.44 L 80.37 256.34 C80.87,253.40 80.84,247.35 80.30,241.89 ZM 400.50 379.25 C399.66,381.32 402.40,381.75 403.69,379.75 C404.93,377.83 408.20,368.53 411.20,358.65 C410.43,361.24 409.60,364.02 408.85,366.50 C407.19,372.00 405.58,379.33 405.27,382.79 C404.63,390.11 402.58,392.39 397.48,391.43 C395.58,391.07 390.74,392.03 382.86,394.32 C389.25,392.44 394.72,391.00 395.47,391.00 C397.17,391.00 397.38,390.14 396.15,388.21 C395.71,387.51 393.51,387.66 388.15,388.99 C392.73,387.45 393.95,386.32 396.78,383.21 C399.95,379.73 401.68,376.56 403.41,371.00 C404.19,368.49 404.87,366.26 405.44,364.29 C404.02,369.39 402.18,375.10 400.50,379.25 ZM 355.42 115.64 C353.44,114.83 351.93,114.07 351.47,113.62 C350.68,112.82 347.66,111.42 344.76,110.50 C339.03,108.68 333.21,106.49 329.77,104.92 C330.46,104.81 331.05,104.31 331.40,103.41 C331.81,102.33 331.76,101.45 331.38,100.87 C332.29,101.27 333.32,101.79 334.32,102.36 C336.62,103.65 344.58,107.08 352.00,109.98 C356.47,111.73 360.86,113.50 363.95,114.80 C361.31,114.45 357.66,114.35 356.05,114.74 C355.05,114.97 354.75,115.22 355.42,115.64 ZM 384.39 369.75 C386.00,367.19 383.96,364.50 380.40,364.50 C379.07,364.50 378.11,364.90 377.58,365.55 C378.04,364.71 379.11,364.26 380.81,364.00 C383.91,363.53 384.02,363.39 382.61,361.50 C381.63,360.19 381.29,359.74 380.11,360.14 C382.49,358.72 383.78,357.27 384.69,355.10 C385.15,354.03 385.89,352.39 386.70,350.68 C386.93,350.93 387.43,351.07 388.25,351.20 C389.52,351.38 390.62,350.95 391.22,350.30 C389.54,354.19 388.19,357.08 387.86,357.45 C387.02,358.38 386.80,360.66 387.26,361.59 C387.03,361.33 386.85,360.88 386.69,360.25 C386.44,359.29 386.18,360.13 386.12,362.13 C386.05,364.26 386.62,366.27 387.50,367.00 C388.74,368.03 389.00,367.92 389.02,366.37 C389.02,366.27 389.07,366.13 389.16,365.96 C389.07,366.21 389.02,366.45 389.02,366.67 C388.99,369.72 384.49,374.73 381.12,375.47 C379.86,375.75 378.43,376.57 376.83,377.95 C377.62,377.21 378.28,376.67 378.70,376.46 C380.78,375.43 380.78,375.41 378.86,371.48 C378.44,370.60 378.10,369.82 377.84,369.13 C378.05,369.45 378.30,369.78 378.60,370.11 C380.66,372.38 382.82,372.25 384.39,369.75 ZM 102.58 379.75 C103.06,381.44 107.00,381.35 107.00,379.65 C107.00,378.91 106.31,376.92 105.46,375.22 C106.31,376.92 107.00,378.80 107.01,379.40 C107.01,380.01 108.36,381.27 110.01,382.20 C111.65,383.14 113.00,384.55 113.00,385.33 C113.00,386.11 115.03,387.21 118.60,388.39 C115.60,387.61 114.47,387.61 113.64,388.10 C113.26,388.33 112.94,388.66 112.53,389.07 C110.57,390.99 110.58,391.00 113.75,391.00 C115.36,391.00 119.79,392.13 123.99,393.58 C119.13,391.90 114.79,391.00 111.55,391.00 C103.77,391.00 103.00,390.50 103.00,385.52 C103.00,383.69 102.29,379.41 101.31,375.03 C101.81,376.96 102.26,378.61 102.58,379.75 ZM 102.49 116.36 C102.69,115.61 102.88,114.92 103.05,114.38 C103.61,112.67 103.94,109.30 103.78,106.88 L 103.50 102.50 L 110.00 101.69 C110.28,101.65 110.55,101.62 110.82,101.58 C109.51,102.33 109.55,103.74 110.89,105.86 C111.60,106.98 112.15,106.95 114.12,105.68 C115.03,105.10 116.51,104.47 119.71,103.44 C114.97,105.19 112.86,106.70 110.65,109.07 C107.78,112.14 106.09,115.40 104.03,121.85 C102.91,125.38 101.93,128.66 101.14,131.51 C101.53,129.47 102.66,125.47 103.98,121.56 C106.80,113.22 107.02,111.00 105.02,111.00 C104.32,111.00 103.33,113.23 102.49,116.36 ZM 330.67 88.81 C320.69,86.75 310.04,84.84 303.00,84.02 C300.76,83.75 298.48,83.47 296.47,83.21 C298.43,83.35 299.63,82.99 299.84,82.17 C300.09,81.20 300.03,80.63 299.42,80.28 C300.43,80.51 301.52,80.78 302.65,81.07 C306.97,82.20 315.67,83.77 322.00,84.54 C323.80,84.76 325.64,85.01 327.42,85.25 C324.66,85.06 323.00,85.25 323.00,85.86 C323.00,86.73 325.14,87.58 330.67,88.81 ZM 257.00 75.00 C260.62,71.38 258.57,67.57 253.31,68.18 C251.07,68.43 250.43,69.07 250.18,71.31 C249.57,76.57 253.38,78.62 257.00,75.00 ZM 242.34 80.23 C242.98,80.64 244.89,80.98 246.59,80.98 C249.50,81.00 249.67,80.79 249.55,77.35 C249.45,74.50 248.91,73.51 247.08,72.84 C245.63,72.30 244.26,72.37 243.48,73.02 C241.71,74.48 240.94,79.34 242.34,80.23 ZM 257.15 421.56 C258.86,417.82 257.59,415.82 253.76,416.19 C251.23,416.43 250.43,417.02 250.17,418.81 C249.47,423.75 255.14,425.99 257.15,421.56 ZM 129.43 370.07 C132.05,367.18 131.09,364.56 127.28,364.19 C124.55,363.92 123.97,364.26 123.42,366.45 C122.75,369.15 124.31,372.00 126.47,372.00 C127.14,372.00 128.47,371.13 129.43,370.07 ZM 88.88 170.16 C88.03,174.93 88.02,176.90 88.78,177.36 C89.36,177.72 90.46,174.76 91.43,170.24 C93.73,159.56 96.11,151.80 97.68,149.92 C95.50,152.53 91.62,168.59 88.90,183.16 C88.82,182.85 88.37,183.33 87.27,184.50 C86.46,185.36 85.24,189.50 84.18,194.27 C85.73,184.37 87.44,174.64 88.04,173.00 C88.31,172.27 88.61,171.22 88.88,170.16 ZM 403.32 120.25 C403.66,121.21 404.10,122.00 404.30,122.00 C404.90,122.00 404.94,118.77 404.39,114.25 C404.07,111.55 403.37,110.00 402.50,110.00 C400.27,110.00 399.92,111.56 401.36,115.14 C402.10,116.99 402.98,119.29 403.32,120.25 ZM 115.25 100.90 C119.44,100.12 124.41,98.73 137.50,94.95 C146.94,92.23 150.53,91.10 153.13,89.05 C150.62,91.04 147.30,92.13 139.00,94.56 C133.77,96.09 129.05,97.92 128.50,98.62 C127.54,99.85 122.56,100.70 115.25,100.90 ZM 90.34 151.18 C92.01,149.07 93.82,145.28 95.33,140.50 C95.77,139.09 96.26,137.59 96.75,136.15 C96.54,137.22 96.62,138.00 97.00,138.00 C98.02,138.00 99.30,136.80 100.14,135.35 C99.53,137.84 99.14,139.79 99.03,141.01 C98.13,138.46 95.26,140.18 94.06,144.25 C93.31,146.79 91.81,149.46 90.34,151.18 ZM 372.32 123.22 C371.19,121.85 368.66,120.43 364.70,118.92 C366.47,119.50 367.66,119.89 367.74,119.92 C368.09,120.03 367.66,117.49 367.22,116.22 C367.57,116.38 367.83,116.51 368.00,116.60 C368.84,117.05 369.67,117.40 370.40,117.64 C369.66,117.64 369.42,118.15 369.51,119.33 C369.59,120.46 370.21,121.57 370.89,121.80 C371.30,121.93 371.84,122.48 372.32,123.22 ZM 142.32 107.20 C144.44,104.78 146.64,102.24 148.26,100.33 C151.14,96.94 153.95,93.96 154.50,93.71 C154.88,93.54 159.88,92.49 166.89,91.09 C154.47,93.61 153.77,94.12 151.35,97.03 C149.97,98.68 146.13,103.01 142.32,107.20 ZM 257.23 461.41 L 255.50 460.17 L 255.50 437.90 C255.51,439.65 255.54,441.68 255.57,444.05 L 255.83 460.36 L 257.23 461.41 ZM 428.09 165.52 C435.57,172.54 445.27,182.69 451.93,190.93 C446.56,184.28 436.01,173.20 428.09,165.52 ZM 89.22 324.45 C89.44,325.46 89.66,326.47 89.88,327.47 C91.11,332.97 91.55,335.93 91.06,336.86 C91.19,336.00 90.44,331.02 89.22,324.45 ZM 419.15 324.57 C420.84,317.64 422.80,306.82 424.24,296.71 C422.64,308.62 421.16,316.66 419.15,324.57 ZM 272.71 81.80 C271.06,81.51 267.51,81.31 263.23,81.20 C264.27,81.19 265.52,81.15 267.00,81.10 C269.23,81.02 271.65,81.33 272.71,81.80 ZM 301.00 446.51 C297.51,449.62 290.23,454.51 283.24,458.73 C290.36,454.26 298.52,448.72 301.00,446.51 ZM 373.90 112.61 C371.67,110.24 368.95,106.82 365.49,102.11 C361.96,97.31 361.14,96.13 362.15,96.07 C361.56,96.94 368.05,106.12 373.90,112.61 ZM 270.47 416.82 C275.01,415.07 280.51,414.15 292.00,413.03 C282.29,413.97 275.41,415.14 270.47,416.82 ZM 325.64 65.04 C324.25,63.95 322.59,62.54 321.25,61.31 C316.81,57.21 303.44,47.00 302.50,47.00 C303.35,47.00 314.35,55.29 321.09,61.01 C322.73,62.41 324.21,63.71 325.64,65.04 ZM 415.66 169.51 C416.71,173.87 417.69,177.47 418.12,178.29 C418.57,179.15 418.75,180.20 418.58,180.80 C418.35,179.65 418.12,178.86 417.79,178.00 C417.48,177.19 416.61,173.66 415.66,169.51 ZM 395.36 359.83 C398.43,357.29 401.65,355.00 402.61,355.00 C402.21,355.00 399.00,357.14 395.46,359.75 C395.43,359.78 395.39,359.80 395.36,359.83 ZM 143.97 394.25 C144.00,395.10 142.34,395.19 139.37,394.57 C142.13,395.07 144.00,395.00 143.97,394.25 C143.95,393.61 140.36,388.64 136.68,383.99 C140.42,388.56 143.94,393.31 143.97,394.25 ZM 95.98 339.95 C94.82,336.72 93.74,332.06 92.48,325.22 C92.32,324.37 92.15,323.47 91.97,322.54 C92.36,324.42 92.74,326.29 93.08,328.00 C94.19,333.49 95.06,337.25 95.98,339.95 ZM 351.80 93.78 C347.63,92.59 341.38,91.10 334.55,89.63 C335.17,89.76 335.82,89.89 336.50,90.02 C341.47,90.99 347.55,92.51 351.80,93.78 ZM 215.68 410.34 C213.62,409.64 212.00,409.41 204.50,408.71 C202.85,408.56 199.02,407.90 196.00,407.26 C199.02,407.90 202.85,408.55 204.50,408.69 C213.00,409.42 215.05,409.72 215.66,410.33 C215.67,410.33 215.67,410.34 215.68,410.34 ZM 364.11 392.44 C364.31,392.21 364.53,391.97 364.76,391.73 C365.88,390.58 367.70,388.51 369.50,386.37 C369.47,386.41 369.44,386.46 369.40,386.50 C367.81,388.70 365.49,391.32 364.25,392.32 C364.20,392.36 364.15,392.40 364.11,392.44 ZM 139.18 97.80 C140.07,97.55 140.99,97.29 141.95,97.03 C144.31,96.37 145.77,96.34 146.03,96.82 C145.53,96.44 143.26,96.76 139.18,97.80 ZM 61.50 250.92 C63.58,252.36 65.66,253.40 67.45,253.97 C67.41,253.97 67.36,253.97 67.32,253.97 C66.32,253.96 63.79,252.65 61.70,251.07 C61.63,251.02 61.56,250.97 61.50,250.92 ZM 372.70 116.84 C371.88,115.45 369.48,112.05 366.73,108.30 C368.54,110.70 370.07,112.76 370.75,113.73 C371.76,115.16 372.40,116.16 372.70,116.84 ZM 471.05 244.25 C468.35,244.77 464.52,244.90 458.62,244.94 C457.44,244.95 456.42,244.96 455.53,244.95 C456.39,244.95 457.37,244.95 458.48,244.94 C463.15,244.91 468.60,244.61 471.05,244.25 ZM 32.13 248.02 L 32.14 248.00 L 44.82 248.07 C50.05,248.10 53.15,248.13 55.30,248.38 C53.17,248.17 50.08,248.14 45.01,248.10 L 32.13 248.02 ZM 301.99 407.94 C302.46,407.88 302.93,407.83 303.39,407.77 C298.65,408.36 293.28,409.32 292.68,409.92 C292.16,410.44 291.00,410.49 289.70,410.07 C290.76,410.40 292.04,410.32 292.62,409.87 C293.23,409.38 297.45,408.51 301.99,407.94 ZM 338.29 77.77 C336.10,75.88 333.83,73.58 332.56,71.98 C333.02,72.47 333.50,72.99 334.00,73.53 C334.53,74.10 336.21,75.76 338.29,77.77 ZM 135.27 111.67 C132.28,115.99 131.25,116.96 130.19,117.00 C131.71,116.34 132.94,115.02 135.27,111.67 ZM 245.46 465.25 C247.24,463.74 249.47,462.05 250.42,461.50 C249.47,462.05 247.17,463.80 245.32,465.38 L 241.94 468.26 L 239.68 466.86 C240.85,467.55 241.68,468.00 241.81,468.00 C242.05,468.00 243.69,466.76 245.46,465.25 ZM 335.25 69.59 C338.82,72.88 342.31,76.14 345.41,79.12 C342.60,76.48 338.85,72.97 335.25,69.59 ZM 117.38 362.54 C118.35,363.24 119.00,364.04 119.00,364.64 C119.00,364.89 119.01,365.10 119.04,365.26 C118.70,363.99 118.22,363.19 117.38,362.54 ZM 89.65 311.59 C89.60,311.38 89.55,311.18 89.51,311.00 C88.78,308.06 88.12,304.63 87.60,301.26 C88.11,304.30 88.76,307.61 89.52,311.00 C89.56,311.19 89.60,311.38 89.65,311.59 ZM 137.11 376.52 C136.86,375.43 137.72,375.32 139.64,376.05 C139.68,376.07 139.73,376.09 139.77,376.10 C137.89,375.55 137.00,375.62 137.11,376.52 ZM 446.79 242.33 C446.50,242.07 446.18,241.78 445.83,241.47 C444.87,240.60 443.90,239.85 443.08,239.32 C444.06,239.78 445.02,240.56 446.26,241.79 C446.44,241.98 446.62,242.16 446.79,242.33 ZM 417.23 158.83 C417.08,158.01 417.00,157.49 417.00,157.41 C417.00,157.07 417.22,156.98 417.64,157.11 C417.21,157.34 417.07,157.91 417.23,158.83 ZM 342.06 87.64 C343.11,87.77 344.09,87.86 344.82,87.89 L 346.24 87.93 C345.47,88.10 344.09,87.98 342.06,87.64 ZM 448.46 248.64 C449.96,248.07 453.04,248.00 460.70,248.00 C453.47,248.00 450.02,248.15 448.46,248.64 ZM 372.37 370.55 C371.61,371.47 370.49,371.97 369.07,371.98 C368.39,371.99 365.71,372.71 362.76,373.66 C365.48,372.74 368.07,371.99 368.97,371.98 C370.44,371.97 371.59,371.47 372.37,370.55 ZM 160.00 87.66 C160.00,87.64 160.00,87.62 160.00,87.59 C160.00,86.85 165.34,81.44 171.88,75.57 C165.41,81.39 160.10,86.79 160.00,87.66 ZM 90.63 159.68 C90.53,161.08 90.24,163.05 89.75,165.61 C90.20,162.85 90.49,160.96 90.63,159.68 ZM 269.65 466.13 C268.35,466.68 267.38,467.00 266.86,467.00 C266.69,467.00 266.46,466.96 266.19,466.88 C266.35,466.91 266.49,466.93 266.61,466.93 C267.16,466.95 268.28,466.64 269.65,466.13 ZM 365.07 377.69 C368.96,376.02 372.31,374.98 372.67,375.34 C372.67,375.34 372.68,375.34 372.68,375.34 C372.32,375.02 369.03,376.04 365.07,377.69 ZM 368.97 394.47 C368.72,394.54 368.48,394.62 368.23,394.69 C366.81,395.12 365.44,395.44 364.37,395.61 C365.40,395.40 366.87,395.03 368.97,394.47 ZM 90.85 337.09 C90.42,337.39 89.64,336.95 88.47,335.90 C89.52,336.76 90.44,337.23 90.85,337.09 ZM 407.30 352.23 C407.47,352.23 407.60,352.27 407.69,352.36 C407.85,352.51 407.87,353.05 407.78,353.88 C407.82,352.91 407.66,352.37 407.30,352.23 ZM 418.52 152.03 C418.90,152.34 419.30,152.66 419.75,153.00 C423.38,155.76 427.22,159.28 432.32,164.68 C427.19,159.26 423.36,155.75 419.71,153.00 C419.31,152.69 418.91,152.37 418.52,152.03 ZM 235.32 464.17 C233.20,462.91 231.46,462.00 231.13,462.00 C230.35,462.00 225.72,459.19 220.17,455.51 C225.73,459.20 230.36,462.00 231.16,462.00 C231.51,462.00 233.26,462.92 235.32,464.17 ZM 421.07 294.59 C420.89,296.19 420.68,297.89 420.41,299.72 C420.42,299.64 420.43,299.57 420.44,299.50 C420.59,298.24 420.82,296.41 421.07,294.59 ZM 397.30 135.36 C400.02,137.49 401.93,139.31 402.64,140.44 C401.91,139.32 399.99,137.50 397.30,135.36 ZM 417.98 162.91 C417.67,161.29 417.42,159.89 417.24,158.91 C417.26,159.02 417.29,159.13 417.32,159.25 C417.45,159.84 417.70,161.18 417.98,162.91 ZM 88.14 187.42 C87.72,189.81 87.35,192.11 87.03,194.26 C87.35,191.98 87.72,189.63 88.14,187.42 ZM 83.86 331.43 C82.28,329.89 80.53,328.18 79.00,326.69 C73.79,321.60 69.12,316.81 65.42,312.78 C69.13,316.82 73.82,321.63 79.00,326.68 C80.55,328.18 82.30,329.90 83.86,331.43 ZM 446.68 250.55 C446.78,250.39 446.88,250.22 446.99,250.03 C447.12,249.77 447.26,249.55 447.42,249.36 C447.41,249.39 447.40,249.41 447.38,249.44 C447.25,249.80 447.00,250.17 446.68,250.55 ZM 391.07 359.25 C389.88,360.55 389.04,361.35 388.42,361.69 C389.09,361.23 390.10,360.31 391.07,359.25 ZM 106.50 355.61 C109.80,358.13 113.96,360.83 115.75,361.61 C115.97,361.71 116.19,361.81 116.40,361.93 C116.16,361.80 115.90,361.68 115.62,361.55 C113.90,360.80 109.80,358.13 106.50,355.61 ZM 252.52 442.10 C252.51,442.87 252.49,443.68 252.48,444.50 C252.31,452.75 252.14,456.89 251.72,459.07 C252.14,456.89 252.30,452.75 252.47,444.51 L 252.52 442.10 ZM 418.31 311.79 C417.27,317.17 415.94,323.46 414.26,331.00 C415.87,323.77 417.25,317.20 418.31,311.79 ZM 76.39 168.92 C83.05,162.47 89.15,157.00 90.05,157.00 L 90.05 157.00 C89.14,157.02 83.04,162.48 76.39,168.92 ZM 60.55 243.27 C60.23,243.69 59.84,244.02 59.17,244.26 C59.76,244.02 60.16,243.70 60.55,243.27 ZM 190.25 409.37 C191.57,409.96 194.42,410.59 198.85,411.24 C194.40,410.59 191.60,409.98 190.25,409.37 ZM 109.21 353.28 C107.98,352.35 106.60,351.29 105.08,350.12 C106.35,351.09 107.77,352.18 109.21,353.28 ZM 408.33 146.94 L 408.43 147.05 C409.79,148.56 410.96,150.38 411.71,152.10 C410.95,150.36 409.75,148.52 408.33,146.94 ZM 402.86 141.47 C402.85,141.48 402.85,141.49 402.84,141.49 C402.73,141.60 402.39,141.53 401.89,141.32 C402.39,141.50 402.74,141.56 402.86,141.47 ZM 373.79 364.50 C373.57,365.11 373.50,365.83 373.50,366.79 C373.50,366.84 373.50,366.89 373.50,366.94 C373.50,366.89 373.50,366.84 373.50,366.79 C373.50,365.82 373.56,365.10 373.79,364.50 ZM 380.74 117.01 L 380.69 117.01 C380.60,117.01 380.52,117.01 380.43,117.00 C380.53,117.00 380.63,117.01 380.74,117.01 ZM 289.54 410.01 C289.49,409.99 289.43,409.98 289.38,409.96 C289.37,409.95 289.36,409.95 289.35,409.94 C289.40,409.96 289.45,409.98 289.50,410.00 C289.51,410.00 289.53,410.01 289.54,410.01 Z" fill="rgba(149,193,92,1)"/>
<path d="M 102.58 379.75 C101.19,374.86 97.58,360.43 96.48,355.34 C94.76,347.40 92.83,343.75 88.80,340.85 C88.08,340.33 87.14,339.55 86.02,338.56 C87.96,339.78 89.89,340.43 90.35,339.99 C90.89,339.49 90.30,338.07 89.14,336.46 C91.80,338.55 91.84,336.26 89.88,327.47 C84.66,304.01 80.71,276.08 82.80,277.38 C84.68,278.54 87.96,285.85 86.78,286.24 C85.51,286.66 87.15,301.48 89.51,311.00 C90.26,314.02 91.60,320.43 92.48,325.22 C94.95,338.60 96.71,343.63 99.77,346.01 C101.04,346.99 102.23,347.92 103.35,348.78 C102.98,348.54 102.65,348.34 102.38,348.20 C100.33,347.11 99.00,347.48 99.00,349.13 C99.00,349.58 102.65,352.65 107.12,355.97 C114.75,361.64 118.00,363.17 118.00,361.11 C118.00,360.63 115.02,357.92 111.60,355.09 C117.78,359.70 119.65,360.69 120.53,360.35 C122.52,359.59 122.49,363.35 120.50,365.00 C119.27,366.02 119.00,365.95 119.00,364.64 C119.00,363.75 117.54,362.39 115.75,361.61 C113.96,360.83 109.80,358.13 106.50,355.61 C98.74,349.68 97.78,349.66 100.00,355.50 C100.55,356.95 101.66,361.28 102.46,365.13 C103.26,368.98 104.61,373.52 105.46,375.22 C106.31,376.92 107.00,378.91 107.00,379.65 C107.00,381.35 103.06,381.44 102.58,379.75 ZM 428.35 165.76 C421.89,159.67 417.00,155.83 417.00,157.41 C417.00,157.64 417.67,161.35 418.50,165.66 C420.25,174.82 420.45,182.00 418.94,182.00 C418.36,182.00 418.15,181.57 418.47,181.04 C418.80,180.51 418.64,179.28 418.12,178.29 C417.19,176.53 413.79,162.19 412.53,154.69 C412.14,152.39 410.51,149.36 408.43,147.05 L 404.97 143.22 L 407.41 142.61 C410.94,141.73 412.76,142.76 413.99,146.34 C414.61,148.15 417.05,150.99 419.71,153.00 C420.95,153.93 422.20,154.95 423.52,156.10 C423.26,155.91 423.00,155.73 422.75,155.57 C420.09,153.83 420.00,153.83 419.99,155.63 C419.99,156.54 423.51,160.77 428.35,165.76 ZM 306.17 409.38 C305.90,410.78 306.13,411.10 308.25,410.81 C302.54,411.74 296.27,412.61 292.00,413.03 C278.27,414.37 273.10,415.42 267.88,417.95 L 263.97 419.83 L 262.42 416.85 C259.55,411.29 263.09,409.88 274.28,412.13 C279.37,413.15 280.24,413.06 283.46,411.16 C286.13,409.58 287.61,409.28 289.38,409.96 C290.81,410.50 292.12,410.48 292.68,409.92 C293.70,408.90 308.49,406.84 310.57,407.35 C310.14,407.41 309.68,407.45 309.23,407.45 C307.41,407.49 306.42,408.11 306.17,409.38 ZM 166.42 91.19 C159.65,92.54 154.87,93.54 154.50,93.71 C154.12,93.88 152.64,95.38 150.81,97.41 C150.93,97.17 151.00,96.97 151.00,96.83 C151.00,94.77 148.31,94.91 146.05,96.88 C145.89,96.34 144.40,96.34 141.95,97.03 C121.08,102.85 116.16,104.37 114.12,105.68 C112.15,106.95 111.60,106.98 110.89,105.86 C108.80,102.56 109.87,101.00 114.25,100.92 C122.10,100.78 127.49,99.91 128.50,98.62 C129.05,97.92 133.77,96.09 139.00,94.56 C151.60,90.87 152.73,90.27 156.95,84.94 C157.72,83.96 158.70,82.84 159.85,81.59 C158.79,82.75 157.90,83.79 157.22,84.68 L 153.95 88.95 L 157.72 90.54 C160.64,91.76 162.16,91.92 166.42,91.19 ZM 358.00 396.39 C358.00,396.72 358.90,397.00 360.00,397.00 C361.10,397.00 362.00,396.36 362.00,395.57 C362.00,394.82 362.93,393.44 364.10,392.44 C362.77,393.96 361.98,395.31 362.29,395.63 C362.66,395.99 365.33,395.57 368.23,394.69 C388.82,388.47 395.35,386.95 396.15,388.21 C397.38,390.14 397.17,391.00 395.47,391.00 C394.64,391.00 388.00,392.78 380.72,394.95 C373.45,397.12 364.92,399.61 361.76,400.47 C358.62,401.34 356.47,402.35 355.18,403.58 C357.69,400.17 356.55,398.64 351.68,398.96 C354.13,398.67 356.98,396.58 360.22,392.70 C358.89,394.65 358.00,396.09 358.00,396.39 ZM 161.05 404.01 C162.40,404.02 165.87,404.65 168.76,405.42 C173.68,406.73 174.09,406.70 175.02,404.95 C175.90,403.32 175.50,402.95 171.76,401.99 C170.67,401.71 169.15,401.31 167.57,400.88 C167.88,400.96 168.19,401.04 168.50,401.12 C175.10,402.83 182.75,404.65 185.50,405.16 C188.25,405.66 192.98,406.61 196.00,407.26 C199.02,407.90 202.85,408.56 204.50,408.71 C212.04,409.41 213.64,409.65 215.71,410.35 C216.93,410.77 218.73,410.69 219.71,410.18 C221.06,409.48 222.11,409.86 224.00,411.73 L 226.50 414.20 L 221.00 413.70 C203.19,412.08 193.12,410.66 190.25,409.37 C188.47,408.57 184.19,407.72 180.75,407.50 C177.31,407.28 172.02,406.40 169.00,405.56 C165.98,404.71 162.40,404.02 161.05,404.01 ZM 372.63 376.07 C372.77,375.72 372.79,375.46 372.67,375.34 C372.29,374.96 368.59,376.14 364.45,377.95 C360.32,379.77 356.78,381.09 356.59,380.88 C356.40,380.67 355.96,379.55 355.60,378.39 C355.03,376.53 355.69,376.04 361.30,374.14 C364.79,372.96 368.28,371.99 369.07,371.98 C371.87,371.95 373.50,370.04 373.50,366.79 C373.50,364.00 374.08,363.20 377.31,361.50 C381.11,359.50 381.11,359.50 382.61,361.50 C384.02,363.39 383.91,363.53 380.81,364.00 C376.79,364.61 376.35,366.31 378.86,371.48 C380.78,375.41 380.78,375.43 378.70,376.46 C377.56,377.03 374.66,379.98 372.26,383.00 C371.42,384.06 370.46,385.22 369.50,386.37 C371.11,384.17 373.67,381.04 375.27,379.34 C376.89,377.60 377.92,375.68 377.55,375.09 C376.67,373.65 373.00,373.68 373.00,375.13 C373.00,375.32 372.87,375.64 372.63,376.07 ZM 100.65 143.41 C99.72,144.84 99.19,146.00 99.49,146.00 C99.80,146.00 101.14,145.12 102.95,143.80 C100.63,145.68 99.04,147.10 99.03,147.42 C99.01,147.93 98.41,149.05 97.68,149.92 C96.11,151.80 93.73,159.56 91.43,170.24 C90.46,174.76 89.36,177.72 88.78,177.36 C87.88,176.81 88.06,174.11 89.47,167.04 C90.85,160.18 91.03,157.00 90.05,157.00 C89.42,157.00 86.24,159.68 82.10,163.51 C86.27,159.32 90.18,155.02 90.51,153.98 C91.11,152.07 90.93,151.89 88.92,152.52 C90.73,151.25 93.07,147.63 94.06,144.25 C95.34,139.93 98.48,138.26 99.18,141.53 C99.41,142.63 101.96,141.22 108.46,136.38 C104.84,139.28 101.37,142.31 100.65,143.41 ZM 142.91 392.21 C145.23,395.03 147.32,397.11 148.14,397.33 C149.27,397.62 149.93,398.31 149.59,398.85 C149.22,399.45 150.81,401.63 153.72,404.81 C150.25,401.46 148.35,400.57 143.63,399.11 C139.87,397.95 136.02,397.00 135.09,397.00 C134.15,397.00 129.68,395.65 125.16,394.00 C120.64,392.35 115.51,391.00 113.75,391.00 C110.58,391.00 110.57,390.99 112.53,389.07 C112.94,388.66 113.26,388.33 113.64,388.10 C115.27,387.14 118.00,388.04 133.69,393.03 C140.12,395.08 144.02,395.54 143.97,394.25 C143.96,393.94 143.57,393.21 142.91,392.21 ZM 138.64 109.23 C138.96,109.75 141.52,107.65 144.23,105.01 C141.97,107.62 139.57,110.34 137.85,112.26 C135.00,115.42 132.99,118.32 133.36,118.69 C133.74,119.07 136.35,118.41 139.16,117.22 C143.97,115.19 146.00,115.09 146.00,116.89 C146.00,117.31 143.86,118.59 141.25,119.72 C133.94,122.89 132.02,123.73 130.78,123.13 C130.33,122.92 129.97,122.52 129.47,121.97 C127.69,120.00 128.07,117.00 130.11,117.00 C131.54,117.00 132.82,115.44 138.75,106.50 C139.54,105.30 140.37,104.11 141.14,103.02 C139.29,105.89 138.17,108.46 138.64,109.23 ZM 31.00 243.73 C31.00,244.70 34.39,245.00 45.14,245.00 C57.45,245.00 59.45,244.77 60.56,243.25 C61.73,241.65 61.89,241.72 62.50,244.16 C62.87,245.62 64.24,247.82 65.56,249.05 C67.53,250.91 68.20,251.08 69.47,250.02 C70.31,249.33 71.00,248.11 71.00,247.32 C71.00,246.53 71.45,246.16 72.00,246.50 C73.10,247.18 73.33,250.98 72.41,253.38 C71.58,255.55 66.52,254.41 61.50,250.92 C58.45,248.80 57.41,248.29 51.04,248.14 C56.97,248.09 58.00,247.66 58.00,246.50 C58.00,245.24 55.83,245.00 44.50,245.00 C34.27,245.00 31.00,244.69 31.00,243.73 ZM 162.51 88.13 C169.81,86.46 202.00,81.41 202.00,82.02 C202.00,83.92 197.97,85.07 177.50,89.02 C174.76,89.54 172.12,90.06 169.65,90.55 C172.42,89.89 174.00,89.14 174.00,88.45 C174.00,86.25 172.74,86.09 166.22,87.45 C164.63,87.79 163.42,88.01 162.51,88.13 ZM 82.00 208.95 C82.00,202.83 85.55,186.32 87.27,184.50 C89.14,182.51 89.14,182.51 88.62,185.00 C87.09,192.24 85.87,202.32 86.15,205.50 C86.35,207.86 85.95,209.42 84.98,210.03 C82.73,211.46 82.00,211.20 82.00,208.95 ZM 373.18 124.85 C372.60,123.40 371.57,122.02 370.89,121.80 C370.21,121.57 369.59,120.46 369.51,119.33 C369.39,117.81 369.82,117.40 371.18,117.76 C373.25,118.30 373.46,117.77 371.68,115.08 C372.84,116.28 373.75,116.21 374.55,114.91 C374.81,114.50 374.39,113.43 373.56,112.24 C376.67,115.61 378.84,117.00 380.69,117.01 L 383.50 117.02 L 380.25 119.58 C378.46,120.99 377.00,123.04 377.00,124.13 C377.00,125.22 376.59,125.86 376.09,125.55 C375.58,125.24 374.96,125.55 374.70,126.24 C374.44,126.97 373.79,126.38 373.18,124.85 ZM 417.07 317.96 C419.88,304.44 421.14,296.06 421.51,289.16 C421.67,286.20 422.45,284.13 423.96,282.66 L 426.19 280.50 L 425.47 287.00 C424.80,293.16 423.76,300.34 422.62,307.12 C422.74,305.71 422.72,304.72 422.55,304.27 C421.42,301.32 420.10,303.48 418.60,310.75 C418.22,312.59 417.67,315.16 417.07,317.96 ZM 413.80 341.82 C414.59,343.02 415.53,344.00 415.87,344.00 C416.36,344.00 421.28,339.39 427.16,333.60 C425.14,335.61 423.13,337.58 421.22,339.42 C416.07,344.42 414.68,346.48 413.42,351.00 C412.77,353.33 412.08,355.73 411.36,358.10 C412.26,353.96 411.53,353.21 409.09,355.42 C408.09,356.32 407.01,358.75 406.25,361.26 C407.30,357.15 407.95,353.82 407.82,352.71 C407.85,352.77 407.89,352.83 407.93,352.89 C408.47,353.76 408.97,352.97 409.43,350.50 C409.82,348.46 409.92,346.58 409.66,346.33 C409.36,346.03 407.85,346.79 404.52,348.98 C410.90,344.24 411.88,341.62 414.18,331.33 C412.61,338.70 412.63,340.06 413.80,341.82 ZM 423.73 268.40 C422.88,267.55 423.98,259.08 425.27,256.57 C426.22,254.73 426.32,254.72 427.57,256.42 C428.28,257.40 429.35,257.90 429.94,257.54 C430.53,257.17 431.30,257.62 431.65,258.54 C432.00,259.45 431.75,260.54 431.08,260.95 C430.42,261.36 429.83,263.11 429.79,264.85 C429.73,266.68 429.16,268.00 428.43,268.00 C427.73,268.00 426.54,268.24 425.78,268.53 C425.02,268.82 424.10,268.76 423.73,268.40 ZM 96.97 135.25 C97.43,133.74 98.48,130.93 99.30,129.00 C100.13,127.07 101.08,123.70 101.42,121.50 C102.27,115.99 103.98,111.00 105.02,111.00 C107.02,111.00 106.80,113.22 103.98,121.56 C102.34,126.41 101.00,131.38 101.00,132.62 C101.00,134.84 98.65,138.00 97.00,138.00 C96.53,138.00 96.51,136.76 96.97,135.25 ZM 239.37 417.29 C235.26,415.22 234.26,414.23 234.37,412.35 C234.52,409.69 234.99,409.59 240.33,411.07 C243.19,411.87 244.49,412.93 245.49,415.31 C246.77,418.35 246.66,420.07 245.19,419.94 C244.81,419.91 242.19,418.71 239.37,417.29 ZM 461.32 248.00 L 460.86 248.00 C449.03,248.00 447.99,248.15 446.99,250.03 C445.48,252.83 444.00,251.56 444.00,247.48 C444.00,245.09 443.40,243.75 442.00,243.00 C439.89,241.87 439.34,239.52 440.96,238.53 C441.49,238.20 443.68,239.52 445.83,241.47 C449.35,244.64 449.77,244.96 456.40,244.95 C450.00,245.03 447.95,245.37 448.25,246.25 C448.54,247.13 452.45,247.65 461.32,248.00 ZM 273.00 81.96 C272.17,81.40 269.48,81.02 267.00,81.10 C258.71,81.39 257.61,81.17 258.97,79.53 C259.86,78.47 261.37,78.23 264.46,78.65 C267.01,79.00 269.00,78.81 269.38,78.19 C270.13,76.98 274.83,77.61 276.72,79.18 C279.96,81.87 276.59,84.38 273.00,81.96 ZM 242.34 80.23 C240.94,79.34 241.71,74.48 243.48,73.02 C244.26,72.37 245.63,72.30 247.08,72.84 C248.91,73.51 249.45,74.50 249.55,77.35 C249.67,80.79 249.50,81.00 246.59,80.98 C244.89,80.98 242.98,80.64 242.34,80.23 ZM 137.75 377.97 C137.28,377.20 137.00,376.64 137.00,376.41 C137.00,375.06 134.77,374.00 131.92,374.00 C129.77,374.00 129.51,375.60 131.10,377.54 C129.70,376.05 128.62,375.04 128.15,374.88 C127.40,374.63 127.69,373.39 129.03,371.20 C130.84,368.21 131.18,368.04 132.59,369.45 C133.44,370.30 134.75,371.00 135.49,371.00 C136.97,371.00 143.33,376.00 142.68,376.65 C142.46,376.87 141.09,376.60 139.64,376.05 C137.06,375.07 136.40,375.60 137.75,377.97 ZM 360.31 99.90 C358.73,97.85 357.48,96.26 357.03,95.74 C356.73,95.38 354.83,94.69 352.13,93.88 C352.48,93.74 353.17,92.96 353.78,91.98 C354.51,90.80 354.71,89.76 354.14,88.45 C354.63,89.08 356.32,90.14 358.31,91.02 C360.68,92.07 363.40,93.78 364.35,94.83 C366.01,96.66 365.97,96.72 363.44,96.23 C360.89,95.75 360.96,95.94 365.49,102.11 C366.56,103.56 367.55,104.89 368.48,106.10 C367.46,104.80 366.44,103.45 365.59,102.25 C363.25,98.98 361.09,97.00 359.87,97.00 C358.74,97.00 358.70,97.59 360.31,99.90 ZM 400.50 379.25 C402.28,374.86 404.24,368.70 405.69,363.38 C405.22,365.47 405.07,367.31 405.50,368.01 C406.46,369.55 407.53,369.05 408.71,366.53 C406.56,373.09 404.59,378.36 403.69,379.75 C402.40,381.75 399.66,381.32 400.50,379.25 ZM 295.25 403.51 C294.22,402.33 294.78,401.75 298.64,400.04 C302.16,398.48 303.61,398.26 304.64,399.12 C306.79,400.90 306.29,401.62 301.72,403.36 C298.45,404.61 297.37,405.05 296.59,404.74 C296.16,404.56 295.82,404.15 295.25,403.51 ZM 331.14 403.51 C327.64,404.65 327.38,406.31 330.93,406.83 C332.18,407.02 336.33,406.40 340.15,405.46 C340.60,405.35 341.04,405.25 341.48,405.15 C341.18,405.22 340.88,405.29 340.58,405.37 C337.01,406.27 332.76,407.00 331.13,407.00 C329.50,407.00 322.61,408.10 315.83,409.45 C314.12,409.79 312.16,410.15 310.08,410.50 C315.81,409.47 317.00,408.92 317.00,407.43 C317.00,406.83 316.47,406.38 315.76,406.16 C316.88,405.94 318.16,405.75 319.46,405.60 C322.66,405.24 326.71,404.51 331.14,403.51 ZM 360.55 117.57 C354.85,115.72 354.04,115.21 356.05,114.74 C358.57,114.14 366.05,114.72 366.91,115.57 C367.40,116.07 368.17,120.06 367.74,119.92 C367.61,119.87 364.37,118.82 360.55,117.57 ZM 204.00 82.61 C204.00,80.76 206.21,80.00 211.58,80.00 C217.76,80.00 217.60,82.51 211.36,83.36 C204.81,84.26 204.00,84.18 204.00,82.61 ZM 255.50 438.18 C255.11,435.27 254.38,434.29 253.30,435.36 C252.94,435.72 252.61,439.66 252.47,444.72 C252.47,444.64 252.48,444.57 252.48,444.50 C252.68,434.55 252.42,428.03 251.78,427.25 C251.01,426.31 251.35,426.00 253.13,426.00 L 255.50 426.00 L 255.50 438.18 ZM 450.71 189.44 C446.60,184.48 441.55,178.97 436.63,173.92 C439.76,176.90 441.99,178.91 442.25,178.93 C443.84,179.08 441.90,175.75 438.57,171.50 C441.11,174.33 443.92,177.55 447.10,181.24 C450.10,184.72 453.24,188.48 456.35,192.30 C452.71,187.96 449.96,185.00 449.34,185.00 C447.68,185.00 447.57,185.44 450.71,189.44 ZM 403.32 120.25 C402.98,119.29 402.10,116.99 401.36,115.14 C399.92,111.56 400.27,110.00 402.50,110.00 C403.37,110.00 404.07,111.55 404.39,114.25 C404.94,118.77 404.90,122.00 404.30,122.00 C404.10,122.00 403.66,121.21 403.32,120.25 ZM 393.27 105.46 C390.15,103.30 390.12,103.20 392.27,102.63 C396.61,101.46 399.00,101.91 399.00,103.88 C399.00,107.26 396.77,107.88 393.27,105.46 ZM 394.57 136.76 C393.41,135.90 392.25,134.99 391.26,134.17 C388.82,132.15 386.34,130.64 385.75,130.81 C385.10,130.99 385.17,130.50 385.93,129.59 C387.03,128.26 387.93,128.59 393.13,132.25 C394.40,133.15 395.59,134.03 396.68,134.87 C395.31,134.07 393.99,133.63 393.51,134.11 C392.94,134.70 393.28,135.55 394.57,136.76 ZM 296.19 83.18 C293.70,82.94 292.97,82.45 293.23,81.18 C293.47,80.02 294.45,79.56 296.41,79.70 C299.72,79.94 300.30,80.36 299.84,82.17 C299.62,83.03 298.32,83.39 296.19,83.18 ZM 326.94 103.42 C325.85,102.12 325.87,101.69 327.06,100.94 C330.11,99.01 332.55,100.40 331.40,103.41 C330.62,105.44 328.62,105.45 326.94,103.42 ZM 422.60 214.26 C422.27,213.94 422.00,212.69 422.00,211.50 C422.00,210.31 422.27,209.06 422.60,208.74 C423.82,207.52 426.00,209.29 426.00,211.50 C426.00,213.71 423.82,215.48 422.60,214.26 ZM 424.00 232.00 C424.00,228.59 424.60,228.32 427.10,230.59 C429.22,232.51 428.53,235.00 425.89,235.00 C424.46,235.00 424.00,234.28 424.00,232.00 ZM 113.42 132.57 C116.09,130.44 118.04,128.76 118.33,128.27 C118.98,127.20 119.48,127.15 120.58,128.07 C122.27,129.47 122.44,131.00 120.90,131.00 C120.18,131.00 115.07,134.56 109.97,138.36 C114.01,135.11 117.69,131.92 117.82,131.35 C118.00,130.61 117.88,130.00 117.56,130.00 C117.13,130.00 115.51,131.05 113.42,132.57 ZM 407.22 134.78 C406.26,132.22 406.27,131.30 407.28,130.29 C408.31,129.26 408.75,129.88 409.59,133.51 C410.84,138.91 409.13,139.83 407.22,134.78 ZM 388.00 363.97 C388.00,365.24 388.64,364.97 394.53,360.53 C391.60,363.02 389.03,365.59 389.02,366.37 C389.00,367.92 388.74,368.03 387.50,367.00 C386.62,366.27 386.05,364.26 386.12,362.13 C386.18,360.13 386.44,359.29 386.69,360.25 C387.21,362.25 387.87,362.45 389.78,360.59 C388.66,361.96 388.00,363.16 388.00,363.97 ZM 388.25 351.20 C386.37,350.92 386.17,350.55 387.04,348.93 C388.18,346.79 388.84,346.62 390.87,347.90 C392.88,349.17 390.95,351.60 388.25,351.20 ZM 203.62 401.71 C201.97,400.51 202.03,400.32 204.42,399.04 C207.31,397.50 208.88,398.23 207.15,400.32 C206.53,401.07 206.31,401.98 206.68,402.34 C207.87,403.53 205.42,403.03 203.62,401.71 ZM 412.18 295.51 C413.06,293.57 413.61,293.27 414.66,294.13 C416.84,295.94 416.23,298.00 413.52,298.00 C411.24,298.00 411.13,297.80 412.18,295.51 ZM 219.26 83.34 C218.32,82.96 218.38,82.48 219.50,81.36 C221.24,79.62 223.16,80.41 222.35,82.53 C221.76,84.06 221.33,84.18 219.26,83.34 ZM 255.19 57.77 C255.14,62.31 254.81,63.00 254.00,63.00 C253.38,63.00 253.00,57.36 253.00,48.07 C253.00,35.83 252.72,32.86 251.43,31.57 C252.70,32.84 253.00,35.65 253.00,46.07 C253.00,56.24 253.29,59.00 254.35,59.00 C254.74,59.00 255.02,58.67 255.19,57.77 ZM 336.89 90.10 C336.76,90.07 336.63,90.04 336.50,90.02 C326.59,88.08 323.00,86.98 323.00,85.86 C323.00,85.35 324.14,85.13 326.12,85.19 C325.30,85.30 325.03,85.62 325.20,86.13 C325.44,86.88 328.31,88.10 331.57,88.84 C332.99,89.16 334.89,89.61 336.89,90.10 ZM 399.05 139.88 C399.05,139.88 399.04,139.88 399.04,139.88 C399.67,140.01 400.05,139.72 400.45,139.08 C400.66,138.74 400.46,138.23 400.02,137.65 C402.18,139.60 403.31,141.03 402.87,141.46 C402.62,141.72 400.90,141.01 399.05,139.88 ZM 79.63 260.53 C79.97,259.64 80.67,259.06 81.20,259.23 C82.70,259.73 82.27,261.47 80.56,261.82 C79.49,262.05 79.20,261.64 79.63,260.53 ZM 75.11 170.17 C70.45,174.72 65.68,179.59 62.33,183.30 C67.07,177.67 71.34,172.91 72.37,172.31 C72.95,171.98 73.92,171.21 75.11,170.17 ZM 424.00 252.00 C424.00,250.13 424.27,249.87 425.20,250.80 C426.13,251.73 426.13,252.27 425.20,253.20 C424.27,254.13 424.00,253.87 424.00,252.00 ZM 59.05 310.77 C56.56,307.96 54.24,305.28 52.28,302.90 C47.57,297.18 41.06,288.39 36.51,281.65 C42.25,290.10 50.66,300.85 59.05,310.77 ZM 73.69 321.41 C75.38,323.12 77.16,324.89 79.00,326.69 C80.46,328.11 82.12,329.73 83.64,331.22 C83.58,331.18 83.53,331.15 83.47,331.11 C81.75,330.10 78.35,326.89 75.92,323.98 C75.28,323.21 74.51,322.33 73.69,321.41 ZM 79.58 233.13 C79.15,232.44 79.07,231.60 79.40,231.27 C80.29,230.37 81.27,231.69 80.79,233.14 C80.45,234.15 80.21,234.15 79.58,233.13 ZM 159.18 410.45 C167.40,418.60 179.57,429.57 190.44,438.64 C179.30,429.41 166.80,418.26 159.18,410.45 ZM 252.43 446.62 C252.42,447.17 252.42,447.72 252.41,448.28 C252.33,458.87 252.09,460.53 250.51,461.45 C250.50,461.45 250.50,461.45 250.50,461.45 C251.85,460.60 252.16,458.39 252.43,446.62 ZM 338.38 420.78 C343.17,416.42 350.87,408.73 354.14,404.87 C352.01,407.75 343.65,416.06 338.38,420.78 ZM 42.98 248.06 L 32.14 248.00 L 32.25 247.84 L 40.87 248.02 C41.61,248.03 42.31,248.05 42.98,248.06 ZM 351.24 399.00 C348.92,399.19 345.81,399.78 341.91,400.75 C342.34,400.62 342.76,400.50 343.19,400.38 C345.77,399.62 349.32,399.00 351.09,399.00 C351.14,399.00 351.19,399.00 351.24,399.00 ZM 59.53 305.97 C61.22,308.11 63.66,310.89 66.64,314.09 C64.43,311.98 61.51,308.63 59.53,305.97 ZM 81.53 157.69 C84.30,155.15 87.02,153.00 87.73,153.00 C87.76,153.00 87.79,153.00 87.82,153.00 C86.19,153.86 83.83,155.65 81.53,157.69 ZM 480.26 224.49 C480.26,224.49 480.26,224.50 480.26,224.50 C482.06,227.56 483.49,229.70 484.89,231.20 C483.26,229.59 481.75,227.41 480.33,224.63 C480.31,224.58 480.28,224.54 480.26,224.49 ZM 466.90 210.65 C463.85,206.28 459.42,200.35 454.64,194.31 C459.04,199.77 463.68,206.00 466.90,210.65 ZM 131.80 378.30 C131.90,378.40 132.01,378.50 132.12,378.60 C132.80,379.21 134.34,381.04 136.15,383.35 C134.64,381.51 133.12,379.74 131.80,378.30 ZM 260.53 463.78 C260.42,463.70 260.30,463.62 260.19,463.54 L 255.37 460.08 L 255.50 456.04 L 255.50 460.17 L 260.25 463.58 C260.35,463.65 260.44,463.72 260.53,463.78 ZM 38.56 278.36 C42.46,283.79 46.74,289.41 50.57,294.00 C52.41,296.21 54.63,299.09 56.24,301.34 C54.42,298.85 52.24,296.03 50.55,294.00 C46.71,289.37 42.44,283.77 38.56,278.36 ZM 171.88 75.57 C165.42,81.38 160.12,86.73 160.00,87.57 C160.00,87.55 160.00,87.52 160.00,87.50 C160.00,86.81 165.34,81.44 171.88,75.57 ZM 366.07 384.62 C367.53,382.63 369.21,380.53 370.38,379.26 C370.40,379.24 370.43,379.21 370.46,379.18 C370.23,379.46 369.99,379.74 369.75,380.02 C368.74,381.19 367.44,382.83 366.07,384.62 ZM 331.86 425.96 C332.94,424.80 333.93,424.00 334.37,423.99 C334.42,423.99 334.48,423.97 334.57,423.92 C334.41,424.03 334.28,424.10 334.18,424.14 C333.62,424.35 332.75,425.05 331.86,425.96 ZM 407.28 352.23 C406.76,352.24 405.93,352.66 405.18,353.34 C404.17,354.25 403.02,355.00 402.61,355.00 C402.59,355.00 402.56,355.00 402.54,355.00 C402.55,355.00 402.57,355.00 402.58,355.00 C403.00,355.00 404.19,354.23 405.23,353.29 C406.24,352.38 406.82,352.04 407.28,352.23 ZM 322.94 434.23 C322.97,433.52 324.08,432.54 325.40,432.04 C326.49,431.62 328.25,430.18 329.68,428.58 C328.39,430.11 326.61,431.58 325.43,432.03 C324.09,432.53 322.97,433.52 322.94,434.23 ZM 149.97 394.77 C148.34,393.27 147.00,391.62 147.00,390.78 C147.00,391.55 148.36,393.23 149.97,394.77 ZM 329.79 64.52 C330.75,65.39 331.66,66.23 332.50,67.02 C334.95,69.32 337.61,71.81 340.09,74.13 C337.48,71.70 334.64,69.04 332.05,66.61 C331.34,65.95 330.58,65.25 329.79,64.52 ZM 335.17 86.30 C336.18,86.49 337.23,86.69 338.31,86.92 C341.39,87.56 343.61,87.94 345.04,88.00 C343.61,87.95 341.39,87.56 338.31,86.93 C337.18,86.70 336.14,86.49 335.17,86.30 ZM 256.50 32.76 C255.64,33.57 255.22,34.42 255.05,36.75 C255.18,34.39 255.61,33.59 256.50,32.76 ZM 335.02 74.57 C334.55,74.10 334.20,73.74 334.00,73.53 C331.98,71.33 330.23,69.50 328.54,67.82 C330.37,69.63 332.20,71.54 334.15,73.68 C334.31,73.86 334.61,74.16 335.02,74.57 ZM 347.67 404.34 C347.67,404.34 347.67,404.34 347.67,404.34 C348.49,405.16 343.96,410.33 337.46,416.66 C343.94,410.35 348.46,405.18 347.67,404.34 ZM 481.85 258.08 L 479.15 254.76 L 481.86 258.05 L 481.85 258.08 ZM 368.18 110.24 C367.14,108.84 365.91,107.22 364.65,105.57 C365.92,107.21 367.16,108.85 368.18,110.24 ZM 353.17 86.84 C353.70,87.48 354.00,87.94 354.00,88.14 L 354.00 88.14 C353.80,87.74 353.52,87.31 353.17,86.84 ZM 490.67 234.44 C490.81,234.47 490.95,234.49 491.09,234.52 C493.50,234.92 495.44,235.87 496.88,237.33 C495.42,235.86 493.46,234.92 491.00,234.50 C490.89,234.48 490.78,234.46 490.67,234.44 ZM 250.37 461.53 C249.30,462.18 247.09,463.87 245.32,465.38 C247.14,463.82 249.39,462.11 250.37,461.53 Z" fill="rgba(151,201,108,1)"/>
<path d="M 242.63 475.42 C241.61,472.87 240.55,471.88 238.14,470.74 C232.10,467.87 223.40,462.67 219.76,459.76 C217.88,458.26 214.26,455.92 211.71,454.56 C198.48,447.53 147.67,401.96 149.59,398.85 C149.93,398.31 149.27,397.62 148.14,397.33 C147.01,397.03 143.41,393.12 140.15,388.64 C136.90,384.16 133.28,379.64 132.12,378.60 C129.48,376.22 129.38,374.00 131.92,374.00 C134.77,374.00 137.00,375.06 137.00,376.41 C137.00,377.06 139.25,380.39 142.00,383.81 C144.75,387.22 147.00,390.36 147.00,390.78 C147.00,392.56 153.06,398.00 155.04,398.00 C156.22,398.00 159.51,398.65 162.35,399.45 C165.18,400.24 169.42,401.39 171.76,401.99 C175.50,402.95 175.90,403.32 175.02,404.95 C174.09,406.70 173.68,406.73 168.76,405.42 C165.87,404.65 162.40,404.02 161.05,404.01 C158.69,404.00 158.75,404.16 162.55,408.11 C168.27,414.05 192.93,435.43 203.94,443.98 C212.95,450.98 229.57,462.00 231.13,462.00 C231.54,462.00 234.13,463.41 236.90,465.13 L 241.94 468.26 L 245.32 465.38 C245.41,465.30 245.51,465.22 245.61,465.13 C243.53,467.12 242.00,469.37 242.00,471.01 C242.00,472.37 242.24,473.90 242.63,475.42 ZM 413.80 341.82 C412.52,339.89 412.61,338.45 414.67,329.07 C415.95,323.26 417.71,315.01 418.60,310.75 C420.10,303.48 421.42,301.32 422.55,304.27 C423.22,306.03 421.52,315.79 418.67,326.50 C417.35,331.45 416.46,335.84 416.70,336.25 C417.37,337.45 420.04,335.52 427.00,328.79 C447.06,309.38 467.04,284.27 478.38,264.21 L 481.86 258.05 L 477.92 253.28 L 473.98 248.50 L 461.32 248.00 C452.45,247.65 448.54,247.13 448.25,246.25 C447.94,245.31 450.27,244.99 457.67,244.94 C472.80,244.85 474.92,244.26 478.39,239.08 L 479.23 237.84 C479.13,237.99 479.04,238.14 478.95,238.30 C477.78,240.39 476.03,242.59 475.07,243.19 C473.98,243.87 473.49,245.11 473.76,246.52 C474.26,249.16 481.47,258.20 483.85,259.18 C484.76,259.55 486.10,259.67 486.83,259.43 C487.27,259.29 488.05,259.16 488.91,259.09 C486.27,259.50 484.64,261.68 478.45,271.54 C468.41,287.54 462.75,295.00 446.63,313.50 C439.70,321.45 416.96,344.00 415.87,344.00 C415.53,344.00 414.59,343.02 413.80,341.82 ZM 344.50 91.99 C340.65,91.00 334.83,89.58 331.57,88.84 C328.31,88.10 325.44,86.88 325.20,86.13 C324.70,84.61 327.98,84.81 338.31,86.93 C348.89,89.10 349.39,88.34 342.00,81.33 C338.42,77.93 334.89,74.49 334.15,73.68 C329.63,68.74 325.75,64.97 321.09,61.01 C314.35,55.29 303.35,47.00 302.50,47.00 C302.14,47.00 299.29,45.04 296.17,42.64 C289.28,37.34 277.09,29.35 270.96,26.12 L 266.46 23.74 L 265.64 24.50 C267.91,21.48 267.87,19.66 265.95,15.90 C261.90,7.96 253.21,6.03 247.28,9.85 C253.21,6.02 261.91,7.98 265.89,15.78 C267.49,18.92 269.76,20.71 278.18,25.48 C283.85,28.70 288.65,31.72 288.84,32.19 C289.03,32.67 291.31,34.14 293.91,35.45 C296.50,36.77 299.23,38.58 299.98,39.47 C300.72,40.37 305.87,44.62 311.41,48.91 C316.96,53.20 326.25,61.17 332.05,66.61 C337.85,72.05 344.92,78.64 347.77,81.26 C354.33,87.30 355.45,89.30 353.78,91.98 C353.09,93.09 352.29,93.95 352.01,93.90 C351.73,93.84 348.35,92.98 344.50,91.99 ZM 249.50 30.10 C252.25,31.68 254.62,32.99 254.77,32.99 C255.28,33.01 257.46,31.60 259.67,29.96 C258.47,31.04 257.39,32.00 256.77,32.53 C254.88,34.14 254.77,35.11 255.22,46.63 C255.60,56.57 255.43,59.00 254.35,59.00 C253.29,59.00 253.00,56.24 253.00,46.07 C253.00,35.65 252.70,32.84 251.43,31.57 C250.56,30.71 249.46,30.00 248.98,30.00 C248.49,30.00 246.52,28.38 244.60,26.40 L 241.10 22.80 L 231.80 28.37 C220.28,35.26 212.24,40.85 203.35,48.10 C199.57,51.18 195.05,54.44 193.29,55.35 C191.53,56.26 188.66,58.78 186.92,60.95 C185.18,63.12 178.41,69.70 171.88,75.57 C165.34,81.44 160.00,86.81 160.00,87.50 C160.00,88.50 161.27,88.49 166.22,87.45 C172.74,86.09 174.00,86.25 174.00,88.45 C174.00,89.28 171.69,90.21 167.75,90.95 C162.45,91.94 160.93,91.88 157.72,90.54 L 153.95 88.95 L 157.22 84.68 C165.11,74.39 200.67,43.67 213.56,36.00 C238.17,21.36 240.72,19.74 242.16,16.52 C242.13,16.62 242.09,16.72 242.06,16.82 C240.90,20.33 240.96,21.13 242.63,23.99 C243.66,25.76 246.75,28.51 249.50,30.10 ZM 261.31 464.31 C263.64,465.85 265.98,467.00 266.86,467.00 C270.34,467.00 293.77,452.94 301.00,446.51 C302.38,445.29 306.65,442.13 310.50,439.49 C324.28,430.06 349.52,406.19 347.67,404.34 C347.36,404.02 343.97,404.53 340.15,405.46 C336.33,406.40 332.18,407.02 330.93,406.83 C327.04,406.26 327.73,404.33 332.21,403.20 C334.57,402.61 338.52,401.61 341.00,400.98 C354.54,397.51 359.10,398.42 355.04,403.77 C351.58,408.33 335.58,423.98 334.37,423.99 C333.75,424.00 332.01,425.60 330.52,427.56 C329.03,429.52 326.72,431.54 325.40,432.04 C324.08,432.54 322.97,433.52 322.94,434.23 C322.88,435.54 299.60,453.23 297.10,453.85 C294.89,454.41 269.76,469.88 267.25,472.24 C266.61,472.84 266.03,473.53 265.62,474.16 C266.13,472.68 266.35,471.24 266.21,469.97 C266.05,468.65 263.86,466.32 261.31,464.31 ZM 85.93 338.50 C76.60,332.50 46.11,296.90 34.10,278.00 C24.36,262.66 22.27,259.30 19.85,258.25 C22.73,258.57 25.17,258.15 26.00,257.10 C26.27,256.76 27.79,254.50 29.36,252.08 C31.95,248.11 32.12,247.37 31.13,244.03 C31.81,244.76 35.41,245.00 44.50,245.00 C55.83,245.00 58.00,245.24 58.00,246.50 C58.00,248.14 55.93,248.33 40.87,248.02 L 32.25 247.84 L 29.12 252.47 C27.41,255.02 26.00,257.53 26.00,258.06 C26.00,260.83 39.90,281.17 50.55,294.00 C53.06,297.02 56.67,301.79 58.56,304.60 C60.45,307.40 64.13,311.72 66.75,314.19 C69.36,316.67 73.49,321.07 75.92,323.98 C78.35,326.89 81.75,330.10 83.47,331.11 C87.24,333.34 91.54,338.88 90.35,339.99 C89.88,340.43 87.90,339.76 85.93,338.50 ZM 16.95 234.79 C17.18,234.73 17.42,234.67 17.67,234.60 C22.66,233.33 24.95,230.93 29.62,222.08 C34.73,212.36 52.11,189.54 64.11,176.77 C69.15,171.41 74.26,165.68 75.48,164.02 C78.57,159.84 86.03,153.43 88.85,152.54 C90.93,151.89 91.12,152.05 90.51,153.98 C89.86,156.01 75.52,170.51 72.37,172.31 C70.11,173.61 52.46,194.77 48.00,201.52 C47.17,202.77 42.73,208.90 38.12,215.15 C33.52,221.39 28.88,228.41 27.83,230.74 L 25.91 234.98 L 28.46 238.72 C29.77,240.66 30.86,242.77 30.99,243.59 C30.28,241.54 28.53,238.64 26.96,236.96 C24.16,233.96 23.62,233.78 19.29,234.37 C18.45,234.49 17.67,234.63 16.95,234.79 ZM 479.76 237.05 L 481.34 234.69 L 477.92 228.30 C476.04,224.78 473.71,221.18 472.75,220.30 C471.79,219.41 471.00,218.15 471.00,217.49 C471.00,216.04 461.83,203.13 453.85,193.33 C447.62,185.69 447.25,185.00 449.34,185.00 C451.38,185.00 476.48,217.09 480.33,224.63 C483.37,230.59 486.82,233.79 490.99,234.50 C488.80,234.13 486.78,233.46 486.50,233.01 C485.64,231.60 482.03,233.90 479.76,237.05 ZM 430.74 168.18 C424.71,162.18 419.99,156.68 419.99,155.63 C420.00,153.83 420.09,153.83 422.75,155.57 C430.32,160.51 445.98,179.27 442.25,178.93 C441.84,178.89 436.66,174.06 430.74,168.18 ZM 358.00 396.39 C358.00,395.50 365.94,384.44 369.75,380.02 C371.54,377.95 373.00,375.75 373.00,375.13 C373.00,373.68 376.67,373.65 377.55,375.09 C377.92,375.68 376.89,377.60 375.27,379.34 C373.64,381.08 371.00,384.30 369.40,386.50 C367.81,388.70 365.49,391.32 364.25,392.32 C363.01,393.33 362.00,394.79 362.00,395.57 C362.00,396.36 361.10,397.00 360.00,397.00 C358.90,397.00 358.00,396.72 358.00,396.39 ZM 388.00 363.97 C388.00,362.02 391.84,357.80 396.79,354.31 C405.69,348.03 409.19,345.86 409.66,346.33 C409.92,346.58 409.82,348.46 409.43,350.50 C408.97,352.97 408.47,353.76 407.93,352.89 C407.29,351.84 406.74,351.93 405.23,353.29 C404.19,354.23 403.00,355.00 402.58,355.00 C402.16,355.00 399.27,356.93 396.16,359.29 C388.75,364.92 388.00,365.35 388.00,363.97 ZM 249.21 462.32 C249.74,461.94 250.19,461.63 250.51,461.45 C252.09,460.53 252.33,458.87 252.41,448.28 C252.46,441.62 252.86,435.80 253.30,435.36 C255.23,433.44 256.08,438.15 255.74,448.79 L 255.37 460.08 L 258.49 462.32 C256.78,461.25 255.16,460.52 254.13,460.51 C252.74,460.50 250.97,461.21 249.21,462.32 ZM 107.12 355.97 C102.65,352.65 99.00,349.58 99.00,349.13 C99.00,347.48 100.33,347.11 102.38,348.20 C105.73,349.98 118.00,360.13 118.00,361.11 C118.00,363.17 114.75,361.64 107.12,355.97 ZM 370.30 113.25 C369.34,111.74 366.16,107.46 363.24,103.75 C358.86,98.19 358.26,97.00 359.87,97.00 C361.09,97.00 363.25,98.98 365.59,102.25 C367.65,105.14 370.66,108.92 372.28,110.66 C373.90,112.40 374.92,114.32 374.55,114.91 C373.46,116.68 372.16,116.17 370.30,113.25 ZM 138.64 109.23 C137.86,107.97 141.41,101.82 145.41,97.50 C147.76,94.96 151.00,94.57 151.00,96.83 C151.00,98.70 139.36,110.38 138.64,109.23 ZM 405.50 368.01 C404.43,366.26 406.97,357.34 409.09,355.42 C412.12,352.67 412.52,354.50 410.43,361.69 C408.56,368.14 406.90,370.27 405.50,368.01 ZM 100.65 143.41 C102.18,141.08 116.15,130.00 117.56,130.00 C117.88,130.00 118.00,130.61 117.82,131.35 C117.53,132.58 100.73,146.00 99.49,146.00 C99.19,146.00 99.72,144.84 100.65,143.41 ZM 306.17 409.38 C306.42,408.11 307.41,407.49 309.23,407.45 C310.71,407.43 312.24,407.09 312.63,406.70 C313.89,405.44 317.00,405.96 317.00,407.43 C317.00,408.96 315.76,409.49 309.65,410.58 C306.24,411.18 305.84,411.05 306.17,409.38 ZM 395.50 137.57 C393.46,135.92 392.82,134.82 393.51,134.11 C394.72,132.88 401.35,137.62 400.45,139.08 C399.59,140.47 398.78,140.22 395.50,137.57 ZM 247.80 484.45 C246.12,483.54 244.93,481.90 243.87,479.00 C244.98,481.57 246.45,483.72 247.85,484.48 C247.94,484.53 248.03,484.57 248.11,484.62 C248.01,484.57 247.90,484.51 247.80,484.45 ZM 265.00 475.70 C264.91,476.76 263.50,478.75 261.73,480.62 C263.07,479.11 264.20,477.41 265.00,475.70 ZM 7.42 246.32 C7.38,245.10 7.55,243.86 7.95,242.65 C8.82,240.02 10.00,238.23 11.95,236.91 C10.35,238.08 9.20,239.66 8.32,241.78 C7.69,243.29 7.40,244.83 7.42,246.32 ZM 15.15 257.09 C13.21,256.37 11.53,255.13 10.24,253.58 C11.51,255.05 13.17,256.27 15.15,257.09 ZM 496.60 255.60 C495.12,257.08 493.77,258.05 492.47,258.56 C493.76,258.01 495.23,256.97 496.60,255.60 ZM 257.95 483.93 C257.60,484.16 257.25,484.37 256.93,484.54 C256.58,484.72 256.25,484.88 255.93,485.02 C256.21,484.89 256.50,484.75 256.80,484.60 C257.19,484.39 257.57,484.17 257.95,483.93 Z" fill="rgba(168,215,161,1)"/>
<path d="M 247.85 484.48 C245.06,482.96 242.00,475.92 242.00,471.01 C242.00,467.28 249.88,460.47 254.13,460.51 C257.28,460.54 265.89,467.30 266.21,469.97 C266.75,474.67 262.17,481.80 256.80,484.60 C253.43,486.35 251.24,486.32 247.85,484.48 ZM 257.39 479.87 C265.02,476.39 261.60,465.00 252.91,465.00 C249.82,465.00 246.00,469.43 246.00,473.00 C246.00,476.57 249.82,481.00 252.91,481.00 C254.01,481.00 256.02,480.49 257.39,479.87 ZM 483.85 259.18 C481.47,258.20 474.26,249.16 473.76,246.52 C473.49,245.11 473.98,243.87 475.07,243.19 C476.03,242.59 477.78,240.39 478.95,238.30 C481.06,234.55 485.52,231.42 486.50,233.01 C486.78,233.46 488.80,234.13 490.99,234.50 C496.95,235.51 500.00,239.63 500.00,246.68 C500.00,251.62 499.65,252.55 496.60,255.60 C494.53,257.67 492.21,259.00 490.68,259.00 C489.30,259.00 487.56,259.19 486.83,259.43 C486.10,259.67 484.76,259.55 483.85,259.18 ZM 493.08 252.08 C496.68,248.47 496.85,244.76 493.55,241.45 C487.04,234.95 476.86,242.24 481.16,250.32 C484.03,255.70 488.75,256.40 493.08,252.08 ZM 17.53 257.86 C9.69,256.04 5.45,248.65 8.32,241.78 C10.20,237.28 13.28,235.20 19.29,234.37 C23.62,233.78 24.16,233.96 26.96,236.96 C28.62,238.73 30.48,241.87 31.10,243.94 C32.12,247.36 31.97,248.07 29.36,252.08 C27.79,254.50 26.27,256.76 26.00,257.10 C24.95,258.42 21.35,258.74 17.53,257.86 ZM 24.69 251.83 C27.86,248.85 27.79,243.70 24.55,240.45 C21.24,237.15 17.53,237.32 13.92,240.92 C10.47,244.37 10.20,247.71 13.07,251.37 C15.76,254.78 21.31,255.00 24.69,251.83 ZM 249.50 30.10 C246.75,28.51 243.66,25.76 242.63,23.99 C240.96,21.13 240.90,20.33 242.06,16.82 C245.81,5.44 260.33,4.89 265.95,15.90 C268.13,20.18 267.88,21.94 264.56,25.83 C262.86,27.82 255.74,33.02 254.77,32.99 C254.62,32.99 252.25,31.68 249.50,30.10 ZM 256.85 26.57 C259.59,25.16 262.00,21.32 262.00,18.38 C262.00,15.86 256.42,11.00 253.53,11.00 C249.97,11.00 246.00,15.15 246.00,18.87 C246.00,23.35 246.99,25.09 250.40,26.57 C254.26,28.25 253.61,28.25 256.85,26.57 Z" fill="rgba(175,204,215,1)"/>
</g>
</svg>