<svg xmlns="http://www.w3.org/2000/svg" width="508" height="492" viewBox="0 0 508 492">
<g>
<path d="M 245.00 313.91 C235.21,313.22 227.19,311.07 221.56,307.63 L 217.62 305.22 L 217.89 265.86 C218.12,232.52 217.95,226.06 221.07,223.26 C222.03,222.40 223.30,221.88 225.00,221.03 C231.69,217.67 239.07,216.56 254.50,216.60 C274.07,216.66 283.46,218.61 289.21,223.81 L 293.23 227.44 L 292.44 303.93 L 289.56 306.94 C287.97,308.59 284.39,310.72 281.59,311.66 C275.65,313.66 257.48,314.78 245.00,313.91 ZM 271.76 289.42 C279.55,287.81 284.10,285.99 287.25,283.22 C288.60,282.04 289.00,280.11 289.00,274.85 C289.00,271.08 288.79,268.00 288.54,268.00 C288.28,268.00 285.69,269.00 282.79,270.23 C277.87,272.31 275.98,272.47 256.00,272.48 C235.98,272.50 234.12,272.35 229.00,270.25 C225.98,269.01 223.16,268.00 222.75,268.00 C222.34,268.00 222.00,271.37 222.00,275.48 L 222.00 282.97 L 226.75 285.36 C230.87,287.44 233.77,288.26 244.50,290.37 C249.61,291.38 264.83,290.85 271.76,289.42 ZM 279.00 308.57 C286.98,306.12 289.00,303.45 289.00,295.33 C289.00,292.14 289.27,290.39 288.54,289.71 C287.55,288.80 284.74,289.86 277.00,292.02 C270.45,293.85 267.47,294.07 253.50,293.72 C237.98,293.34 233.33,292.53 223.75,288.52 C222.17,287.86 222.00,288.53 222.00,295.24 C222.00,301.09 222.38,303.02 223.75,304.22 C229.74,309.44 237.92,310.98 257.50,310.58 C268.87,310.35 275.09,309.77 279.00,308.57 ZM 278.87 257.55 C287.11,254.94 289.00,252.49 289.00,244.43 C289.00,241.14 289.22,239.34 288.45,238.66 C287.44,237.77 284.71,238.81 277.50,240.97 C263.10,245.28 244.29,244.70 228.93,239.48 L 222.00 237.12 L 222.00 244.13 C222.00,247.98 222.44,251.95 222.98,252.96 C224.06,254.98 227.69,256.55 236.00,258.57 C243.91,260.50 271.66,259.84 278.87,257.55 ZM 271.45 239.01 C278.99,237.78 287.68,233.59 288.58,230.76 C289.09,229.13 288.52,227.96 286.18,225.87 C281.63,221.80 277.18,220.87 259.50,220.30 C241.94,219.73 234.24,220.67 227.01,224.26 C223.16,226.17 222.50,226.94 222.50,229.50 C222.50,232.08 223.21,232.88 227.61,235.24 C230.42,236.74 235.14,238.38 238.11,238.87 C245.56,240.11 264.27,240.19 271.45,239.01 ZM 217.50 193.19 C212.99,190.40 208.24,184.53 207.06,180.28 C203.36,166.95 209.33,155.92 222.24,152.25 C227.09,150.87 229.24,149.57 232.44,146.08 C239.59,138.30 242.07,136.30 245.94,135.14 C251.46,133.48 263.58,133.70 267.43,135.53 C271.74,137.58 277.36,143.47 280.28,148.99 C282.42,153.05 283.15,153.60 287.78,154.63 C299.22,157.17 304.30,163.42 304.43,175.09 C304.49,181.00 304.14,182.34 301.49,186.16 C297.71,191.61 291.30,195.00 284.79,195.00 C278.02,195.00 278.23,192.49 285.07,191.68 C295.56,190.44 301.61,183.35 300.77,173.28 C300.04,164.48 294.78,159.47 285.04,158.32 L 279.89 157.71 L 277.10 151.55 C273.74,144.16 268.62,139.59 261.86,137.97 C250.79,135.31 240.48,139.74 235.47,149.29 C232.39,155.18 231.12,155.96 224.50,155.99 C216.03,156.04 210.01,163.42 210.01,173.77 C210.00,179.71 210.21,180.28 214.04,184.43 C219.15,189.97 223.43,192.00 229.98,192.00 C233.68,192.00 235.05,192.36 234.75,193.25 C234.49,194.05 231.86,194.60 227.42,194.77 C222.09,194.98 219.81,194.61 217.50,193.19 ZM 268.03 269.98 C280.16,268.52 291.72,262.32 288.43,259.03 C287.73,258.33 285.55,258.66 281.56,260.06 C266.49,265.36 238.42,264.59 223.66,258.48 C222.14,257.85 221.88,258.13 222.16,260.11 C222.41,261.87 224.10,263.35 228.63,265.74 C238.04,270.72 250.64,272.07 268.03,269.98 ZM 170.99 216.48 C159.88,205.34 155.42,201.45 155.21,202.73 C154.40,207.70 153.83,209.00 152.48,209.00 C151.33,209.00 151.00,207.60 151.00,202.70 C151.00,199.13 151.52,195.88 152.20,195.20 C153.72,193.68 165.64,193.61 166.57,195.11 C167.43,196.50 165.22,197.96 162.25,197.98 C161.01,197.99 160.00,198.34 160.00,198.76 C160.00,199.18 166.64,206.16 174.76,214.26 L 189.52 229.00 L 197.26 229.00 C203.47,229.00 205.00,229.30 205.00,230.50 C205.00,231.73 203.30,232.00 195.74,232.00 L 186.48 232.00 ZM 307.19 231.95 C303.11,230.31 305.90,229.00 313.48,229.00 L 320.83 229.00 L 335.67 213.94 C343.83,205.66 350.65,198.46 350.83,197.94 C351.02,197.42 349.81,197.00 348.14,197.00 C344.71,197.00 343.06,195.39 345.74,194.66 C346.71,194.39 349.98,194.25 353.00,194.35 L 358.50 194.54 L 358.50 201.27 C358.50,208.40 356.71,211.09 356.19,204.75 C356.02,202.69 355.59,201.00 355.23,201.00 C354.87,201.00 347.33,208.20 338.47,217.00 L 322.36 233.00 L 315.93 232.94 C312.39,232.90 308.46,232.46 307.19,231.95 ZM 261.00 195.49 C261.00,189.64 261.48,185.21 262.24,183.98 C263.71,181.64 262.74,179.64 258.67,176.60 L 256.00 174.61 L 252.50 178.00 C248.54,181.84 248.36,182.50 250.60,184.74 C251.86,186.01 252.12,188.03 251.85,194.58 C251.52,202.41 250.78,205.12 249.37,203.70 C249.02,203.36 248.40,199.63 247.99,195.42 C247.31,188.41 246.25,186.07 243.75,186.02 C241.57,185.97 243.69,182.30 249.30,176.37 C254.92,170.44 255.83,169.84 257.70,170.84 C259.94,172.04 270.00,183.62 270.00,185.01 C270.00,185.47 268.65,186.14 267.00,186.50 L 264.00 187.16 L 264.00 194.50 C264.00,202.11 263.42,205.00 261.89,205.00 C261.40,205.00 261.00,200.72 261.00,195.49 ZM 306.75 356.31 C303.47,355.46 304.77,353.00 308.50,353.00 C310.98,353.00 312.00,352.55 312.00,351.47 C312.00,350.63 306.94,344.87 300.75,338.68 C290.73,328.65 286.00,323.16 286.00,321.54 C286.00,319.42 290.11,322.75 301.96,334.50 C309.46,341.92 315.91,348.00 316.29,348.00 C316.68,348.00 317.00,346.42 317.00,344.50 C317.00,342.06 317.45,341.00 318.50,341.00 C319.70,341.00 320.00,342.50 320.00,348.50 L 320.00 356.00 L 315.58 356.00 C313.15,356.00 310.56,356.17 309.83,356.38 C309.10,356.59 307.71,356.56 306.75,356.31 ZM 190.91 353.27 C189.63,349.89 190.72,340.74 192.35,341.28 C192.98,341.48 193.64,343.08 193.81,344.83 C193.99,346.57 194.38,348.00 194.70,348.00 C195.01,348.00 201.51,341.92 209.14,334.50 C221.91,322.09 225.00,319.61 225.00,321.81 C225.00,322.25 218.93,329.09 211.50,337.00 C204.07,344.91 198.00,351.75 198.00,352.19 C198.00,352.64 199.80,353.00 202.00,353.00 C204.89,353.00 206.00,353.42 206.00,354.50 C206.00,355.69 204.55,356.00 198.98,356.00 C192.25,356.00 191.91,355.89 190.91,353.27 ZM 227.69 301.35 C226.27,299.94 227.07,298.00 229.07,298.00 C230.47,298.00 231.04,298.54 230.82,299.67 C230.47,301.51 228.76,302.43 227.69,301.35 ZM 226.47 279.94 C225.69,278.69 227.86,276.83 229.50,277.35 C230.05,277.52 230.50,278.30 230.50,279.07 C230.50,280.84 227.43,281.50 226.47,279.94 ZM 227.69 250.35 C226.31,248.98 227.03,246.86 228.75,247.19 C229.71,247.38 230.50,248.16 230.50,248.93 C230.50,250.51 228.74,251.40 227.69,250.35 ZM 236.45 281.91 C235.59,280.52 237.49,278.57 238.87,279.42 C240.02,280.13 239.28,283.00 237.95,283.00 C237.49,283.00 236.82,282.51 236.45,281.91 ZM 236.18 251.33 C236.66,248.82 239.00,248.48 239.00,250.92 C239.00,252.15 238.35,253.00 237.43,253.00 C236.50,253.00 235.99,252.32 236.18,251.33 ZM 236.00 301.50 C236.00,300.47 236.66,299.98 237.75,300.19 C239.86,300.60 239.72,302.37 237.55,302.82 C236.65,303.01 236.00,302.46 236.00,301.50 Z" fill="rgba(7,81,166,1)"/>
<path d="M 121.01 355.53 C120.51,354.21 119.63,352.32 119.06,351.32 C118.49,350.32 116.26,345.45 114.11,340.50 C111.95,335.55 107.87,326.55 105.04,320.50 C97.60,304.63 95.67,300.48 91.45,291.25 C89.06,286.01 87.50,283.26 86.70,283.14 C86.83,282.96 86.98,282.84 87.14,282.79 C87.91,282.53 87.58,280.83 86.13,277.55 C84.94,274.88 83.65,273.01 83.26,273.41 C82.73,273.93 82.52,275.73 82.59,278.56 C81.95,272.37 81.01,270.34 76.85,262.10 C72.33,253.14 71.50,251.72 68.95,251.13 C71.06,251.36 72.07,250.96 73.28,249.61 C74.90,247.80 74.92,247.49 73.47,246.06 C72.03,244.64 71.79,244.66 70.89,246.25 C70.21,247.45 69.26,247.99 68.16,247.92 C69.38,247.85 70.47,247.06 71.15,245.56 C72.64,242.29 71.60,240.00 68.61,240.00 C63.92,240.00 62.01,241.84 63.49,244.58 C63.49,244.57 63.49,244.57 63.48,244.57 C61.06,241.39 60.73,241.25 59.04,242.69 C57.31,244.18 57.38,244.40 60.69,247.30 C61.39,247.91 62.27,248.53 63.20,249.07 C62.28,248.54 61.43,247.95 60.74,247.35 L 60.69 247.30 L 57.34 244.36 L 60.95 240.68 C63.82,237.75 65.32,237.00 68.27,237.00 C71.94,237.00 72.03,236.91 76.53,227.94 C79.03,222.96 81.27,217.22 81.50,215.19 C81.75,213.05 81.97,211.08 82.18,209.27 C82.13,210.47 83.64,210.05 85.37,208.14 C86.67,206.70 86.84,205.70 86.09,203.74 C84.53,199.64 83.00,199.46 83.00,203.36 C83.00,205.27 82.73,207.55 82.39,208.42 C82.30,208.65 82.24,208.86 82.21,209.04 C83.63,196.91 84.37,191.52 85.43,185.50 C86.20,181.10 87.13,175.25 87.48,172.50 C87.84,169.75 88.78,165.28 89.57,162.57 C90.55,159.20 91.00,156.86 90.94,155.48 C91.03,155.86 91.08,156.29 91.10,156.75 C91.15,158.26 91.52,160.62 91.91,162.00 C92.16,162.90 92.40,163.17 92.73,162.59 C89.16,173.92 84.70,205.00 86.70,205.00 C87.24,205.00 90.87,198.36 94.77,190.25 C105.50,167.90 122.00,131.07 122.00,129.44 C122.00,129.08 121.95,128.75 121.87,128.49 C121.97,128.51 122.05,128.53 122.12,128.58 C122.85,129.02 122.83,128.54 122.06,127.12 C120.66,124.49 119.80,124.46 117.54,126.96 C117.04,127.51 115.94,128.44 114.57,129.49 C118.08,126.60 120.00,124.17 120.00,122.51 C120.00,118.98 123.07,116.01 127.44,115.31 C129.78,114.93 131.65,114.04 133.55,112.15 C131.92,113.87 130.29,115.08 128.50,115.94 C125.67,117.30 125.63,117.40 127.75,117.76 C128.26,117.85 128.80,118.06 129.30,118.36 C128.79,118.13 128.18,118.00 127.50,118.00 C123.94,118.00 122.39,121.42 124.49,124.63 C126.45,127.62 129.00,127.38 130.66,124.05 C131.50,122.38 131.47,120.79 130.78,119.65 C130.86,119.76 130.93,119.87 130.99,119.98 C132.10,122.05 134.02,122.06 136.53,120.03 C135.79,120.93 134.86,122.46 134.16,123.93 C133.15,126.08 131.16,128.12 129.12,129.08 C125.62,130.73 121.01,137.13 121.01,140.35 C121.00,140.52 120.99,140.71 120.95,140.93 C121.01,139.77 120.57,139.00 119.66,139.00 C118.11,139.00 115.70,143.70 116.55,145.07 C117.43,146.50 118.75,146.18 119.84,144.29 C119.75,144.48 119.65,144.67 119.56,144.85 C116.70,150.10 105.08,174.72 103.17,179.56 C102.72,180.71 101.74,182.92 100.46,185.68 C100.55,184.90 100.38,184.23 99.83,183.90 C99.13,183.46 98.49,183.20 98.41,183.30 C98.32,183.41 97.51,184.96 96.60,186.75 C95.03,189.85 95.04,190.00 96.81,190.00 C97.60,190.00 98.40,189.47 99.04,188.73 C97.58,191.85 95.90,195.35 94.25,198.70 C83.15,221.32 82.67,223.39 83.24,245.74 C83.76,265.71 83.99,266.86 89.93,279.00 C91.68,282.58 93.98,287.93 95.03,290.89 C96.09,293.86 97.64,297.05 98.47,297.97 C99.31,298.90 100.00,299.95 100.00,300.31 C100.00,300.66 101.50,304.23 103.34,308.23 C105.17,312.23 107.25,316.96 107.96,318.75 C108.67,320.54 109.59,322.00 110.01,322.00 C110.44,322.00 111.09,323.24 111.46,324.75 C111.83,326.26 114.07,331.77 116.45,337.00 C118.82,342.23 121.74,348.66 122.93,351.29 C124.32,354.38 126.05,356.49 127.79,357.23 C131.75,358.92 134.00,361.06 135.45,364.54 C136.50,367.04 138.21,368.24 144.62,370.95 C148.95,372.79 155.80,375.81 159.83,377.66 C163.85,379.52 167.90,381.16 168.83,381.30 C170.47,381.57 188.36,388.92 198.78,393.62 C201.68,394.93 204.86,396.00 205.83,396.00 C206.80,396.00 208.03,396.42 208.55,396.94 C209.07,397.45 213.10,399.30 217.50,401.04 C221.90,402.78 227.75,405.11 230.50,406.23 C233.25,407.34 237.98,408.55 241.00,408.91 C241.28,408.95 241.59,408.98 241.93,409.01 C241.78,409.00 241.63,409.00 241.49,409.00 C239.62,409.00 235.16,407.94 231.59,406.64 C225.27,404.35 225.02,404.33 223.12,406.11 C222.73,406.46 222.36,406.75 221.94,406.97 C221.48,406.15 218.39,404.85 208.00,401.03 C205.99,400.29 203.64,399.39 201.44,398.52 C201.60,398.22 201.67,397.69 201.73,396.95 C201.90,394.61 199.84,393.46 197.26,394.46 C195.71,395.05 195.79,395.34 198.01,397.04 C198.10,397.11 198.18,397.18 198.27,397.24 C197.25,396.82 196.36,396.44 195.66,396.13 C192.99,394.96 189.62,393.69 188.17,393.33 C186.71,392.96 184.92,392.06 184.19,391.33 C183.46,390.60 182.22,390.00 181.45,390.00 C180.67,390.00 176.32,388.28 171.77,386.18 C167.22,384.09 159.45,380.90 154.50,379.10 C149.55,377.30 143.53,374.94 141.13,373.87 C137.96,372.45 136.34,372.09 136.20,372.85 C135.99,372.04 136.55,372.01 137.75,372.49 C141.51,374.00 142.56,374.24 141.22,373.26 C140.51,372.76 140.19,371.67 140.50,370.85 C140.88,369.88 140.10,368.89 138.29,368.02 C133.90,365.93 131.80,366.11 129.30,368.81 C127.01,371.28 127.01,371.32 128.99,372.40 C129.23,372.54 129.58,372.82 130.01,373.20 C128.91,372.31 128.03,372.00 127.05,372.00 C122.93,372.00 120.74,369.77 120.09,364.94 C119.65,361.68 118.98,360.45 117.46,360.04 C117.34,360.01 117.20,359.96 117.03,359.89 C117.24,359.96 117.40,360.00 117.53,360.00 C118.44,360.00 119.43,360.94 119.73,362.08 C120.15,363.67 120.48,363.85 121.12,362.83 C122.12,361.27 122.25,358.29 121.41,358.17 C121.76,357.85 121.55,356.94 121.01,355.53 ZM 239.00 78.18 C239.00,78.35 241.58,78.35 244.88,78.20 C240.12,78.47 237.36,79.12 232.72,80.58 C228.20,82.00 221.73,84.48 218.34,86.08 C214.95,87.69 211.55,89.00 210.79,89.00 C210.02,89.00 208.97,89.41 208.45,89.91 C207.24,91.07 196.58,95.43 187.50,98.47 C178.02,101.65 149.43,113.41 140.05,117.85 C141.00,117.36 142.03,116.87 143.00,116.46 C145.48,115.40 148.09,113.96 148.82,113.27 C149.55,112.57 150.51,112.00 150.96,112.00 C151.42,112.00 152.05,111.32 152.36,110.50 C152.56,109.98 152.63,109.66 152.46,109.55 C157.68,107.26 164.95,104.21 172.78,101.07 C196.17,91.68 218.65,82.25 219.92,81.31 C220.01,81.24 220.05,81.14 220.04,81.01 C221.16,82.06 225.00,79.40 225.00,77.43 C225.00,76.99 224.54,76.69 223.63,76.54 C228.98,76.00 233.58,75.34 234.50,74.96 C244.52,70.80 245.98,69.93 247.33,67.34 C248.13,65.77 249.74,63.64 250.90,62.59 C251.53,62.02 251.97,61.52 252.28,60.60 C252.14,61.22 251.98,61.62 251.80,61.80 C250.87,62.73 251.26,63.00 253.55,63.00 L 256.50 63.00 L 256.46 60.72 L 260.61 65.57 C263.30,68.72 266.52,71.36 268.36,71.92 C270.09,72.45 273.33,73.55 275.58,74.37 C277.57,75.11 282.05,75.90 286.07,76.27 C282.46,75.96 278.70,75.44 277.13,75.01 C274.62,74.33 273.41,74.45 272.38,75.48 C271.38,76.48 270.16,76.62 267.98,76.00 C264.53,75.01 257.77,75.82 258.58,77.13 C258.88,77.61 261.68,78.02 264.81,78.05 C265.71,78.05 266.83,78.15 268.04,78.30 C265.11,78.02 261.51,78.00 255.56,78.00 C251.61,78.00 248.62,78.03 246.17,78.13 L 252.27 77.82 L 249.39 75.92 C245.61,73.43 241.37,73.44 240.04,75.93 C239.47,77.00 239.00,78.01 239.00,78.18 ZM 345.25 308.34 C344.56,308.06 344.00,306.97 344.00,305.92 C344.00,304.45 344.71,304.00 347.00,304.00 C348.70,304.00 350.00,303.47 350.00,302.78 C350.00,302.11 343.53,295.11 335.61,287.22 L 321.22 272.89 L 313.59 273.09 C305.57,273.30 303.83,272.77 305.87,270.73 C306.70,269.90 310.01,269.57 315.97,269.73 L 324.84 269.96 L 339.58 284.98 C347.68,293.24 354.69,300.00 355.16,300.00 C355.62,300.00 356.00,298.42 356.00,296.50 C356.00,293.67 356.38,293.00 358.00,293.00 C359.79,293.00 360.00,293.67 360.00,299.38 C360.00,305.07 359.73,305.95 357.54,307.38 C355.21,308.91 348.04,309.46 345.25,308.34 ZM 385.02 124.47 C386.00,123.30 386.03,122.36 385.17,120.47 C384.68,119.39 383.86,118.69 382.92,118.32 C384.74,118.63 385.04,118.30 384.80,116.62 C384.70,115.91 384.51,115.42 384.16,115.12 C386.12,116.16 387.88,118.76 388.82,122.25 C389.43,124.49 390.22,125.96 392.65,128.23 C392.50,128.09 392.34,127.96 392.19,127.82 C389.53,125.42 388.61,125.08 387.44,126.05 C385.82,127.39 385.45,129.46 387.00,128.50 C387.04,128.48 387.08,128.46 387.13,128.46 C387.03,128.69 387.00,129.06 387.00,129.55 C387.00,133.04 420.42,204.52 422.26,205.00 C422.25,205.00 422.24,205.00 422.22,205.00 C421.65,205.00 421.42,205.90 421.71,207.01 C422.00,208.11 421.77,209.57 421.20,210.26 C420.95,210.56 420.80,210.90 420.74,211.24 C419.56,208.71 418.03,205.64 416.01,201.50 C413.88,197.10 409.40,187.65 406.06,180.50 C402.73,173.35 398.91,165.25 397.57,162.50 C396.24,159.75 393.75,154.35 392.03,150.50 C390.32,146.65 388.32,142.38 387.59,141.00 C386.86,139.62 385.71,136.78 385.03,134.68 C384.22,132.16 382.90,130.48 381.15,129.74 C378.76,128.73 376.73,127.25 375.45,125.70 C376.35,125.78 377.23,124.79 377.32,123.49 C378.54,126.14 382.91,127.02 385.02,124.47 ZM 366.95 259.89 C365.74,259.07 365.88,258.65 367.75,257.33 C368.99,256.47 370.00,255.36 370.00,254.88 C370.00,254.39 356.00,254.00 338.70,254.00 C307.95,254.00 305.00,253.72 305.00,250.80 C305.00,250.36 319.60,250.00 337.44,250.00 C355.28,250.00 370.12,249.61 370.42,249.13 C370.71,248.66 370.06,247.46 368.98,246.48 C364.60,242.52 367.66,241.74 372.64,245.54 C378.14,249.74 378.51,251.36 374.87,255.49 C370.92,259.99 368.83,261.15 366.95,259.89 ZM 136.97 257.23 C134.79,255.18 133.00,252.76 133.00,251.87 C133.00,250.16 140.27,243.00 142.00,243.00 C143.30,243.00 143.30,246.70 142.00,247.50 C138.60,249.60 143.45,250.00 172.44,250.00 C203.13,250.00 208.01,250.48 203.88,253.10 C203.12,253.58 188.66,253.98 171.75,253.98 C154.84,253.99 141.00,254.24 141.00,254.54 C141.00,254.83 141.69,256.13 142.54,257.41 C143.92,259.53 143.92,259.82 142.50,260.36 C141.51,260.74 139.48,259.59 136.97,257.23 ZM 426.00 269.12 C426.76,269.44 427.62,269.57 428.03,269.44 C427.96,269.51 427.91,269.56 427.86,269.59 C427.38,269.89 426.97,271.34 426.97,272.82 C426.96,275.89 426.81,279.17 426.54,282.39 C426.50,281.32 426.30,280.57 425.97,279.95 C425.35,278.78 424.74,277.98 424.62,278.16 C421.98,282.16 421.05,284.09 422.05,283.47 C422.34,283.29 422.56,283.25 422.71,283.40 C422.50,283.29 422.11,283.72 421.46,284.50 C418.91,287.53 403.09,321.49 393.22,344.95 C393.33,344.09 392.84,343.93 391.82,343.66 C390.91,343.43 389.87,344.20 388.94,345.43 C390.17,342.71 391.64,339.55 393.11,336.50 C396.31,329.90 404.77,311.68 411.92,296.00 L 424.92 267.50 L 424.91 265.91 C425.14,268.15 425.48,268.91 426.00,269.12 ZM 158.75 308.26 L 152.00 307.91 L 152.00 300.45 C152.00,292.42 153.56,290.37 154.62,297.00 C154.97,299.20 155.54,301.00 155.89,301.00 C156.24,301.00 163.43,294.09 171.86,285.64 L 187.20 270.27 L 194.25 269.68 C198.65,269.31 202.08,269.51 203.38,270.20 C205.43,271.30 205.43,271.33 203.48,272.09 C202.39,272.51 198.52,272.89 194.89,272.93 L 188.27 273.00 L 173.64 288.00 C165.59,296.24 159.00,303.44 159.00,304.00 C159.00,304.55 160.73,305.00 162.83,305.00 C164.94,305.00 166.94,305.27 167.26,305.60 C168.00,306.33 167.04,309.08 166.14,308.80 C165.79,308.70 162.46,308.45 158.75,308.26 ZM 367.69 113.28 C366.21,112.27 363.17,111.36 359.11,110.72 C357.19,110.42 356.85,111.91 358.01,112.91 C357.21,112.57 356.38,112.22 355.50,111.85 C348.90,109.09 339.00,104.85 333.50,102.44 C328.00,100.02 319.90,96.88 315.50,95.46 C311.10,94.04 306.50,92.23 305.29,91.44 C304.07,90.65 302.44,90.00 301.66,90.00 C300.89,90.00 298.28,88.92 295.88,87.60 C293.47,86.28 286.71,83.58 280.84,81.60 C278.03,80.65 275.92,79.95 274.05,79.43 C275.22,79.72 276.35,80.03 277.34,80.36 C283.99,82.57 290.61,82.80 289.36,80.77 C289.29,80.67 289.31,80.58 289.41,80.50 C289.01,81.05 292.07,82.40 310.00,90.06 C316.88,92.99 323.39,95.98 324.47,96.70 C325.56,97.41 327.36,98.00 328.47,98.01 C329.59,98.01 331.77,98.67 333.32,99.48 C338.44,102.15 363.54,112.00 365.23,112.00 C366.14,112.00 367.18,112.48 367.54,113.07 C367.59,113.14 367.63,113.21 367.69,113.28 ZM 262.28 409.19 C259.28,409.57 259.35,410.55 261.16,413.00 C262.30,414.54 262.93,416.30 262.56,416.90 C262.27,417.37 262.07,417.69 262.16,417.81 C262.33,418.08 263.71,417.55 268.01,415.93 C269.27,415.45 270.37,415.04 271.39,414.67 C266.44,416.53 263.81,418.23 260.68,421.27 L 256.22 425.60 L 256.20 429.36 C256.10,426.07 255.93,424.00 255.69,424.00 C255.25,424.00 255.16,423.55 255.50,423.00 C256.21,421.85 254.37,421.80 251.57,422.90 C250.90,423.16 250.50,423.36 250.36,423.53 C249.52,422.77 248.57,421.39 248.03,420.07 C246.97,417.51 243.72,415.53 237.80,413.94 C239.03,414.25 240.05,414.55 240.75,414.81 C246.21,416.89 246.55,416.78 248.85,412.35 C249.82,410.48 249.72,410.26 248.10,410.69 C247.07,410.95 245.92,410.69 245.55,410.09 C245.27,409.63 244.12,409.23 242.75,409.07 C247.29,409.39 255.43,409.40 262.28,409.19 ZM 432.42 253.44 C433.86,250.69 434.41,247.95 434.26,244.37 C434.01,238.64 430.56,229.53 429.01,230.49 C428.48,230.82 428.09,235.45 428.01,242.12 C428.06,236.24 428.35,230.90 428.89,230.57 C429.80,230.01 426.20,219.00 425.11,219.00 C424.89,219.00 424.71,223.55 424.60,230.39 C424.50,224.78 424.25,221.44 423.42,218.25 C423.04,216.81 422.54,215.40 421.89,213.82 C422.71,214.51 423.86,214.86 424.98,214.51 C426.81,213.92 427.04,213.34 426.64,209.21 C427.24,214.35 428.60,219.20 430.52,223.00 C431.22,224.38 432.61,227.48 433.61,229.90 C436.07,235.82 437.46,237.00 442.00,237.00 C442.08,237.00 442.16,237.00 442.24,237.00 C439.99,237.03 439.00,237.49 439.00,238.50 C439.00,239.43 439.94,240.00 441.48,240.00 C441.84,240.00 442.17,240.05 442.48,240.13 C442.02,240.09 441.44,240.12 440.72,240.19 C438.23,240.43 437.43,241.02 437.17,242.82 C436.99,244.10 437.09,245.79 437.39,246.57 C437.96,248.06 440.79,248.34 442.72,247.45 C441.21,248.87 441.10,250.53 442.39,250.92 C441.93,251.09 441.48,251.25 441.05,251.38 C437.17,252.50 436.46,252.70 433.71,258.38 C433.96,257.77 434.17,257.24 434.31,256.83 C435.14,254.39 432.23,253.70 430.98,256.04 C430.40,257.12 429.50,258.00 428.96,258.00 C428.76,258.00 428.59,257.27 428.45,256.05 C428.99,259.06 430.13,257.82 432.42,253.44 ZM 370.60 368.94 C368.73,369.95 365.92,371.09 361.79,372.60 C354.57,375.25 354.18,375.54 355.66,377.18 C356.45,378.05 356.95,378.45 357.66,378.40 C355.14,379.39 352.65,380.35 350.68,381.08 C346.38,382.67 341.66,384.61 340.18,385.41 C335.96,387.67 324.46,392.46 310.87,397.66 C314.70,395.98 315.90,395.45 315.92,394.87 C315.94,394.54 315.58,394.20 315.11,393.63 C314.44,392.82 313.21,392.55 311.84,392.76 C312.98,392.33 314.24,391.90 315.50,391.52 C318.80,390.53 323.65,388.64 326.28,387.32 C328.91,386.01 334.31,383.77 338.28,382.36 C342.25,380.94 347.08,378.94 349.00,377.90 C350.92,376.87 356.75,374.43 361.95,372.47 C366.07,370.92 368.80,369.84 370.60,368.94 ZM 126.68 388.57 C122.17,387.44 120.11,387.44 120.06,388.50 C120.04,388.94 121.30,389.75 123.05,390.48 C122.61,390.33 122.17,390.18 121.72,390.03 C116.57,388.35 113.78,387.98 110.05,388.49 C105.78,389.08 105.02,388.91 104.08,387.15 C103.49,386.04 103.00,382.86 103.00,380.08 C103.00,377.21 101.70,370.97 100.00,365.66 C99.85,365.18 99.70,364.70 99.55,364.23 C100.78,367.79 102.02,370.00 102.80,370.00 C103.58,370.00 104.00,369.44 103.75,368.75 C103.58,368.29 103.18,366.80 102.73,364.97 C103.03,366.04 103.35,367.15 103.69,368.27 C105.97,375.88 106.87,377.55 109.64,379.36 C111.43,380.54 113.10,382.26 113.34,383.19 C113.62,384.27 115.91,385.47 119.64,386.50 C121.30,386.96 123.89,387.72 126.68,388.57 ZM 249.02 355.41 C245.94,352.07 245.09,350.51 245.89,349.71 C246.69,348.91 247.77,349.19 249.85,350.73 L 252.72 352.85 L 253.23 339.54 C253.23,339.54 253.23,339.53 253.23,339.53 C253.46,340.41 253.93,341.10 254.69,341.30 C255.69,341.56 256.61,341.82 256.75,341.88 C256.88,341.94 256.99,340.39 257.00,338.38 C257.00,338.61 257.00,338.83 257.00,339.06 C257.00,346.73 257.32,353.00 257.71,353.00 C258.10,353.00 259.38,351.80 260.55,350.34 C263.37,346.80 265.58,347.98 263.53,351.94 C261.86,355.17 256.48,360.00 254.55,360.00 C253.84,360.00 251.35,357.93 249.02,355.41 ZM 81.00 244.50 C81.00,236.52 80.64,230.00 80.20,230.00 C79.06,230.00 75.25,238.14 74.51,242.14 C74.13,244.19 74.51,247.25 75.48,249.98 C77.07,254.45 79.61,259.00 80.52,259.00 C80.79,259.00 81.00,252.48 81.00,244.50 ZM 102.16 115.88 C104.26,109.15 104.54,106.97 103.79,104.81 C102.61,101.44 104.22,98.82 107.27,98.38 C106.30,98.81 106.67,100.09 108.50,102.00 L 111.16 104.77 L 115.48 102.35 C116.32,101.89 117.44,101.38 118.71,100.88 C115.47,102.35 112.57,104.35 110.32,106.70 C108.08,109.05 106.04,112.86 104.19,118.23 C106.08,112.09 106.38,109.97 105.46,109.62 C104.78,109.36 103.93,110.74 102.16,115.88 ZM 257.07 72.96 C258.31,72.30 259.00,70.87 259.00,68.98 C259.00,66.68 258.46,65.90 256.50,65.41 C253.03,64.54 251.17,65.48 250.42,68.47 C249.30,72.92 252.77,75.26 257.07,72.96 ZM 130.00 368.00 C131.10,366.90 132.00,365.58 132.00,365.07 C132.00,363.67 129.04,361.00 127.50,361.00 C125.87,361.00 123.00,363.70 123.00,365.24 C123.00,366.58 125.98,370.00 127.15,370.00 C127.62,370.00 128.90,369.10 130.00,368.00 ZM 256.80 420.80 C258.76,418.84 258.28,414.22 256.04,413.51 C253.74,412.78 250.00,414.52 250.00,416.31 C250.00,418.17 252.93,422.00 254.36,422.00 C255.04,422.00 256.14,421.46 256.80,420.80 ZM 409.38 125.12 C407.06,116.89 405.00,109.04 405.00,108.00 C405.00,106.25 404.60,105.99 402.75,106.56 C401.51,106.94 400.38,107.35 400.24,107.47 C400.09,107.59 401.04,110.12 402.35,113.10 C403.15,114.92 404.05,117.36 404.93,120.02 C402.19,112.01 399.44,107.06 395.78,103.85 C396.65,104.54 397.10,104.16 398.75,102.67 C401.32,100.36 401.67,98.80 399.93,98.53 C403.31,98.75 405.00,101.11 405.00,105.62 C405.00,107.77 406.99,116.26 409.38,125.12 ZM 379.33 389.57 C398.49,383.82 400.08,382.38 405.33,365.91 C407.51,359.11 408.82,354.69 409.42,351.94 C408.79,354.87 407.37,359.65 404.98,367.06 C402.79,373.85 401.00,379.54 401.00,379.70 C401.00,379.87 401.82,380.00 402.83,380.00 C404.42,380.00 405.34,379.12 407.02,374.04 C406.44,375.90 406.00,377.21 405.78,377.66 C405.22,378.85 404.95,381.48 405.19,383.51 C405.29,384.35 405.28,385.11 405.18,385.79 C404.66,385.29 403.42,385.00 401.50,385.00 C399.64,385.00 397.84,384.55 397.51,384.01 C397.12,383.39 396.08,383.53 394.70,384.39 C392.96,385.46 381.73,389.00 373.20,391.39 C375.09,390.83 377.17,390.21 379.33,389.57 ZM 301.63 399.47 C301.86,400.07 302.00,400.49 302.29,400.70 C302.36,400.74 302.44,400.78 302.52,400.80 C293.19,404.28 289.00,406.23 289.00,407.08 C289.00,407.28 289.46,407.39 290.24,407.44 C288.56,407.39 288.43,406.97 289.74,406.16 C290.58,405.64 290.41,405.11 289.15,404.33 C287.89,403.54 287.29,403.36 283.32,404.77 C286.49,403.48 291.19,401.63 295.50,400.00 C301.38,397.77 306.85,395.40 307.92,394.64 C307.05,395.35 305.22,396.35 303.77,396.90 C301.92,397.60 301.23,398.43 301.63,399.47 ZM 126.71 98.45 C128.92,98.07 132.37,97.19 134.50,96.47 C136.66,95.75 138.93,95.16 140.88,94.79 C143.80,94.22 146.00,94.12 146.00,94.71 C146.00,94.72 146.00,94.73 146.00,94.73 C146.00,94.74 146.00,94.74 146.00,94.75 C146.00,95.17 144.97,96.64 143.72,98.01 C142.47,99.38 140.23,102.53 138.74,105.00 C138.82,95.12 136.56,95.65 135.00,96.25 C133.70,96.75 130.06,97.72 126.71,98.45 ZM 253.37 336.42 C253.66,330.46 254.11,325.63 254.44,325.10 C256.18,322.29 256.94,325.93 257.00,337.56 C256.96,334.85 256.58,334.24 255.25,334.43 C254.35,334.56 253.71,335.38 253.37,336.42 ZM 394.65 102.75 C395.00,103.12 395.29,103.42 395.54,103.65 C393.27,101.73 390.65,100.46 387.46,99.53 C386.75,99.33 386.06,99.13 385.38,98.93 C387.32,99.36 388.09,99.21 388.35,98.54 C388.61,97.85 386.56,96.84 382.02,95.45 C390.59,97.85 395.89,98.95 397.64,98.66 C397.78,98.64 397.91,98.62 398.04,98.61 C397.94,98.62 397.85,98.64 397.75,98.66 C393.24,99.50 392.50,100.48 394.65,102.75 ZM 78.78 228.25 C79.31,230.30 80.14,230.46 81.80,228.80 C83.58,227.02 83.26,225.30 81.05,224.72 C78.92,224.17 78.07,225.50 78.78,228.25 ZM 384.92 367.15 C385.53,366.01 385.18,364.34 384.36,363.04 C386.16,365.36 389.00,366.30 389.00,364.49 C389.00,363.70 390.23,362.27 391.74,361.32 C390.01,362.42 389.00,363.92 389.00,365.41 C389.00,367.71 387.66,369.83 385.33,371.42 C385.75,370.92 385.84,370.30 385.76,369.43 C385.63,367.86 385.23,367.37 384.58,368.02 C383.81,368.79 382.70,369.08 381.60,368.92 C382.91,369.06 384.22,368.46 384.92,367.15 ZM 310.50 82.46 C314.90,83.16 319.05,83.78 319.72,83.86 C321.35,84.05 320.37,81.76 318.69,80.80 C321.87,81.31 325.87,82.03 329.87,82.82 C326.79,82.43 324.79,82.51 323.91,83.06 C322.15,84.14 322.35,84.21 338.50,87.54 C343.09,88.49 346.52,89.26 349.22,90.02 C339.80,87.56 320.78,83.99 306.73,81.89 C307.94,82.07 309.19,82.26 310.50,82.46 ZM 386.57 350.93 C386.34,352.23 386.40,353.41 386.87,354.17 C388.42,356.64 388.29,358.00 386.50,358.00 C385.67,358.00 385.00,357.57 385.00,357.05 C385.00,356.11 380.56,357.70 377.57,359.47 C378.55,358.87 379.74,358.28 381.14,357.70 C383.94,356.54 385.07,355.30 386.04,352.35 C386.16,352.00 386.34,351.52 386.57,350.93 ZM 111.00 387.20 C111.00,387.64 112.12,388.00 113.50,388.00 C116.18,388.00 116.99,385.59 114.62,384.69 C113.24,384.15 111.00,385.71 111.00,387.20 ZM 468.14 279.41 C466.56,281.69 464.91,284.03 463.23,286.38 C456.69,295.54 445.89,308.11 436.41,318.15 C437.57,316.58 441.12,312.61 445.28,308.24 C450.88,302.36 460.18,290.43 468.14,279.41 ZM 307.53 42.80 C319.40,51.81 328.68,60.03 349.50,79.97 C351.12,81.52 352.69,83.00 354.07,84.28 C352.77,83.15 351.37,81.81 349.67,80.18 C334.32,65.38 320.20,52.87 307.53,42.80 ZM 197.08 436.45 C193.63,433.76 190.23,431.03 187.00,428.33 C184.11,425.92 180.01,422.25 175.87,418.43 C182.55,424.39 190.33,431.02 197.08,436.45 ZM 204.97 406.53 C197.42,405.44 187.72,403.48 173.66,400.21 C182.14,402.17 196.03,405.06 199.55,405.50 C201.68,405.77 203.82,406.18 204.97,406.53 ZM 355.81 92.67 C357.75,93.84 359.23,95.29 361.00,97.34 C362.33,98.88 363.79,100.67 365.23,102.50 C361.80,98.45 358.14,94.54 355.81,92.67 ZM 252.62 432.27 C252.96,437.59 253.01,444.56 252.76,450.06 L 252.73 441.86 C252.71,437.79 252.69,434.67 252.62,432.27 ZM 172.16 399.86 C171.61,399.73 171.06,399.60 170.50,399.47 C165.00,398.18 158.85,396.86 156.84,396.53 C155.31,396.29 154.06,395.83 152.59,394.65 C154.58,395.98 156.76,396.56 160.02,397.08 C163.51,397.64 166.63,398.27 166.96,398.48 C167.26,398.66 169.26,399.18 172.16,399.86 ZM 400.23 350.44 C400.28,350.40 400.34,350.35 400.39,350.31 C395.34,354.37 390.38,358.00 389.48,358.00 C389.74,358.00 394.58,354.60 400.23,350.44 ZM 175.50 83.45 C183.65,81.77 195.07,79.92 205.42,78.54 C202.47,79.01 198.62,79.59 195.50,80.03 C191.10,80.64 183.23,81.98 178.00,83.00 C176.48,83.30 174.85,83.60 173.23,83.90 C174.02,83.75 174.79,83.59 175.50,83.45 ZM 235.49 462.56 C230.45,459.98 223.20,455.40 215.22,449.83 C222.60,454.86 230.06,459.55 235.49,462.56 ZM 100.98 357.66 C100.44,355.56 99.88,353.46 99.46,352.04 C98.82,349.89 98.52,348.41 98.57,347.57 C98.55,348.38 98.86,349.73 99.51,351.57 C100.28,353.73 100.93,356.36 100.96,357.40 C100.96,357.47 100.96,357.56 100.98,357.66 ZM 86.87 309.91 C86.62,308.71 86.36,307.45 86.08,306.12 C85.22,301.99 84.28,295.70 83.64,290.13 C84.37,295.76 85.47,302.51 86.87,309.91 ZM 360.21 377.40 C363.47,375.75 369.59,373.40 372.36,372.64 C370.93,373.07 368.53,373.97 365.90,375.07 C364.32,375.74 362.31,376.55 360.21,377.40 ZM 144.54 385.22 C143.61,383.96 142.58,382.56 141.45,381.00 C139.79,378.72 138.55,376.96 137.68,375.62 C137.72,375.67 137.76,375.72 137.80,375.77 C138.98,377.27 141.95,381.42 144.39,385.00 C144.44,385.07 144.49,385.15 144.54,385.22 ZM 304.00 405.91 C305.92,405.42 309.02,405.01 310.88,405.01 L 310.90 405.01 C308.59,405.35 306.14,405.69 303.39,406.06 C303.60,406.01 303.80,405.96 304.00,405.91 ZM 363.58 89.94 C367.01,91.02 371.84,92.49 377.06,94.02 C377.30,94.09 377.53,94.16 377.77,94.23 C371.21,92.41 366.86,91.17 363.58,89.94 ZM 100.02 343.66 C99.02,342.72 98.27,341.91 97.88,341.32 C97.29,340.42 96.68,339.00 96.06,337.06 C97.09,339.83 98.31,341.83 100.02,343.66 ZM 426.17 328.48 C422.33,332.11 419.40,334.49 418.09,334.86 C419.44,334.20 422.07,332.12 426.17,328.48 ZM 308.16 47.71 C319.80,56.45 331.48,66.42 339.54,74.12 C331.17,66.21 319.07,55.91 308.16,47.71 ZM 422.84 283.61 C423.05,284.17 422.99,285.55 422.70,288.09 C421.59,297.85 419.48,310.21 417.33,320.49 C419.60,309.70 421.77,296.84 422.61,288.00 C422.85,285.46 422.97,284.11 422.84,283.61 ZM 409.43 136.62 C409.64,137.86 409.69,138.69 409.53,138.95 C409.07,139.69 408.26,139.67 406.81,138.90 C406.36,138.66 405.76,138.29 405.06,137.82 C408.55,140.07 409.78,139.84 409.43,136.62 ZM 299.49 446.41 C298.26,447.29 296.76,448.22 295.25,449.02 C293.37,450.02 290.77,451.58 288.31,453.17 C290.88,451.41 293.94,449.55 296.00,448.50 C297.21,447.88 298.44,447.14 299.49,446.41 ZM 337.91 399.78 C337.44,399.88 336.97,399.98 336.50,400.09 C330.65,401.36 326.13,402.32 322.02,403.11 C324.78,402.49 329.03,401.61 337.91,399.78 ZM 116.08 355.74 C113.10,353.89 109.32,351.22 105.95,348.63 C106.05,348.69 106.14,348.76 106.24,348.83 C110.54,351.94 113.75,354.20 116.08,355.74 ZM 245.83 463.01 C246.84,461.66 248.42,460.32 249.68,459.71 C248.70,460.36 247.48,461.39 246.40,462.54 L 245.33 463.67 C245.50,463.46 245.67,463.24 245.83,463.01 ZM 181.00 85.57 C195.00,82.97 205.35,81.33 211.85,80.66 C204.78,81.48 193.61,83.23 181.00,85.57 ZM 354.23 396.10 C352.87,396.67 351.38,397.03 349.50,397.37 C349.04,397.45 348.27,397.60 347.26,397.81 C350.18,397.15 352.74,396.52 354.23,396.10 ZM 100.91 347.70 C101.19,347.93 101.49,348.19 101.81,348.49 C104.06,350.59 106.68,352.77 109.13,354.67 C106.11,352.41 103.08,349.90 101.42,348.20 C101.24,348.02 101.07,347.85 100.91,347.70 ZM 101.08 139.40 C101.74,138.61 104.13,136.77 106.63,135.11 C104.60,136.58 102.72,138.03 101.76,138.89 C101.46,139.16 101.16,139.42 100.87,139.65 C100.94,139.57 101.01,139.48 101.08,139.40 ZM 373.74 372.42 C373.75,372.42 373.76,372.43 373.77,372.44 C373.99,372.65 370.51,377.77 366.05,383.81 C362.51,388.61 360.17,391.58 358.10,393.50 C360.13,391.45 362.86,388.12 366.05,383.81 C370.42,377.90 373.82,372.86 373.74,372.42 ZM 274.30 462.35 C274.70,462.13 275.12,461.89 275.55,461.64 C274.42,462.31 273.36,462.91 272.48,463.38 L 267.00 466.24 L 264.56 464.16 C265.93,465.25 266.92,465.97 267.12,465.98 C267.46,465.99 270.69,464.36 274.30,462.35 ZM 97.36 147.68 C98.51,146.00 100.29,144.38 103.56,141.41 C103.60,141.37 103.65,141.34 103.69,141.30 C107.68,137.68 111.53,134.55 114.69,132.29 C111.18,134.91 106.96,138.33 103.56,141.41 C100.41,144.27 98.52,146.11 97.36,147.68 ZM 256.12 36.00 C256.19,31.21 256.47,29.00 256.96,29.00 C257.55,29.00 260.05,27.15 262.51,24.89 C260.05,27.15 257.58,29.00 257.02,29.00 C256.59,29.00 256.28,31.46 256.12,36.00 ZM 133.45 376.90 C134.28,377.87 135.14,378.93 135.96,380.00 C138.69,383.58 142.12,387.98 143.59,389.79 C143.87,390.13 144.14,390.48 144.38,390.81 C144.09,390.44 143.78,390.04 143.45,389.64 C142.05,387.91 138.39,383.24 135.31,379.25 C134.63,378.37 134.02,377.59 133.45,376.90 ZM 279.46 412.41 C282.83,411.78 287.15,411.30 294.72,410.52 C288.77,411.14 282.99,411.86 279.46,412.41 ZM 93.95 158.58 C94.12,157.88 94.30,157.09 94.51,156.20 C94.88,154.56 95.18,153.25 95.48,152.15 C95.47,152.19 95.46,152.23 95.45,152.27 C95.20,153.77 94.61,156.20 93.95,158.58 ZM 444.22 241.34 C444.90,242.28 445.08,243.60 444.67,244.86 C444.80,244.11 444.78,243.25 444.58,242.45 C444.47,242.01 444.35,241.64 444.22,241.34 ZM 400.92 389.60 C401.83,389.50 402.64,389.15 403.60,388.52 C403.85,388.36 404.07,388.20 404.27,388.05 C403.53,388.99 402.39,389.52 400.92,389.60 ZM 366.80 100.12 C368.76,102.62 370.81,105.00 371.20,105.00 C370.65,105.00 368.65,102.63 366.80,100.12 ZM 87.28 296.89 C86.57,292.31 86.01,287.77 86.01,285.83 C86.01,285.58 86.02,285.33 86.05,285.09 C86.01,287.23 86.44,291.13 87.28,296.89 ZM 378.98 367.47 C378.10,366.42 377.99,365.55 378.60,364.02 C378.24,365.28 378.28,366.64 378.98,367.47 ZM 350.00 86.07 C350.19,86.67 350.01,87.00 349.42,87.00 C349.32,87.00 348.92,86.92 348.29,86.79 C349.71,86.95 349.98,86.68 350.00,86.07 ZM 257.66 458.27 L 255.95 456.80 L 256.05 450.61 L 256.01 456.83 L 257.66 458.27 ZM 380.06 114.78 C380.55,114.82 381.09,114.78 381.71,114.67 C382.21,114.58 382.71,114.61 383.20,114.74 C382.87,114.70 382.47,114.71 382.00,114.76 C381.25,114.83 380.62,114.86 380.06,114.78 ZM 478.33 239.23 C478.05,240.11 477.19,240.83 475.71,241.39 C477.04,240.77 478.11,239.93 478.33,239.23 ZM 446.29 248.89 C446.64,248.61 446.99,248.31 447.35,248.00 C447.71,247.68 448.04,247.40 448.34,247.14 C448.22,247.26 448.10,247.39 447.97,247.53 C447.56,247.96 446.98,248.43 446.29,248.89 ZM 365.43 389.84 C365.57,389.67 365.71,389.49 365.85,389.31 C367.54,387.21 370.87,383.02 373.25,380.00 C375.47,377.19 377.23,375.46 379.12,374.34 C377.26,375.47 375.43,377.25 373.26,380.00 C370.87,383.02 367.58,387.16 365.96,389.18 C365.77,389.41 365.60,389.63 365.43,389.84 ZM 92.36 145.75 C93.40,143.96 94.26,141.51 95.48,137.41 C95.93,135.87 96.51,133.96 97.14,131.89 C96.63,133.60 96.08,135.44 95.49,137.41 C94.27,141.51 93.40,143.95 92.36,145.75 ZM 469.81 242.59 C467.25,242.86 464.09,242.99 460.32,242.99 C463.59,242.99 467.08,242.84 469.81,242.59 ZM 110.53 98.59 C111.86,98.71 113.49,98.56 116.76,97.86 C113.21,98.64 111.59,98.78 110.53,98.59 ZM 374.83 361.92 C374.33,362.77 374.00,363.80 374.00,364.63 C374.00,364.72 374.00,364.80 373.99,364.89 C374.00,364.77 374.00,364.65 374.00,364.53 C374.00,363.60 374.27,362.74 374.83,361.92 ZM 380.28 97.51 C377.74,96.83 375.45,96.24 373.42,95.76 C375.64,96.27 378.00,96.87 380.28,97.51 ZM 424.51 296.79 C424.87,294.70 425.22,292.71 425.52,291.04 C425.41,291.71 425.30,292.36 425.18,293.00 C425.00,294.04 424.76,295.34 424.51,296.79 ZM 270.09 408.78 C269.22,408.87 268.37,408.93 267.60,408.95 C268.50,408.90 269.34,408.84 270.09,408.78 ZM 243.22 465.91 L 243.06 466.08 L 242.67 465.91 C242.81,465.94 242.95,465.96 243.06,465.97 C243.10,465.97 243.15,465.95 243.22,465.91 ZM 389.47 358.00 C388.80,357.99 388.84,356.73 389.50,354.56 C388.84,356.81 388.82,357.99 389.47,358.00 ZM 448.00 240.00 C447.02,238.63 446.20,237.83 445.14,237.41 C446.22,237.82 447.00,238.60 448.00,240.00 ZM 422.53 199.75 C422.86,202.10 422.91,203.70 422.69,204.47 C422.89,203.67 422.85,202.01 422.53,199.75 ZM 401.45 135.27 C400.28,134.40 399.03,133.46 397.81,132.49 C398.50,133.03 399.24,133.59 400.04,134.20 C400.53,134.58 401.00,134.93 401.45,135.27 ZM 142.03 114.52 C142.47,114.79 143.56,114.29 144.45,113.41 C144.46,113.40 144.47,113.38 144.49,113.37 C144.45,113.41 144.42,113.44 144.38,113.47 C143.53,114.32 142.47,114.79 142.03,114.52 ZM 92.26 320.02 C92.15,319.36 92.03,318.69 91.92,318.00 C91.32,314.39 90.53,310.97 90.03,309.77 C90.53,310.97 91.32,314.39 91.92,318.00 C92.04,318.69 92.15,319.36 92.26,320.02 ZM 203.00 408.97 C207.12,409.47 216.14,410.54 223.03,411.36 C223.37,411.40 223.71,411.44 224.05,411.48 C223.71,411.44 223.36,411.40 223.00,411.36 C216.12,410.54 207.12,409.47 203.00,408.97 ZM 392.46 131.52 C392.56,131.60 392.65,131.68 392.75,131.75 C395.36,133.88 400.76,138.23 404.74,141.42 C400.76,138.23 395.39,133.91 392.82,131.81 C392.70,131.71 392.58,131.62 392.46,131.52 ZM 304.14 78.76 C303.76,78.68 303.38,78.60 303.00,78.52 C301.95,78.30 300.74,78.07 299.44,77.85 C300.75,78.07 301.96,78.30 303.00,78.52 C303.38,78.60 303.76,78.68 304.14,78.76 ZM 374.00 115.09 C374.00,115.10 374.00,115.10 374.00,115.11 C374.00,115.30 373.91,115.43 373.76,115.52 C373.90,115.42 373.99,115.28 374.00,115.09 ZM 94.80 346.37 C93.46,343.46 91.62,340.72 89.67,338.97 C91.62,340.72 93.46,343.46 94.80,346.37 ZM 304.49 442.00 C303.94,442.00 302.92,442.89 302.24,443.99 C302.24,443.98 302.24,443.98 302.24,443.98 C302.92,442.89 303.94,442.00 304.49,442.00 ZM 419.00 325.77 C419.03,325.65 419.06,325.54 419.08,325.42 C419.21,324.87 419.34,324.29 419.48,323.68 C419.34,324.30 419.21,324.89 419.08,325.45 C419.05,325.56 419.03,325.66 419.00,325.77 ZM 288.00 76.42 C287.85,76.41 287.69,76.40 287.54,76.39 C287.55,76.39 287.56,76.39 287.58,76.39 C287.72,76.40 287.86,76.41 288.00,76.42 ZM 374.00 122.23 C374.00,122.27 374.00,122.31 374.00,122.35 C374.00,122.39 374.00,122.43 374.00,122.46 C374.00,122.44 374.00,122.42 374.00,122.40 C374.00,122.34 374.00,122.28 374.00,122.23 ZM 129.50 393.17 C129.52,393.18 129.53,393.19 129.55,393.21 C129.53,393.19 129.51,393.18 129.50,393.17 ZM 90.87 333.58 C90.88,333.58 90.88,333.57 90.89,333.57 C90.88,333.57 90.88,333.57 90.88,333.58 C90.88,333.58 90.87,333.58 90.87,333.58 Z" fill="rgba(147,189,87,1)"/>
<path d="M 160.00 89.04 C160.00,89.82 165.75,88.59 166.74,87.60 C167.87,86.47 166.36,85.48 164.03,85.44 C167.02,85.02 173.08,83.96 178.00,83.00 C183.23,81.98 191.10,80.64 195.50,80.03 C199.90,79.41 205.75,78.52 208.50,78.03 C219.51,76.09 225.00,75.89 225.00,77.43 C225.00,79.49 220.81,82.30 219.91,80.85 C219.00,79.38 205.66,81.00 181.00,85.57 C155.85,90.23 155.26,90.43 150.00,95.91 C148.76,97.20 147.49,98.56 146.25,99.93 C148.48,96.90 150.50,93.84 150.26,93.60 C149.16,92.50 146.00,92.99 146.00,94.26 C146.00,94.36 145.98,94.48 145.94,94.62 C145.21,93.96 138.44,94.93 135.00,96.25 C133.62,96.78 129.64,97.83 126.15,98.57 C122.67,99.32 117.86,101.02 115.48,102.35 L 111.16 104.77 L 108.50 102.00 C105.61,98.98 106.35,97.55 110.29,98.54 C112.41,99.07 116.68,98.13 137.33,92.56 C140.54,91.69 144.00,90.54 145.02,89.99 C146.03,89.45 147.69,89.00 148.70,89.00 C149.72,89.00 156.88,82.60 165.01,74.41 C172.98,66.39 180.91,58.85 182.64,57.66 C182.72,57.60 182.82,57.53 182.93,57.46 C177.46,61.85 155.00,84.49 155.00,85.72 C155.00,86.40 156.12,87.24 157.50,87.59 C158.88,87.93 160.00,88.59 160.00,89.04 ZM 31.20 218.50 C32.73,214.71 37.19,208.00 42.64,201.29 C44.97,198.43 48.75,193.31 51.06,189.92 C51.62,189.09 52.44,188.01 53.47,186.74 C52.86,187.95 53.01,188.67 53.68,189.35 C54.06,189.73 54.65,189.69 55.00,189.27 C55.35,188.85 57.79,185.93 60.41,182.79 C65.91,176.20 65.70,173.78 61.56,177.40 C66.76,171.65 72.96,165.10 78.46,159.57 C76.54,161.74 75.21,163.54 75.46,163.94 C76.49,165.60 77.16,165.18 83.93,158.66 C89.49,153.31 91.45,150.00 89.05,150.00 C88.78,150.00 88.30,150.26 87.66,150.72 C88.20,150.24 88.71,149.80 89.17,149.41 C92.23,146.82 93.28,144.83 95.49,137.41 C102.43,114.13 104.22,109.15 105.46,109.62 C106.43,109.99 106.04,112.33 103.87,119.26 C102.29,124.29 100.98,129.32 100.96,130.45 C100.93,131.58 100.28,134.28 99.50,136.46 C98.73,138.64 98.30,140.63 98.56,140.89 C98.81,141.14 100.25,140.25 101.76,138.89 C103.27,137.54 107.03,134.74 110.13,132.67 C113.23,130.61 116.56,128.04 117.54,126.96 C119.80,124.46 120.66,124.49 122.06,127.12 C122.83,128.54 122.85,129.02 122.12,128.58 C120.82,127.77 114.13,132.21 106.39,138.90 C107.49,137.70 110.36,135.30 112.98,133.42 C121.08,127.60 117.66,127.54 109.21,133.35 C104.07,136.89 101.39,139.40 101.17,140.90 C100.89,142.82 101.12,143.00 102.67,142.15 C102.73,142.12 102.80,142.08 102.87,142.04 C96.41,147.90 96.32,148.23 94.51,156.20 C92.98,162.88 92.47,164.01 91.91,162.00 C91.52,160.62 91.15,158.26 91.10,156.75 C91.04,155.24 90.54,154.00 89.98,154.00 C89.42,154.00 84.26,158.43 78.52,163.85 C66.77,174.92 48.68,195.94 41.82,206.50 C39.31,210.35 35.63,215.30 33.62,217.50 C30.14,221.33 30.04,221.37 31.20,218.50 ZM 99.20 363.18 C97.99,359.43 97.00,355.68 97.00,354.86 C97.00,349.89 93.58,342.48 89.67,338.97 C88.14,337.60 85.81,335.52 83.63,333.57 C86.05,335.57 88.14,337.00 88.70,337.00 C91.38,337.00 89.84,333.97 85.29,330.30 C83.67,328.99 81.68,327.22 79.55,325.22 C84.71,329.95 90.06,334.08 90.88,333.58 C91.31,333.31 90.40,327.11 88.86,319.80 C83.71,295.36 81.30,275.37 83.26,273.41 C83.65,273.01 84.94,274.88 86.13,277.55 C87.58,280.83 87.91,282.53 87.14,282.79 C86.51,283.00 86.00,284.37 86.01,285.83 C86.02,290.26 88.93,308.21 89.84,309.39 C90.30,310.00 91.24,313.88 91.92,318.00 C94.00,330.52 96.04,338.51 97.88,341.32 C99.55,343.87 107.76,350.28 114.03,354.42 C112.37,353.43 110.39,352.10 109.00,351.03 C103.70,346.95 102.76,346.52 103.15,348.38 C103.34,349.26 106.20,352.22 109.50,354.94 C109.61,355.03 109.73,355.13 109.84,355.22 C107.19,353.20 104.28,350.79 101.81,348.49 C98.43,345.36 97.77,346.35 99.46,352.04 C100.18,354.49 101.34,358.98 102.03,362.00 C102.72,365.02 103.49,368.06 103.75,368.75 C104.00,369.44 103.58,370.00 102.80,370.00 C101.94,370.00 100.54,367.34 99.20,363.18 ZM 339.68 399.40 C335.78,400.43 334.39,401.23 334.16,402.43 C333.84,404.08 334.24,404.21 337.65,403.59 C346.74,401.94 349.00,401.77 349.00,402.75 C349.00,403.28 342.45,409.90 335.62,416.44 C342.72,409.58 349.15,402.84 348.76,402.44 C348.35,402.02 339.58,403.30 329.26,405.28 C318.94,407.26 303.40,409.62 294.72,410.52 C278.39,412.21 277.18,412.46 268.01,415.93 C263.71,417.55 262.33,418.08 262.16,417.81 C262.07,417.69 262.27,417.37 262.56,416.90 C262.93,416.30 262.30,414.54 261.16,413.00 C258.64,409.59 259.50,409.02 267.33,408.96 C270.17,408.93 274.19,408.26 276.25,407.46 C286.91,403.32 287.36,403.21 289.15,404.33 C290.41,405.11 290.58,405.64 289.74,406.16 C287.44,407.58 289.59,407.82 296.75,406.91 C313.85,404.76 319.60,403.77 336.50,400.09 C337.56,399.86 338.63,399.62 339.68,399.40 ZM 415.00 339.58 C415.00,340.91 415.38,342.00 415.84,342.00 C416.30,342.00 424.16,334.46 433.31,325.25 C442.91,315.58 449.12,308.90 452.25,304.85 C451.86,305.44 451.53,305.97 451.29,306.41 C450.71,307.46 442.78,315.81 433.65,324.97 C424.09,334.56 416.46,343.08 415.64,345.06 C414.86,346.95 412.56,354.58 410.52,362.00 C406.13,377.95 405.26,380.00 402.83,380.00 C401.82,380.00 401.00,379.87 401.00,379.70 C401.00,379.54 402.79,373.85 404.98,367.06 C405.47,365.53 405.92,364.12 406.33,362.81 C405.93,364.58 406.23,365.00 407.77,365.00 C409.27,365.00 410.02,363.97 410.82,360.81 C411.90,356.56 411.66,355.00 409.92,355.00 C409.31,355.00 408.54,356.16 407.77,358.13 C409.93,350.83 410.26,348.21 409.25,348.01 C409.33,348.00 409.41,348.00 409.50,348.00 C410.44,348.00 411.00,347.05 411.00,345.44 C411.00,344.51 411.04,343.84 410.75,343.62 C410.11,343.15 407.87,344.81 400.10,350.55 C405.66,346.10 411.44,341.06 412.14,339.69 C414.93,334.29 420.61,306.52 422.70,288.09 C423.18,283.89 423.03,282.86 422.05,283.47 C421.05,284.09 421.98,282.16 424.62,278.16 C424.74,277.98 425.35,278.78 425.97,279.95 C426.84,281.57 426.74,284.13 425.56,290.79 C424.71,295.58 423.37,303.33 422.59,308.00 C421.80,312.67 420.22,320.52 419.08,325.42 C418.06,329.83 417.37,333.69 417.43,334.61 C415.97,334.09 415.00,336.07 415.00,339.58 ZM 163.86 402.10 C164.43,402.11 165.03,402.13 165.65,402.16 C174.07,402.66 172.97,400.54 166.77,398.61 C168.01,398.89 169.27,399.18 170.50,399.47 C192.71,404.69 204.60,406.89 213.83,407.47 C219.96,407.86 221.47,407.64 223.12,406.11 C225.02,404.33 225.27,404.35 231.59,406.64 C235.16,407.94 239.62,409.00 241.49,409.00 C243.35,409.00 245.18,409.49 245.55,410.09 C245.92,410.69 247.07,410.95 248.10,410.69 C249.72,410.26 249.82,410.48 248.85,412.35 C246.55,416.78 246.21,416.89 240.75,414.81 C237.90,413.73 229.93,412.18 223.03,411.36 C216.14,410.54 207.12,409.47 203.00,408.97 C198.88,408.48 193.48,407.66 191.00,407.15 C188.52,406.63 183.80,405.70 180.50,405.07 C177.20,404.44 172.33,403.49 169.67,402.96 C167.41,402.51 165.43,402.22 163.86,402.10 ZM 388.61 362.28 C389.08,362.75 393.25,360.29 397.60,357.34 C395.51,358.84 393.44,360.26 391.75,361.32 C390.24,362.27 389.00,363.70 389.00,364.49 C389.00,366.35 385.98,365.30 384.19,362.82 C382.37,360.28 380.16,360.55 378.83,363.47 C377.97,365.36 378.00,366.30 378.98,367.47 C380.42,369.21 383.13,369.47 384.58,368.02 C385.23,367.37 385.63,367.86 385.76,369.43 C385.93,371.42 385.26,372.05 381.78,373.16 C378.69,374.15 376.46,375.94 373.25,380.00 C371.49,382.24 369.21,385.11 367.46,387.30 C370.42,383.29 374.22,378.50 376.38,376.21 C378.97,373.46 379.23,372.76 377.99,371.97 C376.02,370.73 372.72,370.73 373.48,371.97 C373.53,372.04 373.51,372.19 373.44,372.41 C371.68,372.60 363.68,375.60 359.96,377.52 C357.54,378.77 357.07,378.73 355.66,377.18 C354.18,375.54 354.57,375.25 361.79,372.60 C371.75,368.96 374.00,367.49 374.00,364.63 C374.00,363.35 374.79,361.61 375.75,360.75 C378.15,358.63 385.00,355.88 385.00,357.05 C385.00,357.57 385.67,358.00 386.50,358.00 C388.29,358.00 388.42,356.64 386.87,354.17 C385.12,351.37 389.09,342.95 391.82,343.66 C393.77,344.17 393.77,344.28 391.40,349.62 C389.34,354.29 388.53,357.43 389.24,357.93 C389.13,357.98 389.05,358.00 389.00,358.00 C387.91,358.00 387.62,361.29 388.61,362.28 ZM 426.00 269.12 C424.72,268.59 424.50,264.81 424.50,243.75 C424.50,230.14 424.77,219.00 425.11,219.00 C426.20,219.00 429.80,230.01 428.89,230.57 C427.66,231.33 427.74,258.00 428.96,258.00 C429.50,258.00 430.40,257.12 430.98,256.04 C432.23,253.70 435.14,254.39 434.31,256.83 C433.29,259.83 428.76,269.03 428.12,269.39 C427.78,269.59 426.83,269.47 426.00,269.12 ZM 310.50 82.46 C296.94,80.33 288.68,79.67 289.36,80.77 C290.61,82.80 283.99,82.57 277.34,80.36 C273.58,79.11 267.94,78.07 264.81,78.05 C261.68,78.02 258.88,77.61 258.58,77.13 C257.77,75.82 264.53,75.01 267.98,76.00 C270.16,76.62 271.38,76.48 272.38,75.48 C273.41,74.45 274.62,74.33 277.13,75.01 C278.98,75.51 283.88,76.15 288.00,76.42 C292.12,76.69 298.88,77.64 303.00,78.52 C307.12,79.41 311.80,80.09 313.38,80.04 C314.97,79.99 317.06,80.20 318.04,80.51 C320.09,81.16 321.55,84.07 319.72,83.86 C319.05,83.78 314.90,83.16 310.50,82.46 ZM 405.78 142.19 C409.33,145.22 411.01,145.73 410.98,143.75 C410.96,141.94 409.86,140.55 407.31,139.15 C408.45,139.67 409.13,139.60 409.53,138.95 C410.35,137.63 405.56,120.40 402.35,113.10 C401.04,110.12 400.09,107.59 400.24,107.47 C400.38,107.35 401.51,106.94 402.75,106.56 C404.60,105.99 405.00,106.25 405.00,108.00 C405.00,109.97 412.46,136.61 414.98,143.60 C415.53,145.14 418.03,148.05 421.11,150.80 C418.99,149.05 417.45,148.00 416.90,148.00 C414.75,148.00 416.18,151.57 419.16,154.05 C419.08,154.02 419.02,154.00 418.98,154.00 C417.73,154.00 417.85,155.72 420.40,167.74 C419.63,164.97 418.90,162.65 418.56,162.10 C417.06,159.67 416.30,162.41 416.47,166.18 C415.87,163.06 414.71,158.14 412.89,150.86 C412.19,148.02 410.37,145.93 404.74,141.42 C402.40,139.55 399.57,137.27 397.11,135.28 C400.37,137.78 404.13,140.77 405.78,142.19 ZM 359.00 394.16 C359.00,395.68 362.06,395.07 363.27,393.49 C363.27,393.56 363.29,393.62 363.32,393.65 C364.03,394.36 391.88,386.14 394.70,384.39 C396.08,383.53 397.12,383.39 397.51,384.01 C397.84,384.55 399.64,385.00 401.50,385.00 C405.85,385.00 406.73,386.48 403.60,388.52 C401.70,389.77 400.38,389.92 397.73,389.19 C395.26,388.51 393.23,388.64 390.41,389.66 C388.26,390.44 380.88,392.67 374.00,394.61 C360.06,398.55 355.08,400.67 354.14,403.04 C353.86,403.75 349.91,407.86 345.14,412.60 C350.02,407.75 354.00,403.59 354.00,403.14 C354.00,402.57 354.79,401.65 355.75,401.11 C357.39,400.18 357.37,400.02 355.50,398.59 C354.01,397.45 352.80,396.99 350.19,397.24 C356.20,396.08 358.20,394.40 365.52,384.53 C361.85,389.54 359.00,393.74 359.00,394.16 ZM 359.29 95.47 C355.78,91.91 352.45,90.55 342.24,88.34 C347.07,89.32 351.55,89.86 351.79,89.12 C352.00,88.50 353.03,88.00 354.08,88.00 C356.64,88.00 357.51,87.91 351.22,81.66 C358.70,88.78 360.63,89.49 378.66,94.48 C385.55,96.39 388.67,97.69 388.35,98.54 C387.98,99.49 386.58,99.39 382.19,98.07 C374.29,95.69 364.37,93.68 363.43,94.24 C363.43,94.15 363.45,94.08 363.49,94.02 C363.86,93.41 362.87,93.00 361.02,93.00 C358.33,93.00 358.06,93.24 358.91,94.83 C359.02,95.03 359.15,95.25 359.29,95.47 ZM 374.60 125.26 C374.27,124.94 374.00,123.63 374.00,122.35 C374.00,120.49 372.78,119.47 367.75,117.14 C364.31,115.55 360.46,113.93 359.19,113.54 C356.78,112.80 356.70,110.34 359.11,110.72 C363.48,111.41 366.68,112.41 368.00,113.51 C370.15,115.31 374.00,116.34 374.00,115.11 C374.00,114.05 367.38,104.93 362.07,98.60 C363.45,100.13 366.33,103.79 369.15,107.63 C373.42,113.43 375.67,115.73 376.38,115.02 C377.01,114.39 376.63,112.72 375.64,110.82 C378.10,114.54 379.14,115.05 382.00,114.76 C383.89,114.56 384.57,115.02 384.80,116.62 C385.06,118.41 384.70,118.67 382.55,118.25 C379.25,117.62 376.71,119.73 377.27,122.64 C377.68,124.78 375.88,126.55 374.60,125.26 ZM 156.77 396.52 C149.56,395.57 149.87,397.69 158.32,406.33 C151.11,399.03 150.34,398.57 142.65,396.38 C138.17,395.10 133.56,394.04 132.42,394.02 C131.27,394.01 130.00,393.66 129.60,393.25 C129.19,392.84 126.87,391.83 124.44,391.00 C122.01,390.17 120.04,389.05 120.06,388.50 C120.14,386.92 124.71,387.70 135.28,391.09 C140.68,392.82 145.36,393.98 145.68,393.66 C145.87,393.47 145.62,392.78 145.08,391.88 C146.96,394.02 148.22,394.45 149.26,393.41 C149.57,393.10 147.89,390.14 145.59,386.61 C151.46,394.40 153.48,395.97 156.77,396.52 ZM 419.40 178.08 C419.89,180.38 422.04,181.35 422.75,180.14 C424.18,188.87 425.69,199.95 426.58,208.67 C427.06,213.29 426.89,213.90 424.98,214.51 C422.33,215.35 419.56,212.23 421.20,210.26 C421.77,209.57 422.00,208.11 421.71,207.01 C421.42,205.90 421.65,205.00 422.22,205.00 C422.90,205.00 423.01,203.17 422.53,199.75 C422.14,196.86 421.63,192.48 421.41,190.00 C420.88,184.04 419.15,175.92 417.96,173.76 C417.49,172.92 417.10,171.46 417.02,170.34 C417.26,171.46 417.58,172.54 417.99,173.50 C418.46,174.60 419.09,176.66 419.40,178.08 ZM 140.26 105.28 C140.65,105.42 141.02,105.53 141.27,105.59 C136.67,111.00 133.24,115.58 133.58,116.13 C133.87,116.60 135.71,116.31 137.66,115.50 C139.61,114.68 141.58,114.24 142.03,114.52 C142.47,114.79 143.53,114.32 144.38,113.47 C145.23,112.62 147.51,111.27 149.43,110.46 C152.54,109.17 152.87,109.17 152.36,110.50 C152.05,111.32 151.42,112.00 150.96,112.00 C150.51,112.00 149.55,112.57 148.82,113.27 C148.09,113.96 145.48,115.40 143.00,116.46 C140.52,117.51 137.69,119.06 136.70,119.89 C134.11,122.06 132.12,122.10 130.99,119.98 C130.45,118.97 128.99,117.97 127.75,117.76 C125.63,117.40 125.67,117.30 128.50,115.94 C132.14,114.19 135.17,110.96 138.74,105.00 C139.12,104.37 139.55,103.69 140.00,103.02 C139.46,104.22 139.52,105.02 140.26,105.28 ZM 466.34 245.00 L 462.73 245.00 C450.86,245.00 450.74,245.02 447.35,248.00 C445.47,249.65 443.52,251.00 443.02,251.00 C440.97,251.00 441.00,248.82 443.07,247.14 C446.15,244.65 445.11,240.00 441.48,240.00 C439.94,240.00 439.00,239.43 439.00,238.50 C439.00,237.46 440.05,237.00 442.43,237.00 C445.10,237.00 446.34,237.66 448.00,240.00 C450.13,243.00 450.14,243.00 460.32,242.99 C467.28,242.99 472.12,242.55 475.04,241.63 C472.53,242.49 468.76,242.99 464.25,242.99 C460.75,243.00 458.00,243.44 458.00,244.00 C458.00,244.59 461.45,245.00 466.34,245.00 ZM 67.83 250.97 C65.80,250.62 62.59,248.97 60.69,247.30 C57.38,244.40 57.31,244.18 59.04,242.69 C60.73,241.25 61.06,241.39 63.48,244.57 C66.34,248.31 69.34,248.99 70.89,246.25 C71.79,244.66 72.03,244.64 73.47,246.06 C74.92,247.49 74.90,247.80 73.28,249.61 C71.87,251.18 70.74,251.46 67.83,250.97 ZM 134.35 377.97 C132.09,375.21 129.88,372.89 128.99,372.40 C127.01,371.32 127.01,371.28 129.30,368.81 C131.80,366.11 133.90,365.93 138.29,368.02 C140.10,368.89 140.88,369.88 140.50,370.85 C140.19,371.67 140.51,372.76 141.22,373.26 C142.56,374.24 141.51,374.00 137.75,372.49 C135.54,371.60 135.51,372.45 138.40,376.71 C138.39,376.70 138.38,376.68 138.38,376.67 C137.07,375.12 136.00,373.21 136.00,372.42 C136.00,370.90 133.28,370.54 131.30,371.79 C130.57,372.26 131.51,374.18 134.35,377.97 ZM 301.63 399.47 C301.23,398.43 301.92,397.60 303.77,396.90 C305.27,396.33 307.17,395.28 308.00,394.57 C310.39,392.52 313.81,392.06 315.11,393.63 C315.58,394.20 315.94,394.54 315.92,394.87 C315.90,395.52 314.40,396.11 309.37,398.31 C304.39,400.50 302.96,401.15 302.29,400.70 C302.00,400.49 301.86,400.07 301.63,399.47 ZM 239.00 78.18 C239.00,78.01 239.47,77.00 240.04,75.93 C241.37,73.44 245.61,73.43 249.39,75.92 L 252.27 77.82 L 245.63 78.16 C241.98,78.35 239.00,78.36 239.00,78.18 ZM 32.40 243.00 L 41.31 243.02 C46.37,243.02 51.17,243.47 52.00,244.00 C53.89,245.22 52.68,245.33 40.98,245.03 L 32.56 244.82 L 33.06 244.06 L 32.40 243.00 ZM 256.14 35.16 C256.08,37.83 256.10,41.42 256.18,46.00 L 256.50 63.00 L 253.55 63.00 C251.26,63.00 250.87,62.73 251.80,61.80 C252.63,60.97 253.00,55.76 253.00,44.84 C253.00,31.55 252.95,29.43 251.52,28.37 C252.94,29.41 253.00,31.37 253.00,42.93 C253.00,54.32 253.27,56.89 254.50,57.36 C255.79,57.86 256.00,55.92 256.00,43.47 C256.00,40.18 256.05,37.38 256.14,35.16 ZM 394.65 102.75 C392.50,100.48 393.24,99.50 397.75,98.66 C401.68,97.92 402.11,99.66 398.75,102.67 C396.52,104.68 396.48,104.68 394.65,102.75 ZM 457.77 295.43 C458.05,295.72 460.90,293.49 463.63,291.08 C460.16,294.72 456.37,299.22 453.81,302.65 C454.63,301.34 454.86,300.53 454.52,300.19 C454.16,299.83 450.66,302.92 446.85,306.65 C453.08,299.54 459.03,292.26 463.23,286.38 C464.53,284.56 465.81,282.74 467.06,280.95 C465.55,283.13 464.07,285.23 462.68,287.16 C459.64,291.37 457.43,295.10 457.77,295.43 ZM 82.39 208.42 C82.73,207.55 83.00,205.27 83.00,203.36 C83.00,199.46 84.53,199.64 86.09,203.74 C86.84,205.70 86.67,206.70 85.37,208.14 C83.32,210.41 81.56,210.58 82.39,208.42 ZM 254.69 341.30 C252.24,340.66 252.71,334.79 255.25,334.43 C256.66,334.23 257.00,334.93 257.00,338.09 C257.00,340.24 256.89,341.95 256.75,341.88 C256.61,341.82 255.69,341.56 254.69,341.30 ZM 116.55 145.07 C115.70,143.70 118.11,139.00 119.66,139.00 C121.26,139.00 121.40,141.38 119.96,144.07 C118.85,146.15 117.46,146.56 116.55,145.07 ZM 256.05 450.61 L 256.12 441.51 C256.22,426.06 255.75,422.85 253.70,424.90 C253.20,425.40 252.88,428.92 252.76,434.90 C252.51,429.14 251.98,424.54 251.15,424.23 C249.93,423.76 250.00,423.51 251.57,422.90 C254.37,421.80 256.21,421.85 255.50,423.00 C255.16,423.55 255.25,424.00 255.69,424.00 C256.14,424.00 256.38,431.38 256.23,440.40 L 256.05 450.61 ZM 96.60 186.75 C97.51,184.96 98.32,183.41 98.41,183.30 C98.49,183.20 99.13,183.46 99.83,183.90 C101.69,185.04 99.24,190.00 96.81,190.00 C95.04,190.00 95.03,189.85 96.60,186.75 ZM 340.30 87.92 C339.72,87.80 339.12,87.67 338.50,87.54 C322.35,84.21 322.15,84.14 323.91,83.06 C324.97,82.40 327.61,82.42 331.80,83.11 C330.45,83.09 330.00,83.51 330.00,84.33 C330.00,85.20 335.06,86.75 340.30,87.92 ZM 78.78 228.25 C78.07,225.50 78.92,224.17 81.05,224.72 C83.26,225.30 83.58,227.02 81.80,228.80 C80.14,230.46 79.31,230.30 78.78,228.25 ZM 198.01 397.04 C195.79,395.34 195.71,395.05 197.26,394.46 C199.84,393.46 201.90,394.61 201.73,396.95 C201.54,399.46 201.17,399.47 198.01,397.04 ZM 392.04 131.19 C389.69,129.37 387.50,128.19 387.00,128.50 C385.45,129.46 385.82,127.39 387.44,126.05 C388.61,125.08 389.53,125.42 392.19,127.82 C393.53,129.03 395.23,130.44 397.01,131.86 C394.08,129.66 391.52,128.00 391.03,128.00 C389.38,128.00 389.71,129.05 392.04,131.19 ZM 117.69 356.70 C119.45,357.72 120.76,358.30 121.25,358.18 C122.26,357.94 122.18,361.18 121.12,362.83 C120.48,363.85 120.15,363.67 119.73,362.08 C119.43,360.94 118.44,360.00 117.53,360.00 C117.43,360.00 117.32,359.98 117.18,359.94 C117.21,359.94 117.23,359.94 117.25,359.94 C119.51,360.02 119.45,358.30 117.69,356.70 ZM 111.00 387.20 C111.00,385.71 113.24,384.15 114.62,384.69 C116.99,385.59 116.18,388.00 113.50,388.00 C112.12,388.00 111.00,387.64 111.00,387.20 ZM 19.26 231.99 C22.27,231.79 25.53,229.07 26.56,225.82 C26.87,224.82 27.55,224.00 28.07,224.00 C29.34,224.00 29.19,225.04 27.50,228.00 C26.93,228.99 26.51,230.19 26.28,231.31 C26.70,228.66 25.54,228.32 23.36,230.50 C22.60,231.26 20.82,231.90 19.26,231.99 ZM 418.00 318.00 C418.00,320.38 419.54,320.65 420.39,318.42 C421.25,316.18 421.18,316.00 419.50,316.00 C418.67,316.00 418.00,316.89 418.00,318.00 ZM 272.77 19.39 C283.18,24.68 295.61,33.16 309.80,44.61 C296.12,33.95 281.40,23.78 272.77,19.39 ZM 64.64 309.71 C66.09,310.84 69.05,313.96 71.55,317.02 C72.32,317.96 73.26,319.01 74.30,320.10 C70.69,316.47 67.16,312.68 64.64,309.71 ZM 426.59 328.08 C429.64,325.18 433.23,321.54 437.00,317.52 C435.61,319.72 431.00,324.24 426.59,328.08 ZM 252.72 450.90 C252.64,457.70 252.28,459.00 251.28,459.00 C250.54,459.00 248.76,460.22 247.10,461.83 C248.76,460.22 250.53,459.00 251.27,459.00 C251.99,459.00 252.47,455.59 252.72,450.90 ZM 350.00 86.07 C349.43,84.23 345.46,79.78 339.54,74.12 C345.82,80.06 350.00,84.66 350.00,86.00 C350.00,86.03 350.00,86.05 350.00,86.07 ZM 487.54 257.90 C485.47,259.42 483.41,262.61 477.77,271.60 C476.83,273.08 475.85,274.60 474.86,276.10 C475.79,274.62 476.78,273.05 477.81,271.43 C483.41,262.58 485.47,259.41 487.54,257.90 ZM 370.94 104.90 C371.05,104.97 371.13,105.00 371.20,105.00 C371.53,105.00 372.53,106.14 373.64,107.73 C373.01,106.93 372.31,106.17 371.58,105.50 C371.37,105.31 371.16,105.11 370.94,104.90 ZM 423.21 152.60 C426.44,155.33 430.25,159.00 434.38,163.30 C430.48,159.28 426.44,155.43 423.21,152.60 ZM 26.91 235.02 C27.44,235.23 28.70,236.92 29.85,238.95 C28.69,237.16 27.50,235.58 26.91,235.02 ZM 183.79 56.82 C186.47,54.80 192.13,50.30 197.64,45.80 C198.79,44.85 199.94,43.93 201.09,43.02 C199.94,43.93 198.79,44.85 197.64,45.80 C191.36,50.93 185.29,55.76 183.79,56.82 ZM 364.24 96.33 C364.99,97.59 366.13,99.23 367.27,100.75 C366.03,99.17 364.94,97.58 364.24,96.33 ZM 187.00 428.33 C182.83,424.86 176.51,419.10 171.03,413.91 C176.58,419.15 182.97,424.97 187.00,428.33 ZM 440.19 169.52 C443.64,173.31 447.23,177.41 450.80,181.65 C447.31,177.52 443.75,173.44 440.19,169.52 ZM 344.83 85.99 C346.21,86.32 347.39,86.59 348.21,86.77 C347.45,86.64 346.37,86.38 344.83,85.99 ZM 53.14 294.91 C54.85,297.01 56.43,298.99 57.76,300.72 C56.32,298.88 54.73,296.87 53.14,294.91 ZM 27.19 253.42 C26.50,254.95 26.23,256.14 26.45,256.84 C26.45,256.83 26.45,256.83 26.44,256.82 C26.22,256.12 26.48,254.96 27.19,253.42 ZM 76.68 327.17 C74.39,324.91 71.79,322.21 69.01,319.22 C71.74,322.15 74.33,324.84 76.68,327.17 ZM 28.66 260.95 C30.13,263.39 32.19,266.60 34.42,269.96 C32.19,266.60 30.14,263.40 28.66,260.95 ZM 160.02 402.69 C160.01,402.68 160.01,402.67 160.01,402.66 C160.01,402.62 160.03,402.59 160.07,402.55 C160.04,402.59 160.02,402.64 160.02,402.69 ZM 482.96 256.16 C482.98,256.08 483.00,256.01 483.00,255.96 C483.00,255.96 483.00,255.97 483.00,255.98 C483.00,256.02 482.99,256.08 482.96,256.16 Z" fill="rgba(155,198,111,1)"/>
<path d="M 480.23 227.42 C482.91,231.93 484.32,232.91 485.46,231.06 C486.29,229.72 478.61,217.68 469.14,204.73 C474.80,212.35 479.64,219.45 483.08,225.29 C485.43,229.27 487.28,231.25 489.00,231.62 C497.30,233.42 500.99,237.43 501.00,244.67 C501.00,250.27 497.41,254.53 491.17,256.34 C486.64,257.66 486.24,258.10 477.81,271.43 C477.71,271.58 477.62,271.72 477.53,271.87 C482.17,264.51 485.98,257.95 485.99,257.28 C486.02,254.20 482.30,258.15 475.55,268.38 C474.88,269.39 474.16,270.47 473.42,271.59 C478.69,263.65 483.00,256.73 483.00,255.98 C483.00,255.36 481.13,252.64 478.84,249.93 L 475.27 245.69 C475.80,245.73 476.15,245.77 476.25,245.79 C476.66,245.91 477.00,244.91 477.00,243.57 C477.00,241.30 476.78,241.20 473.76,242.07 C472.80,242.35 471.11,242.59 469.23,242.76 C474.34,242.26 477.77,240.98 478.33,239.23 C478.63,238.28 479.69,236.24 480.69,234.70 C482.48,231.93 482.46,231.83 479.62,226.70 C478.43,224.57 476.91,222.04 475.15,219.28 C477.00,222.14 478.72,224.89 480.23,227.42 ZM 235.95 23.26 C239.37,21.12 242.00,19.01 242.00,18.34 C242.00,16.79 241.95,16.56 237.63,19.01 C241.23,16.65 242.41,15.01 243.73,11.71 C247.53,2.22 260.88,2.96 265.98,12.95 C267.43,15.81 269.41,17.68 272.77,19.39 C276.73,21.41 281.99,24.65 287.84,28.59 C277.95,21.97 270.20,17.71 268.31,18.43 C266.66,19.07 266.67,19.63 272.37,23.41 C270.65,22.39 269.37,21.70 268.69,21.44 C267.50,20.98 265.60,22.04 262.51,24.89 C260.05,27.15 257.58,29.00 257.02,29.00 C256.37,29.00 256.00,34.28 256.00,43.47 C256.00,55.92 255.79,57.86 254.50,57.36 C254.43,57.34 254.37,57.31 254.31,57.27 C255.21,57.43 255.57,54.31 255.78,44.64 C256.07,31.25 255.82,29.00 254.03,29.00 C253.45,29.00 253.11,32.68 252.99,37.38 C252.92,29.38 252.57,28.85 250.75,27.92 C249.51,27.28 246.90,25.23 244.94,23.37 L 241.38 19.97 L 235.95 23.26 ZM 247.86 480.85 C245.02,479.20 244.04,477.86 243.36,474.70 C242.63,471.25 241.85,470.32 237.66,468.08 C242.53,470.45 243.00,470.43 243.00,468.03 C243.00,466.61 241.45,465.35 237.44,463.51 L 243.06 466.08 L 246.40 462.54 C248.23,460.59 250.43,459.00 251.28,459.00 C252.40,459.00 252.71,457.39 252.74,448.36 C253.14,455.16 253.68,458.00 254.56,458.00 C255.37,458.00 255.80,455.66 256.06,449.56 L 256.01 456.86 L 261.51 461.55 L 267.00 466.24 L 272.25 463.50 C269.25,465.28 267.00,467.04 267.00,467.67 C267.00,469.02 267.33,469.35 270.52,467.64 C267.49,469.68 266.65,470.91 266.03,473.07 C264.54,478.35 258.77,483.03 253.82,482.98 C252.54,482.96 249.86,482.01 247.86,480.85 ZM 22.71 232.38 C23.97,233.64 25.78,232.94 26.29,231.00 C26.31,230.92 26.33,230.84 26.34,230.77 C26.32,231.02 26.28,231.30 26.22,231.61 C25.95,233.04 26.17,234.50 26.71,234.86 C27.26,235.21 28.91,237.43 30.38,239.78 L 33.06 244.06 L 29.46 249.50 C27.12,253.03 26.06,255.60 26.44,256.82 C25.81,254.86 25.12,254.62 23.40,255.77 C22.89,256.11 25.87,261.86 29.71,268.48 C22.59,256.91 22.08,256.48 18.24,255.72 C15.95,255.27 12.75,253.63 11.05,252.05 C8.41,249.58 8.00,248.50 8.00,244.03 C8.00,241.19 8.46,238.00 9.03,236.94 C10.39,234.40 15.17,232.00 18.88,232.00 C20.52,232.00 22.53,231.32 23.36,230.50 C24.05,229.81 24.64,229.37 25.11,229.18 C23.74,229.78 22.10,231.76 22.71,232.38 ZM 25.08 249.08 C28.40,245.75 28.64,244.14 26.45,239.91 C24.70,236.51 20.98,234.72 17.50,235.59 C14.23,236.41 12.29,238.86 11.48,243.19 C10.90,246.33 11.18,247.27 13.35,249.44 C16.90,252.99 21.30,252.85 25.08,249.08 ZM 494.75 249.41 C499.75,243.81 495.30,235.20 488.03,236.38 C480.94,237.53 478.79,244.94 484.03,250.18 C487.59,253.75 491.10,253.49 494.75,249.41 ZM 259.55 476.55 C262.58,473.51 262.73,469.20 259.93,465.63 C254.67,458.95 243.52,466.46 247.08,474.28 C249.34,479.23 255.71,480.38 259.55,476.55 ZM 259.96 21.81 C262.71,18.86 262.64,13.67 259.81,11.04 C257.13,8.54 251.39,8.34 248.83,10.65 C246.47,12.79 246.37,19.65 248.65,22.17 C251.05,24.81 257.35,24.61 259.96,21.81 ZM 205.81 447.71 C190.01,436.08 173.82,422.04 158.79,406.80 C173.11,421.33 190.08,435.96 205.81,447.71 ZM 252.85 431.75 C253.01,427.69 253.30,425.30 253.70,424.90 C255.18,423.42 255.84,424.68 256.05,431.28 C255.77,426.98 255.23,424.50 254.50,424.50 C253.78,424.50 253.20,427.45 252.85,431.75 ZM 322.94 432.75 C318.57,436.88 312.75,441.37 304.75,446.71 C311.99,441.67 319.71,435.81 322.94,432.75 ZM 227.60 24.88 C216.13,31.78 207.88,37.55 198.75,44.96 C195.96,47.22 193.12,49.50 190.65,51.46 C192.77,49.76 195.19,47.80 197.64,45.80 C207.41,37.80 216.77,31.26 227.60,24.88 ZM 428.76 157.71 C431.82,160.65 435.08,163.96 438.07,167.20 C440.40,169.73 442.74,172.33 445.06,174.98 C439.21,168.42 433.51,162.39 428.76,157.71 ZM 254.05 57.04 C253.33,56.19 253.07,53.72 253.01,46.92 C253.16,51.82 253.52,56.05 254.05,57.04 ZM 336.31 71.12 C330.76,66.04 324.08,60.30 317.34,54.87 C322.83,59.22 327.91,63.48 332.16,67.32 C333.63,68.65 335.02,69.92 336.31,71.12 ZM 276.71 460.94 C279.16,459.44 281.79,457.70 283.73,456.29 C285.04,455.33 286.70,454.21 288.41,453.10 C287.48,453.74 286.60,454.36 285.84,454.93 C283.67,456.57 280.00,458.98 276.71,460.94 ZM 300.16 41.90 C295.55,38.63 290.54,35.18 285.88,32.07 C290.45,35.06 295.30,38.40 300.16,41.90 ZM 461.35 244.82 C459.27,244.65 458.00,244.36 458.00,244.00 C458.00,243.94 458.03,243.88 458.10,243.82 C458.12,244.15 459.26,244.53 461.35,244.82 ZM 355.98 87.20 C356.20,87.98 355.35,88.00 354.08,88.00 C353.32,88.00 352.56,88.27 352.13,88.65 C352.41,88.27 353.15,88.00 354.00,88.00 C354.99,88.00 355.82,87.65 355.98,87.20 ZM 347.75 86.68 C349.90,87.12 350.00,86.82 350.00,86.00 C350.00,85.99 350.00,85.98 350.00,85.97 C350.22,86.66 349.97,87.00 349.25,86.98 C349.11,86.98 348.57,86.87 347.75,86.68 ZM 330.91 62.42 C340.15,71.08 346.26,76.81 350.14,80.60 C346.37,76.94 340.34,71.26 330.91,62.42 ZM 201.38 46.07 C203.61,44.40 205.78,42.88 207.88,41.50 C208.49,41.10 209.55,40.40 210.87,39.52 C209.60,40.37 208.54,41.08 207.89,41.50 C205.79,42.87 203.62,44.39 201.38,46.07 ZM 299.49 446.41 C300.80,445.49 301.80,444.63 302.20,444.06 C301.78,444.66 300.77,445.53 299.49,446.41 ZM 193.84 433.90 C210.20,446.89 228.62,459.48 237.44,463.51 C237.43,463.51 237.42,463.51 237.41,463.50 C228.62,459.48 210.18,446.88 193.84,433.90 ZM 457.77 295.43 C458.03,295.70 460.49,293.80 463.03,291.60 C460.49,293.81 458.03,295.70 457.77,295.43 ZM 463.26 243.01 C463.58,243.00 463.91,242.99 464.25,242.99 C464.90,242.99 465.53,242.98 466.15,242.96 C465.50,242.99 464.87,243.00 464.26,243.00 C463.91,243.00 463.58,243.00 463.26,243.01 ZM 232.68 25.24 C233.28,24.88 233.84,24.54 234.35,24.23 L 232.94 25.08 C232.86,25.14 232.77,25.19 232.68,25.24 Z" fill="rgba(154,199,227,1)"/>
<path d="M 237.50 468.00 C217.00,457.99 183.86,432.22 158.79,406.80 C149.84,397.73 149.43,395.54 156.87,396.54 C170.48,398.36 177.51,402.87 165.65,402.16 C162.54,401.98 160.01,402.20 160.01,402.66 C160.03,403.71 178.25,421.04 187.00,428.33 C204.72,443.11 227.36,458.91 237.41,463.50 C241.44,465.35 243.00,466.61 243.00,468.03 C243.00,470.46 242.52,470.45 237.50,468.00 ZM 267.00 467.67 C267.00,466.94 270.08,464.65 273.85,462.58 C277.61,460.52 283.01,457.08 285.84,454.93 C288.67,452.79 293.24,449.90 296.00,448.50 C298.75,447.11 301.56,445.07 302.24,443.98 C302.92,442.89 303.94,442.00 304.49,442.00 C305.34,442.00 319.74,430.95 325.34,426.00 C333.48,418.80 349.00,403.56 349.00,402.75 C349.00,401.77 346.74,401.94 337.65,403.59 C334.24,404.21 333.84,404.08 334.16,402.43 C334.43,401.02 336.31,400.15 342.01,398.83 C351.22,396.68 352.96,396.65 355.50,398.59 C357.37,400.02 357.39,400.18 355.75,401.11 C354.79,401.65 354.00,402.57 354.00,403.14 C354.00,404.25 329.56,428.15 327.56,429.00 C326.91,429.27 324.83,430.96 322.94,432.75 C318.02,437.41 302.70,448.56 294.50,453.45 C290.65,455.75 283.21,460.19 277.98,463.31 C267.76,469.41 267.00,469.71 267.00,467.67 ZM 252.73 448.25 C252.08,437.12 253.02,424.50 254.50,424.50 C255.89,424.50 256.56,433.46 256.16,446.75 C255.91,454.96 255.48,458.00 254.56,458.00 C253.67,458.00 253.13,455.13 252.73,448.25 ZM 359.00 394.16 C359.00,393.70 362.39,388.74 366.54,383.14 C370.69,377.53 373.82,372.51 373.48,371.97 C372.72,370.73 376.02,370.73 377.99,371.97 C379.23,372.76 378.97,373.46 376.38,376.21 C372.86,379.95 365.00,390.28 363.51,393.12 C362.54,394.97 359.00,395.79 359.00,394.16 ZM 143.74 390.20 C142.21,388.17 138.53,383.36 135.54,379.53 C131.77,374.69 130.47,372.32 131.30,371.79 C133.28,370.54 136.00,370.90 136.00,372.42 C136.00,373.21 137.07,375.12 138.38,376.67 C142.77,381.90 149.86,392.80 149.26,393.41 C147.98,394.68 146.39,393.76 143.74,390.20 ZM 406.40 362.54 C407.54,358.02 408.94,355.00 409.92,355.00 C411.66,355.00 411.90,356.56 410.82,360.81 C410.02,363.97 409.27,365.00 407.77,365.00 C406.16,365.00 405.90,364.53 406.40,362.54 ZM 388.61 362.28 C387.62,361.29 387.91,358.00 389.00,358.00 C389.55,358.00 394.16,354.93 399.25,351.18 C411.45,342.18 411.00,342.40 411.00,345.44 C411.00,347.05 410.44,348.00 409.50,348.00 C408.67,348.00 408.00,348.39 408.00,348.86 C408.00,350.58 389.63,363.30 388.61,362.28 ZM 109.50 354.94 C106.20,352.22 103.34,349.26 103.15,348.38 C102.76,346.52 103.70,346.95 109.00,351.03 C110.93,352.51 113.96,354.47 115.75,355.39 C119.21,357.16 120.16,360.04 117.25,359.94 C116.29,359.91 112.80,357.66 109.50,354.94 ZM 415.00 339.58 C415.00,336.04 415.99,334.06 417.46,334.62 C419.01,335.22 434.32,321.80 437.01,317.50 C439.47,313.58 453.77,299.44 454.52,300.19 C455.79,301.45 449.16,309.28 433.31,325.25 C424.16,334.46 416.30,342.00 415.84,342.00 C415.38,342.00 415.00,340.91 415.00,339.58 ZM 81.60 331.83 C71.97,323.25 53.98,303.04 41.22,286.46 C35.41,278.92 22.37,256.46 23.40,255.77 C25.13,254.61 25.82,254.86 26.45,256.85 C27.44,259.95 42.31,282.16 47.05,287.61 C51.54,292.76 59.23,302.41 62.00,306.36 C65.73,311.67 78.60,324.91 85.29,330.30 C89.84,333.97 91.38,337.00 88.70,337.00 C87.98,337.00 84.79,334.67 81.60,331.83 ZM 418.00 318.00 C418.00,316.89 418.67,316.00 419.50,316.00 C421.18,316.00 421.25,316.18 420.39,318.42 C419.54,320.65 418.00,320.38 418.00,318.00 ZM 457.77 295.43 C457.43,295.10 459.64,291.37 462.68,287.16 C465.72,282.95 471.51,274.49 475.55,268.38 C482.30,258.15 486.02,254.20 485.99,257.28 C485.98,257.95 482.17,264.51 477.53,271.87 C472.89,279.22 468.95,285.52 468.77,285.87 C467.90,287.61 458.30,295.97 457.77,295.43 ZM 466.75 245.26 C456.80,244.88 454.72,243.00 464.26,243.00 C467.70,243.00 471.97,242.58 473.76,242.07 C476.78,241.20 477.00,241.30 477.00,243.57 C477.00,244.91 476.66,245.91 476.25,245.79 C475.84,245.68 471.56,245.44 466.75,245.26 ZM 22.71 232.38 C21.98,231.65 24.43,229.00 25.83,229.00 C26.37,229.00 26.58,229.90 26.29,231.00 C25.78,232.94 23.97,233.64 22.71,232.38 ZM 480.23 227.42 C473.23,215.68 461.80,199.30 453.11,188.58 C446.24,180.09 424.88,158.29 419.75,154.52 C416.38,152.04 414.61,148.00 416.90,148.00 C419.90,148.00 438.35,166.60 454.58,186.00 C468.92,203.12 486.70,229.07 485.46,231.06 C484.32,232.91 482.91,231.93 480.23,227.42 ZM 53.68 189.35 C52.28,187.95 53.14,186.35 58.36,180.61 C65.35,172.92 67.09,174.78 60.41,182.79 C57.79,185.93 55.35,188.85 55.00,189.27 C54.65,189.69 54.06,189.73 53.68,189.35 ZM 419.40 178.08 C419.09,176.66 418.46,174.60 417.99,173.50 C415.62,167.95 416.11,158.14 418.56,162.10 C419.46,163.55 422.96,177.00 422.98,179.08 C423.01,181.70 420.00,180.86 419.40,178.08 ZM 75.46 163.94 C74.74,162.77 87.19,150.00 89.05,150.00 C91.45,150.00 89.49,153.31 83.93,158.66 C77.16,165.18 76.49,165.60 75.46,163.94 ZM 405.78 142.19 C403.98,140.64 399.69,137.24 396.25,134.63 C390.37,130.16 388.66,128.00 391.03,128.00 C391.59,128.00 394.86,130.18 398.29,132.84 C401.72,135.50 405.64,138.27 407.01,138.99 C409.77,140.44 410.96,141.87 410.98,143.75 C411.01,145.73 409.33,145.22 405.78,142.19 ZM 101.17 140.90 C101.39,139.40 104.07,136.89 109.21,133.35 C117.66,127.54 121.08,127.60 112.98,133.42 C110.22,135.40 107.18,137.96 106.23,139.09 C105.28,140.22 103.68,141.60 102.67,142.15 C101.12,143.00 100.89,142.82 101.17,140.90 ZM 369.15 107.63 C365.74,103.00 362.27,98.64 361.42,97.94 C360.58,97.24 359.45,95.84 358.91,94.83 C358.06,93.24 358.33,93.00 361.02,93.00 C362.87,93.00 363.86,93.41 363.49,94.02 C362.84,95.07 367.70,101.97 371.58,105.50 C374.98,108.61 377.61,113.79 376.38,115.02 C375.67,115.73 373.42,113.43 369.15,107.63 ZM 140.26 105.28 C138.75,104.74 140.07,101.92 143.64,98.07 C144.94,96.67 146.00,94.95 146.00,94.26 C146.00,92.99 149.16,92.50 150.26,93.60 C150.69,94.02 143.96,103.37 141.62,105.61 C141.55,105.68 140.94,105.53 140.26,105.28 ZM 160.00 89.04 C160.00,88.59 158.88,87.93 157.50,87.59 C156.12,87.24 155.00,86.40 155.00,85.72 C155.00,84.27 178.92,60.21 183.75,56.80 C185.53,55.53 192.28,50.21 198.75,44.96 C209.69,36.08 219.35,29.56 234.80,20.64 C241.93,16.53 242.00,16.50 242.00,18.34 C242.00,19.08 238.74,21.62 234.75,23.99 C230.76,26.36 223.77,30.82 219.22,33.90 C214.66,36.98 209.56,40.40 207.88,41.50 C197.09,48.57 184.70,59.37 169.50,74.97 C158.68,86.06 158.56,86.24 162.17,85.59 C165.46,85.01 168.15,86.19 166.74,87.60 C165.75,88.59 160.00,89.82 160.00,89.04 ZM 339.25 87.74 C333.21,86.39 330.00,85.22 330.00,84.34 C330.00,82.54 332.11,82.67 341.00,85.00 C345.12,86.08 348.84,86.97 349.25,86.98 C352.39,87.05 346.55,80.33 332.16,67.32 C319.16,55.57 298.25,39.83 282.00,29.57 C266.93,20.06 266.01,19.32 268.31,18.43 C272.79,16.71 310.15,42.96 330.91,62.42 C351.90,82.08 356.00,86.11 356.00,87.05 C356.00,87.57 355.10,88.00 354.00,88.00 C352.90,88.00 352.00,88.45 352.00,89.00 C352.00,90.34 350.13,90.16 339.25,87.74 ZM 254.25 57.25 C252.65,56.72 252.43,29.00 254.03,29.00 C255.82,29.00 256.07,31.25 255.78,44.64 C255.57,54.52 255.20,57.57 254.25,57.25 Z" fill="rgba(164,214,162,1)"/>
</g>
</svg>