<svg xmlns="http://www.w3.org/2000/svg" width="466" height="464" viewBox="0 0 466 464">
<g>
<path d="M 209.45 280.12 C190.62,279.06 189.79,277.78 189.25,249.00 C189.05,237.73 189.26,220.95 189.73,211.73 L 190.58 194.95 L 195.21 190.52 C200.76,185.21 201.52,183.23 199.53,179.40 C198.69,177.81 198.01,175.54 198.01,174.37 C197.99,170.46 200.58,169.56 213.37,169.02 L 225.48 168.50 L 226.86 165.50 C227.63,163.85 229.50,161.15 231.03,159.50 C232.57,157.85 234.54,154.73 235.43,152.57 C236.63,149.65 237.34,148.94 238.18,149.78 C239.71,151.31 236.79,158.90 233.47,162.02 C232.11,163.30 231.00,165.17 231.00,166.17 C231.00,167.84 232.04,168.00 242.75,168.01 C257.24,168.01 261.73,169.08 262.65,172.74 C263.11,174.56 262.67,176.52 261.26,178.98 C259.46,182.09 259.36,182.94 260.44,185.53 C261.13,187.16 262.93,189.16 264.43,189.96 C265.94,190.77 268.08,192.71 269.19,194.27 C271.15,197.02 271.21,198.27 270.86,233.98 C270.51,269.37 270.42,270.96 268.44,273.61 C263.45,280.30 262.87,280.45 240.70,280.60 C229.59,280.68 215.53,280.46 209.45,280.12 ZM 239.63 229.94 C247.65,226.34 256.79,223.39 262.75,222.48 L 267.00 221.82 L 267.00 196.82 L 263.85 194.16 C257.94,189.17 256.94,187.94 256.34,184.97 L 255.75 182.00 L 205.16 182.00 L 204.06 185.31 C203.46,187.12 200.73,190.73 197.99,193.32 L 193.00 198.02 L 193.00 222.71 L 200.55 223.34 C208.32,224.00 220.10,227.44 226.71,230.98 C231.53,233.57 231.56,233.56 239.63,229.94 ZM 264.21 273.30 L 268.00 269.59 L 268.00 244.00 L 260.55 244.00 C250.67,244.00 244.34,242.55 233.50,237.81 C212.75,228.74 209.80,227.77 201.27,227.23 L 193.00 226.72 L 193.00 246.96 C193.00,261.41 192.59,268.90 196.13,272.77 C200.29,277.32 209.88,276.91 231.96,276.95 L 260.42 277.00 ZM 209.26 330.33 C205.26,330.00 203.75,329.41 202.91,327.84 C201.33,324.88 202.08,299.52 203.80,297.80 C205.67,295.92 255.31,295.92 257.19,297.79 C258.97,299.57 259.05,327.35 257.28,329.12 C256.03,330.37 220.61,331.26 209.26,330.33 ZM 255.00 300.00 L 206.00 300.00 L 206.00 312.83 C206.00,319.89 206.30,325.97 206.67,326.33 C207.03,326.70 218.06,327.00 231.17,327.00 L 255.00 327.00 L 255.00 300.00 ZM 165.42 315.11 C161.69,312.84 158.58,306.78 158.67,301.96 C158.75,297.21 161.24,292.69 167.23,286.35 C171.98,281.33 172.31,281.16 174.49,282.58 C175.74,283.40 178.93,286.83 181.58,290.21 C185.84,295.63 186.45,297.01 186.82,302.18 C187.24,307.97 187.21,308.06 182.75,312.51 C178.66,316.61 177.83,317.00 173.38,317.00 C170.37,316.99 167.32,316.27 165.42,315.11 ZM 180.43 310.63 C183.05,308.16 184.00,306.43 184.00,304.12 C184.00,298.03 175.16,285.16 171.91,286.54 C169.72,287.47 165.80,292.86 166.49,293.99 C166.84,294.54 167.99,295.00 169.06,295.00 C170.46,295.00 171.00,295.69 171.00,297.50 C171.00,298.92 171.58,300.00 172.34,300.00 C173.08,300.00 174.19,298.88 174.82,297.50 C175.44,296.12 176.42,295.00 176.98,295.00 C178.61,295.00 178.16,300.17 176.35,302.17 C173.30,305.53 170.45,304.17 166.46,297.47 C165.48,295.82 165.33,295.82 163.71,297.43 C162.74,298.40 162.00,300.68 162.00,302.69 C162.00,305.48 162.83,307.07 165.88,310.12 C171.06,315.30 175.32,315.45 180.43,310.63 ZM 258.82 175.25 L 258.50 172.50 L 230.25 172.23 L 202.00 171.97 L 202.00 174.32 C202.00,175.61 202.30,176.97 202.67,177.33 C203.03,177.70 215.89,178.00 231.23,178.00 L 259.13 178.00 ZM 265.73 238.81 C266.49,238.18 267.00,235.42 267.00,231.88 C267.00,226.06 266.97,226.00 264.11,226.00 C258.75,226.00 238.00,233.22 238.00,235.09 C238.00,239.18 261.48,242.33 265.73,238.81 ZM 172.56 186.35 L 169.61 183.76 L 167.90 185.88 C164.40,190.20 164.64,186.71 168.16,182.13 C170.40,179.20 169.76,178.00 165.94,178.00 C164.32,178.00 163.00,177.55 163.00,177.00 C163.00,176.45 163.68,176.00 164.50,176.00 C166.67,176.00 166.34,173.23 164.00,171.77 C161.16,170.00 161.52,169.00 165.00,169.00 C168.00,165.74 173.50,165.38 174.54,167.07 C174.97,167.77 175.83,167.56 177.04,166.46 C180.00,163.78 181.44,165.17 178.96,168.33 C176.45,171.51 176.66,171.95 181.20,172.98 L 184.50 173.72 L 177.82 176.70 L 181.41 178.81 C185.72,181.36 186.11,183.17 182.17,182.38 C179.65,181.88 179.24,182.17 178.41,185.08 C177.20,189.28 176.16,189.51 172.56,186.35 ZM 266.00 155.50 C266.00,153.25 265.60,153.00 261.97,153.00 C257.47,153.00 255.88,151.02 257.84,147.88 C259.51,145.22 259.28,144.18 256.96,143.82 C253.24,143.24 254.90,141.50 259.48,141.20 C263.79,140.90 265.17,139.84 263.00,138.50 C262.45,138.16 262.00,137.16 262.00,136.27 C262.00,134.94 262.41,135.04 264.31,136.83 C267.62,139.93 268.84,139.53 269.19,135.25 C269.53,131.12 271.31,130.15 271.83,133.81 C272.01,135.08 272.91,136.39 273.83,136.72 C277.24,137.93 278.13,139.14 276.78,140.77 C275.75,142.01 275.92,142.53 277.76,143.76 C281.20,146.04 280.43,147.09 275.88,146.36 L 271.76 145.71 L 273.52 148.38 C275.65,151.64 274.75,152.99 272.07,150.56 C269.41,148.16 268.00,149.37 268.00,154.06 C268.00,156.23 267.55,158.00 267.00,158.00 C266.45,158.00 266.00,156.88 266.00,155.50 ZM 196.55 144.50 C197.22,140.06 197.19,140.00 194.36,140.00 L 191.50 139.99 L 197.50 134.95 L 195.25 133.35 C192.56,131.44 192.34,130.00 194.75,129.99 C195.71,129.99 197.85,129.09 199.50,128.00 C203.36,125.44 204.21,125.49 203.85,128.25 C203.37,131.95 204.76,133.12 208.83,132.49 C212.45,131.93 212.47,131.95 210.25,133.58 C207.03,135.96 207.47,137.68 211.50,138.43 C215.68,139.22 216.09,140.74 212.25,141.18 C209.95,141.45 209.42,142.08 209.00,144.99 C208.38,149.34 205.78,150.08 202.36,146.87 C200.28,144.91 199.75,144.78 198.96,146.03 C198.45,146.84 198.02,147.84 198.02,148.25 C198.01,148.66 197.52,149.00 196.94,149.00 C196.25,149.00 196.11,147.43 196.55,144.50 ZM 198.00 209.97 C198.00,206.65 198.66,202.49 199.46,200.72 C201.45,196.30 209.56,187.61 210.91,188.44 C212.83,189.63 212.12,191.02 206.62,196.82 C201.51,202.22 201.21,202.83 200.54,209.25 C199.67,217.63 198.00,218.10 198.00,209.97 ZM 241.73 317.40 C240.64,316.30 240.85,310.21 242.01,309.50 C242.56,309.15 243.26,309.52 243.57,310.31 C244.29,312.19 242.69,318.36 241.73,317.40 ZM 217.59 315.75 C217.14,314.24 217.14,311.76 217.59,310.25 L 218.39 307.50 L 218.76 310.25 C218.97,311.76 218.97,314.24 218.76,315.75 L 218.39 318.50 Z" fill="rgba(42,105,176,1)"/>
<path d="M 201.00 383.64 C201.00,383.23 181.86,375.60 178.00,374.47 C176.62,374.07 172.93,372.45 169.80,370.88 C166.66,369.30 161.26,366.94 157.80,365.61 C154.33,364.29 150.15,362.49 148.50,361.61 C146.85,360.73 144.70,360.01 143.72,360.01 C142.74,360.00 139.66,358.85 136.88,357.44 C134.11,356.03 130.91,355.02 129.78,355.19 C129.08,355.30 128.67,355.44 128.66,355.86 C128.47,355.45 128.40,355.17 128.46,355.06 C128.72,354.64 127.79,353.69 126.40,352.95 C124.29,351.82 123.73,351.82 123.04,352.93 C122.60,353.65 123.36,355.35 125.34,358.05 C125.15,357.83 124.97,357.61 124.79,357.41 C122.72,355.05 120.93,354.00 118.99,354.00 C115.63,354.00 111.00,349.07 111.00,345.49 C111.00,343.93 109.57,341.97 106.75,339.68 C106.71,339.64 106.66,339.61 106.62,339.57 C109.21,341.56 111.45,342.88 111.74,342.59 C112.16,342.17 111.81,340.85 111.20,339.59 C111.39,339.84 111.68,340.00 112.00,340.00 C112.55,340.00 113.00,339.35 113.00,338.56 C113.00,337.77 112.61,336.88 112.13,336.58 C111.65,336.28 111.00,334.77 110.69,333.22 C109.93,329.39 87.06,278.59 85.91,278.17 C85.41,277.98 85.00,277.06 85.00,276.11 C85.00,275.16 84.34,273.51 83.53,272.44 C82.13,270.59 82.06,270.65 82.03,273.50 C82.01,275.88 83.08,283.38 84.56,291.84 C83.57,286.96 82.97,286.00 81.64,286.00 C81.13,286.00 80.74,285.96 80.49,286.12 C80.36,286.20 80.27,286.33 80.21,286.55 C80.15,286.00 80.09,285.48 80.05,284.98 C79.54,279.74 78.70,274.34 78.19,272.98 C78.11,272.77 78.04,272.53 77.98,272.27 C78.53,273.32 79.07,273.07 80.57,271.57 C82.60,269.54 82.35,267.00 80.11,267.00 C78.94,267.00 78.05,267.67 77.62,268.66 C77.64,268.18 77.67,267.73 77.73,267.32 C78.32,263.40 75.88,255.67 71.25,246.75 C67.80,240.09 67.70,240.00 63.63,239.97 C59.33,239.93 55.95,237.92 54.70,234.66 C54.05,232.98 53.03,232.86 43.25,233.32 C37.41,233.60 34.49,233.88 32.96,234.45 C34.76,233.73 38.39,233.39 45.95,233.06 C46.97,233.02 47.08,232.68 46.35,231.95 C45.77,231.37 42.50,230.85 39.08,230.80 C35.15,230.75 33.55,230.56 32.40,229.64 C33.71,230.64 35.90,230.76 42.95,230.88 L 53.02 231.05 L 56.17 227.46 C58.89,224.36 59.84,223.91 63.15,224.15 C66.71,224.40 67.18,224.11 69.78,219.96 C72.89,215.02 75.91,207.57 76.55,203.29 C76.78,201.75 77.15,199.60 77.37,198.50 C77.60,197.40 78.09,192.68 78.47,188.00 C78.68,185.48 78.98,182.75 79.29,180.46 C79.67,180.54 80.40,180.42 81.23,180.11 C82.88,179.50 83.50,178.33 84.55,172.60 C83.73,177.65 83.15,181.58 83.20,181.86 C83.32,182.43 83.06,184.08 81.43,193.00 C80.99,195.40 81.03,195.43 82.48,193.56 C83.32,192.49 84.00,190.80 84.00,189.81 C84.00,188.81 84.44,188.00 84.98,188.00 C85.52,188.00 86.26,186.76 86.63,185.25 C86.99,183.74 88.13,181.30 89.15,179.83 C90.18,178.37 91.29,175.79 91.63,174.11 C91.97,172.42 92.86,170.53 93.62,169.90 C94.38,169.27 95.00,168.31 95.00,167.77 C95.00,167.23 97.70,160.84 101.00,153.58 C104.30,146.32 107.00,139.98 107.00,139.50 C107.00,139.01 108.43,135.78 110.17,132.31 C111.91,128.84 113.08,125.74 112.75,125.42 C112.48,125.15 109.26,127.14 105.43,129.74 C105.71,129.54 105.98,129.35 106.24,129.17 C109.95,126.60 112.99,124.15 112.99,123.72 C113.01,121.76 110.12,122.40 106.38,124.66 C109.66,121.94 111.33,119.31 110.70,117.66 C109.75,115.17 114.23,111.00 118.68,110.23 C122.39,109.58 123.34,108.81 128.13,102.16 C128.05,102.27 127.97,102.38 127.90,102.48 C122.95,109.40 121.97,111.36 123.09,112.07 C124.71,113.10 126.48,112.76 126.54,111.42 C126.55,111.20 126.67,110.85 126.88,110.40 C126.66,110.91 126.58,111.25 126.69,111.36 C127.26,111.92 141.10,106.30 142.44,104.96 C142.97,104.43 144.04,104.00 144.83,104.00 C146.65,104.00 162.72,97.63 170.35,93.88 C173.57,92.29 176.95,91.00 177.85,91.00 C178.76,90.99 181.07,90.01 183.00,88.80 C184.93,87.60 186.95,86.58 187.50,86.54 C188.05,86.50 191.43,85.34 195.00,83.98 C200.55,81.86 201.15,81.50 198.90,81.19 C202.63,81.16 204.54,79.85 203.74,77.76 C203.57,77.31 203.18,77.04 202.23,76.93 C203.27,76.90 204.20,76.89 205.00,76.90 C207.48,76.96 212.31,75.99 215.75,74.75 C220.88,72.90 222.80,71.52 226.51,67.00 L 230.77 61.82 C230.97,63.67 231.41,64.00 232.25,64.00 C233.50,64.00 233.88,63.22 234.06,58.36 L 234.03 62.50 L 239.38 67.20 C248.45,75.15 252.66,77.00 261.73,77.00 C263.12,77.00 264.70,77.05 266.45,77.15 C261.78,76.95 259.00,77.21 259.00,78.02 C259.00,79.27 263.36,81.14 265.91,81.10 C264.35,81.42 266.63,82.67 273.00,85.03 C276.02,86.15 279.85,87.70 281.50,88.48 C283.15,89.26 291.93,92.83 301.01,96.42 C310.09,100.01 321.57,104.73 326.51,106.91 C335.72,110.97 338.00,111.62 338.00,110.17 C338.00,110.07 337.94,109.92 337.84,109.74 C339.11,111.02 340.26,111.97 340.75,111.98 C342.89,112.01 342.16,109.88 337.62,103.32 C341.71,109.04 342.90,110.00 345.23,110.00 C347.15,110.00 349.19,111.04 351.16,113.00 C353.64,115.48 354.04,116.52 353.50,119.00 C353.17,120.49 353.11,121.27 353.45,121.65 C352.35,121.57 351.52,122.03 350.99,123.02 C349.60,125.62 349.73,126.00 352.00,126.00 C352.38,126.00 352.85,126.11 353.34,126.30 C352.87,126.17 352.49,126.17 352.31,126.35 C352.03,126.64 353.03,129.49 354.54,132.69 C356.05,135.88 358.30,141.31 359.54,144.74 C360.79,148.18 362.97,152.98 364.40,155.42 C365.83,157.86 367.00,160.50 367.00,161.29 C367.00,162.08 367.90,163.87 369.00,165.27 C370.10,166.67 371.00,168.43 371.00,169.17 C371.00,169.92 372.30,173.22 373.89,176.51 C375.48,179.81 377.79,184.86 379.01,187.75 C380.66,191.63 382.25,193.64 382.66,192.84 C382.98,194.96 383.46,196.69 383.84,196.94 C384.30,197.25 385.18,198.40 385.81,199.50 C386.73,201.12 386.94,200.03 386.97,193.68 C386.99,189.39 386.55,185.03 386.01,184.01 C386.55,185.03 387.00,188.52 387.00,191.75 C387.00,200.73 388.78,208.44 392.60,216.06 C396.22,223.27 398.44,224.86 403.25,223.65 C405.02,223.21 405.98,223.83 407.76,226.55 C409.94,229.88 410.15,230.00 416.57,230.00 C416.50,230.00 416.43,230.00 416.36,230.00 C409.39,230.00 409.00,230.12 409.00,232.25 C409.00,233.48 409.07,234.04 411.04,234.27 L 407.11 237.64 C403.90,240.39 402.30,241.08 399.75,240.83 C396.78,240.53 396.31,240.88 394.29,245.00 C389.25,255.29 388.06,258.92 387.10,267.00 C386.92,268.54 386.70,270.27 386.46,272.14 C386.57,271.16 386.66,270.27 386.73,269.50 L 387.17 264.50 L 384.96 266.65 C383.37,268.20 382.80,269.06 382.27,273.43 C382.29,272.55 382.21,272.00 382.03,272.00 C381.24,272.00 378.00,278.60 378.00,280.21 C378.00,280.83 377.41,282.05 376.68,282.92 C375.95,283.79 374.09,287.42 372.54,291.00 C370.99,294.58 367.54,302.10 364.86,307.72 C362.19,313.34 359.99,318.52 359.99,319.22 C359.98,319.92 358.86,322.46 357.49,324.85 C356.12,327.25 355.00,329.95 354.99,330.85 C354.99,331.76 354.09,333.85 353.00,335.50 C349.51,340.77 349.83,341.28 356.65,336.79 C352.13,339.92 351.42,340.91 352.12,342.22 C352.99,343.84 353.20,343.91 355.50,342.47 C354.59,343.25 354.00,344.21 354.00,344.99 C354.00,346.06 353.24,348.52 352.31,350.47 C350.83,353.57 350.18,354.00 346.93,354.00 C344.81,354.00 342.37,354.75 341.25,355.75 C340.57,356.36 338.94,358.30 337.09,360.63 C341.05,355.30 341.88,353.54 340.87,352.90 C338.25,351.24 336.29,352.39 335.57,356.00 C335.43,356.72 333.89,359.10 331.93,361.82 C334.14,358.58 335.60,355.87 335.03,355.52 C333.97,354.86 323.28,358.73 322.46,360.06 C322.14,360.58 321.10,361.00 320.15,361.00 C319.20,361.00 316.66,361.90 314.50,363.00 C312.34,364.10 309.96,365.00 309.21,365.00 C307.66,365.00 285.22,374.44 280.22,377.19 C278.42,378.19 276.08,379.00 275.03,379.00 C273.98,379.00 272.84,379.45 272.50,380.00 C272.16,380.55 271.09,381.00 270.13,381.00 C269.17,381.00 267.51,381.66 266.44,382.47 C265.38,383.27 264.92,383.64 265.17,383.80 C263.16,383.80 261.17,384.44 260.03,385.47 C257.84,387.45 257.73,388.53 260.86,388.71 C249.47,389.49 241.60,392.32 240.10,396.20 C239.61,397.46 238.13,399.50 236.81,400.73 C234.51,402.87 234.40,403.56 234.27,416.89 L 234.13 430.81 L 234.08 430.79 L 234.16 418.14 C234.25,404.33 234.27,401.52 233.32,401.13 C233.07,401.03 232.75,401.10 232.35,401.18 C230.91,401.46 230.70,403.36 230.69,416.23 C230.69,420.12 230.68,422.98 230.63,425.11 L 230.58 417.12 C230.50,403.36 230.50,403.35 227.50,399.63 C219.82,390.09 218.83,389.71 198.00,388.06 C197.98,388.05 197.96,388.05 197.93,388.05 C201.97,388.24 204.98,388.20 205.45,387.80 C206.02,387.32 205.93,387.00 205.20,387.00 C204.54,387.00 204.00,386.33 204.00,385.50 C204.00,384.04 202.87,383.58 200.19,383.94 C199.77,384.00 198.49,383.92 196.66,383.74 C199.33,383.93 201.00,383.93 201.00,383.64 ZM 271.83 375.91 C283.75,370.90 296.20,365.77 299.50,364.51 C321.19,356.24 332.59,351.50 335.65,349.49 C336.85,348.71 338.12,346.75 338.47,345.14 C339.20,341.82 341.55,339.37 344.50,338.85 C345.87,338.61 347.82,335.83 350.71,330.00 C353.02,325.33 354.78,321.05 354.62,320.50 C354.45,319.95 355.30,317.92 356.50,316.00 C357.70,314.08 361.06,307.10 363.97,300.50 C371.11,284.32 373.16,279.77 374.15,278.00 C378.02,271.02 379.19,268.46 379.40,266.54 C379.53,265.33 380.73,262.57 382.07,260.41 C384.43,256.61 384.51,255.84 384.82,233.81 C384.86,230.53 384.94,227.78 385.00,225.40 C385.03,230.97 385.39,233.88 386.00,233.50 C386.55,233.16 387.01,232.12 387.02,231.19 C387.03,229.81 387.20,229.76 387.92,230.91 C388.41,231.69 388.79,230.57 389.03,227.63 C389.03,228.88 389.03,230.34 389.03,232.03 C389.06,243.16 389.22,244.29 390.52,242.58 C391.32,241.52 392.26,239.13 392.61,237.27 C393.54,232.31 392.57,224.65 390.66,221.93 C389.85,220.77 389.44,220.33 389.23,221.75 C389.19,220.08 389.04,219.00 388.82,219.00 C388.44,219.00 387.85,218.10 387.50,217.00 C386.29,213.20 385.36,214.75 385.09,220.54 C385.09,218.28 385.01,216.33 384.77,214.40 C383.70,205.83 379.41,197.66 364.57,165.00 C348.12,128.80 346.71,126.02 344.73,125.97 C342.62,125.91 338.19,121.35 337.84,118.87 C337.42,115.94 331.18,112.40 318.50,107.88 C313.55,106.11 306.90,103.38 303.72,101.81 C300.54,100.23 293.83,97.56 288.79,95.88 C283.76,94.19 278.71,92.22 277.57,91.49 C276.43,90.76 270.10,87.93 263.50,85.19 C251.87,80.37 251.12,80.20 239.00,79.63 C232.12,79.31 223.57,79.43 220.00,79.91 C212.84,80.86 199.74,85.29 199.18,86.95 C198.99,87.53 198.23,88.00 197.49,88.00 C195.14,88.00 137.10,111.27 129.42,115.29 C127.86,116.11 126.22,118.14 125.60,120.05 C124.83,122.39 123.31,124.00 120.50,125.44 C117.37,127.05 116.16,128.47 114.91,132.00 C113.16,136.95 108.94,146.54 106.11,152.00 C105.11,153.93 103.97,156.85 103.57,158.49 C103.17,160.13 102.52,161.71 102.12,161.99 C101.72,162.27 96.69,172.85 90.95,185.50 L 80.50 208.50 L 80.20 230.97 L 79.89 253.44 L 83.59 262.80 C85.63,267.95 88.35,273.72 89.65,275.62 C90.94,277.53 92.00,279.53 92.00,280.08 C92.00,280.62 93.12,283.27 94.48,285.97 C95.85,288.67 98.05,293.71 99.36,297.19 C101.58,303.03 108.03,316.84 110.72,321.50 C111.36,322.60 112.11,324.62 112.40,326.00 C113.22,329.94 117.78,336.25 121.99,339.26 C124.34,340.94 126.09,343.14 126.47,344.88 C127.02,347.35 128.46,348.38 136.80,352.26 C142.14,354.74 149.65,357.97 153.50,359.45 C161.25,362.43 183.53,371.79 203.50,380.45 L 216.50 386.09 L 250.16 385.03 ZM 288.07 304.97 C279.42,300.15 280.64,288.38 290.31,283.35 C293.95,281.46 298.53,282.85 302.59,287.09 C307.97,292.71 305.87,301.81 298.35,305.47 C294.31,307.43 292.30,307.33 288.07,304.97 ZM 91.42 137.46 L 90.68 140.41 L 95.09 137.12 C95.99,136.46 97.24,135.55 98.65,134.53 C95.53,136.84 92.94,138.90 92.28,139.75 C91.10,141.25 89.02,147.84 87.81,153.77 C87.94,152.40 87.54,152.31 86.31,152.63 C84.93,152.99 83.47,156.49 82.40,161.63 C83.05,158.49 83.95,155.08 85.16,151.18 C85.72,149.35 85.90,147.57 85.55,147.22 C85.42,147.09 84.89,147.40 84.05,148.07 C84.90,147.38 85.49,147.00 85.73,147.00 C86.43,147.00 87.00,145.88 87.00,144.50 C87.00,143.12 86.69,142.00 86.30,142.00 C85.08,142.00 77.53,147.44 76.60,149.00 C77.09,148.17 79.40,146.20 81.73,144.63 C84.05,143.05 86.42,141.20 86.99,140.51 C87.56,139.83 89.57,133.47 91.45,126.38 C93.34,119.30 95.55,111.70 96.38,109.50 C97.24,107.20 97.65,103.99 97.35,101.95 C96.69,97.65 98.76,95.48 103.20,95.82 C104.60,95.93 109.16,95.05 114.00,93.78 C113.29,93.98 112.56,94.20 111.80,94.42 C107.64,95.66 106.25,96.50 106.66,97.56 C107.29,99.19 107.49,99.36 112.93,97.75 C109.70,98.78 107.34,99.72 107.15,100.22 C106.95,100.71 105.67,102.33 104.30,103.81 C102.92,105.29 101.15,107.75 100.36,109.28 C98.64,112.60 95.46,123.00 94.55,128.25 C94.00,131.49 94.15,131.98 95.82,132.00 C95.81,132.00 95.80,132.00 95.79,132.00 C93.78,132.00 92.34,133.80 91.42,137.46 ZM 309.00 306.46 C309.00,305.62 309.73,303.82 310.62,302.46 C312.67,299.33 312.71,291.27 310.70,287.42 C308.67,283.54 303.18,278.38 299.68,277.06 C296.06,275.69 291.13,275.71 287.14,277.10 C285.40,277.71 283.24,277.92 282.35,277.58 C280.87,277.01 280.88,276.79 282.46,275.05 C285.09,272.14 295.77,271.26 301.55,273.47 C306.93,275.52 311.65,280.03 314.13,285.48 C317.72,293.39 315.62,308.00 310.89,308.00 C309.85,308.00 309.00,307.31 309.00,306.46 ZM 286.00 315.89 C283.52,314.76 279.99,313.83 278.14,313.82 C274.82,313.80 274.78,313.74 275.37,310.15 C275.71,308.14 275.98,305.53 275.99,304.34 C276.00,302.32 276.23,302.26 279.75,303.31 C283.96,304.58 286.38,306.97 284.93,308.45 C283.35,310.06 283.86,310.73 287.94,312.36 C290.83,313.52 293.62,313.77 298.44,313.32 C303.96,312.81 305.00,312.96 305.00,314.26 C305.00,318.11 293.07,319.13 286.00,315.89 ZM 92.19 342.25 C93.54,346.68 94.77,349.00 95.76,349.00 C97.16,349.00 97.31,348.88 95.71,340.98 C96.07,342.38 96.49,343.90 96.98,345.50 C97.98,348.80 99.11,352.99 99.49,354.81 C99.96,357.02 100.99,358.42 102.60,359.04 C103.94,359.55 105.54,361.08 106.16,362.45 C107.17,364.68 108.94,365.62 119.71,368.58 C115.54,367.60 115.00,367.82 115.00,368.99 C115.00,370.54 117.53,372.16 121.23,373.28 C119.15,372.72 117.49,372.03 116.22,371.21 C114.96,370.40 110.69,369.51 106.72,369.24 C102.75,368.97 98.94,368.30 98.25,367.75 C97.50,367.15 97.00,364.36 97.00,360.78 C97.00,357.50 96.37,353.61 95.59,352.15 C93.78,348.74 90.19,337.10 90.01,334.16 C90.44,336.26 91.15,338.83 92.19,342.25 ZM 300.12 299.78 C301.98,296.30 301.38,290.76 298.92,288.75 C295.84,286.23 292.04,286.58 288.80,289.69 C285.55,292.80 285.24,295.84 287.84,299.05 C290.20,301.97 292.00,300.84 292.00,296.44 C292.00,293.67 292.39,293.00 294.00,293.00 C295.65,293.00 296.00,293.67 296.00,296.83 C296.00,302.40 297.96,303.80 300.12,299.78 ZM 344.81 95.71 C347.23,96.30 349.44,96.91 350.88,97.43 C356.47,99.44 357.00,99.41 357.00,97.08 C357.00,95.72 356.06,94.97 353.75,94.49 C353.05,94.35 352.11,94.09 351.11,93.77 C354.44,94.65 358.38,95.19 361.68,95.12 C367.48,95.00 368.72,96.45 367.51,101.94 C367.23,103.21 367.27,104.82 367.57,105.93 C366.81,104.40 366.46,104.40 365.28,105.58 C364.08,106.78 364.02,107.53 365.20,111.06 C362.31,104.90 356.30,99.27 349.50,97.06 C348.12,96.61 346.50,96.15 344.81,95.71 ZM 364.02 356.75 C364.01,356.89 364.83,357.00 365.84,357.00 C366.89,357.00 367.71,356.18 368.42,354.35 C367.74,357.08 367.35,360.27 367.64,362.38 C368.37,367.68 366.55,369.45 360.68,369.15 C358.38,369.03 353.80,369.87 350.50,371.02 C348.17,371.83 345.36,372.65 343.24,373.14 C348.61,371.85 357.50,368.70 358.16,367.69 C359.45,365.70 357.95,364.07 355.67,364.99 C355.14,365.21 354.41,365.47 353.53,365.77 C359.13,363.61 362.77,359.50 365.27,352.53 C364.53,354.96 364.02,356.66 364.02,356.75 ZM 75.81 233.31 C75.59,228.19 75.77,224.00 76.20,224.00 C76.64,224.00 77.00,223.10 77.00,222.00 C77.00,218.69 74.63,219.76 72.61,223.97 C70.32,228.76 70.78,237.79 73.59,243.09 C75.95,247.54 76.36,245.75 75.81,233.31 ZM 84.65 312.75 C84.50,311.89 84.21,310.34 83.84,308.49 C83.95,308.82 84.06,309.08 84.14,309.25 C84.65,310.21 85.78,311.00 86.65,311.00 C87.86,311.00 88.09,310.34 87.63,308.25 C87.41,307.22 86.85,304.30 86.21,300.85 C86.96,304.72 87.74,308.49 88.49,311.80 C90.44,320.42 91.23,322.85 93.25,324.96 L 90.56 322.61 L 89.86 326.05 C89.51,327.74 89.38,329.25 89.54,331.07 C88.75,328.46 86.98,325.51 84.39,322.52 C85.87,323.90 86.99,324.84 87.25,324.88 C87.66,324.95 88.00,323.69 88.00,322.09 C88.00,319.86 87.03,318.46 83.29,315.47 C83.78,315.81 84.15,315.99 84.36,315.99 C84.83,316.00 84.96,314.54 84.65,312.75 ZM 65.43 235.43 C67.29,233.56 67.48,229.88 65.80,228.20 C63.86,226.26 61.17,226.81 59.41,229.50 C57.89,231.82 57.89,232.18 59.41,234.50 C61.29,237.38 63.19,237.67 65.43,235.43 ZM 405.05 234.37 C406.99,229.26 403.95,226.55 398.58,228.61 C396.06,229.58 396.54,234.88 399.25,235.97 C402.92,237.44 403.99,237.14 405.05,234.37 ZM 234.95 74.56 C235.61,73.77 236.00,71.86 235.82,70.31 C235.43,66.85 231.36,65.78 229.31,68.60 C227.59,70.95 227.66,72.51 229.57,74.43 C231.53,76.39 233.40,76.43 234.95,74.56 ZM 236.05 395.38 C237.26,392.20 235.81,390.00 232.50,390.00 C229.10,390.00 227.45,392.49 228.83,395.53 C230.42,399.02 234.70,398.93 236.05,395.38 ZM 271.25 293.34 C270.50,291.14 270.69,289.67 272.12,286.82 C275.80,279.50 278.51,280.66 276.08,288.51 C273.85,295.72 272.52,297.04 271.25,293.34 ZM 121.96 348.55 C124.67,345.28 119.72,340.33 116.45,343.04 C114.96,344.28 114.48,348.14 115.67,349.33 C116.86,350.52 120.72,350.04 121.96,348.55 ZM 120.42 121.39 C122.54,120.58 122.50,115.41 120.36,114.58 C116.16,112.97 112.76,116.97 115.63,120.14 C117.46,122.16 118.03,122.31 120.42,121.39 ZM 348.80 120.80 C350.80,118.80 350.15,116.03 347.39,114.77 C345.15,113.75 344.58,113.85 343.39,115.48 C341.62,117.90 341.65,118.50 343.57,120.43 C345.45,122.31 347.17,122.43 348.80,120.80 ZM 348.81 346.84 C349.04,344.83 348.58,344.00 346.95,343.48 C343.75,342.47 341.43,345.07 342.97,347.94 C344.64,351.06 348.40,350.34 348.81,346.84 ZM 123.67 91.12 C126.81,90.29 129.49,89.64 130.71,89.42 C134.74,88.69 137.74,87.38 142.21,83.69 C139.88,85.76 138.33,87.00 138.01,87.00 C137.27,87.00 136.96,87.30 137.32,87.66 C138.33,88.67 135.98,91.00 133.96,91.00 C132.97,91.00 132.02,90.56 131.83,90.03 C131.63,89.45 128.90,89.81 123.67,91.12 ZM 329.74 87.31 C325.32,85.86 322.27,83.09 309.54,70.99 C320.29,81.15 324.82,85.21 329.74,87.31 ZM 140.19 92.92 C144.05,89.74 148.52,88.24 157.48,86.85 C160.79,86.34 165.75,85.53 168.50,85.06 C169.93,84.81 171.29,84.57 172.60,84.35 C170.01,84.85 166.19,85.50 163.00,85.99 C149.73,88.01 144.30,89.58 140.19,92.92 ZM 416.37 277.94 C413.65,281.53 410.94,284.96 408.51,287.86 C405.00,292.04 400.84,296.65 396.84,300.86 C403.60,293.64 410.35,285.70 416.37,277.94 ZM 150.78 75.70 C151.64,74.84 152.55,73.93 153.50,72.96 C158.65,67.73 164.32,62.45 170.23,57.33 C165.18,61.79 159.99,66.67 154.43,72.15 C153.19,73.37 151.97,74.56 150.78,75.70 ZM 423.29 234.35 L 431.50 234.26 L 435.81 239.11 L 437.63 241.15 L 435.83 239.20 L 431.50 234.50 L 423.29 234.35 ZM 282.71 386.29 C284.37,386.03 286.13,385.76 288.00,385.46 C296.24,384.16 304.30,382.70 306.32,382.14 C302.84,383.16 292.75,384.87 282.71,386.29 ZM 193.68 77.50 C193.26,77.55 192.82,77.60 192.36,77.65 C183.51,78.68 177.07,79.47 172.09,80.16 C179.25,79.07 187.12,78.10 193.68,77.50 ZM 345.87 91.79 C344.23,91.15 341.58,90.32 338.82,89.57 C339.05,89.61 339.27,89.64 339.50,89.68 C341.70,90.03 344.40,90.88 345.50,91.58 C345.62,91.65 345.74,91.72 345.87,91.79 ZM 356.97 128.85 C357.85,129.53 358.77,130.00 359.28,130.00 C359.99,130.00 363.51,132.45 367.12,135.44 C363.51,132.45 359.76,130.00 358.78,130.00 C357.80,130.00 357.00,129.57 357.00,129.04 C357.00,128.98 356.99,128.91 356.97,128.85 ZM 234.17 43.34 C234.15,41.69 234.11,40.28 234.07,39.32 C233.96,37.02 233.90,35.73 234.23,34.83 L 234.17 43.34 ZM 358.96 124.55 C357.40,123.30 356.04,122.44 354.89,122.00 C355.95,122.04 357.39,122.77 358.13,123.67 C358.35,123.94 358.63,124.24 358.96,124.55 ZM 219.06 437.42 C218.83,437.33 218.58,437.22 218.31,437.09 C216.12,436.10 210.38,432.52 205.41,429.22 C210.34,432.43 216.28,436.03 219.06,437.42 ZM 339.50 369.92 C343.31,368.79 348.58,367.26 351.31,366.50 C347.21,367.80 341.54,369.45 337.32,370.55 C338.00,370.36 338.73,370.15 339.50,369.92 ZM 380.51 289.65 C380.18,291.79 379.80,293.87 379.45,295.50 C378.61,299.35 377.51,304.67 377.01,307.33 C376.66,309.17 376.32,310.86 375.96,312.40 C376.31,310.86 376.66,309.18 377.00,307.33 C377.50,304.67 378.82,298.05 379.93,292.61 C380.14,291.59 380.34,290.59 380.51,289.65 ZM 256.52 431.25 C251.80,434.23 247.12,437.02 245.64,437.59 C245.31,437.71 244.89,437.68 244.43,437.52 C246.08,437.66 248.85,435.96 256.52,431.25 ZM 356.86 341.57 C358.30,340.56 360.22,339.05 361.77,337.72 C361.65,337.84 361.54,337.96 361.44,338.07 C360.40,339.22 358.37,340.77 356.86,341.57 ZM 326.91 95.64 C330.26,99.30 333.00,102.70 333.00,103.21 C333.00,103.75 333.81,105.01 334.91,106.41 C333.82,105.26 333.00,104.02 333.00,103.47 C333.00,102.82 330.26,99.30 326.91,95.64 ZM 223.31 435.65 C224.05,434.52 225.69,433.14 227.17,432.38 C226.07,433.09 224.76,434.19 223.73,435.28 C223.51,435.52 223.30,435.74 223.11,435.95 C223.18,435.85 223.24,435.75 223.31,435.65 ZM 99.36 330.20 C103.01,333.14 106.52,335.74 108.35,336.82 C106.91,336.14 103.56,333.67 99.36,330.20 ZM 428.12 229.40 C428.30,229.37 428.48,229.35 428.65,229.32 C426.14,229.83 422.65,229.98 417.35,230.00 C421.06,229.98 425.80,229.71 428.12,229.40 ZM 172.98 384.99 C173.92,385.49 177.10,386.06 181.13,386.58 C176.07,386.03 174.11,385.59 172.98,384.99 ZM 385.38 312.19 C383.40,313.95 382.00,315.00 381.52,315.00 C381.36,315.00 381.21,315.00 381.08,314.99 C381.95,314.83 383.37,313.91 385.38,312.19 ZM 368.48 340.17 C368.50,341.17 367.77,344.36 366.68,347.95 C367.61,344.61 368.35,341.44 368.48,340.17 ZM 79.89 151.82 C72.17,159.20 58.61,173.58 52.27,181.35 C58.63,173.53 72.08,159.27 79.89,151.82 ZM 378.83 167.70 C380.71,177.66 381.42,182.00 382.07,187.65 C381.88,186.34 381.69,184.86 381.53,183.50 C381.29,181.47 380.19,175.08 378.83,167.70 ZM 365.30 334.83 C367.83,332.95 369.84,331.93 370.53,332.24 C369.89,332.02 367.56,333.26 365.30,334.83 ZM 41.31 268.89 C37.20,263.27 30.05,252.16 27.94,247.82 C29.94,251.93 36.97,262.88 41.31,268.89 ZM 381.92 276.98 C381.80,278.28 381.68,279.77 381.54,281.50 C381.53,281.59 381.52,281.69 381.51,281.78 C381.45,281.00 381.60,279.07 381.92,276.98 ZM 366.99 118.12 C367.00,118.18 367.00,118.24 367.00,118.29 C367.00,119.21 367.57,121.58 368.33,123.91 C367.58,122.00 367.00,119.65 367.00,118.50 C367.00,118.38 367.00,118.25 366.99,118.12 ZM 129.63 363.57 C131.72,366.37 133.09,368.53 133.66,369.92 C133.00,368.53 131.45,366.11 129.63,363.57 ZM 109.91 337.60 C110.55,338.00 111.00,338.54 111.00,338.97 C111.00,339.08 111.02,339.18 111.05,339.28 C110.71,338.63 110.30,338.03 109.91,337.60 ZM 188.71 417.18 C187.36,415.95 184.82,414.04 182.50,412.55 C179.33,410.51 171.15,403.14 163.92,396.17 C171.16,403.15 179.36,410.53 182.54,412.57 C185.06,414.18 187.68,416.14 188.71,417.18 ZM 128.98 374.68 C131.89,375.17 135.80,376.70 139.02,378.44 C135.92,376.78 132.13,375.32 128.98,374.68 ZM 366.56 130.16 C365.16,129.47 363.45,128.33 361.63,126.84 C363.28,128.11 365.13,129.36 366.56,130.16 ZM 163.69 68.03 C171.47,60.51 180.01,52.72 183.30,50.53 C180.12,52.65 171.53,60.47 163.69,68.03 ZM 129.75 105.61 C132.38,101.70 136.02,96.93 138.38,94.57 C138.59,94.36 138.80,94.16 139.02,93.96 C138.86,94.11 138.70,94.26 138.55,94.41 C136.08,96.89 132.37,101.73 129.75,105.61 ZM 380.21 312.40 C380.39,311.02 380.81,308.92 381.46,305.71 C381.51,305.45 381.57,305.17 381.62,304.89 C381.39,306.21 381.20,307.27 381.04,308.00 C380.70,309.60 380.39,311.25 380.21,312.40 ZM 51.72 282.37 C50.67,281.06 49.82,279.94 49.23,279.07 C49.03,278.76 48.82,278.45 48.60,278.15 C49.20,278.94 49.80,279.76 50.37,280.56 C50.77,281.12 51.22,281.73 51.72,282.37 ZM 223.74 29.54 C225.26,31.44 227.26,33.00 228.19,33.00 C229.07,33.00 229.77,33.28 230.27,33.84 C229.63,33.35 228.84,33.00 228.13,33.00 C227.23,33.00 225.26,31.44 223.74,29.54 ZM 231.19 37.00 C231.20,37.44 231.17,37.90 231.12,38.40 C231.06,39.01 230.99,40.30 230.92,42.01 C230.98,39.73 231.07,37.94 231.19,37.00 ZM 331.07 371.93 C330.24,372.05 329.70,372.09 329.52,371.85 C329.46,371.78 329.44,371.69 329.45,371.56 C329.58,371.88 330.11,372.00 331.07,371.93 ZM 368.58 108.44 C369.06,109.74 369.61,111.44 370.04,113.00 C371.22,117.31 371.98,120.07 372.89,123.31 C372.54,122.09 372.27,121.10 372.10,120.50 C371.64,118.85 370.71,115.47 370.02,113.00 C369.61,111.50 369.07,109.81 368.58,108.44 ZM 148.53 375.50 C143.41,373.93 139.95,371.84 138.37,369.34 C139.93,371.81 143.43,373.91 148.53,375.50 ZM 333.27 376.00 C334.55,376.00 336.05,375.55 336.60,375.00 C337.11,374.49 338.69,373.93 340.23,373.71 C338.59,374.01 337.04,374.56 336.58,375.02 C336.04,375.56 334.55,376.00 333.27,376.00 ZM 369.86 130.15 C369.84,130.38 369.80,130.54 369.72,130.61 C369.60,130.74 369.43,130.82 369.22,130.86 C369.49,130.71 369.72,130.46 369.86,130.15 ZM 198.95 424.73 C198.02,424.04 197.37,423.50 197.12,423.21 C197.51,423.52 197.86,423.81 198.17,424.09 C198.38,424.27 198.64,424.49 198.95,424.73 ZM 237.92 32.04 C240.16,30.89 242.00,29.28 242.00,28.45 C242.00,29.28 240.25,30.85 238.12,31.94 L 237.92 32.04 ZM 299.31 85.55 C303.04,86.25 306.51,86.96 309.33,87.63 C311.94,88.24 315.00,88.76 316.89,88.94 C315.00,88.76 311.94,88.24 309.33,87.63 C306.48,86.96 303.02,86.25 299.31,85.55 ZM 119.98 95.71 C123.80,94.68 127.37,93.87 129.89,93.44 C127.27,93.89 123.61,94.74 119.98,95.71 ZM 98.87 334.06 C100.33,334.95 102.04,336.10 103.83,337.43 C102.12,336.17 100.38,335.00 98.87,334.06 ZM 81.38 168.15 C81.36,168.27 81.35,168.38 81.34,168.50 C81.23,169.53 81.03,170.82 80.80,172.10 C81.02,170.77 81.23,169.37 81.38,168.15 ZM 335.07 99.67 C333.31,97.10 331.95,94.96 331.47,93.96 C331.96,94.95 333.31,97.09 335.07,99.67 ZM 372.01 346.75 C372.01,347.99 371.59,349.00 371.09,349.00 C371.03,349.00 370.96,349.01 370.90,349.04 C370.95,349.01 371.00,349.00 371.04,349.00 C371.57,349.00 372.01,347.99 372.01,346.75 ZM 98.91 130.48 C99.19,130.17 99.66,129.73 100.25,129.24 C99.80,129.64 99.36,130.05 98.92,130.47 C98.91,130.48 98.91,130.48 98.91,130.48 ZM 157.19 82.89 C156.96,82.95 156.73,83.01 156.50,83.07 C156.05,83.19 155.60,83.30 155.16,83.40 C155.78,83.23 156.46,83.06 157.19,82.89 ZM 193.51 420.78 C192.59,420.33 191.58,419.69 190.72,419.04 C191.47,419.60 192.30,420.14 193.04,420.52 C193.19,420.60 193.35,420.68 193.51,420.78 ZM 82.16 162.89 C81.88,164.36 81.64,165.93 81.44,167.59 C81.62,166.07 81.85,164.52 82.16,162.89 ZM 325.01 370.49 C324.72,370.79 324.46,371.06 324.22,371.30 C323.58,371.92 322.92,372.49 322.21,373.01 C322.90,372.50 323.54,371.95 324.16,371.35 C324.44,371.07 324.72,370.79 325.01,370.49 ZM 268.00 41.22 C271.76,43.55 276.08,46.70 280.87,50.60 C276.07,46.70 271.74,43.54 268.00,41.22 ZM 94.33 332.64 C94.34,332.44 94.36,332.31 94.41,332.26 C94.41,332.26 94.42,332.25 94.42,332.25 C94.38,332.35 94.35,332.48 94.33,332.64 ZM 369.92 335.14 C369.82,335.36 369.71,335.59 369.60,335.81 C369.70,335.58 369.80,335.36 369.91,335.16 C369.91,335.16 369.92,335.15 369.92,335.14 ZM 316.96 375.84 C314.49,376.78 311.48,377.54 307.62,378.24 C311.48,377.54 314.50,376.78 316.96,375.84 ZM 370.64 332.31 C370.65,332.32 370.65,332.32 370.66,332.33 C370.70,332.36 370.72,332.43 370.73,332.52 C370.71,332.43 370.69,332.36 370.64,332.31 ZM 331.28 93.38 C331.28,93.38 331.28,93.38 331.29,93.38 C331.30,93.37 331.33,93.35 331.36,93.34 C331.33,93.35 331.30,93.37 331.28,93.38 Z" fill="rgba(146,199,87,1)"/>
<path d="M 244.02 19.32 C246.00,22.82 248.62,25.00 250.98,25.00 C251.83,25.00 253.64,26.02 255.01,27.26 C258.27,30.22 262.65,33.00 264.04,33.00 C264.64,33.00 267.25,34.73 269.82,36.84 C272.39,38.95 278.86,44.15 284.19,48.38 C289.52,52.61 299.42,61.35 306.19,67.79 C326.28,86.92 325.77,86.55 334.63,88.53 C338.96,89.50 344.30,91.09 346.50,92.06 C348.70,93.03 351.96,94.13 353.75,94.49 C356.06,94.97 357.00,95.72 357.00,97.08 C357.00,99.41 356.47,99.44 350.88,97.43 C345.94,95.66 331.91,92.76 331.29,93.38 C331.06,93.61 333.38,97.32 336.44,101.64 C342.03,109.52 343.07,112.02 340.75,111.98 C339.40,111.96 333.00,104.72 333.00,103.21 C333.00,102.70 330.26,99.30 326.91,95.64 C322.15,90.45 320.20,89.00 317.99,89.00 C316.44,89.00 312.54,88.38 309.33,87.63 C296.46,84.59 270.19,80.58 266.38,81.07 C263.94,81.38 259.00,79.35 259.00,78.02 C259.00,75.80 280.00,77.68 303.67,82.03 C309.54,83.11 314.60,83.72 314.92,83.39 C315.24,83.07 309.08,76.55 301.22,68.92 C288.00,56.07 276.54,46.51 268.00,41.22 C266.08,40.02 263.46,37.93 262.19,36.56 C260.91,35.20 257.31,32.86 254.19,31.37 C251.06,29.88 247.73,28.00 246.79,27.21 C245.49,26.11 243.84,26.04 242.86,26.73 C243.03,26.59 243.22,26.47 243.42,26.39 C245.72,25.51 245.92,23.62 244.02,19.32 ZM 210.57 438.00 C209.71,438.00 209.00,437.59 209.00,437.09 C209.00,436.60 206.78,434.60 204.08,432.65 C192.47,424.31 186.06,420.00 185.27,420.00 C183.49,420.00 147.42,386.88 144.50,382.57 C142.47,379.57 133.04,374.99 128.00,374.55 C121.00,373.94 115.00,371.38 115.00,368.99 C115.00,367.49 115.89,367.56 124.14,369.69 C129.16,370.99 133.51,371.82 133.81,371.53 C134.62,370.71 132.10,366.53 126.93,360.10 C123.78,356.19 122.49,353.82 123.04,352.93 C123.73,351.82 124.29,351.82 126.40,352.95 C127.79,353.69 128.72,354.64 128.46,355.06 C128.21,355.47 129.92,358.22 132.28,361.16 C134.64,364.10 137.37,367.78 138.37,369.34 C140.55,372.78 146.28,375.43 155.00,377.04 C158.57,377.70 164.20,378.83 167.50,379.57 C173.98,381.01 198.04,384.23 200.19,383.94 C202.87,383.58 204.00,384.04 204.00,385.50 C204.00,386.33 204.54,387.00 205.20,387.00 C205.93,387.00 206.02,387.32 205.45,387.80 C203.96,389.07 176.09,386.65 172.98,384.99 C171.96,384.44 169.72,384.00 168.00,384.00 C166.28,384.00 164.11,383.60 163.18,383.12 C162.26,382.63 159.14,381.91 156.25,381.52 C152.01,380.95 151.00,381.09 151.00,382.26 C151.00,384.24 176.30,408.56 182.50,412.55 C185.25,414.31 188.32,416.67 189.32,417.79 C190.32,418.90 192.46,420.36 194.07,421.03 C195.68,421.70 197.00,422.59 197.00,423.02 C197.00,423.87 214.14,435.19 218.31,437.09 C220.40,438.05 221.05,438.02 222.93,436.12 C222.33,437.17 221.26,438.00 220.50,438.00 C219.71,438.00 218.64,438.81 218.11,439.80 C217.38,441.16 217.58,441.88 218.93,442.72 C219.91,443.34 221.00,445.23 221.33,446.92 C221.34,446.93 221.34,446.94 221.34,446.96 C220.71,443.80 213.74,438.00 210.57,438.00 ZM 241.95 435.66 C243.24,437.14 244.75,437.93 245.64,437.59 C248.86,436.35 267.11,424.69 268.27,423.13 C268.95,422.21 270.62,420.96 272.00,420.34 C273.38,419.72 278.17,416.12 282.65,412.35 C287.13,408.58 293.20,403.59 296.15,401.26 C299.09,398.93 304.20,393.67 307.50,389.56 C310.80,385.46 314.06,382.07 314.75,382.05 C315.44,382.02 316.00,381.51 316.00,380.92 C316.00,379.82 312.45,380.25 306.50,382.09 C304.85,382.60 296.52,384.12 288.00,385.46 C260.43,389.82 255.23,389.82 260.03,385.47 C261.23,384.38 263.40,383.73 265.52,383.81 C268.61,383.92 274.08,383.22 303.00,378.99 C314.80,377.26 320.05,375.36 324.22,371.30 C327.50,368.11 335.24,357.67 335.57,356.00 C336.29,352.39 338.25,351.24 340.87,352.90 C341.94,353.58 340.94,355.51 336.34,361.64 C330.92,368.84 329.05,371.24 329.52,371.85 C329.78,372.19 330.79,371.97 332.33,371.72 C336.00,371.13 351.67,366.61 355.67,364.99 C357.95,364.07 359.45,365.70 358.16,367.69 C357.37,368.90 344.79,373.17 340.57,373.66 C338.93,373.85 337.14,374.46 336.60,375.00 C336.05,375.55 334.55,376.00 333.27,376.00 C327.98,376.00 323.16,379.46 309.89,392.80 C302.40,400.33 291.00,410.55 284.56,415.50 C278.12,420.45 271.87,425.29 270.68,426.24 C267.24,429.00 261.24,432.84 256.94,435.03 C254.77,436.14 253.00,437.39 253.00,437.83 C253.00,438.26 251.18,439.42 248.96,440.40 C247.07,441.23 245.82,442.08 244.87,443.31 C245.16,442.90 245.44,442.57 245.67,442.38 C247.39,440.96 246.42,438.27 243.91,437.47 C242.86,437.14 242.00,436.44 242.00,435.92 C242.00,435.84 241.98,435.75 241.95,435.66 ZM 353.75 125.75 C354.27,127.14 355.09,127.29 357.40,126.40 C358.60,125.94 358.73,125.36 357.95,123.90 C357.91,123.83 357.87,123.76 357.83,123.69 C358.60,124.24 359.42,124.92 360.30,125.70 C364.63,129.55 368.67,131.66 369.72,130.61 C370.11,130.22 369.66,127.72 368.72,125.07 C367.77,122.41 367.00,119.36 367.00,118.29 C367.00,117.23 366.29,114.26 365.41,111.69 C364.02,107.62 364.01,106.85 365.28,105.58 C366.55,104.31 366.86,104.40 367.75,106.31 C368.31,107.52 369.33,110.53 370.02,113.00 C370.71,115.47 371.64,118.85 372.10,120.50 C372.56,122.15 373.89,126.88 375.06,131.00 L 377.18 138.50 L 392.39 154.00 C406.94,168.84 426.02,190.78 427.22,194.05 C427.53,194.91 429.97,198.91 432.64,202.94 C435.31,206.97 438.44,211.89 439.59,213.88 C441.00,216.32 443.43,218.37 447.06,220.17 C447.81,220.54 448.57,220.95 449.31,221.38 C448.93,221.20 448.54,221.02 448.13,220.84 C445.59,219.75 442.73,218.16 441.79,217.31 C439.49,215.23 436.66,216.34 437.50,218.99 C437.59,219.28 437.63,219.60 437.61,219.95 C437.57,219.35 437.40,218.72 437.12,217.92 C436.55,216.27 435.06,213.49 433.83,211.76 C432.59,210.03 430.83,207.13 429.91,205.33 C428.99,203.53 427.04,200.58 425.57,198.78 C424.10,196.97 419.84,191.45 416.11,186.50 C408.50,176.42 392.86,158.83 385.42,152.01 C379.35,146.44 379.07,147.20 382.01,161.24 C383.19,166.88 384.35,173.90 384.58,176.83 C384.82,179.76 385.46,182.99 386.01,184.01 C386.55,185.03 386.99,189.39 386.97,193.68 C386.94,200.03 386.73,201.12 385.81,199.50 C385.18,198.40 384.30,197.25 383.84,196.94 C383.38,196.64 382.77,194.16 382.49,191.44 C381.50,182.06 380.91,178.43 377.30,159.69 L 373.67 140.88 L 367.12 135.44 C363.51,132.45 359.99,130.00 359.28,130.00 C358.58,130.00 357.10,129.10 356.00,128.00 C354.90,126.90 353.10,126.00 352.00,126.00 C349.73,126.00 349.60,125.62 350.99,123.02 C351.77,121.56 353.18,121.26 355.16,122.11 C353.92,122.31 353.01,123.72 353.75,125.75 ZM 364.02 356.75 C364.02,356.61 365.13,352.95 366.48,348.60 C367.83,344.26 368.71,340.33 368.43,339.88 C368.15,339.43 368.64,337.65 369.53,335.94 C370.42,334.22 370.93,332.59 370.66,332.33 C369.93,331.60 366.28,333.76 362.16,337.38 C360.15,339.15 357.28,341.36 355.79,342.30 C353.21,343.91 353.02,343.91 352.12,342.22 C351.31,340.71 352.38,339.62 359.02,335.18 C371.48,326.83 374.09,322.79 377.01,307.33 C377.51,304.67 378.61,299.35 379.45,295.50 C380.29,291.65 381.23,285.35 381.54,281.50 C382.49,269.68 382.68,268.88 384.96,266.65 L 387.17 264.50 L 386.73 269.50 C386.02,277.42 383.06,297.82 381.46,305.71 C379.65,314.65 379.65,315.00 381.52,315.00 C383.37,315.00 398.54,299.73 408.51,287.86 C416.80,277.97 428.20,262.06 432.76,254.00 C434.47,250.98 436.83,247.48 438.00,246.23 L 440.12 243.95 L 435.81 239.11 L 434.75 237.91 L 436.48 239.70 C441.05,244.42 442.05,245.02 444.54,244.49 C442.72,244.97 441.33,246.40 439.87,249.27 C436.06,256.72 424.76,274.37 421.07,278.60 C419.11,280.85 415.25,285.55 412.50,289.04 C409.75,292.53 400.57,302.39 392.09,310.94 L 376.68 326.50 L 374.35 335.50 C373.08,340.45 372.02,345.51 372.01,346.75 C372.01,347.99 371.57,349.00 371.04,349.00 C370.51,349.00 369.54,350.80 368.88,353.00 C368.05,355.78 367.12,357.00 365.84,357.00 C364.83,357.00 364.01,356.89 364.02,356.75 ZM 123.09 112.07 C121.97,111.36 122.95,109.40 127.90,102.48 C131.32,97.70 133.87,93.54 133.57,93.23 C132.90,92.56 123.86,94.45 115.14,97.08 C107.53,99.38 107.36,99.39 106.66,97.56 C106.25,96.50 107.64,95.66 111.80,94.42 C124.80,90.57 131.51,89.10 131.83,90.03 C132.02,90.56 132.97,91.00 133.96,91.00 C135.98,91.00 138.33,88.67 137.32,87.66 C136.96,87.30 137.27,87.00 138.01,87.00 C138.75,87.00 146.14,80.32 154.43,72.15 C171.67,55.16 185.33,44.01 202.50,32.90 C214.92,24.86 218.54,22.34 220.30,19.72 C219.71,20.69 219.06,21.54 218.56,21.95 C217.70,22.66 217.00,24.14 217.00,25.24 C217.00,26.75 217.49,27.10 219.03,26.70 C219.21,26.65 219.40,26.62 219.58,26.61 C219.46,26.63 219.35,26.66 219.24,26.71 C216.84,27.58 194.23,41.88 193.83,42.77 C193.47,43.57 191.16,45.27 183.30,50.53 C176.55,55.03 147.67,83.07 148.71,84.11 C149.15,84.55 152.65,84.08 156.50,83.07 C163.36,81.27 170.52,80.19 192.36,77.65 C201.48,76.59 203.30,76.61 203.74,77.76 C204.62,80.06 202.23,81.42 197.75,81.16 C194.01,80.96 186.14,82.00 168.50,85.06 C165.75,85.53 160.79,86.34 157.48,86.85 C147.10,88.46 142.74,90.22 138.38,94.57 C134.36,98.59 126.63,109.59 126.54,111.42 C126.48,112.76 124.71,113.10 123.09,112.07 ZM 81.44 319.63 C78.66,316.81 73.22,311.50 69.37,307.83 C65.51,304.16 61.21,299.66 59.82,297.83 C58.42,296.00 54.63,291.50 51.39,287.83 C48.15,284.15 42.65,277.07 39.16,272.08 C35.67,267.08 32.41,263.00 31.91,263.00 C31.41,263.00 31.00,262.21 30.99,261.25 C30.99,260.29 30.07,258.15 28.94,256.50 C27.82,254.85 25.79,251.36 24.43,248.75 C22.73,245.47 21.34,244.00 19.95,244.00 C18.69,244.00 17.30,243.69 15.95,243.16 C20.12,244.56 23.99,244.23 26.39,242.30 L 25.68 243.17 L 27.94 247.82 C30.63,253.34 41.47,269.85 43.84,272.02 C44.75,272.85 47.18,276.02 49.23,279.07 C54.04,286.18 75.94,309.69 82.75,315.05 C86.94,318.34 88.00,319.76 88.00,322.09 C88.00,323.69 87.66,324.95 87.25,324.88 C86.84,324.82 84.22,322.45 81.44,319.63 ZM 18.93 220.68 C21.09,220.36 22.25,219.34 24.25,216.25 C25.76,213.92 27.00,211.61 27.00,211.14 C27.00,210.09 37.06,194.52 40.01,191.00 C41.17,189.62 45.05,184.68 48.65,180.00 C52.25,175.32 59.80,166.77 65.44,161.00 C71.08,155.23 76.10,149.82 76.60,149.00 C77.53,147.44 85.08,142.00 86.30,142.00 C86.69,142.00 87.00,143.12 87.00,144.50 C87.00,145.88 86.43,147.00 85.73,147.00 C83.63,147.00 56.83,174.91 50.22,184.00 C46.81,188.68 43.12,193.42 42.01,194.54 C40.91,195.65 40.00,196.92 40.00,197.34 C40.00,197.77 38.70,199.78 37.10,201.81 C35.51,203.84 32.10,209.02 29.52,213.31 L 24.84 221.12 L 26.13 222.40 C25.88,222.23 25.63,222.07 25.39,221.94 C23.47,220.91 21.19,220.53 18.93,220.68 ZM 92.19 342.25 C89.46,333.29 89.01,330.17 89.86,326.05 L 90.56 322.61 L 94.53 326.08 C101.75,332.40 107.82,337.00 108.94,337.00 C110.23,337.00 112.60,341.73 111.74,342.59 C111.42,342.91 108.80,341.31 105.91,339.03 C100.44,334.70 95.10,331.56 94.41,332.26 C94.18,332.48 94.45,334.88 95.01,337.58 C97.33,348.84 97.34,349.00 95.76,349.00 C94.77,349.00 93.54,346.68 92.19,342.25 ZM 226.58 432.78 C227.37,432.21 228.10,431.79 228.61,431.62 C230.58,431.00 230.68,430.25 230.69,416.23 C230.70,403.36 230.91,401.46 232.35,401.18 C232.75,401.10 233.07,401.03 233.32,401.13 C234.27,401.52 234.25,404.33 234.16,418.14 L 234.08 430.79 L 236.92 431.97 C237.61,432.25 238.43,432.73 239.24,433.30 C237.17,432.08 234.40,431.01 232.70,431.00 C230.76,431.00 228.49,431.72 226.58,432.78 ZM 79.01 180.22 C79.01,179.82 79.44,177.93 79.96,176.00 C80.48,174.07 81.10,170.70 81.34,168.50 C82.29,159.81 84.38,153.13 86.31,152.63 C87.99,152.19 88.12,152.53 87.48,155.82 C87.08,157.84 86.01,163.95 85.11,169.39 C83.68,177.93 83.15,179.40 81.23,180.11 C80.00,180.56 79.00,180.61 79.01,180.22 ZM 230.48 33.96 C230.99,34.80 233.51,34.17 236.06,33.03 C233.85,34.31 233.86,35.11 234.07,39.32 C234.20,42.17 234.25,48.89 234.16,54.25 C234.02,62.81 233.79,64.00 232.25,64.00 C230.68,64.00 230.52,62.85 230.66,52.65 C230.75,46.41 230.95,40.00 231.12,38.40 C231.42,35.55 230.80,33.77 229.34,33.20 C229.85,33.37 230.28,33.65 230.48,33.96 ZM 84.14 309.25 C83.63,308.29 82.70,304.35 82.06,300.50 C80.16,289.05 79.71,286.63 80.49,286.12 C80.74,285.96 81.13,286.00 81.64,286.00 C83.27,286.00 83.81,287.43 85.29,295.75 C86.25,301.11 87.30,306.74 87.63,308.25 C88.09,310.34 87.86,311.00 86.65,311.00 C85.78,311.00 84.65,310.21 84.14,309.25 ZM 91.42 137.46 C92.34,133.80 93.78,132.00 95.79,132.00 C96.64,132.00 98.04,131.31 98.92,130.47 C105.45,124.18 113.02,120.55 112.99,123.72 C112.99,124.15 109.95,126.60 106.24,129.17 C102.54,131.74 97.52,135.32 95.09,137.12 L 90.68 140.41 ZM 385.00 224.56 C385.00,215.60 386.05,212.43 387.50,217.00 C387.85,218.10 388.44,219.00 388.82,219.00 C389.19,219.00 389.35,221.99 389.16,225.66 C388.93,230.06 388.51,231.84 387.92,230.91 C387.20,229.76 387.03,229.81 387.02,231.19 C387.01,232.12 386.55,233.16 386.00,233.50 C385.36,233.90 385.00,230.68 385.00,224.56 ZM 29.47 226.00 C30.14,226.81 30.76,227.61 31.19,228.24 C32.67,230.41 33.65,230.73 39.08,230.80 C42.50,230.85 45.77,231.37 46.35,231.95 C47.08,232.68 46.97,233.02 45.95,233.06 C35.23,233.53 32.42,234.01 31.50,235.57 C31.18,236.11 30.54,237.02 29.81,238.01 C31.30,235.73 31.94,233.99 31.96,232.31 C31.99,230.60 30.94,228.14 29.47,226.00 ZM 420.74 234.38 L 420.25 234.38 C409.21,234.50 409.00,234.46 409.00,232.25 C409.00,230.12 409.39,230.00 416.36,230.00 C418.27,230.00 419.97,229.99 421.47,229.95 C419.78,230.12 418.46,230.26 418.00,230.32 C417.17,230.44 416.50,231.41 416.50,232.49 C416.50,233.94 416.96,234.32 420.74,234.38 ZM 77.64 271.50 C76.77,269.23 77.99,267.00 80.11,267.00 C82.35,267.00 82.60,269.54 80.57,271.57 C78.77,273.37 78.35,273.36 77.64,271.50 ZM 429.80 229.04 C432.38,228.30 433.80,227.03 435.35,224.87 C435.53,224.62 435.69,224.39 435.84,224.17 C435.68,224.42 435.50,224.67 435.32,224.94 C433.35,227.69 432.56,228.54 429.80,229.04 ZM 10.70 239.71 C10.23,239.20 9.84,238.67 9.57,238.13 C7.81,234.74 7.53,231.28 8.41,228.34 C7.41,232.44 8.36,236.77 10.70,239.71 ZM 453.19 224.03 C453.64,224.40 453.99,224.74 454.22,225.03 C454.85,225.80 455.30,226.75 455.58,227.83 C455.13,226.41 454.33,225.15 453.19,224.03 ZM 237.30 11.35 C237.31,11.36 237.33,11.36 237.34,11.37 C239.90,12.44 241.27,13.72 242.62,16.46 C241.08,13.65 239.69,12.36 237.30,11.35 ZM 225.22 452.00 C228.87,454.22 233.03,454.50 236.49,453.19 C233.05,454.57 228.97,454.28 225.22,452.00 ZM 13.02 222.37 C14.38,221.55 15.98,221.00 17.77,220.80 C16.08,221.05 14.44,221.59 13.02,222.37 ZM 243.68 445.32 C243.56,445.57 243.45,445.83 243.34,446.11 C243.18,446.51 243.01,446.89 242.82,447.26 C242.89,447.10 242.96,446.94 243.02,446.78 C243.21,446.29 243.44,445.80 243.68,445.32 ZM 225.05 12.61 C226.74,11.23 228.75,10.43 230.95,10.25 C228.75,10.43 226.74,11.24 225.05,12.61 ZM 242.00 28.42 C242.00,28.43 242.00,28.44 242.00,28.45 C242.00,28.46 242.00,28.47 242.00,28.48 C242.00,28.47 242.00,28.46 242.00,28.44 C242.00,28.44 242.00,28.43 242.00,28.42 Z" fill="rgba(163,217,153,1)"/>
<path d="M 436.48 239.70 L 431.44 234.50 L 432.88 234.50 L 432.69 231.73 L 432.50 228.97 L 425.00 229.61 C420.64,229.98 418.16,230.37 416.96,231.01 C417.23,230.64 417.60,230.38 418.00,230.32 C418.83,230.21 422.42,229.84 426.00,229.50 C432.15,228.91 432.65,228.66 435.32,224.94 C437.04,222.53 437.79,220.68 437.58,219.35 C438.07,220.59 438.64,220.73 440.10,219.95 C441.69,219.10 442.25,218.09 441.76,217.28 C441.77,217.29 441.78,217.30 441.79,217.31 C442.73,218.16 445.59,219.75 448.13,220.84 C455.86,224.15 457.81,229.44 454.43,237.89 C452.86,241.82 450.99,243.07 444.61,244.47 C442.07,245.03 441.09,244.46 436.48,239.70 ZM 230.48 33.96 C230.15,33.43 229.12,33.00 228.19,33.00 C227.26,33.00 225.27,31.46 223.78,29.59 C222.36,27.82 221.29,26.91 220.26,26.67 C221.46,26.45 221.41,25.90 220.63,23.84 C219.88,21.84 219.34,21.39 218.44,22.06 C218.48,22.02 218.52,21.99 218.56,21.95 C219.41,21.24 220.70,19.27 221.42,17.58 C224.18,11.06 230.57,8.54 237.26,11.34 C240.07,12.51 241.51,14.07 243.41,18.00 C245.94,23.25 245.94,25.42 243.42,26.39 C242.64,26.69 242.00,27.61 242.00,28.44 C242.00,30.77 231.59,35.76 230.48,33.96 ZM 14.31 242.54 C9.05,240.25 6.55,232.94 8.91,226.74 C10.91,221.49 19.73,218.91 25.39,221.94 C28.46,223.59 32.02,229.19 31.96,232.31 C31.93,234.72 30.62,237.27 27.36,241.33 C24.88,244.41 19.71,244.88 14.31,242.54 ZM 225.22 452.00 C223.07,450.68 221.74,448.95 221.33,446.92 C221.00,445.23 219.91,443.34 218.93,442.72 C218.46,442.43 218.14,442.16 217.93,441.86 C218.13,442.08 218.41,442.32 218.77,442.59 C220.28,443.70 220.57,443.52 221.03,441.18 C221.67,437.96 220.18,437.03 218.36,439.52 C218.19,439.75 218.05,439.96 217.93,440.15 C217.98,440.04 218.04,439.93 218.11,439.80 C218.64,438.81 219.71,438.00 220.50,438.00 C221.29,438.00 222.41,437.10 222.99,436.01 C224.36,433.45 229.12,431.00 232.70,431.00 C235.69,431.01 242.00,434.34 242.00,435.92 C242.00,436.42 242.81,437.10 243.82,437.44 C242.56,437.27 242.86,438.72 244.62,440.48 C245.23,441.09 245.85,441.54 246.25,441.69 C246.11,441.94 245.92,442.17 245.67,442.38 C244.92,442.99 243.73,444.97 243.02,446.78 C240.34,453.61 231.92,456.08 225.22,452.00 ZM 24.64 236.45 C27.38,233.48 27.55,231.96 25.54,228.07 C21.69,220.63 10.52,226.25 12.61,234.58 C13.86,239.55 20.77,240.62 24.64,236.45 ZM 236.55 26.35 C239.44,23.24 239.68,20.03 237.25,17.15 C234.34,13.71 230.51,13.40 227.55,16.36 C224.33,19.58 224.29,23.38 227.45,26.55 C230.62,29.72 233.49,29.65 236.55,26.35 ZM 449.18 236.97 C451.60,234.55 452.08,233.41 451.56,231.22 C450.80,228.00 447.56,225.00 444.84,225.00 C443.78,225.00 441.80,226.10 440.45,227.45 C436.60,231.31 437.45,236.08 442.50,238.85 C445.40,240.43 445.84,240.31 449.18,236.97 ZM 235.61 448.10 C239.23,445.89 240.24,443.11 238.61,439.85 C235.05,432.71 222.92,437.19 225.56,444.68 C226.09,446.21 227.65,448.02 229.02,448.71 C230.48,449.45 231.22,449.86 231.95,449.85 C232.80,449.85 233.64,449.30 235.61,448.10 ZM 218.59 26.80 C217.40,27.02 217.00,26.59 217.00,25.24 C217.00,25.22 217.00,25.20 217.00,25.18 C217.02,26.26 217.48,26.75 218.59,26.80 ZM 420.01 234.36 C418.28,234.31 417.39,234.15 416.94,233.79 C417.55,234.06 418.54,234.25 420.01,234.36 ZM 438.25 216.48 C437.68,216.86 437.33,217.54 437.36,218.35 C437.27,217.46 437.64,216.81 438.25,216.48 ZM 245.46 438.36 C245.81,438.67 246.08,439.03 246.26,439.42 C246.04,439.04 245.76,438.67 245.46,438.36 Z" fill="rgba(172,222,226,1)"/>
<path d="M 218.77 442.59 C217.31,441.51 217.25,441.04 218.36,439.52 C220.18,437.03 221.67,437.96 221.03,441.18 C220.57,443.52 220.28,443.70 218.77,442.59 ZM 244.62 440.48 C242.62,438.48 242.51,436.87 244.42,437.61 C245.87,438.16 247.38,440.95 246.64,441.69 C246.42,441.91 245.51,441.37 244.62,440.48 ZM 416.24 233.18 C415.40,230.99 417.15,230.28 425.00,229.61 L 432.50 228.97 L 432.69 231.73 L 432.88 234.50 L 424.81 234.50 C419.06,234.50 416.60,234.12 416.24,233.18 ZM 437.57 219.31 C436.77,217.23 438.38,215.55 440.43,216.34 C442.55,217.15 442.41,218.71 440.10,219.95 C438.63,220.73 438.06,220.59 437.57,219.31 ZM 353.75 125.75 C352.45,122.21 356.17,120.57 357.95,123.90 C358.73,125.36 358.60,125.94 357.40,126.40 C355.09,127.29 354.27,127.14 353.75,125.75 ZM 217.00 25.11 C217.00,24.08 217.58,22.76 218.30,22.17 C219.29,21.35 219.84,21.74 220.63,23.84 C221.57,26.33 221.45,26.61 219.34,26.78 C217.65,26.92 217.00,26.46 217.00,25.11 Z" fill="rgba(185,222,200,1)"/>
</g>
</svg>