<svg xmlns="http://www.w3.org/2000/svg" viewBox="311.6 279.08 405.79 449.89">
<g>
<path d="M 513.87 574.55 C509.55,578.80 503.86,578.50 500.61,573.85 C494.52,565.16 506.87,553.91 514.08,561.59 C517.07,564.77 516.96,571.50 513.87,574.55 ZM 449.61 530.48 C444.04,536.05 431.00,531.19 431.00,523.55 C431.00,522.68 432.46,521.05 434.25,519.93 C443.08,514.39 456.49,523.60 449.61,530.48 ZM 533.46 575.38 C527.46,577.68 521.38,573.23 522.35,567.24 C522.67,565.25 522.51,563.12 521.99,562.49 C520.66,560.89 532.47,560.65 535.00,562.23 C538.99,564.72 537.93,573.66 533.46,575.38 ZM 490.43 444.02 C486.64,445.47 486.11,445.31 482.40,441.60 C477.10,436.30 477.80,430.00 483.68,430.00 C488.55,430.00 493.00,434.52 493.00,439.45 C493.00,442.39 492.53,443.23 490.43,444.02 ZM 564.19 495.98 C559.50,496.00 558.55,496.37 555.94,499.22 C553.97,501.38 553.00,501.93 553.00,500.88 C553.00,500.02 553.94,498.46 555.09,497.42 C556.84,495.84 557.06,494.86 556.47,491.51 C554.60,481.01 554.37,479.00 555.05,479.00 C555.89,479.00 556.57,481.51 557.54,488.25 C558.32,493.67 559.07,494.07 561.47,490.40 C562.82,488.35 563.03,486.60 562.50,482.01 C561.68,474.97 563.53,472.68 564.55,479.48 C564.98,482.34 565.74,484.00 566.61,484.00 C567.38,484.00 568.00,484.45 568.00,485.00 C568.00,485.55 569.91,486.04 572.25,486.10 L 576.50 486.19 L 570.29 487.85 C564.78,489.31 561.13,491.84 561.03,494.26 C561.01,494.68 563.59,494.75 566.75,494.43 C570.96,494.00 572.10,494.12 571.00,494.90 C570.17,495.49 567.11,495.98 564.19,495.98 ZM 572.60 457.49 C569.57,460.52 568.60,460.60 566.00,458.00 C563.68,455.68 563.63,455.35 565.10,451.14 C566.21,447.95 569.02,446.48 572.67,447.17 C575.74,447.75 575.70,454.39 572.60,457.49 ZM 594.17 519.35 C592.01,521.30 587.65,521.52 586.28,519.75 C582.03,514.25 587.37,508.90 594.42,511.61 C596.59,512.44 596.43,517.30 594.17,519.35 ZM 526.68 454.34 C527.06,454.73 524.59,457.82 521.19,461.21 C517.21,465.17 515.00,466.78 515.00,465.71 C515.00,464.80 516.64,462.58 518.65,460.77 C520.66,458.97 523.13,456.63 524.14,455.57 C525.15,454.51 526.29,453.96 526.68,454.34 ZM 532.23 531.41 C525.37,534.03 524.00,534.38 524.00,533.52 C524.00,532.72 531.24,529.29 535.25,528.19 C541.50,526.47 539.45,528.65 532.23,531.41 ZM 476.50 540.44 C472.65,541.35 468.94,542.29 468.25,542.52 C467.56,542.75 467.00,542.53 467.00,542.04 C467.00,541.55 469.59,540.64 472.75,540.03 C475.91,539.41 479.53,538.48 480.80,537.96 C483.73,536.74 485.72,536.70 484.45,537.89 C483.93,538.38 480.35,539.52 476.50,540.44 ZM 564.00 556.74 C563.17,557.05 561.78,558.13 560.90,559.14 C558.92,561.39 558.13,560.75 558.77,557.42 C559.10,555.71 559.73,555.07 560.71,555.44 C561.51,555.75 562.91,556.04 563.83,556.08 C565.21,556.14 565.24,556.26 564.00,556.74 ZM 554.53 549.20 C554.83,549.49 554.40,552.38 553.59,555.62 L 552.12 561.50 L 552.68 555.50 C553.26,549.38 553.59,548.26 554.53,549.20 ZM 438.44 525.43 C440.63,527.20 443.00,527.50 443.00,526.00 C443.00,525.45 442.66,524.99 442.25,524.99 C441.84,524.98 440.38,524.72 439.00,524.41 C436.59,523.87 436.57,523.91 438.44,525.43 Z" fill="rgb(150,104,59)" data-index="0"/>
<path d="M 519.01 704.33 C515.55,706.38 514.44,706.36 510.00,704.19 C507.60,703.02 506.15,701.42 505.40,699.10 C504.80,697.24 503.23,695.16 501.90,694.47 C497.99,692.44 469.14,680.91 466.88,680.48 C465.73,680.26 464.27,679.64 463.63,679.11 C462.99,678.58 456.63,675.92 449.49,673.20 C442.34,670.47 428.62,665.10 419.00,661.27 C383.73,647.20 379.76,645.80 377.07,646.50 C369.24,648.52 367.15,648.31 364.03,645.18 C362.19,643.35 361.00,641.12 361.00,639.53 C361.00,636.44 363.43,631.36 365.18,630.77 C365.30,630.73 365.41,630.71 365.50,630.65 C366.42,630.11 365.65,626.72 354.82,579.18 L 353.98 575.50 C350.10,558.45 346.08,540.45 345.04,535.50 C341.00,516.23 340.30,514.08 337.08,511.08 C332.26,506.57 333.02,500.18 338.75,497.13 C339.99,496.47 341.00,495.01 341.00,493.88 C341.00,492.75 341.94,488.16 343.10,483.67 C345.07,475.97 347.14,466.96 353.46,438.50 C359.11,413.04 362.92,396.22 364.57,389.46 L 366.29 382.41 L 363.64 379.56 C356.06,371.38 366.22,358.89 375.85,364.56 C378.38,366.06 379.02,365.92 390.00,361.45 C402.78,356.25 418.22,350.11 440.00,341.53 C447.98,338.40 457.88,334.46 462.00,332.79 C466.12,331.12 477.38,326.69 487.00,322.94 L 504.50 316.13 L 504.80 312.67 C505.19,308.33 507.73,305.98 512.78,305.30 C518.01,304.60 520.75,306.25 522.97,311.42 C524.80,315.71 524.81,315.71 540.65,321.96 C549.37,325.40 557.85,328.81 559.50,329.53 C561.15,330.25 573.75,335.19 587.50,340.49 C601.25,345.80 620.46,353.30 630.20,357.16 C647.01,363.84 648.01,364.11 650.17,362.59 C658.63,356.67 669.20,367.83 663.03,376.17 C660.80,379.19 660.80,379.29 662.35,387.36 C663.21,391.84 666.12,404.95 668.83,416.50 C671.53,428.05 675.19,444.25 676.97,452.50 C681.32,472.75 686.05,492.12 687.16,494.25 C687.66,495.21 688.79,496.00 689.67,496.00 C694.76,496.00 696.90,506.19 692.69,510.40 C691.42,511.67 689.79,512.90 689.07,513.14 C687.65,513.62 684.22,527.40 678.53,555.50 C674.34,576.18 672.32,585.58 667.46,607.00 C665.40,616.08 663.51,624.47 663.26,625.66 C662.99,626.95 663.85,629.35 665.40,631.64 C669.75,638.04 668.20,643.76 661.33,646.63 C658.33,647.89 657.52,647.87 654.52,646.44 C652.45,645.46 650.21,645.10 648.81,645.52 C646.29,646.28 585.22,670.39 567.50,677.62 C561.45,680.09 549.19,685.08 540.25,688.71 C531.01,692.47 524.00,695.87 524.00,696.61 C524.00,699.24 521.75,702.71 519.01,704.33 ZM 496.50 687.95 C503.35,691.25 505.70,691.54 508.44,689.47 C511.03,687.51 517.52,687.60 520.98,689.65 C523.70,691.26 524.07,691.16 538.13,685.20 C546.03,681.86 554.75,678.36 557.50,677.44 C560.25,676.52 564.30,674.97 566.50,674.01 C574.36,670.55 583.62,666.76 591.00,663.96 C595.12,662.39 601.88,659.68 606.00,657.94 C610.12,656.19 615.53,653.98 618.00,653.04 C620.47,652.09 628.46,648.92 635.75,646.01 C648.80,640.79 649.00,640.66 649.00,637.58 C649.00,633.39 651.39,630.22 655.29,629.20 C657.44,628.65 658.73,627.57 659.21,625.94 C660.53,621.44 674.64,555.18 675.49,549.50 C675.73,547.85 677.52,539.53 679.46,531.00 C681.40,522.47 682.99,514.97 682.99,514.33 C683.00,513.68 681.65,511.80 680.00,510.15 C678.35,508.50 677.00,506.20 677.00,505.03 C677.00,502.37 679.53,497.36 681.41,496.30 C682.60,495.63 682.37,493.29 679.91,481.50 C678.30,473.80 675.88,463.00 674.54,457.50 C673.20,452.00 671.37,444.35 670.49,440.50 C669.61,436.65 667.59,428.10 665.99,421.50 C664.39,414.90 661.92,404.55 660.50,398.50 C656.21,380.31 656.11,380.00 654.04,380.00 C650.62,380.00 646.15,375.27 645.81,371.30 L 645.50 367.68 L 615.50 355.83 C599.00,349.31 582.58,342.80 579.00,341.35 C569.46,337.50 563.30,335.14 556.00,332.53 C552.42,331.25 544.55,328.09 538.50,325.51 C524.13,319.37 523.77,319.31 518.47,322.13 L 514.00 324.50 L 509.66 322.20 L 505.32 319.89 L 484.95 327.95 C473.74,332.38 464.15,336.00 463.63,336.00 C463.12,336.00 459.89,337.32 456.47,338.94 C453.05,340.56 444.23,344.18 436.88,347.00 C429.52,349.82 419.67,353.71 415.00,355.64 C410.33,357.56 403.12,360.53 399.00,362.22 C383.88,368.43 380.79,369.65 380.16,371.65 C380.00,372.16 380.00,372.73 380.00,373.44 C380.00,373.52 380.00,373.60 380.00,373.68 C380.00,377.69 376.05,382.00 372.37,382.00 C370.75,382.00 369.91,382.68 369.60,384.25 C368.13,391.84 365.59,403.46 362.45,417.00 C360.48,425.52 357.73,438.12 356.36,445.00 C354.98,451.88 353.43,458.40 352.92,459.50 C352.41,460.60 350.86,466.90 349.48,473.50 C348.09,480.10 346.44,487.82 345.80,490.65 C344.69,495.60 344.75,495.92 347.42,499.09 C349.67,501.76 350.09,503.04 349.64,505.84 C349.33,507.73 348.14,510.29 346.99,511.51 C345.02,513.60 344.97,514.16 346.05,520.62 C346.69,524.40 348.08,530.96 349.15,535.19 C350.22,539.41 351.50,545.04 351.98,547.69 C352.81,552.19 361.29,590.20 364.44,603.50 C365.22,606.80 366.62,612.88 367.56,617.00 C369.40,625.08 371.28,629.00 373.34,629.00 C375.72,629.00 379.85,634.40 380.18,637.95 C380.50,641.36 380.67,641.47 392.00,646.07 C398.33,648.63 408.23,652.57 414.00,654.81 C419.77,657.06 431.70,661.88 440.50,665.52 C449.30,669.16 458.75,672.97 461.50,673.99 C476.85,679.68 491.22,685.41 496.50,687.95 ZM 519.23 663.73 C515.56,668.47 506.66,666.85 505.43,661.22 C505.10,659.73 504.69,658.03 504.53,657.45 C504.36,656.88 495.96,653.14 485.86,649.15 C475.76,645.16 462.77,639.96 457.00,637.60 C451.23,635.23 445.15,632.83 443.50,632.25 C441.85,631.67 433.52,628.42 425.00,625.01 C409.47,618.81 408.15,618.57 401.28,620.57 C399.62,621.05 398.30,620.45 396.03,618.19 C392.49,614.64 392.28,612.82 394.96,609.05 C396.90,606.33 396.90,606.20 395.04,598.40 C394.01,594.05 391.33,581.50 389.10,570.50 C386.86,559.50 383.00,541.10 380.51,529.62 C378.03,518.13 376.00,507.33 376.00,505.61 C376.00,503.88 377.80,494.61 380.01,484.99 C384.63,464.84 387.45,451.83 388.90,444.00 C389.46,440.98 391.30,431.39 392.99,422.70 L 396.06 406.89 L 394.03 404.31 C391.32,400.87 391.47,397.44 394.45,394.45 C397.17,391.74 399.74,391.41 404.57,393.16 C407.51,394.23 409.14,393.77 424.64,387.54 C433.91,383.81 441.95,380.41 442.50,379.99 C443.05,379.56 445.08,378.75 447.00,378.19 C448.92,377.63 454.33,375.52 459.00,373.50 C463.67,371.49 470.43,368.81 474.02,367.56 C477.60,366.30 482.33,364.38 484.52,363.29 C486.71,362.20 492.21,360.01 496.75,358.42 C504.76,355.62 505.00,355.44 505.00,352.34 C505.00,348.74 508.78,344.99 512.38,345.01 C516.99,345.04 518.97,346.31 521.00,350.50 C522.14,352.86 523.85,355.02 524.79,355.31 C525.73,355.60 537.08,360.17 550.00,365.47 C562.92,370.77 580.70,377.81 589.50,381.13 C591.97,382.06 594.24,382.92 596.33,383.71 C618.40,392.05 620.65,392.89 621.85,392.12 C622.10,391.96 622.30,391.73 622.63,391.48 C629.40,386.36 637.26,396.09 632.38,403.54 C631.49,404.89 630.99,407.02 631.26,408.25 C631.54,409.49 633.39,418.38 635.38,428.00 C639.02,445.65 639.65,448.61 647.20,484.00 C649.49,494.73 651.36,504.85 651.35,506.50 C651.33,509.40 648.84,522.38 643.49,547.50 C642.09,554.10 639.81,565.35 638.43,572.50 C637.05,579.65 634.99,589.47 633.86,594.33 C632.57,599.83 632.05,604.35 632.48,606.33 C634.09,613.80 633.64,617.15 630.76,619.32 C628.11,621.31 627.90,621.32 624.40,619.65 L 620.78 617.93 L 604.14 624.09 C594.99,627.49 585.70,631.06 583.50,632.03 C581.30,633.00 570.95,637.20 560.50,641.36 C538.54,650.12 524.04,656.16 522.25,657.31 C521.56,657.76 520.99,658.88 520.98,659.81 C520.97,660.74 520.18,662.50 519.23,663.73 ZM 483.50 643.95 C495.60,648.89 505.73,652.94 506.00,652.94 C506.27,652.94 507.37,652.28 508.44,651.47 C510.99,649.54 515.98,649.60 518.82,651.58 C519.37,651.97 519.81,652.28 520.29,652.46 C522.00,653.09 524.31,652.10 534.91,647.55 L 535.00 647.51 C545.24,643.12 580.85,629.00 581.69,629.00 C582.01,629.00 584.13,628.14 586.39,627.10 C590.12,625.37 595.59,623.24 612.19,617.03 C616.79,615.31 618.23,614.20 619.69,611.27 C621.43,607.77 622.66,606.70 626.09,605.66 C627.27,605.31 628.28,601.93 629.92,592.84 C631.15,586.05 632.76,578.25 633.51,575.50 C635.89,566.79 647.12,509.65 647.17,506.00 C647.20,504.08 646.24,498.23 645.05,493.00 C643.11,484.52 640.02,469.86 632.40,433.00 C627.52,409.43 626.88,407.00 625.54,407.00 C623.68,407.00 618.00,400.31 618.00,398.13 C618.00,396.03 616.87,395.46 600.63,389.42 C593.96,386.94 586.70,384.21 584.50,383.36 C573.20,378.99 559.74,373.64 553.50,371.04 C540.44,365.61 522.97,359.00 521.67,359.00 C520.96,359.00 519.51,359.66 518.44,360.47 C515.90,362.39 512.62,362.37 508.84,360.42 C505.82,358.85 505.43,358.97 476.14,370.52 C459.84,376.94 444.70,382.89 442.50,383.73 C440.30,384.57 435.80,386.49 432.50,388.00 C429.20,389.51 422.34,392.44 417.25,394.51 C409.49,397.68 408.00,398.64 408.00,400.51 C408.00,403.42 404.35,408.00 402.03,408.00 C400.12,408.00 398.88,412.23 395.59,430.00 C393.20,442.93 383.22,490.22 381.58,496.46 C379.36,504.83 379.51,506.73 383.99,527.77 C386.18,538.07 389.15,552.12 390.58,559.00 C392.01,565.88 393.57,572.85 394.04,574.50 C394.52,576.15 395.60,581.10 396.44,585.50 C399.62,602.03 400.24,603.71 404.00,606.23 C405.92,607.52 407.64,609.52 407.81,610.68 C408.26,613.82 410.56,615.32 420.50,618.98 C425.45,620.79 431.30,623.09 433.50,624.08 C435.70,625.07 442.90,627.92 449.50,630.42 C456.10,632.91 471.40,639.00 483.50,643.95 ZM 517.55 476.75 L 517.48 476.81 C515.57,478.39 514.83,479.00 514.39,478.83 C514.10,478.72 513.94,478.29 513.67,477.58 C513.37,476.79 511.54,475.40 509.62,474.49 C505.17,472.38 496.66,463.92 494.59,459.54 C492.26,454.63 492.62,450.56 496.19,441.85 C499.21,434.45 510.95,417.00 512.89,417.00 C513.82,417.00 520.69,423.95 525.41,429.65 C529.15,434.18 534.18,445.43 534.76,450.56 C535.64,458.34 530.71,465.85 517.55,476.75 ZM 574.36 502.33 C571.69,503.18 565.34,504.02 560.25,504.19 C552.09,504.46 551.00,504.30 551.00,502.80 C551.00,501.86 550.33,498.51 549.50,495.34 C545.47,479.86 550.17,471.54 565.72,466.63 C572.46,464.50 583.26,462.98 584.36,464.01 C584.83,464.45 585.04,470.37 584.84,477.16 C584.51,487.91 584.12,490.23 581.84,495.13 C579.44,500.28 578.80,500.90 574.36,502.33 ZM 502.00 523.22 C502.00,527.50 493.10,523.87 486.34,516.83 C479.35,509.54 477.37,499.11 480.41,485.50 C482.37,476.71 483.66,474.00 485.89,474.00 C488.43,474.00 502.15,483.20 505.45,487.12 C513.20,496.33 515.35,504.31 512.50,513.36 C510.67,519.19 507.60,523.03 506.07,521.43 C505.58,520.92 503.98,517.58 502.50,514.00 C497.95,503.02 491.68,490.45 491.31,491.57 C491.12,492.15 493.44,499.11 496.48,507.03 C499.52,514.96 502.00,522.24 502.00,523.22 ZM 547.44 541.89 C539.52,544.09 531.42,542.40 525.87,537.38 C524.24,535.91 522.62,535.85 518.12,537.11 C515.20,537.94 515.93,534.92 518.91,533.88 C521.42,533.01 522.00,532.25 522.00,529.86 C522.00,524.52 527.11,516.77 533.65,512.20 C537.57,509.47 547.46,509.21 557.63,511.57 C564.00,513.04 565.57,513.64 568.88,515.86 C572.70,518.41 555.11,539.77 547.44,541.89 ZM 476.09 553.77 C466.99,557.94 453.37,555.90 445.76,549.23 C444.11,547.79 444.13,547.52 446.17,544.10 C455.00,529.29 469.90,524.90 481.68,533.64 C485.86,536.73 487.86,536.72 487.27,533.61 C487.02,532.30 487.32,530.27 487.94,529.11 C490.00,525.25 495.00,527.09 495.00,531.70 C495.00,533.59 495.54,534.00 498.00,534.00 C500.53,534.00 501.00,534.39 501.00,536.50 C501.00,539.23 497.85,543.00 495.57,543.00 C493.46,543.00 491.00,540.16 491.65,538.47 C492.02,537.50 491.59,537.01 490.36,537.03 C488.07,537.07 485.00,539.30 485.00,540.92 C485.00,541.59 484.09,544.24 482.98,546.83 C481.30,550.74 480.14,551.91 476.09,553.77 ZM 471.00 519.01 C468.72,520.47 459.94,520.11 456.00,518.41 C446.76,514.40 440.05,502.58 440.01,490.25 L 440.00 486.00 L 447.82 486.00 C466.41,486.00 476.36,494.22 476.23,509.50 C476.20,513.59 476.68,516.06 477.75,517.26 C478.61,518.22 479.00,519.34 478.60,519.73 C478.20,520.13 476.44,518.82 474.69,516.82 C470.01,511.50 457.03,500.00 455.69,500.00 C455.06,500.00 458.58,504.06 463.52,509.03 C470.77,516.32 472.21,518.24 471.00,519.01 ZM 574.14 565.00 C574.41,572.68 574.40,572.69 564.50,570.05 C548.01,565.65 546.47,563.47 548.63,547.71 L 549.25 543.15 L 557.55 543.32 C564.84,543.48 566.16,543.80 568.45,545.95 C571.64,548.95 573.84,556.31 574.14,565.00 ZM 527.57 507.44 C525.14,507.54 522.44,508.22 521.58,508.94 C520.71,509.66 519.97,510.08 519.92,509.87 C519.88,509.67 519.67,508.15 519.45,506.50 C519.24,504.85 518.77,501.58 518.42,499.23 C517.46,492.76 518.66,488.54 522.58,484.62 C525.78,481.42 532.29,478.29 539.15,476.65 C541.75,476.03 541.82,476.14 542.50,481.97 C544.22,496.80 538.24,506.99 527.57,507.44 ZM 457.62 471.40 C454.06,472.36 448.67,471.99 445.42,470.58 C441.65,468.94 438.59,463.96 437.11,457.08 L 436.97 456.44 C436.01,451.96 435.54,449.78 436.42,448.79 C437.24,447.85 439.25,447.95 443.15,448.15 C443.35,448.16 443.55,448.17 443.75,448.18 C454.38,448.72 458.46,450.80 459.87,456.40 C460.46,458.75 460.67,462.96 460.34,465.75 C459.86,469.81 459.31,470.95 457.62,471.40 ZM 549.75 467.46 C547.72,468.31 545.94,468.94 545.78,468.86 C545.63,468.79 544.52,468.54 543.32,468.30 C541.31,467.91 537.89,465.00 539.45,465.00 C539.83,465.00 539.39,464.25 538.48,463.34 C536.50,461.36 537.09,456.81 539.81,453.00 C542.63,449.06 551.52,445.00 557.32,445.00 L 562.28 445.00 L 561.69 449.93 C561.06,455.32 558.29,461.53 555.32,464.21 C554.28,465.15 551.77,466.62 549.75,467.46 ZM 490.23 570.27 C487.63,571.68 483.81,573.14 481.75,573.53 L 478.00 574.22 L 478.00 566.06 C478.00,560.71 478.52,556.89 479.52,554.95 C481.28,551.56 486.86,548.86 491.46,549.17 C493.17,549.29 495.09,549.06 495.71,548.68 C496.49,548.20 497.08,549.77 497.55,553.56 C498.94,564.70 498.46,565.81 490.23,570.27 ZM 486.00 466.60 C486.00,467.58 484.74,468.00 481.75,467.99 C472.76,467.97 465.46,460.22 464.24,449.41 L 463.74 445.00 L 468.74 445.00 C478.24,445.00 485.82,449.11 488.67,455.82 C490.11,459.20 489.68,463.00 487.87,463.00 C487.32,463.00 484.38,460.98 481.34,458.50 C473.49,452.11 472.28,452.96 479.75,459.62 C483.19,462.68 486.00,465.82 486.00,466.60 ZM 590.55 540.50 C589.81,545.46 588.77,545.91 583.47,543.60 C578.34,541.37 574.19,536.43 573.49,531.73 C572.93,528.00 574.12,522.00 575.43,522.00 C575.69,522.00 577.54,524.92 579.53,528.49 C581.53,532.06 583.58,535.24 584.10,535.56 C585.19,536.24 580.35,524.96 578.95,523.55 C577.24,521.84 577.95,521.00 581.08,521.00 C587.90,521.00 592.16,529.77 590.55,540.50 ZM 509.32 464.68 C510.88,466.50 512.56,468.00 513.07,468.00 C513.60,468.00 514.00,461.97 514.00,454.09 L 514.00 440.18 L 510.92 437.59 C507.79,434.95 505.00,434.20 505.00,436.00 C505.00,436.55 506.58,438.74 508.50,440.87 C511.87,444.60 513.17,449.00 510.90,449.00 C510.30,449.00 508.54,447.65 507.00,446.00 C505.46,444.35 503.70,443.00 503.10,443.00 C500.71,443.00 502.24,446.09 507.00,450.90 C510.34,454.28 512.00,456.79 512.00,458.48 C512.00,461.91 510.16,461.60 506.05,457.47 C502.84,454.25 499.00,452.84 499.00,454.88 C499.00,455.37 500.69,457.02 502.75,458.56 C504.81,460.10 507.77,462.85 509.32,464.68 ZM 472.05 482.25 C468.56,485.37 464.95,485.74 460.50,483.44 C453.88,480.02 453.54,477.47 459.22,474.01 C463.38,471.47 466.41,471.47 470.53,474.02 C475.33,476.98 475.70,478.99 472.05,482.25 ZM 543.50 444.57 C543.34,444.63 543.18,444.70 543.03,444.76 C540.93,445.64 540.02,446.02 539.34,445.78 C538.77,445.57 538.36,444.93 537.56,443.78 C534.29,439.12 536.76,431.05 542.36,428.07 C545.83,426.22 547.07,427.43 547.74,433.35 C548.50,440.16 547.46,442.91 543.50,444.57 ZM 564.19 495.98 C567.11,495.98 570.17,495.49 571.00,494.90 C572.10,494.12 570.96,494.00 566.75,494.43 C563.59,494.75 561.01,494.68 561.03,494.26 C561.13,491.84 564.78,489.31 570.29,487.85 L 576.50 486.19 L 572.25 486.10 C569.91,486.04 568.00,485.55 568.00,485.00 C568.00,484.45 567.38,484.00 566.61,484.00 C565.74,484.00 564.98,482.34 564.55,479.48 C563.53,472.68 561.68,474.97 562.50,482.01 C563.03,486.60 562.82,488.35 561.47,490.40 C559.07,494.07 558.32,493.67 557.54,488.25 C556.57,481.51 555.89,479.00 555.05,479.00 C554.37,479.00 554.60,481.01 556.47,491.51 C557.06,494.86 556.84,495.84 555.09,497.42 C553.94,498.46 553.00,500.02 553.00,500.88 C553.00,501.93 553.97,501.38 555.94,499.22 C558.55,496.37 559.50,496.00 564.19,495.98 ZM 525.78 556.44 C524.53,557.31 523.90,557.76 523.24,557.82 C522.54,557.88 521.81,557.53 520.30,556.80 L 520.27 556.79 C517.24,555.33 516.51,552.40 518.44,549.45 C520.19,546.77 524.70,546.10 526.80,548.20 C528.79,550.19 528.23,554.73 525.78,556.44 ZM 366.95 641.95 C371.45,646.45 377.80,642.25 375.19,636.51 C374.03,633.98 369.96,633.07 367.38,634.77 C365.05,636.30 364.83,639.83 366.95,641.95 ZM 368.23 377.74 C372.52,379.74 375.92,375.81 374.57,370.42 C374.07,368.45 373.33,368.00 370.52,368.00 C368.04,368.00 366.75,368.59 365.95,370.09 C364.43,372.94 365.47,376.45 368.23,377.74 ZM 511.00 318.00 C513.77,320.77 516.80,320.54 518.20,317.46 C520.82,311.72 515.36,306.56 510.92,310.57 C508.45,312.81 508.48,315.48 511.00,318.00 ZM 511.00 700.00 C512.10,701.10 513.64,702.00 514.43,702.00 C517.82,702.00 520.27,696.47 518.23,693.38 C516.78,691.17 512.94,690.74 510.93,692.56 C508.45,694.81 508.48,697.48 511.00,700.00 ZM 651.47 373.97 C654.95,377.81 660.00,376.01 660.00,370.92 C660.00,367.52 657.90,365.77 654.33,366.18 C650.47,366.62 648.84,371.06 651.47,373.97 ZM 682.54 507.04 C686.12,511.00 691.45,508.67 690.82,503.41 C690.42,500.03 688.10,498.51 684.67,499.37 C681.20,500.24 680.07,504.31 682.54,507.04 ZM 511.06 551.94 C508.58,554.42 506.69,554.55 504.52,552.37 C502.50,550.36 502.91,546.07 505.26,544.60 C506.59,543.77 507.68,543.87 509.75,545.03 C513.23,546.99 513.68,549.32 511.06,551.94 ZM 655.58 641.09 C657.70,643.43 658.81,643.48 661.17,641.35 C665.05,637.83 662.57,632.57 657.31,633.18 C655.06,633.44 654.44,634.07 654.18,636.34 C653.98,638.02 654.56,639.96 655.58,641.09 ZM 541.04 555.45 C539.44,557.39 538.99,557.38 536.17,555.40 C534.38,554.15 533.96,553.03 534.20,550.15 C534.47,546.83 534.77,546.50 537.50,546.50 C540.13,546.50 540.61,546.96 541.41,550.20 C542.08,552.89 541.98,554.32 541.04,555.45 ZM 511.00 357.00 C513.41,359.41 514.37,359.49 516.43,357.43 C518.60,355.26 518.41,351.29 516.07,350.04 C513.44,348.63 512.41,348.73 510.57,350.57 C508.46,352.68 508.59,354.59 511.00,357.00 ZM 580.95 511.44 C582.81,513.69 579.81,515.26 577.18,513.41 C574.45,511.50 574.35,509.00 577.00,509.00 C578.47,509.00 579.00,508.33 579.00,506.47 C579.00,503.50 581.38,502.24 583.56,504.05 C585.80,505.91 584.97,509.43 582.19,509.83 C580.43,510.08 580.14,510.46 580.95,511.44 ZM 510.20 661.80 C511.91,663.51 515.68,663.28 516.39,661.42 C517.78,657.80 517.04,655.05 514.49,654.41 C513.05,654.05 511.34,654.30 510.49,655.01 C508.70,656.50 508.54,660.14 510.20,661.80 ZM 338.63 506.89 C340.65,509.77 343.78,509.57 345.20,506.46 C346.74,503.07 344.49,500.59 340.73,501.53 C337.46,502.35 336.74,504.18 338.63,506.89 ZM 398.04 615.55 C398.70,616.35 400.03,617.00 401.00,617.00 C404.98,617.00 406.21,611.79 402.75,609.61 C399.29,607.43 395.38,612.35 398.04,615.55 ZM 623.17 400.25 C624.29,402.43 628.58,402.55 629.39,400.42 C631.11,395.94 628.74,393.00 625.01,394.99 C622.66,396.25 622.03,398.04 623.17,400.25 ZM 397.05 401.56 C398.67,403.51 402.92,403.38 403.69,401.36 C405.26,397.26 399.06,394.15 397.00,398.00 C396.14,399.61 396.15,400.48 397.05,401.56 ZM 624.04 615.55 C626.42,618.41 630.00,616.43 630.00,612.24 C630.00,610.17 629.59,609.91 626.76,610.19 C623.21,610.53 621.94,613.02 624.04,615.55 ZM 526.68 454.34 C526.29,453.96 525.15,454.51 524.14,455.57 C523.13,456.63 520.66,458.97 518.65,460.77 C516.64,462.58 515.00,464.80 515.00,465.71 C515.00,466.78 517.21,465.17 521.19,461.21 C524.59,457.82 527.06,454.73 526.68,454.34 ZM 532.23 531.41 C539.45,528.65 541.50,526.47 535.25,528.19 C531.24,529.29 524.00,532.72 524.00,533.52 C524.00,534.38 525.37,534.03 532.23,531.41 ZM 476.50 540.44 C480.35,539.52 483.93,538.38 484.45,537.89 C485.72,536.70 483.73,536.74 480.80,537.96 C479.53,538.48 475.91,539.41 472.75,540.03 C469.59,540.64 467.00,541.55 467.00,542.04 C467.00,542.53 467.56,542.75 468.25,542.52 C468.94,542.29 472.65,541.35 476.50,540.44 ZM 564.00 556.74 C565.24,556.26 565.21,556.14 563.83,556.08 C562.91,556.04 561.51,555.75 560.71,555.44 C559.73,555.07 559.10,555.71 558.77,557.42 C558.13,560.75 558.92,561.39 560.90,559.14 C561.78,558.13 563.17,557.05 564.00,556.74 ZM 554.53 549.20 C553.59,548.26 553.26,549.38 552.68,555.50 L 552.12 561.50 L 553.59 555.62 C554.40,552.38 554.83,549.49 554.53,549.20 ZM 438.44 525.43 C436.57,523.91 436.59,523.87 439.00,524.41 C440.38,524.72 441.84,524.98 442.25,524.99 C442.66,524.99 443.00,525.45 443.00,526.00 C443.00,527.50 440.63,527.20 438.44,525.43 Z" fill="rgb(161,196,103)" data-index="1" style="opacity: 1;"/>
<path d="M 593.91 619.75 C592.57,622.85 592.31,624.13 593.94,623.95 C590.35,625.36 588.17,626.28 586.39,627.10 C584.13,628.14 582.01,629.00 581.69,629.00 C581.49,629.00 579.32,629.80 575.98,631.08 C586.06,626.94 586.64,625.96 588.50,622.27 C598.26,602.88 598.52,602.14 596.70,599.07 C595.77,597.49 595.00,595.25 595.00,594.10 C595.00,590.46 591.43,591.61 572.59,601.34 C544.03,616.09 543.00,616.74 543.00,619.96 C543.00,621.48 542.07,623.92 540.93,625.37 C538.65,628.27 534.63,628.81 529.28,626.95 C526.62,626.02 525.46,626.34 519.57,629.57 L 512.89 633.25 L 506.76 630.04 C502.59,627.85 499.82,627.00 498.07,627.38 C489.71,629.17 489.47,629.16 486.79,627.05 C484.71,625.41 484.04,623.93 483.80,620.39 C483.73,619.24 483.78,618.42 483.59,617.66 C482.87,614.96 478.86,613.13 453.50,600.05 C395.27,570.01 394.51,569.64 394.20,571.24 C394.05,572.01 394.68,576.26 395.66,581.59 C395.02,578.49 394.38,575.67 394.04,574.50 C393.57,572.85 392.01,565.88 390.58,559.00 C390.26,557.48 389.87,555.61 389.43,553.51 C390.55,558.67 391.29,561.88 391.64,563.19 C391.90,564.16 397.68,567.65 405.30,571.43 C412.56,575.04 418.89,577.99 419.38,577.99 C420.38,578.00 420.32,577.67 415.51,557.50 C413.55,549.25 410.95,538.10 409.73,532.71 C407.61,523.38 407.37,522.90 404.50,522.18 C400.15,521.08 397.29,515.12 399.07,510.84 C399.77,509.15 401.70,506.93 403.37,505.92 C406.36,504.10 406.47,503.72 411.67,477.79 C418.67,442.79 420.19,434.11 419.49,432.98 C418.97,432.14 410.79,435.98 396.93,443.58 L 392.40 446.06 C393.80,439.24 394.96,433.42 395.59,430.00 C397.01,422.36 398.04,417.22 398.91,413.84 C398.81,414.28 398.70,414.75 398.59,415.25 C396.99,422.48 394.00,438.77 394.00,440.31 C394.00,440.75 394.34,440.96 394.75,440.76 C395.16,440.56 398.20,439.11 401.50,437.53 C404.80,435.96 410.17,433.08 413.43,431.15 C416.70,429.21 422.55,426.24 426.43,424.55 C430.32,422.85 438.00,419.02 443.50,416.04 C449.00,413.05 460.25,407.12 468.50,402.87 C482.93,395.43 483.52,395.00 484.08,391.62 C485.22,384.79 489.72,382.10 495.90,384.57 C499.63,386.07 499.94,386.03 506.22,383.06 C509.78,381.38 513.09,380.00 513.58,380.00 C514.06,380.00 516.82,380.98 519.69,382.17 C524.80,384.28 525.02,384.29 528.85,382.57 C535.24,379.69 542.00,383.29 542.00,389.59 C542.00,392.52 542.59,393.16 548.25,396.32 C551.69,398.23 558.78,401.93 564.00,404.53 C569.22,407.13 576.65,411.10 580.50,413.34 C595.53,422.08 631.71,439.27 632.48,438.03 C632.76,437.57 632.29,433.44 631.43,428.85 C631.03,426.71 630.66,424.76 630.31,422.98 C630.90,425.80 631.59,429.11 632.40,433.00 C633.97,440.59 635.34,447.24 636.56,453.08 C635.82,449.90 635.24,447.64 634.98,446.99 C634.23,445.15 630.67,442.83 621.59,438.24 C614.79,434.81 608.95,432.00 608.61,432.00 C607.46,432.00 608.01,435.87 610.91,448.17 C612.50,454.95 615.25,466.70 617.00,474.28 C620.14,487.83 620.25,488.08 623.52,489.44 C625.34,490.21 627.33,491.74 627.92,492.85 C630.45,497.58 628.25,504.20 623.54,505.98 C621.17,506.88 620.73,508.54 616.44,532.50 C615.56,537.45 613.30,549.07 611.42,558.32 C609.54,567.57 608.00,576.00 608.00,577.07 C608.00,579.74 609.28,579.51 615.83,575.70 C618.95,573.89 624.59,570.86 628.36,568.97 C632.20,567.05 635.56,564.66 635.98,563.52 C636.32,562.64 637.20,558.72 638.33,553.31 C636.22,563.69 634.34,572.49 633.51,575.50 C633.26,576.43 632.91,577.95 632.50,579.80 C632.97,577.30 633.38,575.03 633.70,573.24 L 634.26 569.98 L 627.38 573.08 C613.53,579.32 606.00,583.13 606.00,583.87 C606.00,584.30 607.11,585.61 608.47,586.79 C611.65,589.55 612.55,593.25 610.98,597.06 C609.63,600.32 607.30,602.00 604.14,602.00 C602.19,602.00 599.70,606.31 593.91,619.75 ZM 506.25 625.92 C509.69,627.58 512.68,628.96 512.89,628.97 C513.10,628.99 515.86,627.76 519.02,626.25 C524.40,623.68 524.81,623.23 525.44,619.28 C526.56,612.23 533.38,608.78 538.75,612.54 C540.83,613.99 541.81,613.62 557.00,605.50 C565.83,600.78 579.80,593.50 588.05,589.31 C598.99,583.76 603.17,581.14 603.52,579.60 C604.66,574.63 612.05,536.24 614.53,522.37 L 617.24 507.24 L 615.08 505.08 C610.55,500.55 610.30,496.29 614.22,490.72 C614.51,490.30 614.77,489.97 614.98,489.61 C616.27,487.33 615.47,483.87 608.04,451.51 C607.75,450.23 607.45,448.90 607.13,447.53 C602.48,427.26 603.26,428.20 583.00,418.27 C575.58,414.63 562.84,408.14 554.71,403.86 C542.03,397.20 539.55,396.22 537.39,397.04 C531.44,399.30 525.77,396.61 524.65,390.99 C524.17,388.59 523.10,387.49 519.77,385.98 C514.13,383.42 511.90,383.51 505.97,386.52 C501.44,388.81 501.00,389.34 501.00,392.52 C501.00,397.31 498.12,400.00 492.99,400.00 C490.78,400.00 488.13,399.48 487.11,398.84 C485.57,397.87 484.23,398.25 479.37,400.99 C476.14,402.82 464.31,409.00 453.07,414.72 C441.83,420.44 430.78,426.22 428.49,427.56 L 424.35 429.99 L 421.58 444.74 C420.06,452.86 417.05,468.72 414.90,479.98 C412.76,491.24 411.00,501.53 411.00,502.84 C411.00,504.14 412.12,506.55 413.50,508.18 C416.63,511.90 416.66,514.75 413.61,519.25 L 411.21 522.78 L 414.14 535.64 C418.51,554.82 419.56,559.50 422.05,570.87 C424.29,581.07 424.38,581.26 427.91,582.73 C429.89,583.55 436.67,587.04 443.00,590.48 C449.33,593.92 461.61,600.38 470.31,604.84 C484.64,612.19 486.50,612.89 490.31,612.37 C493.87,611.89 494.92,612.19 497.25,614.35 C499.07,616.04 500.00,617.92 500.00,619.90 C500.00,622.57 500.65,623.20 506.25,625.92 ZM 459.84 634.44 C455.60,632.77 451.95,631.34 449.50,630.42 C442.90,627.92 435.70,625.07 433.50,624.08 C431.89,623.36 428.34,621.94 424.62,620.52 C430.78,622.82 436.58,624.76 437.06,624.46 C438.26,623.72 432.39,611.79 430.28,610.67 C425.77,608.28 424.00,605.67 424.00,601.40 C424.00,596.25 427.35,593.00 432.63,593.00 C439.34,593.00 443.25,601.47 439.13,607.04 C436.36,610.78 436.43,611.76 440.02,620.39 L 443.04 627.64 ZM 501.34 317.36 L 487.00 322.94 C477.38,326.69 466.12,331.12 462.00,332.79 C460.31,333.48 457.64,334.54 454.53,335.78 C462.26,332.42 462.87,331.03 464.37,326.73 C466.05,321.93 469.47,314.35 477.08,298.50 C479.68,293.09 479.85,292.13 478.82,288.75 C476.79,282.15 481.20,277.55 486.93,280.29 C490.55,282.03 491.78,286.16 489.64,289.42 C488.71,290.84 487.04,292.00 485.91,292.00 C484.36,292.00 483.15,293.62 480.83,298.75 C479.16,302.46 476.71,307.87 475.40,310.77 C472.04,318.17 468.00,327.84 468.00,328.47 C468.00,329.80 472.14,328.56 487.75,322.57 ZM 425.00 391.28 C427.97,390.01 430.74,388.80 432.50,388.00 C435.80,386.49 440.30,384.57 442.50,383.73 C444.70,382.89 459.84,376.94 476.14,370.52 C499.94,361.14 504.65,359.30 507.21,359.78 C504.66,359.30 499.94,361.15 476.14,370.59 C459.84,377.05 445.73,382.99 444.79,383.79 C443.85,384.58 441.93,388.25 440.52,391.94 C438.10,398.28 438.04,398.86 439.48,402.29 C441.62,407.41 441.41,408.74 437.95,412.20 C435.32,414.83 434.41,415.17 431.20,414.65 C424.72,413.62 422.30,408.20 425.53,401.95 C426.52,400.04 427.83,398.99 429.28,398.98 C430.50,398.98 432.03,398.63 432.69,398.21 C434.04,397.36 438.21,388.10 437.78,386.91 C437.64,386.52 432.08,388.44 425.00,391.28 ZM 567.59 332.75 C563.25,331.05 560.25,329.86 559.50,329.53 C558.56,329.12 555.43,327.85 551.31,326.20 C556.32,328.13 558.44,328.77 558.93,328.14 C559.33,327.62 558.62,326.26 557.50,324.08 C557.22,323.54 556.92,322.95 556.60,322.32 C554.72,318.57 551.60,311.67 549.66,307.00 C544.38,294.28 543.19,292.26 540.55,291.60 C535.09,290.23 533.25,284.75 537.00,281.00 C539.59,278.41 543.45,278.45 546.10,281.10 C547.85,282.85 548.09,283.93 547.54,287.57 C546.95,291.50 547.53,293.37 553.35,306.22 C556.91,314.07 560.93,323.04 562.30,326.14 C564.13,330.27 564.88,331.49 567.59,332.75 ZM 548.84 685.22 C555.92,682.34 563.25,679.36 567.50,677.62 C567.78,677.50 568.08,677.38 568.39,677.26 L 566.10 683.23 C564.79,686.68 561.05,695.12 557.80,702.00 C552.41,713.40 551.95,714.91 552.53,719.17 C553.06,723.08 552.83,724.17 551.08,725.92 C548.46,728.54 546.95,728.54 543.58,725.89 C541.42,724.18 540.95,723.08 541.20,720.24 C541.38,718.08 542.18,716.37 543.25,715.85 C544.21,715.38 545.79,714.61 546.75,714.14 C548.52,713.27 563.55,681.22 562.62,680.29 C562.38,680.04 556.43,682.18 548.84,685.22 ZM 488.50 728.23 C486.75,729.52 482.20,729.06 480.57,727.43 C478.76,725.62 478.53,721.75 480.05,718.90 C480.91,717.30 480.04,714.91 475.20,705.72 C471.95,699.55 468.02,691.35 466.47,687.50 C464.92,683.65 462.95,679.78 462.08,678.89 C461.47,678.28 458.30,676.74 454.18,675.02 C459.23,677.02 463.14,678.70 463.63,679.11 C464.27,679.64 465.73,680.26 466.88,680.48 C468.32,680.75 480.49,685.51 490.18,689.46 C481.29,685.91 470.84,682.00 469.79,682.00 C467.60,682.00 467.67,682.19 477.05,701.35 C481.88,711.23 484.10,714.70 486.64,716.35 C492.12,719.90 492.91,724.99 488.50,728.23 ZM 594.69 387.20 C588.98,385.29 588.76,386.04 589.39,389.20 C590.30,393.76 592.59,396.84 596.45,398.68 C602.00,401.33 603.51,406.81 599.93,411.37 C596.75,415.41 589.15,414.44 585.77,409.56 C584.37,407.55 585.01,403.26 587.10,400.60 L 589.20 397.93 L 586.92 392.21 C584.01,384.96 582.79,383.00 576.75,380.34 C579.37,381.37 581.99,382.39 584.50,383.36 C586.05,383.96 590.10,385.48 594.69,387.20 ZM 338.36 512.41 C340.58,515.09 341.59,519.07 345.04,535.50 C345.50,537.71 346.56,542.53 347.94,548.70 C347.75,547.94 347.63,547.48 347.59,547.36 C347.31,546.65 342.06,543.54 335.91,540.45 C325.80,535.39 324.29,534.90 320.12,535.43 C314.14,536.18 311.60,534.38 311.60,529.43 C311.60,521.63 323.07,521.10 324.62,528.83 C325.08,531.16 326.67,532.28 335.22,536.31 C340.76,538.92 345.47,540.87 345.69,540.64 C345.92,540.41 344.79,534.34 343.18,527.13 C341.04,517.56 340.17,514.61 338.36,512.41 ZM 681.84 474.18 C680.31,467.67 678.61,460.15 676.97,452.50 C675.53,445.84 672.87,434.00 670.48,423.61 C672.81,433.68 675.31,444.62 676.56,450.27 L 679.39 463.04 L 689.95 468.23 C698.34,472.37 701.57,473.45 705.71,473.52 C711.78,473.63 715.00,475.87 715.00,480.00 C715.00,483.74 711.96,486.21 707.85,485.82 C705.12,485.56 704.14,484.79 702.50,481.62 C700.90,478.54 698.66,476.70 691.66,472.75 C685.26,469.15 682.52,468.08 681.73,468.87 C681.22,469.38 681.23,470.96 681.84,474.18 ZM 692.88 539.91 L 680.51 545.85 C685.03,524.24 687.82,513.56 689.07,513.14 C689.29,513.07 689.61,512.90 689.97,512.66 C689.60,512.96 689.20,513.28 688.77,513.62 C687.22,514.85 681.46,539.79 682.49,540.82 C683.57,541.91 704.32,530.41 704.59,528.58 C704.73,527.66 705.42,526.20 706.13,525.34 C710.98,519.50 719.53,524.62 716.89,531.78 C715.70,534.98 712.87,536.08 708.90,534.88 C705.79,533.94 704.43,534.37 692.88,539.91 ZM 357.91 418.51 C356.59,424.42 355.10,431.09 353.46,438.50 C347.14,466.96 345.07,475.97 343.10,483.67 C343.02,483.95 342.95,484.23 342.88,484.51 C343.12,483.50 343.37,482.47 343.63,481.43 C345.08,475.66 345.97,470.64 345.61,470.27 C345.25,469.91 341.09,471.59 336.38,474.01 C330.17,477.18 327.55,479.10 326.90,480.95 C325.25,485.64 324.33,486.50 321.00,486.50 C314.38,486.50 311.81,478.13 317.32,474.53 C319.20,473.30 320.18,473.24 322.77,474.22 C325.69,475.32 326.73,475.02 336.71,470.19 L 347.50 464.97 L 349.13 457.73 C350.03,453.75 351.97,445.10 353.44,438.50 C355.17,430.74 356.65,424.14 357.91,418.51 ZM 572.56 668.75 C572.18,669.99 572.21,671.00 572.64,671.00 C572.88,671.00 574.95,670.26 577.93,669.15 C574.04,670.75 570.12,672.42 566.50,674.01 C565.32,674.53 563.60,675.21 561.84,675.88 C566.53,673.93 567.12,673.31 569.02,668.22 C570.16,665.18 572.14,660.40 573.44,657.60 C574.73,654.79 577.41,648.97 579.40,644.65 C581.39,640.33 583.29,635.70 583.62,634.38 C584.17,632.18 584.02,632.04 581.86,632.86 C580.27,633.47 576.66,634.89 572.05,636.73 C577.70,634.45 582.15,632.62 583.50,632.03 C585.56,631.12 593.85,627.93 602.41,624.74 C596.36,627.12 591.29,629.48 590.31,630.41 C589.10,631.56 585.41,638.89 582.11,646.70 C578.81,654.50 575.46,662.15 574.68,663.70 C573.90,665.24 572.94,667.51 572.56,668.75 ZM 598.70 384.61 C597.94,384.32 597.15,384.02 596.33,383.71 C594.24,382.92 591.97,382.06 589.50,381.13 C586.14,379.87 581.48,378.06 576.29,376.01 C577.81,376.45 578.84,376.56 579.13,376.27 C580.30,375.10 578.43,369.84 572.79,358.48 C570.34,353.54 567.29,346.80 566.01,343.50 C563.51,337.05 562.22,335.03 558.55,333.44 C564.80,335.71 570.59,337.95 579.00,341.35 C581.55,342.38 590.61,345.98 601.57,350.32 C569.51,337.68 568.00,337.34 568.00,339.04 C568.00,339.68 569.17,342.52 570.59,345.35 C572.02,348.18 575.64,356.58 578.64,364.00 C581.64,371.42 584.63,378.03 585.30,378.69 C585.92,379.31 591.67,381.80 598.70,384.61 ZM 369.25 553.06 C383.86,560.62 387.02,561.90 386.98,560.25 L 386.98 560.23 C387.70,563.70 388.37,566.95 388.95,569.77 C387.76,566.49 384.34,564.66 368.25,556.62 C357.60,551.29 353.00,549.43 353.00,550.46 C353.00,551.83 363.45,600.10 364.40,603.13 C364.64,603.89 365.82,609.00 367.04,614.50 C368.45,620.91 369.68,624.94 370.94,627.08 C369.78,625.18 368.66,621.83 367.56,617.00 C366.62,612.88 365.22,606.80 364.44,603.50 C361.29,590.20 352.81,552.19 351.98,547.69 C351.50,545.04 350.22,539.41 349.15,535.19 C348.95,534.37 348.73,533.46 348.50,532.50 C350.03,538.76 351.66,543.80 352.62,544.76 C353.38,545.52 354.00,545.92 354.00,545.65 C354.00,545.39 360.86,548.72 369.25,553.06 ZM 447.00 377.57 C447.00,377.90 447.28,378.02 448.11,377.83 C447.67,377.98 447.29,378.10 447.00,378.19 C445.08,378.75 443.05,379.56 442.50,379.99 C442.08,380.31 437.24,382.40 430.81,385.03 C436.32,382.68 440.52,380.70 441.17,380.08 C442.10,379.21 445.40,372.42 448.52,365.00 C451.64,357.58 455.27,349.17 456.59,346.31 C459.17,340.76 459.53,339.00 458.11,339.00 C457.61,339.00 450.40,341.70 442.08,345.00 C435.13,347.76 429.09,350.09 427.13,350.79 C430.44,349.49 433.87,348.16 436.88,347.00 C444.23,344.18 453.05,340.56 456.47,338.94 C459.89,337.32 463.12,336.00 463.63,336.00 C464.11,336.00 472.13,332.98 482.04,329.09 C465.39,335.68 464.05,336.49 462.94,339.32 C461.59,342.78 460.21,346.06 457.18,353.00 C452.18,364.45 447.00,376.96 447.00,377.57 ZM 470.58 677.40 C467.64,676.28 464.59,675.13 461.50,673.99 C459.62,673.29 454.60,671.29 448.80,668.93 C456.21,671.83 459.00,672.50 459.00,671.55 C459.00,671.14 451.62,654.93 444.14,638.89 C442.44,635.26 440.48,631.82 439.78,631.24 C439.41,630.94 437.28,629.97 434.18,628.65 C438.84,630.49 442.47,631.89 443.50,632.25 C444.43,632.58 446.78,633.49 449.69,634.65 C447.12,633.83 446.00,633.82 446.00,634.53 C446.00,634.81 448.07,639.43 450.61,644.78 C458.15,660.69 463.00,671.69 463.00,672.90 C463.00,673.77 464.82,674.94 470.58,677.40 ZM 656.00 451.69 C665.08,456.20 672.90,459.91 673.39,459.94 C674.45,460.01 674.24,457.06 671.75,445.88 C672.63,449.60 673.68,453.99 674.54,457.50 C675.05,459.59 675.72,462.44 676.43,465.60 L 658.67 456.73 C648.87,451.83 640.60,448.07 640.29,448.38 C640.02,448.64 640.13,450.41 640.50,452.54 C638.55,443.33 637.45,438.04 635.38,428.00 C634.03,421.51 632.76,415.35 631.98,411.65 C632.72,414.84 634.27,422.10 635.62,428.71 C637.11,435.97 638.59,442.27 638.92,442.71 C639.24,443.14 646.92,447.19 656.00,451.69 ZM 641.00 561.17 C641.00,561.63 641.19,562.00 641.42,562.00 C641.65,562.00 649.62,558.17 659.14,553.49 L 676.38 545.01 C675.91,547.25 675.58,548.87 675.49,549.50 C675.40,550.11 675.16,551.40 674.80,553.23 C675.02,551.36 674.67,551.00 673.39,551.00 C671.19,551.00 641.67,565.47 640.24,567.25 C639.79,567.81 638.99,570.55 638.07,574.31 C638.20,573.69 638.31,573.09 638.43,572.50 C639.81,565.35 642.09,554.10 643.49,547.50 C647.15,530.31 649.47,518.80 650.58,512.32 C650.09,515.24 649.42,518.88 648.69,522.50 C647.24,529.65 644.91,541.09 643.52,547.92 C642.14,554.75 641.00,560.71 641.00,561.17 ZM 353.03 461.33 C353.01,461.79 353.34,462.01 353.75,461.82 C354.16,461.63 362.01,457.71 371.18,453.12 C384.48,446.45 388.06,444.23 388.84,442.13 C389.20,441.17 390.14,437.07 391.23,431.79 C390.17,437.27 389.26,442.03 388.90,444.00 C387.45,451.83 384.63,464.84 380.01,484.99 C379.68,486.42 379.36,487.85 379.05,489.25 C379.90,485.32 380.88,480.92 381.90,476.50 C386.60,456.10 387.78,449.00 386.48,449.00 C386.20,449.00 378.66,452.75 369.73,457.33 C360.80,461.92 352.95,465.86 352.27,466.08 C351.60,466.31 350.18,470.55 349.11,475.50 C348.24,479.59 347.10,484.80 346.33,488.23 C347.13,484.58 348.38,478.70 349.48,473.50 C350.86,466.90 352.41,460.60 352.92,459.50 C353.18,458.94 353.70,457.00 354.33,454.33 C353.55,458.21 353.05,460.85 353.03,461.33 ZM 599.65 597.17 C602.92,600.78 608.00,598.64 608.00,593.66 C608.00,588.23 603.72,586.13 599.83,589.65 C597.55,591.71 597.48,594.77 599.65,597.17 ZM 429.22 411.44 C430.44,412.30 431.69,413.00 432.00,413.00 C433.83,413.00 437.00,409.53 437.00,407.51 C437.00,403.01 431.22,400.18 428.20,403.20 C426.21,405.19 426.77,409.73 429.22,411.44 ZM 590.75 410.92 C591.80,411.53 592.30,411.85 592.81,411.88 C593.33,411.90 593.86,411.62 594.99,411.02 C595.09,410.97 595.20,410.91 595.32,410.85 C599.75,408.51 600.25,404.86 596.46,402.38 C592.59,399.85 589.00,401.80 589.00,406.43 C589.00,408.68 589.62,410.26 590.75,410.92 ZM 429.75 605.92 C435.03,609.00 439.85,604.33 436.96,598.93 C435.83,596.81 432.93,596.43 429.93,598.04 C427.45,599.37 427.33,604.51 429.75,605.92 ZM 404.43 518.23 C406.05,519.35 408.44,519.14 410.17,517.75 C414.09,514.59 412.74,509.00 408.06,509.00 C403.02,509.00 400.46,515.52 404.43,518.23 ZM 616.54 501.04 C619.94,504.80 625.42,502.49 624.84,497.55 C624.42,494.04 622.15,492.49 618.67,493.37 C615.20,494.24 614.07,498.31 616.54,501.04 ZM 530.96 623.17 C533.73,625.41 535.38,625.48 537.43,623.43 C539.67,621.18 539.40,617.29 536.91,615.95 C531.47,613.04 526.26,619.36 530.96,623.17 ZM 487.93 622.87 C488.75,624.41 490.03,625.00 492.52,625.00 C495.41,625.00 496.07,624.58 496.63,622.35 C497.53,618.75 495.94,616.56 492.16,616.19 C489.64,615.94 488.79,616.36 487.90,618.31 C487.09,620.11 487.09,621.31 487.93,622.87 ZM 489.88 395.10 C492.84,397.50 494.25,397.49 496.45,395.06 C497.82,393.54 498.00,392.51 497.27,390.31 C496.49,387.97 495.77,387.50 492.94,387.50 C490.11,387.50 489.38,387.97 488.54,390.35 C487.68,392.81 487.87,393.47 489.88,395.10 ZM 530.22 393.44 C531.44,394.30 532.69,395.00 533.00,395.00 C534.50,395.00 538.00,391.69 538.00,390.27 C538.00,388.16 535.10,385.00 533.17,385.00 C531.02,385.00 528.00,387.98 528.00,390.10 C528.00,391.08 529.00,392.59 530.22,393.44 ZM 486.00 466.60 C486.00,465.82 483.19,462.68 479.75,459.62 C472.28,452.96 473.49,452.11 481.34,458.50 C484.38,460.98 487.32,463.00 487.87,463.00 C488.77,463.00 489.34,462.05 489.49,460.68 C489.40,463.01 488.61,464.79 487.35,464.30 C486.56,464.00 485.99,464.15 486.08,464.63 C486.17,465.11 486.18,466.06 486.12,466.75 C486.09,467.04 485.85,467.29 485.42,467.48 C485.82,467.26 486.00,466.97 486.00,466.60 ZM 580.67 521.01 C577.89,521.08 577.32,521.92 578.95,523.55 C580.35,524.96 585.19,536.24 584.10,535.56 C583.58,535.24 581.53,532.06 579.53,528.49 C577.54,524.92 575.69,522.00 575.43,522.00 C574.79,522.00 574.19,523.41 573.79,525.30 C574.34,521.83 575.31,518.89 576.00,520.00 C576.40,520.65 577.01,521.13 577.36,521.09 C578.53,520.93 579.63,520.90 580.67,521.01 ZM 707.15 482.11 C707.89,482.58 708.72,482.97 709.00,482.97 C710.59,482.97 712.15,481.00 711.83,479.38 C711.60,478.14 710.62,477.50 709.00,477.50 C706.21,477.50 704.92,480.70 707.15,482.11 ZM 507.98 527.75 C508.00,529.10 506.75,529.41 505.67,528.33 C505.30,527.97 505.00,525.93 505.00,523.80 C505.00,521.78 503.98,517.70 502.70,514.49 C504.12,517.88 505.61,520.94 506.07,521.43 C507.58,523.01 510.58,519.30 512.42,513.62 C511.46,516.80 510.06,519.72 508.50,521.41 C507.04,522.99 506.56,524.28 507.12,525.16 C507.59,525.90 507.98,527.06 507.98,527.75 ZM 482.91 287.39 C483.64,288.28 484.82,289.00 485.52,289.00 C487.43,289.00 488.26,285.83 486.74,284.31 C485.63,283.20 485.09,283.21 483.49,284.38 C481.86,285.57 481.78,286.02 482.91,287.39 ZM 539.60 286.41 C540.33,288.30 543.65,288.54 544.27,286.75 C544.98,284.72 543.92,283.00 541.95,283.00 C539.70,283.00 538.80,284.31 539.60,286.41 ZM 545.33 722.42 C546.11,724.45 547.44,724.42 549.54,722.32 C551.12,720.74 551.11,720.55 549.41,719.31 C547.89,718.20 547.36,718.21 546.16,719.41 C545.37,720.20 545.00,721.55 545.33,722.42 ZM 315.59 531.15 C315.92,531.68 317.16,531.98 318.34,531.81 C321.26,531.39 321.29,527.61 318.38,527.20 C316.20,526.89 314.47,529.34 315.59,531.15 ZM 482.72 723.71 C483.01,724.48 484.21,724.97 485.38,724.80 C488.08,724.42 488.28,720.68 485.62,720.17 C483.48,719.75 481.93,721.65 482.72,723.71 ZM 709.00 529.00 C709.00,530.47 709.67,531.00 711.50,531.00 C713.33,531.00 714.00,530.47 714.00,529.00 C714.00,527.53 713.33,527.00 711.50,527.00 C709.67,527.00 709.00,527.53 709.00,529.00 ZM 319.34 481.43 C319.67,482.29 320.42,483.00 321.00,483.00 C322.62,483.00 323.41,480.01 322.13,478.73 C320.62,477.22 318.50,479.26 319.34,481.43 ZM 501.47 521.06 C500.58,518.14 498.67,512.75 496.48,507.03 C493.44,499.11 491.12,492.15 491.31,491.57 C491.53,490.90 493.82,495.03 496.59,500.79 C495.28,498.21 494.43,497.00 493.97,497.00 C493.92,497.00 493.86,497.00 493.81,497.00 C493.59,496.99 493.41,496.99 493.30,497.08 C492.85,497.42 493.53,499.20 496.91,508.10 C497.10,508.60 497.29,509.11 497.50,509.65 C499.60,515.18 500.88,518.76 501.47,521.06 ZM 633.86 594.33 C634.00,593.70 634.17,592.99 634.34,592.21 C633.36,597.66 632.69,602.30 632.75,604.00 C632.80,605.36 632.89,607.18 632.98,608.95 C632.85,608.13 632.68,607.26 632.48,606.33 C632.05,604.35 632.57,599.83 633.86,594.33 ZM 381.93 495.05 C380.71,501.32 380.27,505.10 380.47,508.83 C380.48,509.16 380.51,509.49 380.53,509.82 C379.78,504.10 380.27,501.41 381.58,496.46 C381.67,496.11 381.78,495.64 381.93,495.05 ZM 602.23 659.50 C611.04,655.78 618.65,652.69 633.25,646.91 C648.84,640.73 649.00,640.65 649.00,637.58 C649.00,640.66 648.80,640.79 635.75,646.01 C628.46,648.92 620.47,652.09 618.00,653.04 C615.53,653.98 610.12,656.19 606.00,657.94 C604.90,658.40 603.61,658.94 602.23,659.50 ZM 528.53 654.42 C524.90,656.09 522.15,657.62 521.90,658.18 C521.57,658.91 521.25,659.58 520.94,660.20 C520.96,660.06 520.98,659.93 520.98,659.81 C520.99,658.88 521.56,657.76 522.25,657.31 C522.87,656.91 525.04,655.92 528.53,654.42 ZM 529.81 357.27 C526.97,356.14 525.14,355.42 524.79,355.31 C524.12,355.11 523.06,353.95 522.10,352.45 C523.15,353.98 524.79,355.09 529.81,357.27 ZM 479.74 488.90 C480.36,483.97 481.50,479.46 482.93,476.72 C482.13,478.51 481.34,481.31 480.41,485.50 C480.15,486.66 479.93,487.79 479.74,488.90 ZM 618.91 612.65 C618.99,612.49 619.07,612.32 619.14,612.14 C620.50,608.54 622.87,606.10 625.06,606.00 C622.39,606.96 621.24,608.15 619.69,611.27 C619.44,611.78 619.18,612.24 618.91,612.65 ZM 538.13 685.20 C524.32,691.06 523.72,691.25 521.12,689.73 C523.72,691.25 524.34,691.04 539.42,684.65 C548.03,680.99 555.45,678.00 555.90,678.00 C555.92,678.00 555.93,678.00 555.94,678.00 C552.23,679.38 544.88,682.34 538.13,685.20 ZM 590.55 540.50 C591.50,534.19 590.41,528.56 587.98,524.99 C590.56,528.39 591.56,533.77 590.55,540.50 ZM 582.77 671.48 C592.49,667.59 604.43,662.86 615.48,658.50 C603.35,663.35 590.31,668.53 582.77,671.48 ZM 394.96 609.05 C393.37,611.28 392.80,612.83 393.33,614.45 C392.80,612.84 393.36,611.30 394.93,609.10 C394.94,609.09 394.95,609.07 394.96,609.05 C396.45,606.96 396.75,606.43 395.17,598.95 C396.90,606.21 396.85,606.40 394.96,609.05 ZM 566.78 372.25 C561.00,369.94 555.12,367.57 550.00,365.47 C548.83,364.99 547.67,364.51 546.53,364.05 L 547.53 364.45 C554.27,367.12 561.73,370.15 566.78,372.25 ZM 667.78 586.98 C663.90,605.21 659.89,623.64 659.21,625.94 C659.67,624.39 663.87,605.13 667.78,586.98 ZM 677.52 470.46 C678.37,474.27 679.21,478.17 679.91,481.50 C682.37,493.29 682.60,495.63 681.41,496.30 C682.60,495.63 682.32,493.11 679.66,480.57 ZM 623.42 354.49 C613.07,350.42 598.53,344.75 587.50,340.49 C582.75,338.66 578.14,336.87 574.08,335.29 C585.46,339.64 607.59,348.25 623.42,354.49 ZM 422.36 619.66 C421.73,619.43 421.11,619.20 420.50,618.98 C416.13,617.37 413.23,616.18 411.33,615.08 C413.66,616.22 417.94,617.98 422.36,619.66 ZM 516.83 665.68 C516.39,665.97 515.93,666.19 515.45,666.35 C513.75,666.92 511.76,666.71 509.99,665.99 C512.18,666.76 514.74,666.71 516.83,665.68 ZM 645.28 646.83 C647.25,646.08 648.49,645.62 648.81,645.52 C649.42,645.34 650.20,645.30 651.04,645.40 C649.85,645.44 648.16,645.85 645.28,646.83 ZM 479.77 504.31 C480.39,507.16 481.39,509.78 482.79,512.15 C481.83,510.66 481.07,509.15 480.59,507.72 C480.25,506.69 479.98,505.54 479.77,504.31 ZM 630.76 619.32 C632.16,618.27 632.98,616.94 633.28,615.00 C633.21,617.09 632.60,617.93 630.76,619.32 ZM 694.02 508.50 C695.02,506.40 695.16,503.73 694.62,501.40 C694.86,502.29 695.00,503.24 695.00,504.20 C695.00,505.96 694.78,507.22 694.02,508.50 ZM 408.01 400.31 C408.10,398.72 409.49,397.75 415.44,395.26 C409.39,397.90 408.10,398.92 408.01,400.31 ZM 507.39 347.27 C505.97,348.66 505.00,350.52 505.00,352.34 C505.00,350.18 505.70,348.68 507.39,347.27 ZM 496.50 687.95 C495.91,687.67 495.21,687.34 494.41,686.99 C497.22,688.17 499.31,689.10 500.00,689.49 C500.08,689.54 500.15,689.58 500.23,689.62 C499.15,689.19 497.92,688.64 496.50,687.95 ZM 612.19 617.03 C610.04,617.83 608.07,618.57 606.28,619.25 C607.82,618.64 609.40,618.04 610.82,617.51 C613.94,616.34 615.90,615.46 617.16,614.57 C616.04,615.44 614.52,616.16 612.19,617.03 ZM 512.82 499.85 C513.20,501.03 513.47,502.17 513.62,503.24 C513.79,504.46 513.79,505.87 513.66,507.35 C513.82,504.82 513.54,502.34 512.82,499.85 ZM 490.02 520.18 C492.85,522.43 495.71,524.03 497.92,524.70 C495.51,524.06 492.69,522.39 490.02,520.18 ZM 516.22 345.52 C515.17,345.17 513.92,345.02 512.38,345.01 C512.30,345.01 512.21,345.01 512.12,345.02 C513.54,344.80 514.94,344.97 516.22,345.52 ZM 365.18 630.77 C365.72,630.59 365.81,629.43 365.38,626.68 C365.95,629.85 365.85,630.45 365.50,630.65 C365.41,630.71 365.30,630.73 365.18,630.77 ZM 675.01 572.64 C673.14,581.74 671.17,590.67 667.46,607.00 C665.41,616.05 663.52,624.43 663.26,625.65 C663.52,624.43 665.41,616.05 667.46,607.00 C670.76,592.43 672.76,583.42 675.01,572.64 ZM 687.92 495.20 C687.61,494.93 687.34,494.60 687.16,494.25 C686.97,493.89 686.68,493.02 686.30,491.73 C686.89,493.52 687.39,494.58 687.92,495.20 ZM 627.54 410.77 C626.76,408.14 626.13,407.02 625.54,407.00 C626.18,407.00 626.67,407.56 627.54,410.77 ZM 622.59 391.51 C622.29,391.75 622.09,391.97 621.85,392.12 C621.52,392.33 621.11,392.42 620.23,392.27 C621.20,392.33 621.83,392.07 622.59,391.51 ZM 519.01 704.33 C519.27,704.18 519.53,704.01 519.78,703.82 C518.72,704.68 517.55,705.33 516.41,705.61 C516.38,705.62 516.35,705.63 516.32,705.63 C517.11,705.40 517.95,704.96 519.01,704.33 ZM 494.54 648.43 C501.40,651.17 505.85,652.92 506.00,652.92 C506.27,652.93 507.37,652.28 508.44,651.47 C507.37,652.28 506.27,652.94 506.00,652.94 C505.82,652.94 501.20,651.12 494.54,648.43 ZM 632.10 393.09 C629.96,390.19 626.23,388.86 622.76,391.38 C626.24,388.82 629.97,390.16 632.10,393.09 ZM 573.42 531.21 C573.44,531.39 573.46,531.56 573.49,531.73 C573.73,533.40 574.41,535.09 575.42,536.68 C574.45,535.19 573.78,533.65 573.53,532.19 C573.48,531.89 573.44,531.56 573.42,531.21 ZM 399.23 598.62 C398.72,596.73 398.18,594.28 397.53,591.04 C398.09,593.70 398.67,596.30 399.23,598.62 ZM 482.22 448.49 C485.14,450.30 487.36,452.75 488.62,455.69 C488.63,455.73 488.65,455.77 488.67,455.81 C487.39,452.81 485.15,450.32 482.22,448.49 ZM 377.70 495.64 C377.09,498.63 376.61,501.20 376.31,503.02 C376.44,501.95 376.95,499.27 377.70,495.64 ZM 505.32 319.89 L 505.33 319.90 L 491.60 325.32 ZM 523.99 696.87 C524.00,696.78 524.00,696.70 524.00,696.61 C524.00,696.52 524.11,696.38 524.33,696.20 C524.20,696.41 524.09,696.64 523.99,696.87 ZM 408.61 612.82 C408.19,612.22 407.95,611.57 407.83,610.84 C407.94,611.47 408.24,612.19 408.61,612.82 ZM 616.02 395.58 C617.77,396.55 618.00,397.18 618.00,398.13 C618.00,397.19 617.71,396.53 616.02,395.58 ZM 395.26 411.01 L 396.05 406.88 L 396.06 406.89 ZM 647.13 506.56 C646.99,507.76 646.57,510.34 645.95,513.84 C646.54,510.50 646.96,507.92 647.13,506.56 ZM 521.55 351.55 C521.36,351.21 521.17,350.86 521.00,350.50 C520.79,350.07 520.58,349.67 520.37,349.30 C520.55,349.60 520.73,349.91 520.89,350.24 C521.13,350.72 521.34,351.16 521.55,351.55 ZM 360.32 407.82 C362.41,398.58 363.69,393.07 364.57,389.46 C363.72,392.96 362.28,399.14 360.32,407.82 ZM 553.98 643.97 C550.72,645.28 547.51,646.58 544.56,647.77 C547.46,646.59 550.61,645.32 553.98,643.97 ZM 508.44 689.47 C507.71,690.02 507.00,690.41 506.23,690.61 C507.00,690.39 507.73,690.00 508.44,689.47 ZM 411.05 352.99 C403.12,356.15 396.24,358.91 390.00,361.45 C396.65,358.75 403.70,355.91 411.05,352.99 ZM 625.54 407.00 C625.53,407.00 625.53,407.00 625.52,407.00 C624.66,407.00 622.95,405.53 621.39,403.75 C622.96,405.53 624.67,407.00 625.54,407.00 ZM 378.13 518.13 C378.45,519.73 378.79,521.42 379.15,523.17 C378.77,521.36 378.43,519.68 378.13,518.13 ZM 527.53 321.09 C525.53,320.45 524.17,320.24 522.96,320.37 C524.18,320.24 525.54,320.45 527.53,321.09 ZM 502.28 513.48 C501.74,512.21 501.23,511.01 500.75,509.89 C501.27,511.09 501.79,512.30 502.28,513.48 ZM 651.32 507.08 C651.34,506.86 651.34,506.66 651.35,506.50 C651.35,506.25 651.31,505.82 651.23,505.22 C651.31,505.83 651.35,506.26 651.35,506.50 C651.35,506.65 651.34,506.85 651.32,507.08 ZM 510.88 704.62 C511.20,704.77 511.50,704.90 511.79,705.02 C511.49,704.90 511.18,704.77 510.88,704.62 ZM 682.90 514.98 C682.96,514.64 682.99,514.42 682.99,514.33 C682.99,514.01 682.68,513.41 682.17,512.69 C682.68,513.41 683.00,514.01 682.99,514.33 C682.99,514.42 682.96,514.64 682.90,514.98 ZM 402.45 605.06 C402.90,605.45 403.41,605.83 404.00,606.23 C403.41,605.84 402.90,605.47 402.45,605.06 ZM 631.25 408.20 C631.22,408.05 631.20,407.89 631.19,407.72 C631.21,407.87 631.23,408.03 631.25,408.20 ZM 505.32 698.86 C505.35,698.94 505.38,699.02 505.40,699.10 C505.42,699.15 505.44,699.20 505.45,699.24 C505.44,699.20 505.42,699.16 505.41,699.12 C505.38,699.04 505.35,698.95 505.32,698.86 Z" fill="rgb(186,220,216)" data-index="2"/>

</g>
</svg>