<svg xmlns="http://www.w3.org/2000/svg" width="505" height="494" viewBox="0 0 505 494">
<g>
<path d="M 252.24 298.75 C251.69,298.06 250.28,295.59 249.10,293.25 C246.97,289.02 246.93,289.00 241.45,289.00 C238.42,289.00 234.26,288.30 232.22,287.44 C227.04,285.27 222.20,285.41 215.49,287.92 C210.74,289.70 209.17,289.88 206.46,288.99 C204.65,288.39 202.90,287.19 202.57,286.32 C202.06,285.00 202.49,284.86 205.23,285.48 C209.87,286.54 212.60,286.26 216.26,284.37 C220.28,282.29 228.35,282.30 233.22,284.40 C237.30,286.16 242.56,286.52 243.44,285.09 C243.75,284.59 242.58,281.71 240.85,278.69 C235.59,269.54 226.29,266.57 216.49,270.90 C210.61,273.50 208.21,273.53 202.78,271.06 C200.42,269.99 197.26,268.85 195.75,268.54 C194.24,268.22 193.00,267.30 193.00,266.48 C193.00,264.49 193.92,264.59 202.74,267.55 L 210.34 270.10 L 215.38 267.93 C219.46,266.18 221.72,265.85 227.21,266.25 C230.95,266.51 234.00,266.62 234.00,266.48 C234.00,266.34 233.33,264.94 232.51,263.36 C231.68,261.79 231.01,259.23 231.01,257.68 C230.99,250.76 226.51,249.19 218.00,253.12 C212.30,255.76 207.70,255.76 202.00,253.12 C199.52,251.98 196.49,251.03 195.25,251.02 C194.01,251.01 193.00,250.54 193.00,249.97 C193.00,247.85 196.25,247.82 201.63,249.88 C208.32,252.44 210.90,252.52 215.78,250.34 C217.83,249.42 221.98,248.41 225.00,248.09 L 230.50 247.50 L 230.78 233.57 C230.94,225.73 231.52,219.08 232.11,218.37 C232.69,217.67 235.49,216.96 238.33,216.80 L 243.50 216.50 L 244.00 185.61 L 244.50 154.71 L 247.32 152.61 C251.11,149.78 258.18,149.73 260.92,152.50 C262.76,154.37 262.95,156.57 263.70,185.50 L 264.50 216.50 L 270.11 216.80 L 275.72 217.09 L 276.36 223.19 C276.71,226.55 277.00,233.69 277.00,239.07 L 277.00 248.86 L 282.31 248.31 C286.49,247.88 288.49,248.21 291.77,249.88 C296.61,252.35 300.43,252.55 305.13,250.59 C309.82,248.64 315.20,248.21 315.73,249.75 C316.01,250.54 315.21,251.00 313.54,251.00 C312.10,251.00 309.06,251.95 306.80,253.10 C301.34,255.89 297.63,255.87 290.74,253.01 C286.05,251.07 284.35,250.81 281.27,251.57 C277.78,252.43 277.47,252.82 276.86,257.00 C276.49,259.48 275.69,262.80 275.07,264.39 C274.45,265.98 274.11,267.45 274.32,267.65 C274.52,267.86 276.39,267.32 278.45,266.45 C282.59,264.73 286.47,265.22 295.23,268.60 C299.91,270.40 300.01,270.39 304.51,268.21 C309.01,266.02 314.00,265.34 315.38,266.71 C316.44,267.77 306.27,271.18 300.50,271.70 C296.87,272.03 294.17,271.58 290.67,270.08 C284.48,267.42 283.42,267.46 276.54,270.61 C271.89,272.74 270.17,274.25 267.28,278.78 C263.87,284.11 263.80,284.38 265.61,285.72 C267.70,287.27 268.79,287.10 277.50,283.96 L 283.50 281.79 L 291.08 283.97 C296.27,285.47 299.90,285.95 302.58,285.51 L 306.50 284.87 L 304.14 286.94 C301.33,289.40 296.40,289.61 291.35,287.50 C286.39,285.43 281.03,285.62 274.79,288.09 C271.30,289.47 268.21,290.01 265.72,289.68 C262.07,289.20 261.83,289.36 258.48,294.59 C254.89,300.21 253.93,300.85 252.24,298.75 ZM 264.61 276.76 L 273.19 261.01 L 273.74 243.15 C274.04,233.33 273.99,224.09 273.62,222.63 L 272.95 219.96 L 253.73 220.23 L 234.50 220.50 L 234.23 239.23 C234.01,254.27 234.26,258.68 235.49,261.63 C236.84,264.86 248.70,286.34 252.75,292.88 C253.26,293.72 253.54,294.42 253.95,294.51 C254.96,294.72 256.74,291.21 264.61,276.76 ZM 166.48 320.13 C153.75,314.35 148.07,299.24 153.84,286.50 C158.65,275.88 163.88,272.66 176.50,272.57 C184.53,272.51 185.99,272.79 190.07,275.19 C201.10,281.67 205.24,296.11 199.41,307.80 C196.40,313.84 190.16,319.58 185.07,321.00 C179.47,322.55 170.93,322.15 166.48,320.13 ZM 320.24 319.03 C310.59,313.37 304.88,301.96 306.99,292.53 C308.43,286.13 310.11,283.13 314.99,278.25 C318.25,274.99 320.31,273.87 324.76,272.95 C335.71,270.67 346.36,273.67 351.56,280.49 C358.96,290.19 358.67,303.88 350.88,313.34 C346.48,318.67 340.84,321.24 332.50,321.71 C326.11,322.08 325.04,321.84 320.24,319.03 ZM 189.14 315.47 C197.80,309.38 201.38,296.84 197.14,287.49 C194.84,282.45 189.19,277.43 184.28,276.06 C178.91,274.57 170.38,274.75 167.15,276.42 C162.59,278.78 156.22,286.46 154.97,291.12 C152.31,300.98 157.56,311.98 167.50,317.40 C169.66,318.57 172.50,318.95 177.69,318.75 C183.80,318.51 185.51,318.02 189.14,315.47 ZM 342.09 316.69 C353.73,310.60 357.51,294.07 349.64,283.75 C343.85,276.16 334.57,272.69 326.12,274.97 C320.89,276.38 314.29,282.18 311.87,287.50 C309.69,292.28 309.46,300.81 311.38,305.28 C312.98,309.00 319.14,315.18 323.50,317.43 C328.06,319.80 336.83,319.45 342.09,316.69 ZM 170.40 232.60 C165.78,227.98 165.48,221.95 169.58,215.95 C171.80,212.69 172.00,211.42 172.00,200.76 C172.00,187.09 172.71,184.65 177.10,183.11 C179.81,182.17 180.94,182.29 183.92,183.84 L 187.50 185.69 L 188.26 200.09 C188.75,209.32 189.61,216.04 190.66,218.78 C194.03,227.61 188.26,236.00 178.82,236.00 C174.44,236.00 173.36,235.56 170.40,232.60 ZM 260.00 186.83 C260.00,160.16 259.81,156.45 258.35,154.83 C256.17,152.42 252.89,152.51 249.63,155.07 L 247.00 157.15 L 247.00 186.41 C247.00,202.50 247.30,215.97 247.67,216.33 C248.03,216.70 250.96,217.00 254.17,217.00 L 260.00 217.00 ZM 325.21 219.03 C322.37,216.98 320.79,214.91 320.06,212.28 C318.50,206.65 318.67,205.75 322.82,197.72 C327.57,188.54 331.73,183.00 333.87,183.00 C337.47,183.01 347.27,201.42 347.18,208.02 C347.01,220.15 335.03,226.15 325.21,219.03 ZM 185.59 230.67 C187.76,228.81 188.32,227.43 188.40,223.78 C188.47,220.68 187.92,218.57 186.71,217.23 C185.35,215.72 184.85,213.25 184.65,206.84 C184.50,202.21 184.04,197.87 183.63,197.20 C183.21,196.54 183.43,194.45 184.11,192.56 C185.11,189.79 185.10,188.83 184.05,187.57 C182.48,185.67 177.66,185.51 176.16,187.30 C175.57,188.02 174.87,194.22 174.61,201.08 C174.19,212.08 173.82,214.16 171.50,218.64 C169.00,223.45 168.94,223.92 170.34,227.26 C171.15,229.20 172.64,231.28 173.66,231.87 C176.93,233.77 182.66,233.19 185.59,230.67 ZM 339.03 217.30 C345.54,212.81 345.72,207.61 339.75,195.91 C337.41,191.32 334.95,187.41 334.28,187.21 C332.81,186.78 325.80,197.34 323.44,203.52 C321.40,208.86 322.08,212.23 325.97,216.13 C329.36,219.52 335.07,220.03 339.03,217.30 ZM 216.53 325.32 C206.64,325.12 198.16,324.56 197.69,324.09 C196.35,322.75 235.71,321.76 274.67,322.15 C305.82,322.46 312.48,322.88 310.92,324.41 C310.28,325.03 236.97,325.74 216.53,325.32 ZM 175.45 228.55 C172.52,225.61 172.29,221.95 174.90,219.59 C176.44,218.20 176.87,216.16 177.15,209.01 C177.34,204.15 177.86,199.80 178.30,199.36 C179.90,197.77 180.97,201.65 180.98,209.12 C181.00,215.35 181.39,217.22 183.12,219.43 C185.89,222.95 185.85,226.90 183.01,229.19 C180.02,231.61 178.38,231.47 175.45,228.55 ZM 323.68 230.55 C315.98,227.81 309.08,218.98 309.02,211.82 C309.00,209.71 308.46,209.06 306.50,208.82 L 304.00 208.50 L 305.98 205.25 C309.07,200.19 312.77,201.41 315.32,208.32 C315.86,209.79 315.61,210.01 313.99,209.50 C312.35,208.98 312.00,209.32 312.00,211.47 C312.00,214.75 315.08,220.84 318.15,223.63 C321.79,226.94 326.64,229.05 332.08,229.70 C334.82,230.02 337.30,230.67 337.59,231.14 C338.43,232.50 327.89,232.05 323.68,230.55 ZM 162.21 302.28 L 162.50 294.57 L 166.30 293.67 C169.38,292.95 170.47,293.11 172.05,294.54 C176.00,298.12 173.03,305.50 167.64,305.50 C166.18,305.50 165.40,306.22 165.18,307.75 C165.00,308.99 164.20,310.00 163.39,310.00 C162.19,310.00 161.97,308.54 162.21,302.28 ZM 277.43 309.96 C269.46,307.02 273.66,295.75 281.68,298.55 C284.01,299.36 284.55,300.20 284.81,303.34 C285.27,308.86 282.11,311.69 277.43,309.96 ZM 177.63 302.74 C176.79,299.62 176.98,292.90 177.96,290.50 C178.84,288.36 178.86,288.39 180.49,293.56 C180.85,294.69 182.02,295.04 184.74,294.81 C188.03,294.54 188.54,294.15 188.82,291.69 C189.34,287.17 191.47,289.18 191.81,294.51 C192.16,299.97 191.42,304.00 190.05,304.00 C189.55,304.00 189.00,303.02 188.82,301.83 C188.48,299.49 184.01,297.40 181.47,298.37 C180.66,298.68 180.00,300.05 180.00,301.41 C180.00,304.67 178.39,305.58 177.63,302.74 ZM 230.12 312.42 C227.50,309.09 227.43,306.82 229.91,304.58 C232.78,301.98 238.06,302.83 239.95,306.20 C241.34,308.70 241.30,309.13 239.38,311.70 C236.52,315.55 232.81,315.84 230.12,312.42 ZM 328.02 306.75 C328.03,306.06 328.92,304.38 330.00,303.00 C332.56,299.73 332.50,299.13 329.31,295.80 L 326.63 293.00 L 329.17 290.25 C330.56,288.74 331.98,286.71 332.32,285.75 C332.66,284.79 333.37,284.00 333.91,284.00 C336.13,284.00 336.03,286.35 333.66,289.94 L 331.12 293.77 L 333.56 296.06 C336.69,299.00 336.64,299.77 332.93,304.27 C329.79,308.07 327.98,308.99 328.02,306.75 ZM 340.61 308.42 C339.11,304.53 340.40,284.00 342.14,284.00 C342.61,284.00 343.00,284.81 343.00,285.81 C343.00,286.80 343.64,288.49 344.42,289.56 C345.39,290.89 345.52,291.87 344.83,292.71 C344.27,293.38 343.57,297.54 343.27,301.96 C342.73,309.70 341.89,311.76 340.61,308.42 ZM 320.58 305.89 C319.83,300.26 320.77,287.36 322.10,285.00 C322.59,284.13 322.95,289.25 322.97,297.25 C323.00,311.11 321.83,315.33 320.58,305.89 ZM 182.03 225.94 C183.44,223.32 181.59,220.77 178.60,221.20 C176.16,221.55 175.31,224.47 177.04,226.55 C178.74,228.60 180.74,228.35 182.03,225.94 ZM 171.00 299.66 C171.00,297.84 168.89,296.00 166.80,296.00 C165.48,296.00 165.00,296.77 165.00,298.92 C165.00,300.52 165.56,302.04 166.25,302.28 C167.96,302.89 171.00,301.22 171.00,299.66 ZM 327.55 212.44 C325.01,208.57 326.18,207.44 329.68,210.39 C331.39,211.82 333.51,213.00 334.39,213.00 C335.28,213.00 336.00,213.45 336.00,214.00 C336.00,214.55 334.48,215.00 332.62,215.00 C330.09,215.00 328.81,214.35 327.55,212.44 ZM 237.39 309.72 C238.25,308.35 238.16,307.73 237.00,306.99 C234.81,305.59 233.02,305.79 232.36,307.50 C230.80,311.57 235.07,313.46 237.39,309.72 ZM 281.96 305.54 C283.57,303.61 282.45,302.00 279.50,302.00 C278.19,302.00 276.83,302.47 276.47,303.04 C275.69,304.31 277.75,307.00 279.50,307.00 C280.19,307.00 281.30,306.34 281.96,305.54 ZM 260.10 311.06 C258.58,310.13 259.28,307.00 261.00,307.00 C262.46,307.00 263.47,309.93 262.37,311.03 C261.87,311.53 260.88,311.54 260.10,311.06 ZM 212.45 305.91 C211.57,304.50 213.50,302.57 214.91,303.45 C215.51,303.82 216.00,304.77 216.00,305.56 C216.00,307.24 213.43,307.50 212.45,305.91 ZM 295.45 305.91 C295.08,305.31 295.24,304.36 295.80,303.80 C297.06,302.54 299.00,303.60 299.00,305.56 C299.00,307.24 296.43,307.50 295.45,305.91 ZM 263.00 247.56 C263.00,245.50 265.07,244.50 266.05,246.07 C266.50,246.81 266.65,247.76 266.38,248.20 C265.53,249.56 263.00,249.08 263.00,247.56 ZM 242.69 239.35 C241.31,237.98 242.03,235.86 243.75,236.19 C244.71,236.38 245.50,237.16 245.50,237.93 C245.50,239.51 243.74,240.40 242.69,239.35 ZM 254.00 259.56 C254.00,258.77 254.40,257.87 254.89,257.57 C255.99,256.89 258.23,259.44 257.32,260.34 C256.13,261.53 254.00,261.03 254.00,259.56 ZM 252.64 275.31 C251.44,274.11 251.99,272.00 253.50,272.00 C254.32,272.00 255.00,272.65 255.00,273.44 C255.00,275.11 253.57,276.24 252.64,275.31 ZM 252.46 162.93 C251.54,161.44 252.61,160.63 254.52,161.37 C255.40,161.71 255.85,162.44 255.50,162.99 C254.69,164.30 253.29,164.28 252.46,162.93 ZM 330.69 312.36 C329.89,311.56 330.80,310.00 332.06,310.00 C332.58,310.00 333.00,310.67 333.00,311.50 C333.00,313.05 331.82,313.49 330.69,312.36 Z" fill="rgba(24,95,172,1)"/>
<path d="M 220.00 410.55 C220.00,409.99 214.41,407.49 197.50,400.50 C162.62,386.07 135.09,375.00 134.08,375.00 C133.65,375.00 133.49,375.26 133.59,375.78 C133.44,375.23 133.48,374.85 133.71,374.63 C134.50,373.83 131.67,373.81 129.63,374.59 C128.53,375.01 129.64,377.10 134.50,383.50 C129.23,376.74 127.33,375.00 125.41,375.00 C121.31,375.00 119.14,373.23 117.99,368.94 C117.29,366.36 116.29,364.85 112.46,361.74 C116.84,364.95 117.90,365.19 118.75,364.15 C120.19,362.38 120.42,360.62 119.11,361.43 C119.11,361.43 119.11,361.43 119.10,361.44 C119.55,361.14 119.53,359.89 119.06,358.65 C118.01,355.89 97.03,310.38 90.54,296.78 C83.14,281.27 82.55,282.49 86.47,305.19 C90.07,326.01 93.43,340.48 95.35,343.41 C96.42,345.05 102.42,350.00 108.12,354.30 C107.78,354.05 107.45,353.80 107.11,353.54 L 96.00 345.10 L 96.00 348.52 C96.00,350.66 96.36,351.66 97.09,351.55 C96.85,352.92 97.84,357.12 100.57,366.80 C103.82,378.37 104.50,379.82 108.45,383.71 C112.84,388.04 113.46,388.30 135.00,394.90 C142.83,397.29 143.00,397.32 143.00,395.77 C143.00,395.79 143.00,395.80 143.00,395.81 C143.00,396.49 144.16,397.49 145.58,398.03 C147.00,398.57 147.99,399.52 147.78,400.15 C147.35,401.44 166.06,419.66 180.41,432.16 C174.06,426.69 167.65,420.79 160.95,414.30 L 148.04 401.79 L 131.27 396.85 C120.84,393.78 112.23,391.84 108.50,391.71 L 102.50 391.50 L 101.35 383.91 C100.71,379.74 98.25,369.45 95.88,361.04 C91.83,346.68 91.32,345.54 87.53,342.15 C80.38,335.76 73.12,328.58 66.03,320.93 C68.52,323.56 71.05,326.17 73.64,328.75 C81.49,336.59 88.39,343.00 88.96,343.00 C89.53,343.00 90.00,341.44 90.00,339.53 C90.00,336.83 89.69,336.22 88.49,336.64 C88.80,336.31 89.00,335.77 89.00,335.16 C89.00,334.14 87.64,326.62 85.99,318.44 C84.33,310.26 82.10,296.97 81.02,288.90 C79.28,275.86 78.54,273.04 74.39,263.61 L 69.71 253.00 L 66.15 253.00 C63.61,253.00 61.73,252.18 59.55,250.12 L 56.50 247.25 L 51.40 247.44 C54.90,247.06 57.00,246.52 57.00,245.89 C57.00,245.56 53.87,245.21 49.34,244.99 C56.86,244.92 57.17,244.53 58.77,242.34 C60.19,240.40 61.91,239.51 65.11,239.09 C69.38,238.52 69.61,238.30 73.28,231.28 C77.59,223.05 79.21,216.70 81.47,199.00 C82.36,192.12 84.41,179.75 86.03,171.50 C87.66,163.25 88.99,156.16 89.00,155.75 C89.00,155.65 88.99,155.56 88.98,155.48 C89.77,155.54 90.00,154.59 90.00,151.86 L 90.00 147.79 L 82.25 154.81 C80.19,156.68 78.06,158.69 75.90,160.81 C77.86,158.87 79.77,157.04 81.62,155.33 C90.69,146.99 91.70,145.69 92.93,140.83 C93.67,137.90 96.03,129.65 98.18,122.50 C101.01,113.05 101.91,108.51 101.47,105.89 C100.62,100.75 102.92,98.61 108.44,99.44 C111.56,99.91 115.35,99.22 124.03,96.60 C130.34,94.70 138.43,92.41 142.00,91.51 C148.26,89.93 148.95,89.42 161.00,77.59 C166.07,72.61 170.82,68.07 175.38,63.88 C164.80,73.74 151.00,87.31 151.00,88.03 C151.00,88.34 152.57,88.41 154.49,88.19 C156.41,87.97 157.77,87.44 157.51,87.01 C157.50,87.00 157.50,86.99 157.49,86.97 C157.96,87.29 162.01,86.80 166.70,85.84 C171.54,84.86 182.25,82.92 190.50,81.54 C198.75,80.16 211.35,78.39 218.50,77.60 C229.87,76.35 239.71,73.86 243.61,71.25 C244.22,70.84 245.45,69.07 246.35,67.32 C247.25,65.57 248.88,63.85 249.99,63.50 C251.90,62.90 252.00,62.02 252.00,46.05 C252.00,59.57 252.24,62.00 253.50,62.00 C254.77,62.00 255.00,59.50 255.00,45.54 L 255.00 61.84 L 260.06 66.87 C266.80,73.58 273.09,75.87 289.50,77.62 C304.59,79.23 315.34,80.98 334.05,84.88 C341.45,86.42 347.86,87.48 348.31,87.24 C348.34,87.23 348.37,87.20 348.40,87.18 C348.21,87.62 349.22,88.23 350.71,88.56 C352.24,88.90 353.95,89.33 354.50,89.51 C358.98,91.00 357.76,89.04 346.39,78.07 C355.72,86.85 359.72,90.00 362.04,90.50 C363.94,90.91 371.58,93.01 379.00,95.18 C386.42,97.35 394.75,99.14 397.50,99.16 C403.94,99.22 405.05,100.22 404.92,105.88 C404.85,108.75 406.75,117.21 409.94,128.19 L 415.06 145.88 L 422.43 153.24 C418.42,149.38 415.67,147.00 415.36,147.30 C415.03,147.63 415.06,149.50 415.43,151.45 C415.89,153.94 416.62,155.00 417.88,155.00 C418.04,155.00 418.34,155.15 418.75,155.42 C417.37,154.71 417.06,155.40 417.49,157.25 C419.34,165.19 424.19,192.86 425.94,205.49 C427.65,217.90 428.59,221.70 431.39,227.49 C435.90,236.83 436.93,238.01 441.02,238.51 C443.07,238.77 445.37,239.95 446.63,241.39 C448.53,243.57 449.83,244.33 455.66,244.64 C449.11,244.53 448.00,244.84 448.00,245.93 C448.00,246.52 448.42,246.91 449.94,247.18 L 447.13 250.18 C445.37,252.06 443.19,253.28 441.39,253.38 C436.96,253.62 436.05,254.62 431.80,263.80 C428.38,271.21 427.61,274.29 425.89,287.35 C424.80,295.62 422.44,310.18 420.64,319.71 C418.92,328.80 417.69,336.50 417.79,337.40 C417.74,337.39 417.69,337.36 417.66,337.33 C416.97,336.64 415.00,341.34 415.00,343.66 C415.00,344.83 418.16,342.48 422.89,338.19 L 415.09 345.97 L 410.38 362.74 C407.79,371.96 405.40,382.20 405.08,385.50 L 404.50 391.50 L 398.50 391.58 C394.22,391.64 387.62,393.19 375.50,396.98 L 358.50 402.30 L 346.97 413.17 C347.15,413.00 347.32,412.83 347.50,412.66 C358.31,402.29 358.44,402.10 355.25,402.05 C353.46,402.02 352.00,401.59 352.00,401.09 C352.00,400.60 351.21,400.34 350.25,400.54 C349.47,400.69 348.72,400.84 347.99,400.99 C349.63,400.60 351.08,400.24 352.29,399.91 C355.17,399.14 357.11,397.46 362.72,390.49 C362.50,390.77 362.28,391.05 362.06,391.32 L 356.71 398.15 L 360.10 397.82 C361.97,397.65 363.41,397.02 363.31,396.43 C363.25,396.09 364.36,394.27 366.11,391.75 C363.13,396.14 363.21,397.36 365.83,396.60 C366.75,396.34 373.31,394.44 380.41,392.38 C392.08,388.99 393.72,388.23 397.59,384.35 C401.22,380.73 402.41,378.42 405.35,369.29 C408.49,359.56 409.97,353.72 409.81,351.75 C409.87,351.81 409.92,351.87 409.96,351.94 C410.47,352.76 410.91,351.73 411.16,349.12 C411.38,346.85 411.40,345.00 411.20,345.00 C411.04,345.00 407.28,347.85 402.44,351.63 C406.89,348.09 410.61,344.98 411.31,344.20 C414.14,341.06 424.97,285.00 422.75,285.00 C421.80,285.00 415.67,297.68 400.12,331.79 C390.46,352.99 387.00,360.86 387.00,361.62 C387.00,361.90 387.13,362.06 387.39,362.07 C386.86,362.24 386.98,362.78 387.61,364.42 C388.45,366.61 388.89,366.47 394.00,362.37 C397.33,359.70 399.96,357.61 402.06,356.02 C396.20,360.59 389.00,366.77 389.00,367.59 C389.00,371.91 384.62,376.00 379.98,376.00 C378.72,376.00 375.45,379.37 370.58,385.69 C370.53,385.76 370.47,385.83 370.42,385.90 C370.47,385.84 370.51,385.78 370.56,385.72 C374.65,380.41 378.00,375.88 378.00,375.65 C378.00,375.42 377.08,374.99 375.95,374.70 C374.46,374.31 373.66,374.77 373.04,376.39 C373.02,376.43 373.00,376.48 372.98,376.54 C372.75,374.91 368.89,376.38 330.00,392.31 C300.07,404.57 287.80,409.54 288.16,410.77 C288.42,411.64 295.13,410.61 306.46,408.97 C314.22,407.85 326.05,405.67 336.24,403.56 C330.80,404.91 328.33,405.88 328.33,406.62 C328.33,407.64 328.39,408.06 330.58,407.82 C312.38,411.10 301.07,412.76 288.50,414.02 C275.64,415.31 266.17,418.09 262.86,421.56 C261.56,422.91 259.26,425.24 257.75,426.73 L 255.00 429.45 L 255.00 445.93 C255.00,431.55 254.77,429.00 253.50,429.00 C252.23,429.00 252.00,431.49 252.00,445.42 L 252.00 461.84 L 251.99 445.17 L 251.99 428.50 L 248.99 426.80 C247.35,425.86 246.00,424.47 246.00,423.70 C246.00,419.27 238.15,416.58 217.68,414.00 C205.89,412.51 178.09,407.99 165.60,405.63 C166.53,405.69 166.81,405.50 166.52,405.04 C166.17,404.47 166.43,404.00 167.11,404.00 C169.85,404.00 166.78,402.69 159.84,400.87 C181.92,406.31 220.00,412.50 220.00,410.55 ZM 285.50 407.24 C292.10,404.42 311.45,396.40 328.50,389.42 C345.55,382.45 362.72,375.41 366.65,373.78 C373.13,371.11 373.87,370.52 374.43,367.52 C375.15,363.71 376.37,362.45 380.32,361.46 C380.73,361.35 381.06,361.31 381.37,361.20 C383.47,360.53 384.77,357.43 402.19,319.50 C408.26,306.30 415.87,289.75 419.11,282.73 L 425.00 269.95 L 425.00 221.28 L 421.97 215.39 C420.31,212.15 413.30,197.35 406.40,182.50 C382.33,130.72 383.12,132.22 378.66,129.73 C375.87,128.17 374.31,126.44 373.50,124.00 C372.85,122.04 371.28,119.98 369.92,119.32 C368.59,118.68 346.58,109.46 321.00,98.83 L 274.50 79.52 L 255.35 79.20 L 236.20 78.88 L 228.85 81.81 C201.20,92.81 149.94,113.97 142.25,117.55 C135.48,120.71 133.00,122.36 133.00,123.71 C133.00,126.37 130.18,130.00 128.12,130.00 C125.74,130.00 122.46,133.65 120.45,138.51 C119.54,140.71 116.20,148.12 113.01,155.00 C109.82,161.88 101.48,179.88 94.46,195.00 L 81.72 222.50 L 81.26 239.00 C80.96,249.76 80.67,256.25 81.56,262.58 C83.11,273.60 88.23,284.13 103.09,315.88 C121.73,355.72 123.65,359.37 126.52,360.57 C130.20,362.11 131.39,363.44 132.68,367.45 C133.53,370.07 135.19,371.06 147.57,376.28 C173.49,387.22 234.48,411.80 237.00,412.31 C238.38,412.59 247.15,412.72 256.50,412.60 L 273.50 412.37 ZM 91.21 194.12 C104.22,166.46 118.99,133.88 119.57,131.57 C119.93,130.16 119.89,129.00 119.50,129.00 C119.09,129.00 113.77,133.03 108.17,137.43 C113.61,132.87 118.69,128.31 118.45,127.92 C118.04,127.25 116.87,127.63 113.39,129.96 C114.19,129.40 114.83,128.97 115.25,128.70 C117.26,127.43 118.00,126.14 118.00,123.93 C118.00,120.30 121.89,116.01 125.20,115.98 C126.20,115.98 127.34,115.77 128.05,115.48 C127.80,116.14 128.46,116.97 129.75,117.31 C132.43,118.01 132.74,118.05 132.67,116.94 C133.90,117.01 136.98,115.93 143.00,113.40 C147.68,111.44 166.35,103.78 184.50,96.37 C202.64,88.97 217.92,82.48 218.45,81.95 C219.90,80.50 215.09,80.78 199.50,83.06 C178.57,86.13 152.93,91.76 150.67,93.77 C149.83,94.53 147.38,97.32 144.52,100.69 C148.28,96.07 150.93,92.59 150.77,92.44 C150.59,92.25 148.50,92.59 146.14,93.19 C143.44,93.88 142.30,94.57 143.08,95.05 C143.11,95.07 143.14,95.09 143.17,95.12 C141.23,94.87 133.94,96.63 122.69,100.10 C108.87,104.36 106.30,107.13 101.14,123.37 C96.07,139.35 95.70,141.00 97.14,141.00 C97.29,141.00 97.59,140.88 98.02,140.66 C97.44,141.00 97.00,141.24 96.75,141.32 C95.71,141.69 95.00,142.96 95.00,144.47 C95.00,145.86 95.28,147.00 95.61,147.00 C95.92,147.00 97.10,146.21 98.78,144.96 C96.58,146.77 95.04,148.11 94.78,148.48 C92.75,151.36 84.00,195.45 84.00,202.78 C84.00,207.92 85.67,205.92 91.21,194.12 ZM 421.01 191.70 C418.50,176.43 413.28,151.26 412.27,149.63 C412.10,149.35 411.82,149.00 411.39,148.57 C413.10,150.01 413.04,148.79 411.57,143.50 C410.80,140.75 410.14,139.06 410.09,139.75 C410.04,140.44 409.65,141.00 409.23,141.00 C409.08,141.00 408.60,140.75 407.89,140.30 C409.63,141.26 410.00,140.88 410.00,139.60 C410.00,138.82 407.98,131.91 405.50,124.23 C401.42,111.54 400.62,109.90 396.75,106.34 C393.07,102.95 390.72,101.91 379.23,98.64 C371.93,96.56 365.23,95.01 364.35,95.18 C363.13,95.42 364.10,97.29 368.43,103.00 C369.57,104.50 370.59,105.84 371.50,107.02 C368.51,103.20 365.49,99.16 364.57,97.75 C362.83,95.09 362.83,95.00 364.63,94.92 C367.10,94.82 360.23,92.18 357.25,92.08 C355.82,92.03 356.03,92.96 359.40,97.36 C354.57,91.91 352.07,91.44 343.26,89.48 C333.58,87.32 305.76,82.47 292.25,80.57 C289.91,80.24 288.00,80.36 288.00,80.83 C288.00,80.95 287.96,81.04 287.96,81.13 C287.91,81.97 290.49,82.97 348.00,106.53 C353.77,108.90 361.65,112.19 365.50,113.85 C369.35,115.50 372.66,116.42 372.85,115.88 C372.97,115.55 372.14,114.05 370.78,112.02 C372.16,113.97 373.00,115.32 373.00,115.66 C373.00,117.14 376.56,117.51 377.43,116.12 C377.70,115.67 375.69,112.45 372.86,108.76 C377.84,115.06 379.31,116.00 381.85,116.00 C385.28,116.00 387.53,118.33 388.50,122.91 C389.12,125.79 390.38,127.52 396.26,132.03 C394.60,130.76 393.07,129.56 391.91,128.58 C389.85,126.84 388.37,126.23 387.74,126.86 C386.59,128.01 386.89,128.80 392.76,133.50 C387.13,129.19 386.82,129.34 387.29,131.64 C387.93,134.76 405.30,173.42 415.76,195.00 C419.87,203.49 422.46,207.83 422.73,206.70 C422.97,205.70 422.19,198.95 421.01,191.70 ZM 432.09 255.83 C433.76,252.55 434.13,250.37 433.80,245.58 C433.40,239.56 431.21,233.27 429.68,233.75 C429.25,233.89 428.80,239.65 428.68,246.56 C428.42,261.92 428.65,262.56 432.09,255.83 ZM 77.78 238.70 L 77.48 231.50 L 75.06 236.50 C71.79,243.25 71.77,249.97 75.01,256.50 L 77.49 261.50 L 77.79 253.70 C77.95,249.42 77.95,242.67 77.78,238.70 ZM 255.78 73.44 C259.54,70.81 258.06,66.00 253.50,66.00 C249.29,66.00 247.55,70.41 250.57,73.43 C252.52,75.38 253.01,75.38 255.78,73.44 ZM 256.97 422.61 C258.05,419.75 256.43,417.00 253.66,417.00 C249.10,417.00 247.68,420.68 250.98,423.98 C253.27,426.27 255.80,425.70 256.97,422.61 ZM 129.73 369.32 C129.91,368.76 129.24,367.28 128.22,366.02 C126.88,364.37 125.79,363.93 124.24,364.42 C120.93,365.47 120.30,369.01 123.02,371.21 C124.99,372.81 125.56,372.87 127.34,371.69 C128.47,370.94 129.54,369.87 129.73,369.32 ZM 128.44 126.07 C131.13,123.09 129.66,120.00 125.55,120.00 C121.40,120.00 120.13,123.13 123.07,126.07 C125.48,128.48 126.25,128.48 128.44,126.07 ZM 385.00 368.59 C385.00,365.11 382.53,363.44 379.47,364.83 C376.47,366.20 376.32,368.32 379.02,371.02 C380.63,372.63 381.45,372.83 383.02,371.99 C384.13,371.40 385.00,369.90 385.00,368.59 ZM 384.50 123.00 C384.50,120.11 384.10,119.44 382.19,119.17 C377.94,118.57 375.34,122.94 378.24,125.84 C378.93,126.53 380.61,126.95 381.99,126.79 C384.14,126.54 384.50,125.99 384.50,123.00 ZM 444.50 246.61 C444.50,241.40 438.16,240.37 437.17,245.42 C436.52,248.72 437.84,250.14 441.24,249.81 C444.10,249.54 444.50,249.14 444.50,246.61 ZM 67.95 248.56 C69.99,246.11 68.84,242.54 65.91,242.20 C62.29,241.78 60.36,244.30 61.83,247.53 C63.08,250.27 66.11,250.78 67.95,248.56 ZM 218.50 81.00 C218.84,81.55 219.54,82.00 220.06,82.00 C220.58,82.00 221.00,81.55 221.00,81.00 C221.00,80.45 220.30,80.00 219.44,80.00 C218.58,80.00 218.16,80.45 218.50,81.00 ZM 270.24 22.96 C278.61,27.54 288.32,33.91 298.32,41.29 C288.31,34.17 276.31,26.28 270.24,22.96 ZM 434.84 170.37 C440.75,176.35 446.84,182.87 450.69,187.50 C452.50,189.68 454.37,192.01 456.27,194.44 C449.77,186.40 442.65,178.41 434.84,170.37 ZM 50.96 193.79 C55.38,188.17 59.67,182.97 63.23,178.99 C68.35,173.27 73.16,168.22 77.19,164.27 C68.87,172.50 59.64,182.95 50.96,193.79 ZM 155.53 399.76 L 150.63 398.50 L 145.51 392.24 C150.05,397.72 151.19,398.57 155.53,399.76 ZM 76.15 326.38 C68.31,318.61 58.39,307.86 51.51,299.32 C57.21,306.39 67.85,317.93 76.15,326.38 ZM 269.59 472.23 C289.61,460.33 306.54,448.48 323.37,434.39 C306.43,448.65 290.19,459.98 269.59,472.23 ZM 432.22 163.01 C439.05,169.84 445.15,176.32 450.82,182.84 C445.35,176.73 438.47,169.42 432.22,163.01 ZM 475.81 245.00 L 475.64 245.24 L 463.03 244.84 C463.55,244.85 464.10,244.86 464.66,244.86 L 475.81 245.00 ZM 320.04 58.52 C324.07,61.96 328.03,65.47 331.85,69.00 C338.01,74.71 342.11,78.60 344.70,81.29 C339.58,76.08 329.17,66.50 320.04,58.52 ZM 24.57 254.95 C25.43,254.23 26.79,252.38 27.59,250.82 C28.93,248.24 29.13,248.02 36.48,248.00 C28.90,248.35 28.66,248.76 27.52,250.95 C26.76,252.43 25.43,254.23 24.57,254.95 ZM 464.61 199.84 C471.30,208.72 477.72,218.20 484.50,229.11 C478.54,219.53 471.29,208.88 464.61,199.84 ZM 27.95 241.38 C27.20,240.18 26.12,238.54 25.18,237.22 L 22.86 233.94 L 25.43 237.32 C26.67,238.94 27.71,240.63 27.95,241.38 ZM 198.54 44.23 C209.70,35.63 221.18,28.10 235.31,19.80 C221.45,27.94 209.50,35.87 198.54,44.23 ZM 475.22 277.35 C469.18,286.16 462.24,295.89 458.49,300.62 C457.52,301.84 456.18,303.42 454.58,305.24 C455.95,303.63 457.24,302.08 458.41,300.62 C462.19,295.90 469.16,286.18 475.22,277.35 ZM 338.52 406.43 C338.72,406.39 338.93,406.35 339.14,406.31 C343.99,405.38 348.28,404.94 348.67,405.34 C348.67,405.34 348.68,405.34 348.68,405.35 C348.33,405.06 344.13,405.53 338.52,406.43 ZM 366.63 385.53 C369.08,382.37 371.11,379.65 372.18,378.10 C371.52,379.23 370.63,380.53 369.80,381.56 C369.16,382.35 367.99,383.81 366.63,385.53 ZM 142.75 97.03 C141.90,98.63 140.03,101.23 137.00,105.05 C139.35,101.95 141.57,98.88 142.75,97.03 ZM 262.88 467.94 C262.70,467.75 262.50,467.53 262.28,467.30 C261.24,466.19 259.89,465.07 258.73,464.34 C260.27,465.14 261.95,466.53 262.69,467.65 C262.76,467.75 262.82,467.85 262.88,467.94 ZM 481.50 231.03 C481.70,231.42 481.87,231.78 482.02,232.11 C482.74,233.72 482.85,234.60 481.75,236.52 C482.05,235.94 482.26,235.40 482.34,234.84 C482.51,233.77 482.26,232.63 481.50,231.03 ZM 458.98 294.50 C454.82,299.87 449.79,305.85 444.68,311.59 C449.91,305.64 455.69,298.75 458.98,294.50 ZM 470.45 248.18 C474.32,248.44 476.73,248.80 476.87,249.18 C477.07,249.74 478.53,251.67 480.12,253.48 C478.53,251.67 477.07,249.77 476.87,249.24 C476.74,248.91 474.18,248.51 470.45,248.18 ZM 391.34 360.04 C389.59,361.26 388.40,362.00 388.13,362.00 C388.02,362.00 387.92,362.00 387.83,362.01 C388.53,361.81 389.68,361.17 391.34,360.04 ZM 172.96 70.75 C181.05,62.98 190.25,54.56 195.09,50.79 C190.40,54.45 181.12,62.93 172.96,70.75 ZM 475.16 220.56 C476.94,223.26 478.49,225.72 479.71,227.80 C478.71,226.13 477.40,224.08 475.76,221.50 C475.56,221.19 475.36,220.87 475.16,220.56 ZM 275.67 22.06 C290.55,30.97 302.63,39.36 315.72,50.24 C302.62,39.37 290.50,30.93 275.67,22.06 ZM 337.26 417.95 C328.44,426.15 316.03,436.74 305.48,444.73 C301.80,447.52 295.37,451.92 288.82,456.21 C295.45,451.85 301.95,447.41 305.48,444.73 C315.98,436.77 328.42,426.16 337.26,417.95 ZM 243.95 468.09 C243.39,469.14 242.26,470.00 241.43,470.00 C241.37,470.00 241.28,469.98 241.16,469.95 C241.18,469.95 241.20,469.95 241.21,469.95 C242.16,469.98 243.39,469.14 243.95,468.09 ZM 161.69 404.85 C160.80,404.66 160.14,404.50 159.75,404.39 C159.12,404.20 158.65,404.14 158.36,404.22 C158.65,404.13 159.11,404.17 159.75,404.34 C160.45,404.53 161.10,404.70 161.69,404.85 ZM 158.88 406.61 C160.22,408.52 163.02,411.54 167.25,415.61 C168.74,417.05 170.30,418.52 171.92,420.01 C170.29,418.51 168.72,417.04 167.25,415.62 C163.00,411.52 160.21,408.52 158.88,406.61 ZM 205.07 447.36 C207.63,449.21 210.64,451.29 213.80,453.42 C210.93,451.50 208.25,449.66 206.00,448.03 C205.69,447.81 205.38,447.59 205.07,447.36 ZM 348.16 85.47 C348.54,86.13 348.63,86.60 348.50,86.96 C348.58,86.63 348.45,86.08 348.16,85.47 ZM 427.22 329.98 C425.62,331.52 424.16,332.88 422.89,333.99 C424.16,332.87 425.62,331.51 427.22,329.98 ZM 138.88 383.99 C138.00,382.85 137.23,381.81 136.57,380.89 C137.23,381.82 138.00,382.85 138.88,383.99 Z" fill="rgba(155,200,105,1)"/>
<path d="M 245.29 483.52 C244.29,482.31 243.18,480.42 242.51,478.66 C240.99,474.68 239.83,473.70 228.67,467.00 C212.52,457.28 198.91,447.67 185.37,436.39 C170.85,424.31 147.30,401.59 147.78,400.15 C147.99,399.52 147.00,398.57 145.58,398.03 C144.16,397.49 143.00,396.49 143.00,395.81 C143.00,395.13 139.65,390.21 135.55,384.87 C129.80,377.39 128.45,375.04 129.63,374.59 C131.67,373.81 134.50,373.83 133.71,374.63 C132.69,375.64 135.44,379.92 143.27,389.50 L 150.63 398.50 L 158.84 400.61 C166.48,402.57 169.97,404.00 167.11,404.00 C166.43,404.00 166.17,404.47 166.52,405.04 C167.13,406.01 165.19,405.81 159.75,404.34 C155.88,403.29 158.42,407.11 167.25,415.62 C178.06,426.04 193.98,439.35 206.00,448.03 C217.35,456.23 239.56,470.00 241.43,470.00 C242.26,470.00 243.39,469.14 243.95,468.09 C244.51,467.04 246.56,465.20 248.49,464.01 L 249.11 463.62 C245.81,465.87 241.50,470.50 241.27,472.50 C240.96,475.19 243.16,480.92 245.29,483.52 ZM 263.37 468.44 C265.15,470.24 265.65,470.06 268.37,468.77 C273.87,466.14 296.99,451.17 305.48,444.73 C324.74,430.13 350.22,406.89 348.67,405.34 C348.28,404.94 343.99,405.38 339.14,406.31 C328.50,408.35 328.33,408.36 328.33,406.62 C328.33,405.41 334.88,403.59 350.25,400.54 C351.21,400.34 352.00,400.60 352.00,401.09 C352.00,401.59 353.46,402.02 355.25,402.05 C358.44,402.10 358.31,402.29 347.50,412.66 C321.86,437.28 299.08,454.70 269.59,472.23 C266.63,473.98 265.00,475.65 265.00,476.90 C265.00,477.88 263.75,480.02 262.14,481.87 C265.84,477.61 266.27,473.00 263.37,468.44 ZM 354.50 89.51 C353.95,89.33 352.24,88.90 350.71,88.56 C349.17,88.22 348.14,87.58 348.42,87.13 C349.31,85.70 346.13,82.22 331.85,69.00 C311.94,50.57 288.05,32.72 270.24,22.96 L 265.98 20.62 L 264.03 22.47 C265.37,21.10 266.18,20.00 265.64,20.00 C265.23,20.00 265.32,19.25 265.84,18.33 C266.41,17.31 265.64,14.98 264.29,12.62 C266.49,15.97 269.12,18.13 275.67,22.06 C299.59,36.37 316.47,49.55 341.75,73.63 C357.38,88.51 359.52,91.18 354.50,89.51 ZM 9.85 236.17 C11.64,234.81 13.54,234.00 15.69,233.66 C19.73,233.02 20.09,232.65 25.33,223.75 C37.62,202.88 62.64,172.58 82.25,154.81 L 90.00 147.79 L 90.00 151.86 C90.00,155.07 89.68,155.82 88.50,155.36 C86.75,154.69 75.95,164.78 63.23,178.99 C52.94,190.50 36.56,212.16 28.66,224.72 L 22.86 233.94 L 24.40 236.13 C23.43,235.11 22.37,234.33 21.33,233.94 C18.18,232.74 13.33,233.79 9.85,236.17 ZM 73.64 328.75 C56.81,311.97 42.26,294.07 29.13,274.00 C23.91,266.02 19.16,259.17 18.57,258.77 C18.20,258.51 17.40,258.29 16.48,258.15 C20.10,258.14 23.63,256.21 25.97,253.37 C25.47,254.04 24.96,254.62 24.57,254.95 C23.70,255.66 23.00,256.81 23.00,257.51 C23.00,259.61 42.19,287.75 51.51,299.32 C63.96,314.77 86.36,337.46 88.40,336.68 C89.68,336.19 90.00,336.76 90.00,339.53 C90.00,341.44 89.53,343.00 88.96,343.00 C88.39,343.00 81.49,336.59 73.64,328.75 ZM 243.09 23.61 C242.02,22.68 240.88,22.00 240.29,22.00 C236.46,22.00 212.09,37.52 195.09,50.79 C185.15,58.54 156.80,85.87 157.51,87.01 C157.77,87.44 156.41,87.97 154.49,88.19 C152.57,88.41 151.00,88.34 151.00,88.03 C151.00,87.13 172.65,66.06 182.50,57.38 C197.84,43.87 214.41,32.07 235.31,19.80 C238.25,18.08 240.63,15.68 241.92,13.15 C241.94,13.11 241.96,13.08 241.98,13.04 C239.95,17.08 240.28,20.49 243.09,23.61 ZM 481.36 237.16 C482.86,234.78 482.82,233.89 482.02,232.11 C478.64,224.61 462.98,202.31 450.69,187.50 C441.58,176.52 419.85,155.00 417.88,155.00 C416.62,155.00 415.89,153.94 415.43,151.45 C415.06,149.50 415.03,147.63 415.36,147.30 C416.46,146.21 448.52,179.26 458.24,191.50 C466.35,201.71 476.57,216.36 484.50,229.11 C486.70,232.64 488.06,233.58 492.38,234.49 C493.00,234.62 493.78,234.95 494.59,235.39 C491.80,234.10 488.38,233.51 485.00,233.85 C484.09,233.94 482.72,235.31 481.36,237.16 ZM 415.00 343.66 C415.00,341.34 416.97,336.64 417.66,337.33 C419.47,339.14 444.52,313.17 458.98,294.50 C468.56,282.12 483.00,260.36 483.00,258.30 C483.00,257.81 482.56,256.86 481.87,255.80 C482.73,256.75 483.62,257.59 484.50,258.23 C485.65,259.08 487.57,259.19 489.68,258.76 C487.84,259.29 486.28,260.27 485.68,261.32 C481.62,268.46 465.08,292.30 458.41,300.62 C444.52,317.96 415.00,347.23 415.00,343.66 ZM 373.00 115.66 C373.00,114.92 368.95,109.30 364.00,103.16 C356.37,93.70 355.34,92.01 357.25,92.08 C360.23,92.18 367.10,94.82 364.63,94.92 C362.83,95.00 362.83,95.09 364.57,97.75 C365.56,99.26 368.98,103.82 372.17,107.87 C375.36,111.92 377.73,115.63 377.43,116.12 C376.56,117.51 373.00,117.14 373.00,115.66 ZM 410.50 147.73 C409.40,146.65 403.90,142.19 398.27,137.82 C387.14,129.18 386.30,128.30 387.74,126.86 C388.37,126.23 389.85,126.84 391.91,128.58 C396.87,132.75 408.37,141.00 409.23,141.00 C409.65,141.00 410.04,140.44 410.09,139.75 C410.14,139.06 410.80,140.75 411.57,143.50 C413.26,149.59 413.08,150.29 410.50,147.73 ZM 129.75 117.31 C127.96,116.84 127.40,115.43 128.75,114.83 C129.17,114.65 132.84,110.30 136.91,105.16 C142.14,98.57 143.96,95.59 143.08,95.05 C142.30,94.57 143.44,93.88 146.14,93.19 C148.50,92.59 150.59,92.25 150.77,92.44 C150.96,92.63 146.93,97.83 141.81,104.00 C136.69,110.17 132.56,115.84 132.64,116.61 C132.78,118.05 132.67,118.07 129.75,117.31 ZM 387.61 364.42 C386.78,362.25 386.83,362.00 388.13,362.00 C388.75,362.00 394.12,358.17 400.06,353.50 C406.00,348.83 411.01,345.00 411.20,345.00 C411.40,345.00 411.38,346.85 411.16,349.12 C410.91,351.73 410.47,352.76 409.96,351.94 C409.15,350.63 406.29,352.50 394.00,362.37 C388.89,366.47 388.45,366.61 387.61,364.42 ZM 108.00 358.38 C102.78,354.36 97.94,351.27 97.25,351.51 C96.41,351.80 96.00,350.82 96.00,348.52 L 96.00 345.10 L 107.11 353.54 C113.22,358.18 118.62,361.73 119.11,361.43 C120.42,360.62 120.19,362.38 118.75,364.15 C117.66,365.48 116.25,364.72 108.00,358.38 ZM 362.06 391.32 C365.00,387.57 368.49,383.18 369.80,381.56 C371.12,379.94 372.58,377.61 373.04,376.39 C373.66,374.77 374.46,374.31 375.95,374.70 C377.08,374.99 378.00,375.42 378.00,375.65 C378.00,375.88 374.65,380.41 370.56,385.72 C366.47,391.02 363.21,395.84 363.31,396.43 C363.41,397.02 361.97,397.65 360.10,397.82 L 356.71 398.15 ZM 250.19 462.95 L 252.00 461.84 L 252.00 445.42 C252.00,431.49 252.23,429.00 253.50,429.00 C254.77,429.00 255.00,431.55 255.00,445.93 C255.00,462.57 255.04,462.88 257.23,463.57 C257.89,463.78 258.86,464.37 259.86,465.13 C257.02,463.25 253.39,461.94 251.47,462.42 C251.09,462.51 250.66,462.70 250.19,462.95 ZM 247.50 27.14 C251.09,29.36 254.16,29.49 257.80,27.59 C257.84,27.57 257.89,27.54 257.94,27.52 C257.68,27.68 257.45,27.81 257.25,27.92 C255.05,29.04 255.00,29.47 255.00,45.54 C255.00,59.50 254.77,62.00 253.50,62.00 C252.23,62.00 252.00,59.51 252.00,45.62 L 252.00 29.24 L 249.10 28.04 C247.70,27.46 245.74,26.14 244.43,24.92 C245.30,25.67 246.32,26.41 247.50,27.14 ZM 479.62 252.91 C478.24,251.28 477.05,249.68 476.87,249.18 C476.65,248.58 470.68,248.03 462.25,247.83 C450.12,247.55 448.00,247.27 448.00,245.93 C448.00,244.56 449.75,244.42 461.82,244.80 L 475.64 245.24 L 479.42 239.98 C479.68,239.62 479.92,239.28 480.15,238.96 C478.43,241.71 477.00,244.91 477.00,246.74 C477.00,248.25 478.08,250.62 479.62,252.91 ZM 27.31 240.37 C27.86,241.23 28.33,242.00 28.61,242.50 C29.62,244.33 30.91,244.52 43.36,244.78 C50.86,244.93 57.00,245.43 57.00,245.89 C57.00,247.11 49.10,248.00 38.39,248.00 C29.72,248.00 29.08,248.03 27.84,250.34 C28.60,248.60 28.94,246.70 28.69,244.80 C28.50,243.34 28.00,241.81 27.31,240.37 ZM 95.00 144.47 C95.00,142.96 95.71,141.69 96.75,141.32 C97.71,140.99 101.65,138.40 105.50,135.58 C115.38,128.34 117.82,126.90 118.45,127.92 C118.95,128.73 97.08,147.00 95.61,147.00 C95.28,147.00 95.00,145.86 95.00,144.47 ZM 218.50 81.00 C218.16,80.45 218.58,80.00 219.44,80.00 C220.30,80.00 221.00,80.45 221.00,81.00 C221.00,81.55 220.58,82.00 220.06,82.00 C219.54,82.00 218.84,81.55 218.50,81.00 ZM 501.00 246.39 C500.98,249.54 500.72,250.94 499.41,252.62 C500.36,250.96 500.90,248.68 501.00,246.39 ZM 7.66 254.01 C6.00,252.23 5.56,250.65 5.23,246.73 C5.48,249.76 6.29,252.18 7.66,254.01 ZM 244.70 9.01 C246.92,6.50 249.57,5.09 252.33,5.00 C249.49,5.24 246.86,6.61 244.70,9.01 ZM 5.22 246.69 C4.85,242.19 4.90,241.14 6.82,239.04 C5.02,241.22 4.87,242.40 5.22,246.69 ZM 500.11 240.46 C500.65,241.47 500.88,242.58 500.96,244.23 C500.85,242.85 500.57,241.54 500.11,240.46 ZM 14.67 257.99 C14.72,258.00 14.77,258.01 14.82,258.02 C14.80,258.02 14.78,258.02 14.77,258.02 C14.00,258.01 13.02,257.72 12.00,257.24 C12.81,257.56 13.70,257.81 14.67,257.99 ZM 494.43 257.02 C493.13,257.78 491.80,258.32 490.61,258.55 C490.60,258.55 490.60,258.55 490.60,258.55 C491.87,258.20 493.19,257.68 494.43,257.02 Z" fill="rgba(173,219,168,1)"/>
<path d="M 246.31 484.50 C243.94,482.84 240.90,475.62 241.27,472.50 C241.56,469.97 248.43,463.18 251.47,462.42 C254.37,461.69 261.15,465.06 263.25,468.27 C266.41,473.08 265.85,477.96 261.63,482.43 C258.66,485.58 257.69,486.00 253.35,486.00 C250.61,486.00 247.50,485.34 246.31,484.50 ZM 255.71 481.95 C258.78,480.88 261.00,477.50 261.00,473.91 C261.00,471.15 256.60,467.00 253.68,467.00 C245.15,467.00 242.99,479.34 251.00,482.29 C251.82,482.59 252.55,482.88 252.60,482.92 C252.66,482.96 254.06,482.53 255.71,481.95 ZM 14.67 257.99 C8.85,256.93 5.77,253.24 5.23,246.71 C4.82,241.83 5.06,240.96 7.64,238.09 C10.92,234.43 17.43,232.45 21.33,233.94 C24.64,235.19 28.10,240.30 28.69,244.80 C29.65,252.12 21.99,259.33 14.67,257.99 ZM 20.96 253.02 C25.25,250.73 25.40,242.54 21.21,239.36 C16.53,235.81 8.67,239.97 8.67,246.00 C8.67,251.83 15.69,255.84 20.96,253.02 ZM 484.50 258.23 C480.90,255.60 477.00,249.61 477.00,246.74 C477.00,243.12 482.61,234.09 485.00,233.85 C490.86,233.25 496.81,235.47 499.44,239.22 C501.78,242.56 501.46,250.14 498.83,253.49 C495.48,257.75 487.46,260.40 484.50,258.23 ZM 495.64 251.21 C497.50,248.76 497.30,243.58 495.25,241.11 C494.29,239.95 492.07,238.73 490.32,238.39 C484.57,237.28 480.21,244.18 482.65,250.53 C484.32,254.88 492.52,255.31 495.64,251.21 ZM 247.50 27.14 C240.86,23.04 239.14,18.60 242.03,12.95 C245.67,5.81 251.97,3.21 258.47,6.17 C262.02,7.79 267.07,16.12 265.84,18.33 C265.32,19.25 265.23,20.00 265.64,20.00 C266.93,20.00 260.61,26.12 257.80,27.59 C254.16,29.49 251.09,29.36 247.50,27.14 ZM 257.92 22.41 C261.80,19.15 262.04,14.95 258.55,11.45 C255.10,8.01 249.86,8.10 247.07,11.63 C244.20,15.29 244.47,18.63 247.92,22.08 C251.53,25.68 253.94,25.76 257.92,22.41 Z" fill="rgba(179,207,221,1)"/>
</g>
</svg>