<svg xmlns="http://www.w3.org/2000/svg" width="470" height="463" viewBox="0 0 470 463">
<g>
<path d="M 178.99 226.75 C173.63,223.10 171.50,219.48 171.50,214.01 C171.50,210.64 172.15,208.29 173.62,206.30 C175.50,203.76 175.79,201.72 176.21,188.47 C176.73,171.50 178.06,166.69 182.69,164.93 C186.78,163.37 191.50,164.60 193.63,167.78 C195.17,170.06 195.52,173.06 195.83,186.50 C196.18,201.90 196.29,202.63 198.79,205.94 C203.71,212.45 201.43,222.97 194.16,227.25 C189.93,229.74 183.05,229.52 178.99,226.75 ZM 193.64 293.54 C185.71,290.71 181.32,283.75 182.25,275.50 C183.00,268.80 195.06,248.95 198.32,249.03 C201.26,249.10 213.59,269.55 214.59,276.00 C215.45,281.57 210.71,289.89 205.04,292.75 C199.90,295.34 198.90,295.41 193.64,293.54 ZM 247.50 284.19 C244.62,283.51 244.49,283.25 244.21,277.39 L 243.91 271.29 L 249.21 270.65 C252.12,270.30 262.33,270.01 271.89,270.01 L 289.29 270.00 L 288.67 276.64 C288.33,280.30 287.93,283.40 287.77,283.55 C287.07,284.22 250.14,284.81 247.50,284.19 ZM 204.36 289.10 C210.63,284.97 212.36,279.21 209.45,272.22 C206.78,265.79 199.83,255.00 198.37,255.00 C197.59,255.00 194.77,258.35 192.10,262.44 C184.38,274.28 184.25,283.29 191.72,288.86 C195.21,291.46 200.62,291.57 204.36,289.10 ZM 192.77 224.00 C198.78,220.34 199.68,213.03 194.98,206.10 L 192.00 201.70 L 192.00 186.05 C192.00,169.29 191.64,168.00 187.02,168.00 C181.79,168.00 177.40,174.07 181.50,175.64 C183.53,176.42 183.40,178.68 181.25,179.89 C179.61,180.82 179.62,180.97 181.46,182.33 C183.17,183.60 183.25,184.00 182.02,185.47 C180.92,186.80 180.87,187.57 181.79,189.04 C182.75,190.57 182.65,191.11 181.23,191.96 C179.61,192.94 179.62,193.09 181.40,194.47 C184.19,196.63 185.00,195.51 185.00,189.50 C185.00,184.10 186.47,181.55 188.10,184.12 C188.58,184.88 188.98,190.28 188.98,196.12 C189.00,205.20 189.29,207.10 191.00,209.27 C196.11,215.76 189.58,224.05 183.13,219.26 C179.45,216.52 179.16,212.14 182.45,209.04 C184.41,207.21 185.00,205.66 185.00,202.38 C185.00,195.90 181.14,195.18 180.45,201.53 C180.29,203.00 179.15,205.27 177.93,206.57 C175.16,209.53 174.05,218.15 176.12,220.66 C178.45,223.47 183.35,225.99 186.50,225.99 C188.15,225.99 190.97,225.09 192.77,224.00 ZM 285.13 274.00 L 247.00 274.00 L 247.00 281.04 L 284.50 280.50 L 285.13 274.00 ZM 221.00 193.09 C220.18,192.63 217.36,191.94 214.75,191.56 C212.14,191.19 210.00,190.48 210.00,189.98 C210.00,188.27 216.54,187.85 220.74,189.30 C225.26,190.85 226.00,190.65 226.00,187.85 C226.00,185.90 224.80,185.50 216.06,184.50 C202.88,183.00 208.31,181.03 225.69,181.02 C240.03,181.00 243.32,180.17 239.65,177.49 C237.71,176.06 237.47,173.99 239.25,174.02 C242.79,174.06 244.67,178.32 242.57,181.53 C241.63,182.97 239.27,184.22 236.02,185.00 C232.08,185.94 230.61,186.85 229.46,189.08 C227.30,193.26 224.04,194.81 221.00,193.09 ZM 215.00 177.34 C210.45,175.82 210.44,175.81 212.50,174.96 C213.60,174.51 217.28,174.11 220.67,174.07 C228.22,173.98 230.00,173.36 230.00,170.81 C230.00,169.14 229.54,168.94 227.00,169.50 C224.68,170.01 224.00,169.81 224.00,168.61 C224.00,166.47 227.69,164.71 230.63,165.44 C234.28,166.36 235.71,170.26 233.59,173.50 C232.66,174.93 230.76,176.52 229.38,177.04 C226.78,178.03 217.64,178.22 215.00,177.34 ZM 192.75 285.92 C191.79,285.36 190.33,283.60 189.50,282.01 C187.26,277.68 189.59,277.10 193.04,281.14 C197.11,285.89 196.96,288.37 192.75,285.92 Z" fill="rgba(43,117,198,1)"/>
<path d="M 200.00 380.12 C200.00,379.33 191.08,375.00 189.44,375.00 C188.36,375.00 172.01,368.48 155.14,361.32 C137.65,353.90 131.50,351.67 129.95,352.18 C129.36,352.38 131.15,355.46 133.94,359.02 C136.72,362.58 139.78,366.73 140.75,368.23 C141.07,368.74 141.45,369.24 141.83,369.70 C141.37,369.18 140.91,368.60 140.50,368.01 C139.40,366.42 136.60,362.65 134.28,359.64 C131.95,356.62 129.93,353.58 129.78,352.87 C129.62,352.16 128.71,350.68 127.74,349.59 C126.08,347.72 125.87,347.70 124.29,349.28 C122.73,350.84 122.76,351.13 125.04,353.61 C123.12,351.60 121.87,350.94 120.84,351.18 C118.25,351.77 113.11,347.08 112.43,343.50 C112.05,341.46 111.10,339.90 107.86,337.21 C110.74,339.35 113.01,340.72 113.01,340.31 C113.02,339.86 113.30,338.49 113.63,337.25 C114.14,335.36 113.84,335.00 111.74,335.00 C111.62,335.00 111.51,334.99 111.39,334.99 C112.30,335.01 113.00,334.71 113.00,334.03 C113.00,332.50 107.65,319.44 102.74,309.00 C100.29,303.77 96.55,295.67 94.44,291.00 C92.33,286.33 89.80,281.32 88.83,279.89 C87.86,278.45 87.30,277.03 87.60,276.73 C87.90,276.44 87.10,274.24 85.83,271.85 L 83.58 267.63 C83.81,266.79 82.94,264.91 81.59,263.37 L 79.06 260.50 L 79.04 267.00 C79.02,270.58 79.45,275.08 79.98,277.00 C79.45,275.08 79.01,270.94 79.01,267.80 C79.00,262.06 74.83,246.63 72.97,245.48 C72.44,245.15 71.99,244.12 71.97,243.19 C71.90,239.79 68.41,237.00 64.21,237.00 C61.10,237.00 59.59,236.34 57.26,233.95 C54.58,231.21 53.89,230.91 45.49,230.41 C54.47,230.91 56.00,230.75 56.00,229.50 C56.00,228.25 54.09,228.00 44.71,228.00 L 53.90 228.00 L 56.94 224.75 C59.45,222.07 60.72,221.50 64.24,221.50 L 68.50 221.50 L 73.00 212.57 C77.34,203.96 77.56,203.09 79.14,188.07 C79.26,186.95 79.39,185.81 79.53,184.66 C79.68,185.46 80.10,185.52 80.90,185.32 C82.27,184.96 83.33,181.40 85.98,168.18 C89.74,149.45 89.96,147.52 89.11,140.56 L 88.50 135.61 L 71.62 153.56 C68.15,157.25 65.07,160.55 62.29,163.59 C65.22,160.38 68.48,156.86 72.19,152.90 C89.54,134.39 89.63,134.28 91.35,127.40 C91.87,125.33 92.73,122.24 93.65,119.06 C93.69,119.68 93.90,120.15 94.35,120.30 C95.05,120.55 96.12,119.55 96.92,118.23 C95.85,121.37 94.85,124.93 94.52,126.87 L 93.91 130.49 C93.49,130.51 92.78,131.80 92.25,133.54 C91.67,135.44 91.48,137.00 91.84,137.00 C92.20,137.00 96.10,134.09 100.50,130.54 C103.58,128.05 106.90,125.78 109.26,124.50 C106.86,125.89 103.29,128.38 99.93,131.05 C90.76,138.37 90.56,138.71 89.49,149.50 C89.33,151.15 87.83,159.25 86.17,167.50 C82.30,186.69 81.41,193.48 82.89,192.57 C83.50,192.19 84.00,191.37 84.00,190.74 C84.00,190.11 86.31,184.85 89.13,179.05 C91.95,173.25 95.56,165.12 97.16,161.00 C98.76,156.88 100.51,152.82 101.04,152.00 C103.08,148.87 109.18,135.29 110.71,130.50 C111.59,127.75 112.80,124.86 113.40,124.08 C113.92,123.41 114.05,123.09 113.60,123.04 C114.26,122.88 114.63,122.72 114.77,122.45 C115.00,121.99 114.60,121.21 113.86,119.59 L 112.72 117.08 L 108.22 121.04 C106.18,122.83 103.88,124.65 101.73,126.20 C102.95,125.29 104.23,124.29 105.42,123.33 C109.89,119.68 111.61,117.52 112.45,114.52 C113.59,110.40 116.55,108.04 120.59,108.01 C121.78,108.01 123.39,106.67 125.45,104.00 C122.74,107.82 122.56,108.66 123.83,109.18 C126.29,110.18 126.81,110.15 128.04,107.73 C128.11,107.91 128.28,108.00 128.53,108.00 C128.82,108.00 132.64,106.62 137.01,104.93 C141.39,103.25 145.22,101.45 145.54,100.93 C145.86,100.42 146.93,100.00 147.93,100.00 C149.71,100.00 155.50,97.79 163.50,94.06 C167.25,92.31 173.10,89.99 187.50,84.54 C190.80,83.29 195.30,81.45 197.50,80.46 C200.96,78.90 201.30,78.66 199.49,78.30 C202.98,78.80 207.00,76.94 207.00,74.79 C207.00,74.20 204.95,73.98 201.47,74.08 C201.48,74.08 201.49,74.08 201.50,74.08 C216.48,73.06 223.82,70.28 226.52,64.60 C227.46,62.62 228.79,61.00 229.48,61.00 C231.22,61.00 231.98,55.42 231.99,42.58 C232.00,36.60 231.85,33.53 231.33,31.71 C231.75,32.83 232.01,34.10 232.02,35.40 C232.03,38.42 232.29,39.10 233.00,38.00 C233.53,37.17 233.98,35.33 233.98,33.91 C233.99,33.76 233.99,33.61 234.01,33.46 L 234.06 40.91 C234.08,44.18 234.14,46.88 234.27,49.17 C233.42,41.25 232.00,39.99 231.99,47.69 C231.98,50.89 231.70,55.19 231.36,57.25 C230.77,60.82 230.87,61.00 233.48,61.00 C235.47,61.00 236.06,60.60 235.65,59.54 C235.43,58.95 235.07,56.62 234.74,53.78 C235.49,58.44 237.01,60.96 240.09,64.35 C246.74,71.65 252.48,74.14 262.99,74.09 C256.61,74.61 259.38,77.23 266.83,78.12 L 264.50 78.16 L 269.84 80.60 C272.78,81.95 275.71,82.95 276.34,82.84 C276.98,82.72 280.42,84.06 284.00,85.81 C290.46,88.96 328.76,104.81 334.50,106.71 C336.24,107.28 337.65,107.32 337.85,106.80 C338.03,106.33 335.87,102.92 332.96,99.06 C335.77,102.59 338.00,105.77 338.00,106.62 C338.00,107.74 340.16,109.00 342.08,109.00 C344.11,109.00 342.74,106.00 337.53,99.04 C340.51,103.02 343.14,106.47 343.37,106.71 C343.61,106.94 345.47,107.29 347.51,107.48 C352.00,107.89 352.41,108.29 354.28,114.00 C355.45,117.62 357.07,119.53 362.47,123.75 C363.48,124.54 364.39,125.22 365.19,125.80 C364.27,125.15 363.24,124.39 362.08,123.50 C354.63,117.74 353.00,117.02 353.00,119.50 C353.00,120.73 353.39,121.45 357.32,124.63 C356.09,123.65 355.17,122.90 354.79,122.57 C352.55,120.61 351.27,122.52 353.28,124.81 C354.10,125.74 355.10,127.62 355.51,129.00 C356.57,132.54 371.94,167.66 377.40,179.00 C379.92,184.23 381.98,189.06 381.99,189.75 C381.99,190.44 382.45,191.00 383.00,191.00 C383.20,191.00 383.39,190.97 383.55,190.91 C383.53,190.94 383.52,190.97 383.50,190.99 C383.21,191.47 384.10,193.53 385.48,195.57 L 388.00 199.28 L 387.98 194.89 C387.98,193.74 387.87,192.12 387.68,190.13 C389.29,203.79 390.11,206.81 393.45,212.51 C394.85,214.90 396.00,217.54 396.00,218.38 C396.00,220.65 398.87,221.83 403.02,221.27 C406.26,220.84 406.97,221.15 408.88,223.84 C411.18,227.07 412.21,227.30 426.66,227.82 C431.64,227.99 431.91,227.88 435.81,223.23 L 431.70 228.14 L 421.13 227.82 C412.36,227.55 410.51,227.76 410.25,229.00 C410.11,229.70 410.54,230.07 412.56,230.21 L 408.87 234.01 C405.31,237.69 404.66,237.97 401.14,237.41 C397.71,236.86 397.20,237.05 396.53,239.15 C396.11,240.44 395.69,241.73 395.59,242.00 C395.49,242.27 394.46,244.31 393.30,246.53 C390.08,252.66 388.12,260.60 387.49,270.00 C387.27,273.35 386.29,280.20 385.07,287.24 C387.64,272.25 388.70,259.45 387.07,260.46 C385.27,261.57 382.10,268.44 383.01,269.15 C381.93,269.60 380.01,272.53 379.36,275.00 C379.01,276.38 376.58,282.00 373.96,287.50 C371.35,293.00 368.88,298.62 368.46,300.00 C368.05,301.37 367.07,302.96 366.30,303.52 C365.52,304.09 364.51,306.12 364.03,308.03 C363.56,309.94 361.15,316.00 358.68,321.50 C354.14,331.58 352.79,335.16 353.41,335.86 C353.17,335.95 352.97,336.00 352.83,336.00 C350.78,336.00 350.41,338.01 352.13,339.73 C352.83,340.43 353.68,340.47 355.62,339.36 C354.64,340.27 353.97,341.81 353.63,343.91 C352.95,348.15 350.09,351.00 346.50,351.00 C345.59,351.00 344.17,351.45 343.02,352.07 C344.39,350.99 344.18,350.28 342.43,349.61 C340.42,348.84 337.66,350.33 336.03,353.00 C335.62,351.45 328.82,353.70 317.78,359.17 C314.63,360.73 311.14,362.00 310.03,362.00 C308.91,362.00 308.00,362.36 308.00,362.80 C308.00,363.24 305.64,364.42 302.75,365.43 C299.86,366.43 292.77,369.16 287.00,371.49 C281.23,373.83 274.70,376.30 272.50,377.00 C270.30,377.69 267.94,378.70 267.25,379.25 C266.46,379.88 266.07,380.45 266.04,380.88 C265.96,380.85 265.90,380.82 265.87,380.77 C265.53,380.23 264.35,380.07 263.26,380.42 C260.89,381.17 257.43,384.76 258.27,385.60 C258.50,385.84 259.98,385.86 262.33,385.71 C255.19,386.46 249.17,387.36 248.34,387.83 C247.39,388.36 244.04,391.37 240.91,394.51 L 235.20 400.22 L 235.10 401.87 C235.19,399.07 234.83,398.40 233.69,398.18 C232.19,397.89 232.00,399.22 232.00,411.68 L 232.00 399.87 L 228.75 396.47 C226.96,394.60 224.57,391.99 223.43,390.67 C221.53,388.48 214.68,386.72 201.85,385.17 C205.62,385.40 208.00,385.33 208.00,384.85 C208.00,384.46 206.82,383.22 205.38,382.08 C203.50,380.61 202.04,380.20 199.58,380.51 C199.85,380.40 200.00,380.27 200.00,380.12 ZM 261.19 377.96 C276.71,371.34 325.66,351.13 329.50,349.75 C337.68,346.81 339.00,345.93 339.00,343.41 C339.00,340.70 343.02,336.00 345.34,336.00 C347.20,336.00 348.99,333.18 352.95,324.00 C354.72,319.88 356.98,314.70 357.96,312.50 C358.94,310.30 360.64,306.48 361.74,304.00 C362.84,301.52 364.09,298.38 364.52,297.00 C364.94,295.62 366.25,292.92 367.42,291.00 C368.59,289.08 370.73,284.80 372.19,281.50 C373.65,278.20 377.24,270.33 380.17,264.00 L 385.50 252.50 L 385.46 205.50 L 367.87 167.00 C358.20,145.82 349.98,127.60 349.62,126.50 C349.25,125.40 346.94,123.28 344.48,121.79 C341.08,119.73 340.00,118.47 340.00,116.56 C340.00,115.04 339.11,113.49 337.75,112.64 C336.51,111.87 326.05,107.51 314.50,102.97 C302.95,98.42 291.92,93.94 290.00,93.00 C288.08,92.07 283.58,90.26 280.00,88.99 C276.42,87.72 272.83,86.13 272.00,85.46 C271.17,84.79 269.38,83.94 268.00,83.57 C266.62,83.20 263.48,82.05 261.00,81.01 C249.50,76.20 246.46,75.80 229.46,76.84 L 213.50 77.82 L 200.00 83.47 C192.57,86.58 177.73,92.65 167.00,96.96 C132.41,110.85 127.75,113.10 126.88,116.36 C125.84,120.23 123.16,123.00 120.44,123.00 C118.57,123.00 117.65,124.32 115.01,130.75 C113.27,135.01 110.08,142.00 107.92,146.28 C105.76,150.56 104.00,154.58 104.00,155.22 C104.00,155.86 98.82,167.55 92.50,181.21 L 81.00 206.05 L 81.00 253.19 L 84.90 260.85 C87.04,265.06 89.08,269.75 89.42,271.28 C89.77,272.80 90.83,274.84 91.78,275.80 C92.72,276.76 94.13,279.33 94.90,281.52 C96.93,287.28 112.51,321.46 116.28,328.44 C118.22,332.03 120.69,335.03 122.50,336.02 C124.56,337.14 125.79,338.80 126.43,341.34 C127.55,345.79 128.13,346.09 162.50,360.04 C191.95,371.99 212.39,380.54 214.73,381.91 C215.74,382.50 223.55,382.95 232.93,382.97 L 249.37 383.00 ZM 230.04 248.43 C228.14,247.60 225.17,245.84 223.44,244.52 C220.65,242.39 220.21,241.37 219.62,235.58 C219.02,229.73 219.23,228.48 221.61,223.77 C224.72,217.63 231.13,207.97 233.28,206.18 C234.52,205.15 235.32,205.51 237.93,208.28 C242.09,212.69 247.50,221.75 249.52,227.70 C252.22,235.66 249.70,243.14 243.09,246.80 C237.87,249.69 234.01,250.17 230.04,248.43 ZM 238.32 244.88 C242.39,242.78 245.97,238.66 246.59,235.35 C247.06,232.85 246.45,230.41 244.05,225.28 C240.32,217.28 236.17,211.00 234.61,211.00 C232.04,211.01 224.09,226.38 223.34,232.82 C222.89,236.69 223.19,238.00 225.06,240.37 C227.24,243.12 232.05,245.88 234.82,245.96 C235.54,245.98 237.11,245.50 238.32,244.88 ZM 271.42 199.58 C261.76,195.37 261.76,183.19 271.43,178.60 C276.01,176.43 279.43,177.12 283.86,181.13 C287.08,184.04 287.19,184.36 286.55,189.45 C285.84,195.10 283.56,198.46 279.34,200.06 C276.16,201.27 275.16,201.21 271.42,199.58 ZM 269.79 210.85 C260.87,208.37 252.26,196.22 253.25,187.50 C253.80,182.60 255.95,177.83 257.89,177.19 C258.95,176.85 259.13,177.42 258.64,179.62 C256.52,189.07 256.67,192.77 259.39,197.41 C264.28,205.76 271.78,208.50 284.25,206.50 C290.17,205.55 290.59,207.15 285.02,209.38 C279.56,211.56 274.21,212.08 269.79,210.85 ZM 76.79 222.75 L 76.50 215.50 L 74.11 219.99 C70.97,225.88 70.98,232.77 74.15,239.50 L 76.50 244.50 L 76.66 240.59 C76.68,243.31 76.73,245.00 76.82,245.00 C76.99,245.00 78.00,244.53 79.07,243.96 C80.82,243.03 81.00,241.76 81.00,230.46 C81.00,219.33 80.79,217.79 79.00,216.00 C77.90,214.90 76.99,214.11 76.97,214.25 C76.96,214.35 76.90,218.10 76.82,223.39 C76.81,223.17 76.80,222.96 76.79,222.75 ZM 393.55 235.48 C395.25,229.62 394.96,226.01 392.29,219.75 C390.86,216.38 389.73,215.37 389.32,216.59 C388.83,213.38 387.58,211.07 386.61,212.07 C385.94,212.75 385.57,223.48 385.79,235.47 L 386.00 246.44 L 388.14 244.30 C388.52,243.92 388.84,243.63 389.10,243.30 C390.22,241.83 390.22,239.50 389.72,224.63 C389.89,227.27 390.00,230.46 390.00,233.14 C390.00,237.56 390.43,241.00 390.97,241.00 C391.51,241.00 392.67,238.52 393.55,235.48 ZM 289.29 179.55 C288.84,178.76 286.91,177.42 284.99,176.59 C282.17,175.37 281.93,175.07 283.75,175.04 C284.99,175.02 286.00,174.61 286.00,174.12 C286.00,170.64 275.78,169.10 267.99,171.41 C262.43,173.06 259.45,172.03 263.12,169.72 C269.83,165.50 279.55,165.07 286.20,168.70 C288.01,169.69 290.62,170.73 292.00,171.00 C293.97,171.40 294.57,172.21 294.82,174.82 C295.30,179.84 291.35,183.23 289.29,179.55 ZM 117.00 92.09 C117.00,93.79 117.27,93.82 121.13,92.46 C122.65,91.92 124.37,91.45 125.65,91.20 C123.04,91.89 120.54,92.66 119.08,93.28 C117.66,93.89 114.63,94.86 112.34,95.44 C109.22,96.24 107.17,97.74 104.09,101.48 C101.84,104.22 100.00,107.25 100.00,108.21 C100.00,109.09 99.11,112.19 97.95,115.37 C97.96,115.31 97.96,115.24 97.96,115.18 C97.98,114.45 97.24,114.00 96.32,114.18 C95.71,114.29 95.14,114.84 94.68,115.56 C95.11,114.13 95.53,112.74 95.93,111.50 C97.77,105.65 98.60,101.23 98.29,98.87 C97.68,94.29 100.50,91.88 105.51,92.70 C107.63,93.04 111.60,92.30 116.65,90.62 C117.54,90.33 118.51,90.02 119.51,89.72 C117.67,90.47 117.00,91.16 117.00,92.09 ZM 279.97 195.03 C282.81,192.19 283.58,188.13 281.87,185.08 C281.08,183.67 279.73,182.38 278.88,182.21 C277.66,181.98 277.34,182.83 277.41,186.18 C277.48,189.48 277.11,190.52 275.75,190.79 C274.31,191.08 274.00,190.42 274.00,187.04 C274.00,184.30 273.50,182.74 272.49,182.36 C269.98,181.39 268.00,183.96 268.00,188.17 C268.00,195.38 275.39,199.61 279.97,195.03 ZM 111.28 362.38 C109.68,361.87 108.73,361.55 108.38,361.40 C107.76,361.14 107.01,361.84 106.72,362.96 C106.30,364.56 106.77,365.14 108.84,365.60 C109.21,365.68 109.64,365.79 110.11,365.93 C108.78,365.74 107.16,365.61 105.54,365.59 C102.03,365.54 98.84,365.18 98.45,364.79 C98.06,364.39 97.79,361.79 97.85,359.01 C97.91,356.53 97.45,353.11 96.80,350.94 C97.42,352.14 98.22,353.00 98.81,353.00 C99.90,353.00 100.14,352.82 99.41,348.76 C100.47,353.28 101.65,355.30 103.46,355.99 C104.77,356.48 106.12,357.79 106.47,358.89 C106.78,359.89 108.66,361.17 111.28,362.38 ZM 357.11 92.32 C358.97,92.74 361.05,92.96 362.60,92.87 C364.98,92.72 367.21,92.88 367.55,93.22 C367.89,93.56 368.58,97.12 369.08,101.14 C369.38,103.51 370.22,107.68 371.28,112.17 C369.03,104.21 368.42,103.53 366.70,103.19 C365.79,103.01 365.40,103.88 365.54,105.70 C363.91,101.94 358.33,96.70 354.06,95.00 C356.69,95.45 358.12,95.32 359.08,94.72 C360.38,93.90 360.16,93.48 357.11,92.32 ZM 365.90 356.23 C366.78,356.41 367.66,355.87 367.86,355.03 C367.99,354.46 368.49,353.11 369.12,351.58 C368.18,354.13 368.02,356.10 368.41,359.04 C369.20,364.96 367.69,366.43 361.18,366.14 C358.39,366.01 353.63,366.89 349.00,368.37 C353.08,367.05 357.13,366.00 358.13,366.00 C359.33,366.00 360.00,365.29 360.00,364.00 C360.00,361.75 357.36,361.39 352.98,362.98 C354.54,362.41 356.02,362.00 356.61,362.00 C358.68,362.00 363.58,356.28 365.15,352.41 C364.61,355.12 364.93,356.04 365.90,356.23 ZM 66.07 232.96 C68.44,231.70 68.67,226.80 66.44,224.95 C64.42,223.27 59.66,224.83 59.18,227.32 C58.79,229.34 61.51,234.00 63.09,234.00 C63.66,234.00 65.00,233.53 66.07,232.96 ZM 405.17 232.35 C408.70,229.15 406.44,225.00 401.17,225.00 C397.81,225.00 396.71,231.15 399.75,232.92 C402.19,234.34 403.07,234.25 405.17,232.35 ZM 236.17 71.35 C238.52,69.22 238.48,67.75 236.00,65.50 C234.34,64.00 233.56,63.88 231.50,64.82 C228.82,66.04 228.37,67.96 230.04,71.07 C231.30,73.44 233.74,73.55 236.17,71.35 ZM 122.52 117.61 C124.15,116.42 124.25,115.85 123.23,113.61 C121.35,109.48 115.00,110.55 115.00,115.00 C115.00,118.69 119.10,120.11 122.52,117.61 ZM 122.50 346.00 C125.97,342.17 120.84,336.56 117.20,340.20 C114.79,342.61 116.41,348.00 119.55,348.00 C120.17,348.00 121.51,347.10 122.50,346.00 ZM 236.81 391.24 C237.17,387.56 235.55,386.39 231.50,387.41 C228.60,388.14 228.36,389.63 230.60,392.83 C232.99,396.26 236.42,395.38 236.81,391.24 ZM 292.45 197.75 C292.82,196.51 293.38,193.59 293.69,191.25 C294.38,186.07 296.62,185.60 297.19,190.52 C297.70,194.87 295.66,200.00 293.43,200.00 C292.17,200.00 291.93,199.45 292.45,197.75 ZM 349.80 117.80 C352.83,114.77 348.71,109.34 345.44,112.05 C342.90,114.16 344.34,119.00 347.50,119.00 C348.11,119.00 349.14,118.46 349.80,117.80 ZM 348.80 346.80 C349.46,346.14 350.00,344.57 350.00,343.30 C350.00,341.42 349.46,341.00 347.06,341.00 C343.27,341.00 342.42,342.47 344.44,345.54 C346.24,348.30 347.06,348.54 348.80,346.80 ZM 128.12 87.41 C129.00,87.21 129.80,87.04 130.48,86.91 C137.83,85.56 140.04,84.09 152.00,72.52 C165.78,59.19 176.39,49.56 184.88,42.72 C176.39,49.57 165.73,59.27 151.50,73.04 C146.00,78.36 140.47,83.25 139.22,83.91 C137.97,84.56 137.21,85.53 137.54,86.06 C137.86,86.58 137.43,87.28 136.57,87.61 C135.71,87.94 135.27,88.62 135.58,89.13 C135.61,89.18 135.63,89.25 135.64,89.33 C135.10,89.10 132.11,89.63 128.72,90.43 C129.82,89.61 130.47,88.14 129.71,87.38 C129.59,87.26 129.00,87.28 128.12,87.41 ZM 84.86 283.41 L 84.86 283.41 C84.39,283.12 84.00,281.77 84.00,280.41 C84.00,279.05 83.32,277.68 82.50,277.36 C81.68,277.05 81.00,276.13 81.00,275.33 C81.00,274.54 81.45,274.16 82.00,274.50 C82.58,274.86 83.00,273.87 83.00,272.14 C83.00,270.68 83.20,268.93 83.46,268.00 L 83.19 270.85 C83.01,272.69 83.18,274.94 83.58,275.85 C83.97,276.76 84.20,278.54 84.07,279.80 C83.95,281.07 84.27,282.64 84.78,283.30 C84.81,283.33 84.83,283.37 84.86,283.41 ZM 283.10 79.65 C291.26,80.76 301.05,82.45 308.87,84.07 C306.99,83.74 304.88,83.39 302.50,83.00 C296.26,81.96 287.81,80.50 283.10,79.65 ZM 239.00 386.00 C239.00,386.55 239.42,387.00 239.94,387.00 C240.46,387.00 241.16,386.55 241.50,386.00 C241.84,385.45 241.42,385.00 240.56,385.00 C239.70,385.00 239.00,385.45 239.00,386.00 ZM 85.60 149.47 C85.13,151.62 84.54,154.56 83.97,157.70 C83.23,161.71 82.40,165.84 81.78,168.61 C82.99,161.20 84.35,154.31 85.60,149.47 ZM 380.19 166.08 C381.73,174.19 383.02,182.07 383.49,186.76 C383.11,184.24 382.57,180.68 381.97,176.81 C381.40,173.11 380.79,169.51 380.19,166.08 ZM 130.67 102.93 C132.37,100.22 134.63,97.00 136.82,94.20 C136.30,94.92 135.79,95.68 135.26,96.50 C133.97,98.53 131.99,101.29 130.67,102.93 ZM 274.84 42.23 C282.40,47.94 290.29,54.47 298.16,61.56 C290.98,55.18 282.58,48.19 274.84,42.23 ZM 168.60 376.65 C158.57,374.94 149.00,373.06 145.06,371.87 C148.81,372.90 158.55,374.84 168.60,376.65 ZM 133.37 368.84 C132.28,368.65 130.93,368.33 129.50,367.90 C126.82,367.10 124.41,366.38 122.27,365.74 C124.37,366.23 127.55,367.12 130.04,367.94 C131.26,368.34 132.41,368.65 133.37,368.84 ZM 383.60 270.64 C383.65,271.82 383.45,273.75 383.00,276.52 C382.56,279.22 382.03,282.21 381.47,285.24 C382.56,279.01 383.43,273.24 383.60,270.64 ZM 371.00 126.00 C371.00,124.97 369.88,121.00 368.50,117.19 C367.75,115.12 367.08,112.89 366.62,111.06 C367.12,112.86 367.78,114.95 368.61,117.31 C370.93,123.91 371.68,127.35 370.45,128.03 C370.85,127.72 371.00,127.03 371.00,126.00 ZM 330.73 84.87 C332.80,85.40 338.10,86.74 342.50,87.83 C345.25,88.52 348.37,89.42 350.84,90.22 C347.02,89.07 341.51,87.63 330.73,84.87 ZM 243.42 433.91 C243.03,433.60 242.61,433.25 242.17,432.87 C240.87,431.72 239.39,430.52 238.19,429.62 C239.65,430.47 241.70,432.10 242.93,433.42 C243.10,433.59 243.26,433.76 243.42,433.91 ZM 248.50 433.25 C249.60,432.56 251.50,431.56 252.71,431.04 C252.74,431.03 252.76,431.01 252.79,431.00 C252.24,431.34 251.80,431.61 251.50,431.80 C250.51,432.42 249.04,433.16 248.06,433.54 C248.20,433.44 248.35,433.34 248.50,433.25 ZM 333.73 363.17 C335.95,359.45 339.44,354.77 341.58,353.07 C339.44,354.98 335.99,359.55 333.73,363.17 ZM 308.04 70.75 C312.94,75.47 315.26,78.13 315.74,79.59 C314.91,77.89 312.08,74.72 308.04,70.75 ZM 416.81 275.54 C414.74,278.22 412.61,280.88 410.45,283.50 C408.57,285.77 406.60,288.08 404.60,290.36 C409.20,284.99 413.21,280.12 416.81,275.54 ZM 340.40 366.43 C340.66,366.30 340.94,366.18 341.24,366.06 C340.20,366.88 338.22,367.64 336.33,368.09 C337.55,367.72 338.93,367.16 340.40,366.43 ZM 372.00 329.63 C372.00,329.98 370.72,334.14 369.16,338.88 C368.17,341.87 367.37,344.36 366.75,346.43 C367.40,344.14 368.25,341.41 369.10,338.88 C370.70,334.14 372.00,329.98 372.00,329.63 ZM 374.23 318.96 C373.90,319.80 373.54,320.51 373.18,321.00 C372.59,321.80 371.35,323.00 369.75,324.38 C372.03,322.35 373.39,320.71 374.23,318.96 ZM 301.07 376.10 C300.32,376.25 299.56,376.40 298.82,376.56 C293.07,377.79 286.26,378.94 280.33,379.76 C285.09,379.10 292.17,377.88 296.86,376.92 C298.29,376.63 299.72,376.35 301.07,376.10 ZM 427.09 230.00 L 432.95 229.83 L 433.02 230.00 L 427.09 230.00 ZM 174.79 55.08 C178.31,51.97 181.56,49.28 184.01,47.50 C186.67,45.58 189.67,43.37 192.16,41.52 C189.83,43.26 187.10,45.27 184.73,47.00 C182.15,48.87 178.61,51.77 174.79,55.08 ZM 382.83 158.35 C381.76,152.60 381.16,147.55 381.51,146.99 C381.51,146.98 381.51,146.98 381.52,146.98 C381.23,147.50 381.80,152.32 382.83,158.35 ZM 177.96 80.29 C184.72,79.14 191.02,78.36 195.23,78.18 C191.03,78.42 184.37,79.24 177.96,80.29 ZM 128.59 371.33 C134.01,372.60 137.26,373.52 139.78,374.82 C137.38,373.65 134.13,372.72 128.59,371.33 ZM 131.15 361.20 C129.60,359.11 128.28,357.39 127.14,356.01 C131.28,360.97 136.13,367.98 135.85,368.81 C135.90,368.17 133.83,364.82 131.15,361.20 ZM 303.93 79.24 C302.91,79.06 301.85,78.88 300.78,78.68 C297.49,78.08 294.45,77.55 291.65,77.07 C295.99,77.75 300.23,78.50 303.93,79.24 ZM 186.63 75.38 C181.27,76.03 175.24,76.91 169.03,77.96 C175.58,76.82 181.03,76.01 186.63,75.38 ZM 347.54 93.44 C345.77,92.99 343.87,92.46 342.23,91.95 C330.89,88.43 330.28,89.35 337.50,99.00 C330.29,89.35 330.88,88.47 342.23,91.89 C344.22,92.49 345.98,93.01 347.54,93.44 ZM 85.90 144.45 C85.92,144.45 85.93,144.45 85.94,144.46 C86.54,144.83 86.79,145.53 86.49,146.01 C86.44,146.10 86.35,146.36 86.24,146.75 C86.41,145.59 86.30,144.77 85.90,144.45 ZM 358.90 337.18 C360.29,336.17 361.98,334.89 364.06,333.29 C369.17,329.35 372.00,328.05 372.00,329.63 C372.00,328.03 369.16,329.36 364.06,333.35 C362.30,334.72 360.41,336.12 358.90,337.18 ZM 134.47 91.99 C134.19,92.41 133.88,92.85 133.53,93.28 C132.22,94.88 129.52,98.43 127.23,101.54 C129.31,98.63 131.95,95.14 133.38,93.41 C133.79,92.92 134.15,92.45 134.47,91.99 ZM 236.27 428.30 C235.45,427.79 235.00,427.12 234.76,425.52 C235.10,426.74 235.59,427.62 236.27,428.30 ZM 55.22 175.04 C58.04,171.21 66.09,162.72 73.25,155.65 C66.03,162.81 57.90,171.41 55.22,175.04 ZM 320.26 86.86 C321.13,87.14 321.80,87.40 322.24,87.63 C322.57,87.80 323.03,88.14 323.58,88.63 C322.58,87.94 321.50,87.36 320.26,86.86 ZM 288.51 382.42 C290.70,382.06 292.88,381.69 295.00,381.31 C306.06,379.33 311.33,378.41 313.82,378.19 C311.33,378.41 306.05,379.34 295.00,381.34 C293.10,381.68 290.89,382.05 288.51,382.42 ZM 376.97 133.28 L 377.32 134.50 L 392.48 150.00 C399.64,157.33 408.20,166.54 413.10,172.18 C408.20,166.54 399.64,157.33 392.47,150.00 L 377.30 134.50 L 376.97 133.28 ZM 226.95 430.25 C224.17,432.31 221.45,434.00 220.91,434.00 C220.76,434.00 220.57,433.97 220.34,433.91 C220.48,433.94 220.60,433.95 220.70,433.96 C221.36,433.98 224.17,432.31 226.95,430.25 ZM 181.54 382.90 C175.90,382.10 169.66,381.04 165.00,380.06 C158.21,378.63 152.25,377.73 150.92,377.90 C152.24,377.72 158.21,378.62 165.00,380.05 C169.91,381.08 175.76,382.07 181.54,382.90 ZM 227.93 28.04 C228.81,28.19 229.65,28.85 230.33,29.81 C229.54,28.94 228.53,28.20 227.93,28.04 ZM 139.91 90.47 C139.96,90.41 140.01,90.35 140.07,90.29 C140.92,89.36 141.97,88.51 143.20,87.77 C142.04,88.52 140.96,89.41 139.91,90.47 ZM 383.96 311.54 C382.45,312.79 381.41,313.45 381.02,313.36 C381.56,313.28 382.59,312.62 383.96,311.54 ZM 156.66 84.30 C158.92,84.00 162.53,83.35 166.11,82.62 C162.60,83.36 158.91,84.02 156.66,84.30 ZM 89.32 309.11 C88.11,304.12 87.08,299.05 87.11,297.50 C87.13,296.29 87.02,294.62 86.83,292.86 C87.04,294.65 87.16,296.32 87.13,297.50 C87.08,299.04 88.11,304.11 89.32,309.11 ZM 282.50 410.46 C278.10,413.69 272.02,418.19 269.00,420.46 C268.35,420.95 267.62,421.48 266.85,422.03 C267.56,421.51 268.28,420.98 269.00,420.45 C272.02,418.18 278.10,413.69 282.50,410.46 ZM 94.35 343.25 C93.20,339.26 91.73,333.81 89.85,326.61 C91.46,332.79 93.09,338.79 94.35,343.25 ZM 83.96 300.50 C84.80,304.35 85.35,307.05 85.64,308.93 C85.28,306.84 84.66,303.69 83.96,300.50 ZM 333.38 357.44 C332.64,358.60 331.86,359.76 331.07,360.89 C331.87,359.69 332.68,358.48 333.38,357.44 ZM 85.79 312.18 C85.64,312.81 85.30,313.00 84.76,313.00 C85.20,313.00 85.58,312.67 85.79,312.18 ZM 94.90 327.80 L 98.20 330.09 C98.55,330.33 98.97,330.63 99.46,330.98 C99.05,330.69 98.63,330.40 98.20,330.10 L 94.90 327.80 ZM 246.00 435.18 C246.00,435.20 246.00,435.21 246.00,435.23 C246.00,435.36 245.91,435.40 245.74,435.37 C245.82,435.35 245.89,435.32 245.93,435.26 C245.95,435.23 245.98,435.21 246.00,435.18 ZM 33.23 229.71 L 33.24 229.71 L 40.16 230.10 L 33.23 229.71 ZM 97.35 340.62 C97.30,340.51 97.25,340.41 97.20,340.31 C96.75,339.44 96.14,336.86 95.74,334.26 C96.14,336.87 96.76,339.45 97.22,340.34 C97.26,340.42 97.31,340.52 97.35,340.62 ZM 279.00 379.94 C279.30,379.90 279.62,379.86 279.95,379.82 C279.02,379.94 278.12,380.06 277.25,380.17 C277.83,380.09 278.42,380.02 279.00,379.94 ZM 203.55 424.23 C204.66,424.66 206.35,425.68 207.86,426.86 C208.07,427.03 208.29,427.20 208.52,427.37 C208.29,427.20 208.07,427.03 207.86,426.87 C206.35,425.68 204.66,424.66 203.55,424.23 ZM 437.05 245.56 C437.01,245.63 436.97,245.71 436.92,245.79 C436.62,246.33 436.30,246.88 435.98,247.44 C436.34,246.82 436.70,246.19 437.05,245.56 ZM 150.10 80.71 C150.04,80.70 150.01,80.67 149.98,80.63 C150.02,80.66 150.06,80.69 150.10,80.71 ZM 383.12 297.60 C383.25,296.91 383.39,296.21 383.53,295.50 C383.56,295.33 383.60,295.17 383.63,295.00 C383.60,295.16 383.57,295.31 383.54,295.47 C383.39,296.19 383.25,296.90 383.12,297.60 ZM 249.32 25.51 C249.97,25.85 250.62,26.21 251.28,26.57 C250.57,26.18 249.91,25.82 249.32,25.51 Z" fill="rgba(144,201,78,1)"/>
<path d="M 237.70 8.56 C240.30,9.66 242.19,11.76 243.86,15.20 C245.18,17.93 247.05,19.99 248.98,20.84 C254.66,23.34 278.46,39.76 288.00,47.75 C293.23,52.13 304.13,62.06 312.23,69.81 C323.42,80.52 327.86,84.14 330.73,84.87 C346.76,88.97 351.13,90.18 355.66,91.79 C360.07,93.36 360.57,93.79 359.08,94.72 C357.19,95.90 353.47,95.28 342.23,91.89 C330.87,88.47 330.28,89.36 337.53,99.04 C342.74,106.00 344.11,109.00 342.08,109.00 C340.16,109.00 338.00,107.74 338.00,106.62 C338.00,104.59 325.19,89.15 322.24,87.63 C317.12,84.98 282.25,78.75 270.62,78.40 C259.48,78.07 254.73,74.00 265.49,74.00 C272.24,74.00 282.56,75.37 300.78,78.68 C308.63,80.11 315.30,81.03 315.61,80.72 C316.86,79.48 313.31,75.46 300.93,64.09 C282.57,47.22 263.85,33.22 249.32,25.51 L 244.14 22.76 L 239.07 27.04 C235.40,30.13 234.00,32.03 233.98,33.91 C233.98,35.33 233.53,37.17 233.00,38.00 C232.29,39.10 232.03,38.42 232.02,35.40 C232.01,33.05 231.18,30.78 230.00,29.39 C233.41,30.76 236.33,29.57 241.11,25.18 L 246.35 20.35 L 244.06 15.63 C242.23,11.84 240.46,9.78 237.70,8.56 ZM 225.16 447.79 C222.29,445.41 221.19,443.68 220.65,440.97 C220.25,439.01 218.39,437.54 212.37,434.47 C208.10,432.29 203.90,429.75 203.05,428.83 C202.20,427.91 196.77,423.95 191.00,420.04 C179.58,412.29 157.55,392.83 147.87,381.93 C141.32,374.56 140.01,373.91 125.00,370.50 C120.88,369.56 116.15,368.21 114.50,367.49 C112.85,366.77 110.30,365.92 108.84,365.60 C106.77,365.14 106.30,364.56 106.72,362.96 C107.01,361.84 107.76,361.14 108.38,361.40 C109.44,361.86 115.95,363.86 129.50,367.90 C132.80,368.89 135.66,369.30 135.84,368.81 C136.21,367.89 129.52,358.46 125.15,353.74 C122.76,351.14 122.70,350.87 124.29,349.28 C125.87,347.70 126.08,347.72 127.74,349.59 C128.71,350.68 129.62,352.16 129.78,352.87 C129.93,353.58 131.95,356.62 134.28,359.64 C136.60,362.65 139.40,366.42 140.50,368.01 C141.60,369.60 143.10,371.15 143.83,371.45 C149.84,373.93 194.46,381.30 199.13,380.58 C201.87,380.15 203.39,380.52 205.38,382.08 C206.82,383.22 208.00,384.46 208.00,384.85 C208.00,386.45 181.32,383.47 165.00,380.05 C157.57,378.49 151.13,377.56 150.68,377.98 C148.53,379.98 184.14,412.27 195.50,418.62 C197.15,419.54 199.09,421.13 199.81,422.15 C200.53,423.17 201.81,424.00 202.66,424.00 C203.51,424.00 205.85,425.29 207.86,426.87 C211.68,429.88 219.23,434.00 220.91,434.00 C221.36,434.00 223.26,432.87 225.46,431.32 C224.15,432.58 223.00,434.11 222.16,435.78 C219.84,440.47 220.66,443.94 225.16,447.79 ZM 437.51 221.15 C438.97,219.29 440.00,217.83 440.00,217.56 C440.00,217.19 438.26,214.33 436.14,211.20 C434.02,208.06 431.35,203.70 430.21,201.50 C429.07,199.30 427.09,196.37 425.82,194.98 C424.54,193.60 421.71,189.82 419.53,186.59 C409.92,172.37 383.09,144.42 381.51,146.99 C381.15,147.57 381.79,152.93 382.94,158.91 C385.70,173.33 387.96,189.46 387.98,194.89 L 388.00 199.28 L 385.48 195.57 C384.10,193.53 383.21,191.47 383.50,190.99 C385.03,188.52 375.75,140.54 373.17,137.60 C372.25,136.55 368.12,133.08 364.00,129.88 C353.77,121.94 353.00,121.22 353.00,119.50 C353.00,117.02 354.63,117.74 362.08,123.50 C371.78,130.99 373.00,129.82 368.61,117.31 C365.30,107.88 364.61,102.78 366.70,103.19 C368.89,103.62 369.29,104.61 373.55,120.50 L 377.30 134.50 L 392.47 150.00 C400.81,158.52 411.03,169.61 415.19,174.63 C422.22,183.13 435.03,201.67 441.15,212.19 C442.81,215.05 444.04,216.40 446.16,217.38 C444.31,216.86 443.00,216.75 443.00,217.18 C443.00,217.72 442.45,217.98 441.78,217.76 C441.22,217.57 439.43,219.02 437.51,221.15 ZM 365.90 356.23 C364.01,355.85 364.59,352.74 369.16,338.88 C370.72,334.14 372.00,329.98 372.00,329.63 C372.00,328.04 369.18,329.35 364.06,333.29 C355.34,340.02 353.44,341.04 352.13,339.73 C350.41,338.01 350.78,336.00 352.83,336.00 C355.03,336.00 370.58,324.53 373.18,321.00 C374.19,319.62 375.22,316.42 375.48,313.88 C375.74,311.35 376.35,308.20 376.85,306.88 C377.81,304.32 381.15,287.85 383.00,276.52 C383.78,271.69 383.81,269.44 383.09,269.20 C381.93,268.81 385.22,261.60 387.07,260.46 C388.99,259.27 387.17,277.32 383.53,295.50 C381.66,304.85 380.48,312.86 380.92,313.30 C382.12,314.53 398.38,298.11 410.45,283.50 C420.93,270.81 430.49,257.18 436.92,245.79 C439.00,242.12 439.69,240.81 439.35,240.04 C440.09,240.51 440.75,240.66 441.23,240.36 C441.66,240.09 442.27,240.54 442.58,241.35 C443.03,242.51 443.77,242.52 447.27,241.11 C443.42,242.99 442.01,244.95 433.53,258.15 C428.10,266.59 421.91,275.27 419.77,277.43 C417.63,279.59 415.28,282.74 414.55,284.43 C412.91,288.22 383.89,318.46 380.19,320.24 C378.42,321.08 377.45,322.37 377.37,324.01 C377.29,325.38 376.06,329.95 374.62,334.18 C373.18,338.40 372.00,342.59 372.00,343.48 C372.00,344.38 371.15,347.00 370.11,349.30 C369.06,351.61 368.05,354.19 367.86,355.03 C367.66,355.87 366.78,356.41 365.90,356.23 ZM 240.35 449.10 C240.67,448.78 241.01,448.41 241.37,447.97 C243.87,445.00 245.31,440.17 244.70,436.80 C244.52,435.79 244.01,434.76 243.24,433.77 C244.83,435.04 246.00,435.69 246.00,435.23 C246.00,434.68 246.79,433.97 247.75,433.65 C248.71,433.32 250.40,432.49 251.50,431.80 C252.60,431.11 255.75,429.20 258.50,427.57 C261.25,425.93 265.98,422.74 269.00,420.46 C272.02,418.19 278.10,413.69 282.50,410.46 C290.59,404.53 316.00,380.45 316.00,378.72 C316.00,377.63 314.52,377.82 295.00,381.31 C278.83,384.21 259.17,386.51 258.27,385.60 C257.43,384.76 260.89,381.17 263.26,380.42 C264.35,380.07 265.53,380.23 265.87,380.77 C266.54,381.83 285.51,379.40 298.82,376.56 C302.84,375.70 307.14,375.00 308.38,375.00 C312.58,375.00 320.89,371.97 324.10,369.26 C327.02,366.80 332.56,359.29 335.80,353.39 C337.40,350.47 340.33,348.80 342.43,349.61 C344.51,350.41 344.41,351.26 342.08,352.72 C338.74,354.80 330.61,367.01 331.77,368.17 C332.85,369.25 339.51,367.67 341.45,365.88 C341.97,365.40 343.67,365.00 345.23,365.00 C346.79,365.00 349.68,364.33 351.65,363.50 C356.82,361.34 360.00,361.53 360.00,364.00 C360.00,365.29 359.33,366.00 358.13,366.00 C357.10,366.00 352.81,367.12 348.60,368.50 C344.38,369.88 340.32,371.00 339.57,371.00 C338.82,371.00 335.19,371.93 331.49,373.08 C325.39,374.96 324.06,375.90 317.13,383.21 C305.92,395.04 286.08,412.94 279.36,417.29 C276.14,419.37 268.33,424.69 262.00,429.11 C255.68,433.53 249.47,437.56 248.20,438.07 C246.94,438.57 245.21,440.68 244.36,442.74 C243.10,445.79 241.88,447.82 240.35,449.10 ZM 96.29 349.75 C95.29,346.81 92.54,336.95 89.85,326.61 C88.84,322.75 87.40,321.11 74.39,309.00 C69.48,304.43 59.43,293.16 44.51,275.50 C41.36,271.77 29.00,252.95 29.00,251.88 C29.00,251.45 28.44,250.74 27.75,250.30 C27.06,249.86 25.73,247.84 24.79,245.80 C23.46,242.93 22.19,241.84 19.11,240.92 C18.89,240.85 18.65,240.77 18.41,240.68 C22.01,241.55 25.15,240.45 28.03,237.30 C27.91,237.45 27.79,237.58 27.68,237.71 C25.98,239.63 25.89,240.31 26.94,242.86 C27.61,244.48 29.25,246.83 30.58,248.08 C31.91,249.33 33.00,250.72 33.00,251.18 C33.00,252.64 44.01,269.15 50.88,277.98 C58.45,287.73 82.91,313.00 84.76,313.00 C86.40,313.00 86.29,311.18 83.96,300.50 C82.88,295.55 81.76,289.02 81.47,286.00 C81.18,282.98 80.51,278.92 79.98,277.00 C79.45,275.08 79.02,270.58 79.04,267.00 L 79.06 260.50 L 81.59 263.37 C82.98,264.96 83.87,266.90 83.56,267.71 C83.25,268.51 83.00,270.50 83.00,272.14 C83.00,273.87 82.58,274.86 82.00,274.50 C81.45,274.16 81.00,274.54 81.00,275.33 C81.00,276.13 81.68,277.05 82.50,277.36 C83.32,277.68 84.00,279.05 84.00,280.41 C84.00,281.77 84.39,283.12 84.86,283.41 C85.68,283.92 87.19,293.35 87.11,297.50 C87.05,300.55 91.07,317.16 92.59,320.14 C93.33,321.59 96.79,324.81 100.27,327.30 C103.75,329.79 107.20,332.53 107.93,333.41 C108.65,334.28 110.37,335.00 111.74,335.00 C113.84,335.00 114.14,335.36 113.63,337.25 C113.30,338.49 113.02,339.86 113.01,340.31 C113.01,340.75 110.41,339.15 107.25,336.75 C104.09,334.35 100.02,331.35 98.20,330.09 L 94.90 327.80 L 95.59 333.15 C95.96,336.09 96.69,339.32 97.20,340.31 C97.72,341.31 98.33,343.11 98.57,344.31 C100.20,352.71 100.21,353.00 98.81,353.00 C98.04,353.00 96.90,351.54 96.29,349.75 ZM 123.83 109.18 C122.41,108.60 122.81,107.61 126.53,102.50 C128.94,99.20 132.08,95.05 133.53,93.28 C134.97,91.50 135.89,89.64 135.58,89.13 C135.27,88.62 135.71,87.94 136.57,87.61 C137.43,87.28 137.86,86.58 137.54,86.06 C137.21,85.53 137.97,84.56 139.22,83.91 C140.47,83.25 146.00,78.36 151.50,73.04 C173.34,51.91 186.78,40.34 196.87,34.00 C202.56,30.42 209.81,25.81 212.98,23.75 C216.16,21.69 219.20,20.00 219.74,20.00 C220.17,20.00 220.99,18.79 221.77,17.12 C221.62,17.65 221.49,18.21 221.39,18.78 C220.91,21.30 221.18,22.33 223.09,24.24 C221.95,23.35 220.98,23.17 219.74,23.55 C217.11,24.34 202.30,33.71 196.41,38.31 C194.16,40.06 188.58,44.20 184.01,47.50 C173.38,55.19 147.85,80.19 150.10,80.71 C150.98,80.92 157.06,80.11 163.60,78.91 C185.55,74.90 207.00,72.86 207.00,74.79 C207.00,76.97 202.87,78.85 199.35,78.28 C195.22,77.61 181.04,79.39 168.03,82.21 C162.82,83.34 156.97,84.36 155.03,84.48 C148.54,84.87 143.04,87.01 140.07,90.29 C136.09,94.69 130.37,102.82 128.51,106.75 C126.91,110.13 126.59,110.30 123.83,109.18 ZM 16.87 218.37 C17.39,218.15 17.93,217.95 18.50,217.77 C22.11,216.62 23.42,215.12 32.00,202.26 C44.50,183.52 51.35,175.10 71.62,153.56 L 88.50 135.61 L 89.11 140.56 C89.96,147.52 89.74,149.45 85.98,168.18 C83.33,181.40 82.27,184.96 80.90,185.32 C79.37,185.72 79.23,185.12 79.67,180.13 C79.95,177.04 80.58,173.15 81.08,171.50 C81.58,169.85 82.88,163.64 83.97,157.70 C85.06,151.75 86.19,146.50 86.49,146.01 C86.79,145.53 86.54,144.83 85.94,144.46 C84.74,143.72 60.57,167.77 55.22,175.04 C53.41,177.49 49.69,182.43 46.95,186.00 C41.13,193.59 27.70,213.69 26.71,216.29 C26.33,217.29 26.89,218.88 28.46,221.26 C25.49,217.90 22.19,216.87 18.06,217.98 C17.65,218.09 17.26,218.22 16.87,218.37 ZM 385.79 235.47 C385.57,223.48 385.94,212.75 386.61,212.07 C387.79,210.86 389.38,214.51 389.52,218.73 C390.21,238.93 390.36,241.66 389.10,243.30 C388.84,243.63 388.52,243.92 388.14,244.30 L 386.00 246.44 ZM 76.72 229.75 C76.85,221.36 76.96,214.39 76.97,214.25 C76.99,214.11 77.90,214.90 79.00,216.00 C80.79,217.79 81.00,219.33 81.00,230.46 C81.00,241.76 80.82,243.03 79.07,243.96 C78.00,244.53 76.99,245.00 76.82,245.00 C76.64,245.00 76.60,238.14 76.72,229.75 ZM 92.25 133.54 C92.83,131.63 93.63,130.27 94.02,130.51 C94.96,131.09 102.58,126.00 108.22,121.04 L 112.72 117.08 L 113.86 119.59 C114.60,121.21 115.00,121.99 114.77,122.45 C114.54,122.92 113.63,123.05 111.75,123.43 C109.94,123.79 104.97,126.93 100.50,130.54 C96.10,134.09 92.20,137.00 91.84,137.00 C91.48,137.00 91.67,135.44 92.25,133.54 ZM 238.59 429.93 C237.19,429.13 235.62,428.46 233.95,427.99 C232.44,427.55 230.59,427.94 228.76,428.90 L 232.00 426.50 L 232.00 412.18 C232.00,399.26 232.17,397.89 233.69,398.18 C235.12,398.45 235.32,399.45 234.94,404.50 C234.70,407.80 234.50,414.28 234.50,418.89 C234.50,426.12 234.77,427.44 236.42,428.39 C236.90,428.67 237.68,429.23 238.59,429.93 ZM 30.85 224.55 L 33.43 228.00 L 44.71 228.00 C54.09,228.00 56.00,228.25 56.00,229.50 C56.00,230.79 54.37,230.92 44.62,230.36 L 33.24 229.71 L 31.43 232.60 C31.13,233.09 30.76,233.65 30.36,234.22 C30.40,234.16 30.44,234.10 30.48,234.03 C32.76,230.42 32.94,228.04 30.85,224.55 ZM 438.24 239.13 C438.22,239.12 438.20,239.11 438.18,239.10 C437.11,238.53 435.50,236.21 434.59,233.94 L 432.95 229.83 L 421.45 230.16 C411.64,230.45 409.99,230.28 410.25,229.00 C410.51,227.76 412.36,227.55 421.13,227.82 L 431.70 228.14 L 432.23 227.50 L 434.11 232.49 C435.13,235.20 436.74,237.67 438.24,239.13 ZM 231.36 57.25 C231.70,55.19 231.98,50.89 231.99,47.69 C232.00,39.57 233.58,41.41 234.40,50.51 C234.78,54.67 235.34,58.73 235.65,59.54 C236.06,60.60 235.47,61.00 233.48,61.00 C230.87,61.00 230.77,60.82 231.36,57.25 ZM 117.00 92.09 C117.00,90.71 118.49,89.85 123.09,88.55 C126.44,87.62 129.42,87.09 129.71,87.38 C130.80,88.46 129.00,91.00 127.16,91.00 C126.11,91.00 123.39,91.66 121.13,92.46 C117.27,93.82 117.00,93.79 117.00,92.09 ZM 94.35 120.30 C92.65,119.71 94.30,114.57 96.32,114.18 C97.24,114.00 97.98,114.45 97.96,115.18 C97.90,117.41 95.57,120.73 94.35,120.30 ZM 239.00 386.00 C239.00,385.45 239.70,385.00 240.56,385.00 C241.42,385.00 241.84,385.45 241.50,386.00 C241.16,386.55 240.46,387.00 239.94,387.00 C239.42,387.00 239.00,386.55 239.00,386.00 ZM 456.96 228.77 C457.33,232.55 455.56,236.07 451.90,238.65 C455.46,236.01 457.14,232.35 456.96,228.77 ZM 223.98 12.18 C225.38,9.76 226.99,8.43 229.25,7.89 C227.19,8.64 225.38,10.11 223.98,12.18 ZM 227.52 28.00 C227.07,27.98 225.65,26.83 224.35,25.44 C224.35,25.43 224.34,25.42 224.33,25.41 C225.39,26.36 226.58,27.32 227.52,28.00 ZM 10.97 235.85 C9.98,234.78 9.46,233.85 9.21,232.55 C9.55,233.73 10.14,234.85 10.97,235.85 ZM 449.68 218.71 C451.26,219.41 452.56,220.34 453.64,221.52 C452.58,220.45 451.26,219.49 449.68,218.71 ZM 10.19 224.33 C10.73,223.25 11.44,222.26 12.32,221.38 C11.46,222.27 10.74,223.27 10.19,224.33 ZM 229.82 450.51 C231.01,450.85 232.37,451.00 234.00,451.00 L 233.96 451.00 C232.36,451.00 231.01,450.85 229.82,450.51 Z" fill="rgba(160,218,150,1)"/>
<path d="M 226.38 448.79 C220.82,444.52 219.64,440.87 222.16,435.78 C224.71,430.64 230.31,426.94 233.95,427.99 C239.52,429.58 244.07,433.31 244.70,436.80 C245.31,440.17 243.87,445.00 241.37,447.97 C239.19,450.56 238.14,451.00 234.05,451.00 C230.65,451.00 228.44,450.36 226.38,448.79 ZM 237.92 444.41 C241.66,441.27 241.85,438.21 238.55,434.65 C235.46,431.31 231.67,431.24 228.45,434.45 C225.42,437.48 225.22,442.22 228.00,445.00 C230.72,447.72 234.24,447.51 237.92,444.41 ZM 442.58 241.35 C442.27,240.54 441.66,240.09 441.23,240.36 C439.60,241.37 435.92,237.30 434.11,232.49 L 432.23 227.50 L 436.40 222.43 C438.69,219.64 441.12,217.54 441.78,217.76 C442.45,217.98 443.00,217.72 443.00,217.18 C443.00,216.63 445.11,216.95 447.74,217.89 C459.84,222.22 460.11,235.78 448.20,240.73 C443.89,242.52 443.06,242.61 442.58,241.35 ZM 450.93 234.37 C453.86,230.64 453.54,227.63 449.89,224.56 C446.29,221.53 443.72,221.82 440.25,225.64 C436.78,229.46 437.59,233.16 442.50,235.85 C445.82,237.66 448.74,237.15 450.93,234.37 ZM 16.50 240.05 C15.40,239.60 13.26,238.07 11.75,236.66 C5.78,231.09 9.43,220.31 18.06,217.98 C22.71,216.73 26.32,218.19 29.58,222.65 C32.95,227.27 33.15,229.81 30.48,234.03 C26.46,240.40 22.01,242.32 16.50,240.05 ZM 24.29 234.99 C25.70,233.88 27.15,231.59 27.52,229.91 C28.93,223.47 20.24,219.34 15.19,224.04 C12.21,226.81 12.33,231.42 15.45,234.55 C18.44,237.53 20.90,237.65 24.29,234.99 ZM 228.50 28.64 C227.40,28.01 225.21,26.26 223.63,24.77 C221.23,22.50 220.87,21.52 221.39,18.78 C222.88,10.89 228.24,6.27 234.42,7.56 C239.25,8.56 241.59,10.52 244.06,15.63 L 246.35 20.35 L 241.11 25.18 C235.65,30.20 232.62,31.03 228.50,28.64 ZM 237.75 24.37 C240.96,22.35 240.98,14.80 237.78,12.56 C233.05,9.25 226.16,11.97 225.88,17.25 C225.67,21.35 226.08,22.48 228.65,24.79 C231.33,27.19 233.43,27.10 237.75,24.37 Z" fill="rgba(184,229,238,1)"/>
</g>
</svg>